M48
;Layer_Color=9474304
;FILE_FORMAT=2:4
INCH
;TYPE=PLATED
T01F00S00C0.0079
T02F00S00C0.0080
T03F00S00C0.0197
T06F00S00C0.0420
T07F00S00C0.1260
;TYPE=NON_PLATED
T08F00S00C0.0374
%
T01
X064517Y077155
Y077648
Y078140
Y083691
Y084183
Y084675
T02
X035501Y070145
X035135Y070758
X035501Y071345
X035501Y075010
X035135Y075482
X034735Y075645
X034935Y075845
X035135Y076045
X035335Y076245
X035535Y076385
X035501Y075955
X036367
X036435Y076445
X036635
X036835
X037035
X037235
X037335Y076624
Y076945
Y077145
Y077345
Y077545
Y077766
Y077963
X037666Y076945
Y076245
X036235Y076445
X036367Y075010
X037242Y074886
X038415Y074875
X038414Y073939
X038931Y074079
X039246
X039561
X039733Y073622
X039905Y073355
X038635Y073495
X038695Y073085
X038435Y072645
X039088Y072695
X039266Y071584
X039733
X040585Y071295
X041013Y071345
X041435Y070758
X041013Y070245
X040147Y070165
X040145Y068725
X040147Y067845
X041035Y068955
X041985Y068362
Y071905
X041835Y073065
X041565
X042135Y073632
Y074012
X042905Y073105
X043338
X043771
X044204
X044627
X044637Y073795
X044885Y074022
X045490Y073105
X045936
X046369
X046435Y074960
X045835Y075495
X045706Y076822
X045886Y077062
X045546Y077092
X045611Y077399
X045386Y077602
X045145Y077763
X045152Y077986
X044646Y077612
X045266Y077202
X044854Y076578
X046128Y077962
X046462Y077973
X042993Y077783
X042726Y077788
X042047Y077904
X042006Y077602
X041466Y077642
X041417Y077904
X041102Y077991
X041102Y077776
X040787
Y078031
X040472
Y077776
X040485Y077525
X037233Y073356
X045069Y072277
X045645Y071855
X046395Y070035
X046301Y069418
X045555Y069165
X046983Y069576
X047315Y070145
X047922Y070138
X048475Y069985
X048365Y069587
X048565Y069429
X048719Y069055
X047915Y069005
X047656Y068945
X047391Y069015
X047385Y067995
X047944Y068046
X048306Y068345
X049096Y068358
X049320Y068671
X049684Y068071
X050845Y068081
X051785
Y068475
X051795Y068865
Y069085
X051200Y068671
X050845Y069262
X049735Y069222
X049182Y070411
X049195Y070795
X049096Y071902
X048011Y071035
X047613Y071020
X047025Y070794
X047135Y073632
X047825Y074215
X047545Y074964
X047612Y075294
X047441Y075633
Y075992
X047135Y076315
X047441Y076622
X047232Y076911
X047894Y076795
X049075Y076816
X048409Y078090
X047244Y077972
X046903Y075460
X046955Y074776
X050892Y075621
X051119
X051347
X051574
X051802
X052772Y075941
X052762Y076271
X053125Y076015
X053483Y076460
X053473Y076860
Y077260
X053343Y077660
X054403Y077650
Y077260
Y076850
Y076460
X054317Y075588
X054005Y074813
X055133Y075990
X054935Y077525
Y077985
X054423Y078060
X056353Y078090
Y077550
X056613Y077480
X056583Y077010
X057293Y077610
Y078083
X057779Y077928
Y077613
X058113Y077626
X058094Y077928
X058488
Y077613
X058882
Y077928
X059197
Y077613
X059695Y077455
X059513Y076460
X060023
X059853Y076040
X059333Y075990
X059103
X058893
X057893Y076050
X057663
X057683Y076280
X057883
X057232Y074547
X057220Y074183
Y073747
X057232Y073347
X056635
X056173Y073310
X055693
X055505Y071365
X055485Y071035
Y070838
Y070642
Y070445
X055540Y070246
X055545Y069655
X055055Y069852
X054674Y069813
X054162
X053650
X053139
X052627
Y070325
X053139
X053650
X054162
X054674
Y070837
X054733Y071155
Y071663
X054930
X055265Y071605
X054143Y071575
X053749
X053355
X052961
X052565Y071625
X052026Y071634
X051761Y071354
X051805Y071035
X052371Y071155
X052765
X053158
X053139Y070837
X053650
X053552Y071155
X054162Y070837
X052627
Y069301
Y068789
Y068278
X052285
X052371Y067559
X052026Y067569
X052765Y067520
X052965Y067945
X053139Y068278
X053650
X054162
X054674
Y068789
X054162
X053650
X053139
Y069301
X053650
X054162
X054674
X055015Y068475
X055595Y068365
X055605Y068085
X055550Y067761
X055265Y067500
X054940Y067490
X054733
X053739Y067480
X053552
X053355
X051682Y066811
X050265Y066791
X048729Y067677
X055535Y068671
X056652Y068396
X056662Y068041
X056485Y069655
X058445Y069475
X060509Y069380
X061085Y069665
X061804Y069583
Y069780
X061834Y070148
X062004Y070287
X061870Y070571
X061275Y070768
X060415Y070565
X060405Y070205
X059893
X059903Y070565
X060706Y068715
X061075
X061545Y068395
X061804Y068796
Y069189
X061857Y067922
X062461Y068025
X062469Y067262
X059275Y067585
X059265Y067965
X058613Y073330
Y073660
X059438Y073829
X061013
X061882Y072937
X062155Y072315
X061545Y071715
X061653Y076000
Y076240
X061333Y076250
Y076000
X061785Y077768
X061775Y078058
X060393Y077980
X057895Y073347
X053552Y072165
X052568Y072505
X052675Y073725
X052375Y074035
X050983Y076555
X050995Y077250
X050764Y078075
X062977Y077234
X063828Y077155
Y077352
X063765Y077549
Y077746
X063828Y077943
X063719Y076978
X064615Y076565
X064806Y076191
X064910Y074615
Y074380
X065145
X064910Y074145
X065355Y073275
X065325Y072560
X064955Y072565
X064638Y072937
X064417Y072139
X064635Y071555
X065407Y071370
X065435Y070375
X066310Y070374
X067005Y069985
X066985Y071624
Y072392
X067645Y072395
Y072651
X067605Y072136
Y071880
X067745Y071245
X066044Y069193
X065405Y069005
X064905Y067785
X064635Y067222
X063445Y068015
X063347Y069587
X062854
Y070079
Y070571
X063347
Y070079
X063839
Y069587
X063445Y071555
X063457Y072937
X063875Y073525
X066225Y075430
X066839Y076415
X067281Y076377
X067351Y076565
X067160Y076755
X066838Y077154
X066839Y077530
X066505Y077627
X066514Y077400
X066525Y077846
X066642Y078030
X065985Y078041
X065225Y077966
Y077746
X067461Y077632
X067335Y077435
X067465Y077234
X068261Y077140
X068265Y076941
X068265Y076742
X068255Y076475
X067695Y076465
X068828Y077067
X069022Y077171
X069235Y077225
X069445Y076781
X069469Y075385
X069465Y074385
X068965Y074013
X068265Y077920
X068391Y078116
X068261Y078317
X068265Y078510
Y078707
X068225Y078905
X067706Y078985
X067232Y079083
X067205Y078885
X067215Y078655
X067465Y078218
X066838Y078247
X066839Y078985
X066005Y078435
X064905Y078656
X064950Y078946
Y079848
X065612Y081821
X064835Y082805
X064615Y083067
X063704Y083524
X063805Y083691
Y083888
X063795Y084080
X063795Y084279
X063805Y084478
Y084675
X063795Y084872
X064615Y085299
X064555Y086531
X065051Y087223
X065408Y087485
X066825Y086845
X066805Y086475
X066918Y085445
X067233Y085364
Y085148
X066565Y085164
Y085363
X066524Y085564
X066075Y084960
X066075Y084666
X066068Y084115
Y083820
X066622Y083808
X066585Y083605
Y083406
X066605Y083163
Y082964
X066533Y082784
X066918Y082925
X067204Y083357
X067233Y083575
X067491Y083689
X067387Y083915
X067085Y084395
X066605Y084275
X066615Y084065
X066485Y084435
X066435Y083257
X067542Y083094
X068235Y083195
X068245Y083394
X068235Y083594
X068174Y083981
X068365Y084105
Y084295
X068175Y084375
X068275Y084575
X068235Y084775
Y084985
Y085182
X068223Y085381
X067705Y085445
X067491Y084674
X068690Y083605
X069017Y083775
X069455Y083595
X069445Y083967
X069182Y083315
X068269Y082978
X067528Y081417
X067935Y080835
X069255Y080495
X068788Y079990
X069022Y078203
X063828Y078140
X063765Y078337
X063857Y082055
X065215Y084281
Y084478
X062735Y086525
X062725Y087279
X063025Y090695
Y091195
X064775Y090375
X068003Y088405
X067625Y087381
X068936Y086971
X069405Y087385
X059922Y084691
X058886Y085662
X057278Y084952
X057283Y084732
X056615Y085025
X056475Y085225
X056243Y085392
X056295Y085775
X055900Y085932
X055464Y085890
X055660Y086283
X056396Y086491
X055900Y084751
X056013Y084313
X055905Y083595
X055602Y083621
X055505Y083965
X056215Y083555
X056433Y081729
X056833Y081739
X057203Y082270
X057483
X058056Y082350
X058731Y082550
Y082150
X059291
Y082550
X059976Y082350
X060475Y082435
X060463Y082250
X060763
X060765Y082435
X060643Y082720
X061619Y082726
X061542Y080881
X061142
X061533Y079870
X061773
X061801Y080105
X061815Y079555
X061765Y078418
X060393Y078180
X059663Y078560
X059653Y078800
Y079030
Y079260
X060003Y079550
X059902Y080261
X058843Y080240
X058613
Y080500
X058843Y080490
X058882Y079030
Y078715
X059197
Y078321
X058882
X058488
Y078715
Y079030
X058094
X057779
Y078715
X058094
Y078321
X057779
X057293Y078398
X057275Y078715
X056551Y079007
X056303Y078580
X056182Y079441
X055555Y079315
X055352Y079141
X055414Y079790
X055518Y080575
X055424Y080780
X056823Y080800
X056633Y080000
X056443Y080170
X056972Y079521
X057553Y079490
X057873Y079500
X054553Y078680
X053835Y078655
X053616Y078680
X052905Y078972
Y079160
X052973Y079600
X052783Y081300
X052493Y081530
X053090Y081953
X053163Y082556
X053353Y082716
X053533Y082880
X053723Y083060
X053913Y083240
X055302Y082381
X050787Y082500
X050787Y082697
X050403
X050394Y082500
X050393Y082304
X050394Y082106
X050591Y082106
X050576Y081716
X050357Y081730
X050130Y081721
X049964Y081889
X050000Y082106
Y082303
Y082500
X050017Y082695
X049597
X049606Y082500
Y082303
Y082106
X049623Y081787
X049606Y081417
X049584Y080944
X049803Y080925
X050206Y080917
X050197Y081319
X050427Y081316
X050647Y081320
X050765Y080945
X050788Y080553
X050568Y080553
X050197Y080138
Y079744
X050195Y079345
X050005Y079343
X049995Y078955
X050197Y078957
X050394Y078957
X050591
X050577Y078563
X050394Y078563
X050000Y078154
X049607
X049213Y078169
Y078366
Y078563
X049204Y078753
X048834Y078942
X048819Y079154
Y079350
X049016
X048819Y079744
Y080138
Y080532
X049069Y080455
X049396Y080531
X049616Y080532
X049606Y080138
X049803
X049626Y079742
X049606Y079354
Y079154
X049615Y078949
X048045Y078935
X048032Y079154
Y079350
X048034Y079744
X047845Y079735
X047450Y079736
X047244Y079744
X047045Y079745
X047039Y080136
X047244Y080138
X047450Y080130
X047835Y080138
X048032
X048407Y080149
X048495Y080351
X048416Y080556
X048425Y080895
X049097Y080942
X048819Y081319
X048819Y081516
X049016
X049221Y081705
X049213Y082106
Y082303
Y082500
X049213Y082697
X048819
X048485Y082706
X048425Y082494
X048435Y082294
X048815Y082215
X048783Y081787
X048424Y081751
X048032Y081516
Y081319
X047835
Y081516
X047244
Y081319
X047047
X047055Y080925
X047245Y080925
X047244Y080532
X047045Y080535
X047501Y080541
X048032Y080532
X048435Y079555
X048409Y078470
X048032Y078154
X048819
X047655Y078650
X047646Y078949
X047253
X047243Y078759
X047244Y079154
Y079350
X047047
X046889Y078147
X047242Y082106
Y082303
Y082500
X047244Y082697
X047638
X047645Y082495
X047635Y082296
X047638Y082106
Y081909
X048032Y082106
X047919Y082506
X047782Y083455
X048128Y083484
X048735Y083673
X048685Y083945
X048434Y084324
X048367Y084527
X048125Y084527
X048075Y084334
X047653Y084583
X047771Y084787
X047940Y084957
X050658Y084774
X051123Y084270
X051275Y083225
X050792Y081776
X050799Y079813
X051378Y078352
X050535Y087615
X049875Y087625
X049035Y088375
X048049Y088417
X049165Y089495
X050776Y089508
X051064Y089141
X051564Y089400
X051918Y089335
X051761Y090315
X051367
X050973
X052154Y090295
X051956Y090566
X053099Y089328
X053295Y088297
X053494
X053885Y088199
X054085
X053984Y087994
X054594Y087974
X054675Y088167
X054476
X054280Y088408
X052904Y088199
X052704
X052313Y088250
X052114
X052003Y088055
X053004Y088024
X054320Y090315
X057025Y090365
X059458Y090364
X046842Y088408
X046435Y087965
X046305Y087815
X046149Y087660
X046265Y087505
X045376Y087411
X045206Y087241
X045004Y087264
X044981Y087593
Y087792
X044994Y087984
X044480Y088415
X044475Y089335
X044280Y089505
X043887
X043493
X043296Y090318
X043690
X044084
X044674Y090325
X044477Y090585
X043690Y090735
X045668Y089316
X045651Y088602
X045534Y086784
X045350Y086871
X045195Y086715
X045025Y086875
X045924Y084547
X046145Y084045
X046379Y083945
X046652Y083671
X046744Y084594
X045596Y083992
X045599Y083591
X045598Y083242
X045935Y083265
X046055Y082605
X046457Y082697
Y082498
Y082298
Y082099
X046063Y082106
Y081702
X046262Y081713
X046654Y081713
Y081319
X046855Y081315
X046840Y080925
X046650Y080925
X046457Y080925
X046260
X046055Y080898
X046063Y080522
X046260Y080138
X046457
X046654
X046850Y080130
X046845Y079735
X046457Y079744
X046260
Y079350
X046457
X046655Y079352
X046645Y078925
X046226Y078957
X046257Y078561
X046457Y078563
Y078366
X046560Y078169
X046850Y078364
Y078563
X046063Y078172
X045346Y078188
X045028Y078260
X044778Y078230
X045146Y079025
Y079224
X045158Y079781
X045155Y079995
X045120Y080356
X045147Y080690
X045136Y080900
X045157Y081476
X045150Y081684
X045206Y082692
X045157Y082906
X045150Y083149
X045296Y083432
Y083742
X044646Y083242
X044624Y082750
X044842Y082721
X043646Y082280
X043652Y082001
X043667Y081728
X043655Y081435
X043529Y081255
X043313Y081108
X043307Y080855
X042959Y080872
X042962Y080653
X042992Y081101
X042936Y081400
X042992Y081618
X042401Y081610
X042372Y081338
X042362Y081066
X042362Y080848
Y080648
X042047Y080974
Y081206
X042040Y081742
X042005Y081975
X042040Y082254
X042352Y082408
X042677Y082382
Y082126
Y082898
X042995Y082956
X043292Y082332
X042047Y082766
X042022Y083118
X041392Y083158
X041417Y082766
X041102Y082652
X041102Y082898
X040799Y082882
X040787Y082638
Y082376
Y082126
Y081870
X041102
X041106Y082087
X041092Y082368
X041424Y082296
X041492Y081988
X041417Y081798
Y081358
X041121Y081358
X041102Y081102
Y080816
X041417Y080846
X040792Y080868
X040787Y081102
Y081358
X040482Y081348
X040472Y081102
Y080846
X040452Y080578
X040787Y080586
Y080119
X040781Y079805
X040787Y079567
Y079311
X041101Y079318
X041102Y079567
Y079823
X041417Y079828
X041499Y079321
X041415Y078949
X041585Y078675
X041416Y078401
X041091Y078569
X041102Y078799
X040787Y078543
Y078287
X041111Y078180
X040473Y078497
X040472Y078799
X040157
X040155Y078555
X040190Y078313
X039786Y078412
X039796Y078792
X039795Y079183
X039806Y079442
X039795Y079695
X039874Y079976
X040315Y080125
X040461Y079818
X040472Y079567
X040473Y079319
X040157Y079053
X042047Y078928
X042048Y079322
X042047Y079567
X042348Y079566
X042357Y079786
X042362Y079318
X042362Y079046
X042992
X042995Y079315
X042992Y079567
X042965Y079792
X042984Y080085
X043307Y079823
Y079567
X043397Y079183
X043693Y078942
X043675Y078633
X043663Y078319
X043297Y078305
X042675Y078289
X042677Y078548
X042352Y078298
X042047Y078415
X042007Y079944
X043653Y079976
X043625Y079755
X043676Y079442
X043656Y080696
X043685Y080965
X046063Y081319
X046262Y081319
X046654Y080532
X046850Y082303
Y082500
X046850Y082697
X040472Y082638
X040472Y082398
X040159Y082425
X040152Y082638
X040472Y082894
X040372Y083208
X039426Y082912
X039796Y081722
X039812Y081488
X039776Y081232
X039802Y080977
X039776Y080732
X040157Y081358
Y081614
X040142Y081858
X040472Y081618
X040276Y086969
X039830Y086812
X039805Y087598
X039154Y088092
X038846Y088075
X038905Y087186
X038684Y087174
X038839Y086315
Y085876
X038452Y086133
X036870Y088297
X039074Y090699
X040995Y089005
X041745Y088287
X042315Y088255
X037235Y078145
X037035Y078245
X036835
X036635
X036435
X036210Y078248
X035735Y078335
X035511Y078345
X035235Y078545
X035035Y078745
X034835Y078945
T03
X067858Y076256
X067848Y079186
X067858Y082713
X067848Y085643
T06
X036237Y087923
X042796
T07
X036210Y068120
X068493
Y090561
X036210
T08
X044015Y068195
X046692
M30
