G04*
G04 #@! TF.GenerationSoftware,Altium Limited,Altium Designer,22.8.2 (66)*
G04*
G04 Layer_Physical_Order=3*
G04 Layer_Color=16440176*
%FSAX25Y25*%
%MOIN*%
G70*
G04*
G04 #@! TF.SameCoordinates,F4A2C5FB-41C3-4025-BEE9-57CBDAA8531C*
G04*
G04*
G04 #@! TF.FilePolarity,Positive*
G04*
G01*
G75*
%ADD10C,0.00500*%
%ADD57C,0.00335*%
%ADD71C,0.01598*%
%ADD72C,0.00319*%
%ADD73C,0.00335*%
%ADD74C,0.00205*%
G36*
X0604787Y0880819D02*
X0607170Y0880345D01*
X0609471Y0879564D01*
X0611650Y0878489D01*
X0613671Y0877139D01*
X0615498Y0875537D01*
X0617100Y0873710D01*
X0618450Y0871690D01*
X0619524Y0869510D01*
X0620306Y0867210D01*
X0620780Y0864826D01*
X0620936Y0862444D01*
X0620927Y0862402D01*
X0620927Y0744291D01*
X0620936Y0744249D01*
X0620780Y0741867D01*
X0620306Y0739483D01*
X0619524Y0737183D01*
X0618450Y0735003D01*
X0617100Y0732983D01*
X0615498Y0731156D01*
X0613671Y0729554D01*
X0611650Y0728204D01*
X0609471Y0727129D01*
X0607170Y0726348D01*
X0604787Y0725874D01*
X0602853Y0725747D01*
X0602362Y0725726D01*
X0602362Y0725726D01*
X0601862Y0725726D01*
X0406009Y0725726D01*
X0405512Y0725726D01*
X0405021Y0725747D01*
X0403087Y0725874D01*
X0400704Y0726348D01*
X0398403Y0727129D01*
X0396224Y0728204D01*
X0394203Y0729554D01*
X0392376Y0731156D01*
X0390774Y0732983D01*
X0389424Y0735003D01*
X0388350Y0737182D01*
X0387568Y0739483D01*
X0387094Y0741867D01*
X0386968Y0743800D01*
X0386947Y0744291D01*
X0386947Y0744291D01*
X0386947Y0744791D01*
X0386947Y0861905D01*
X0386947Y0861909D01*
X0386947Y0862402D01*
X0386968Y0862893D01*
X0387094Y0864826D01*
X0387568Y0867210D01*
X0388350Y0869510D01*
X0389424Y0871690D01*
X0390774Y0873710D01*
X0392376Y0875537D01*
X0394203Y0877139D01*
X0396224Y0878489D01*
X0398403Y0879564D01*
X0400704Y0880345D01*
X0403087Y0880819D01*
X0405469Y0880975D01*
X0405512Y0880967D01*
X0602362Y0880967D01*
X0602405Y0880975D01*
X0604787Y0880819D01*
D02*
G37*
%LPC*%
G36*
X0525757Y0879104D02*
X0525041D01*
X0524403Y0878839D01*
X0523765Y0879104D01*
X0523049D01*
X0522388Y0878830D01*
X0521882Y0878324D01*
X0521608Y0877662D01*
Y0877349D01*
X0521399Y0877231D01*
X0520899Y0877524D01*
Y0877662D01*
X0520625Y0878324D01*
X0520119Y0878830D01*
X0519458Y0879104D01*
X0518742D01*
X0518104Y0878839D01*
X0517466Y0879104D01*
X0516750D01*
X0516088Y0878830D01*
X0515582Y0878324D01*
X0515309Y0877662D01*
Y0877083D01*
X0514874Y0876849D01*
X0514258Y0877104D01*
X0513542D01*
X0512881Y0876830D01*
X0512374Y0876324D01*
X0512101Y0875663D01*
Y0875129D01*
X0509826D01*
Y0875663D01*
X0509552Y0876324D01*
X0509046Y0876830D01*
X0508385Y0877104D01*
X0507669D01*
X0507205Y0876912D01*
X0506726Y0877190D01*
Y0877662D01*
X0506452Y0878324D01*
X0505946Y0878830D01*
X0505285Y0879104D01*
X0504569D01*
X0503931Y0878839D01*
X0503292Y0879104D01*
X0502577D01*
X0501915Y0878830D01*
X0501409Y0878324D01*
X0501135Y0877662D01*
Y0877083D01*
X0500701Y0876849D01*
X0500084Y0877104D01*
X0499369D01*
X0498707Y0876830D01*
X0498201Y0876324D01*
X0497927Y0875663D01*
Y0874947D01*
X0498201Y0874286D01*
X0498707Y0873779D01*
X0499250Y0873555D01*
Y0871160D01*
X0499250Y0871160D01*
X0499290Y0870963D01*
X0498951Y0870521D01*
X0498911Y0870499D01*
X0498485D01*
X0497824Y0870225D01*
X0497706Y0870108D01*
X0492326Y0875489D01*
Y0876163D01*
X0492052Y0876824D01*
X0491546Y0877330D01*
X0490884Y0877604D01*
X0490169D01*
X0489507Y0877330D01*
X0489077Y0876899D01*
X0488746Y0877230D01*
X0488085Y0877504D01*
X0487369D01*
X0486707Y0877230D01*
X0486201Y0876724D01*
X0485927Y0876062D01*
Y0875347D01*
X0486201Y0874685D01*
X0486707Y0874179D01*
X0487369Y0873905D01*
X0487443D01*
X0489682Y0871666D01*
Y0869904D01*
X0489069D01*
X0488407Y0869630D01*
X0488277Y0869499D01*
X0488146Y0869630D01*
X0487485Y0869904D01*
X0486769D01*
X0486107Y0869630D01*
X0485927Y0869449D01*
X0485746Y0869630D01*
X0485084Y0869904D01*
X0484369D01*
X0483707Y0869630D01*
X0483327Y0869249D01*
X0483046Y0869530D01*
X0482384Y0869804D01*
X0481669D01*
X0481007Y0869530D01*
X0480877Y0869399D01*
X0480746Y0869530D01*
X0480085Y0869804D01*
X0479369D01*
X0478707Y0869530D01*
X0478201Y0869024D01*
X0477927Y0868363D01*
Y0867647D01*
X0478201Y0866986D01*
X0478707Y0866479D01*
X0479171Y0866287D01*
X0479237Y0865757D01*
X0475462Y0861983D01*
X0475206Y0861599D01*
X0475116Y0861147D01*
Y0855427D01*
X0475206Y0854974D01*
X0475462Y0854591D01*
X0475874Y0854179D01*
X0475746Y0853600D01*
X0475541Y0853515D01*
X0475084Y0853704D01*
X0474369D01*
X0473707Y0853430D01*
X0473577Y0853299D01*
X0473446Y0853430D01*
X0472785Y0853704D01*
X0472069D01*
X0471407Y0853430D01*
X0471277Y0853299D01*
X0471146Y0853430D01*
X0470484Y0853704D01*
X0469769D01*
X0469107Y0853430D01*
X0468977Y0853299D01*
X0468846Y0853430D01*
X0468185Y0853704D01*
X0467469D01*
X0466807Y0853430D01*
X0466677Y0853299D01*
X0466546Y0853430D01*
X0465884Y0853704D01*
X0465169D01*
X0464507Y0853430D01*
X0464377Y0853299D01*
X0464246Y0853430D01*
X0463585Y0853704D01*
X0462869D01*
X0462207Y0853430D01*
X0462077Y0853299D01*
X0461946Y0853430D01*
X0461284Y0853704D01*
X0460569D01*
X0459907Y0853430D01*
X0459777Y0853299D01*
X0459646Y0853430D01*
X0458985Y0853704D01*
X0458269D01*
X0457607Y0853430D01*
X0457477Y0853299D01*
X0457346Y0853430D01*
X0456684Y0853704D01*
X0455969D01*
X0455307Y0853430D01*
X0455177Y0853299D01*
X0455046Y0853430D01*
X0454385Y0853704D01*
X0453669D01*
X0453007Y0853430D01*
X0452501Y0852924D01*
X0452227Y0852262D01*
Y0851547D01*
X0452501Y0850885D01*
X0452792Y0850595D01*
X0452585Y0850095D01*
X0445317D01*
Y0851212D01*
X0452467Y0858362D01*
X0452708Y0858722D01*
X0452846Y0858779D01*
X0453352Y0859286D01*
X0453626Y0859947D01*
Y0860662D01*
X0453352Y0861324D01*
X0452846Y0861830D01*
X0452184Y0862104D01*
X0451469D01*
X0450807Y0861830D01*
X0450627Y0861649D01*
X0450446Y0861830D01*
X0449785Y0862104D01*
X0449069D01*
X0448407Y0861830D01*
X0448277Y0861699D01*
X0448134Y0861842D01*
X0447473Y0862116D01*
X0446757D01*
X0446096Y0861842D01*
X0445965Y0861711D01*
X0445846Y0861830D01*
X0445185Y0862104D01*
X0444469D01*
X0443807Y0861830D01*
X0443677Y0861699D01*
X0443546Y0861830D01*
X0442884Y0862104D01*
X0442169D01*
X0441507Y0861830D01*
X0441377Y0861699D01*
X0441246Y0861830D01*
X0440585Y0862104D01*
X0439869D01*
X0439207Y0861830D01*
X0439077Y0861699D01*
X0438946Y0861830D01*
X0438284Y0862104D01*
X0437569D01*
X0436907Y0861830D01*
X0436777Y0861699D01*
X0436646Y0861830D01*
X0435985Y0862104D01*
X0435269D01*
X0434607Y0861830D01*
X0434477Y0861699D01*
X0434346Y0861830D01*
X0433684Y0862104D01*
X0432969D01*
X0432307Y0861830D01*
X0431801Y0861324D01*
X0431527Y0860662D01*
Y0859947D01*
X0431801Y0859286D01*
X0432136Y0858950D01*
Y0856905D01*
X0432227Y0856449D01*
X0432485Y0856063D01*
X0436836Y0851712D01*
Y0847405D01*
X0436927Y0846949D01*
X0437185Y0846563D01*
X0439876Y0843873D01*
X0439684Y0843410D01*
X0408161D01*
X0407706Y0843320D01*
X0407320Y0843062D01*
X0406020Y0841762D01*
X0405762Y0841376D01*
X0405671Y0840920D01*
Y0831567D01*
X0404840Y0830736D01*
X0404366D01*
X0403705Y0830462D01*
X0403199Y0829956D01*
X0402925Y0829295D01*
Y0828579D01*
X0403199Y0827918D01*
X0403459Y0827657D01*
X0403199Y0827397D01*
X0402925Y0826736D01*
Y0826148D01*
X0402856Y0826067D01*
X0402621Y0825901D01*
X0402463Y0825839D01*
X0401948Y0826053D01*
X0401232D01*
X0400570Y0825779D01*
X0400064Y0825273D01*
X0399791Y0824611D01*
Y0823896D01*
X0400064Y0823234D01*
X0400570Y0822728D01*
X0401232Y0822454D01*
X0401948D01*
X0402609Y0822728D01*
X0403115Y0823234D01*
X0403389Y0823896D01*
Y0824483D01*
X0403458Y0824564D01*
X0403693Y0824730D01*
X0403851Y0824792D01*
X0404366Y0824579D01*
X0405082D01*
X0405743Y0824853D01*
X0405972Y0825082D01*
X0406299Y0825322D01*
X0406626Y0825082D01*
X0406772Y0824935D01*
X0406863Y0824436D01*
X0406681Y0823997D01*
Y0823523D01*
X0406863Y0823084D01*
X0407153Y0822794D01*
X0407178Y0822510D01*
X0407153Y0822226D01*
X0406863Y0821935D01*
X0406681Y0821497D01*
Y0821023D01*
X0406863Y0820584D01*
X0406684Y0820055D01*
X0406520Y0819891D01*
X0406242D01*
X0405786Y0819800D01*
X0405400Y0819542D01*
X0405120Y0819262D01*
X0404862Y0818876D01*
X0404771Y0818420D01*
Y0817980D01*
X0404366D01*
X0403705Y0817706D01*
X0403457Y0817457D01*
X0403170Y0817219D01*
X0402803Y0817457D01*
X0402594Y0817667D01*
X0401932Y0817941D01*
X0401217D01*
X0400556Y0817667D01*
X0400260Y0817372D01*
X0399761Y0817578D01*
X0399487Y0818239D01*
X0398980Y0818746D01*
X0398319Y0819020D01*
X0397603D01*
X0396942Y0818746D01*
X0396436Y0818239D01*
X0396162Y0817578D01*
Y0816862D01*
X0396436Y0816201D01*
X0396942Y0815695D01*
X0397603Y0815421D01*
X0398319D01*
X0398980Y0815695D01*
X0399275Y0815990D01*
X0399775Y0815784D01*
X0400049Y0815123D01*
X0400310Y0814862D01*
X0400049Y0814602D01*
X0399775Y0813941D01*
Y0813466D01*
X0399337Y0813353D01*
X0399275Y0813351D01*
X0398780Y0813846D01*
X0398119Y0814120D01*
X0397403D01*
X0396742Y0813846D01*
X0396236Y0813340D01*
X0395962Y0812678D01*
Y0811963D01*
X0396236Y0811301D01*
X0396742Y0810795D01*
X0397403Y0810521D01*
X0398119D01*
X0398780Y0810795D01*
X0399287Y0811301D01*
X0399560Y0811963D01*
Y0812437D01*
X0399999Y0812550D01*
X0400061Y0812552D01*
X0400556Y0812057D01*
X0401217Y0811783D01*
X0401932D01*
X0402594Y0812057D01*
X0402713Y0812177D01*
X0403137Y0811893D01*
X0402925Y0811381D01*
Y0810666D01*
X0403137Y0810155D01*
X0402942Y0809751D01*
X0402844Y0809655D01*
X0400013D01*
X0399558Y0809564D01*
X0399172Y0809306D01*
X0398976Y0809110D01*
X0398883Y0808972D01*
X0398780Y0808846D01*
X0398780Y0808846D01*
X0398119Y0809120D01*
X0397403D01*
X0396742Y0808846D01*
X0396236Y0808340D01*
X0395962Y0807678D01*
Y0806962D01*
X0396236Y0806301D01*
X0396742Y0805795D01*
X0397403Y0805521D01*
X0398119D01*
X0398211Y0805559D01*
X0398627Y0805282D01*
Y0804045D01*
X0398718Y0803589D01*
X0398976Y0803203D01*
X0399172Y0803007D01*
X0399558Y0802749D01*
X0400013Y0802658D01*
X0404663D01*
X0404854Y0802197D01*
X0403920Y0801262D01*
X0403662Y0800876D01*
X0403571Y0800420D01*
Y0799620D01*
X0403199Y0799247D01*
X0402925Y0798586D01*
Y0797870D01*
X0403199Y0797209D01*
X0403459Y0796949D01*
X0403199Y0796688D01*
X0402925Y0796027D01*
Y0795311D01*
X0403199Y0794650D01*
X0403705Y0794144D01*
X0404366Y0793870D01*
X0405082D01*
X0405743Y0794144D01*
X0405863Y0794263D01*
X0406287Y0793980D01*
X0406075Y0793468D01*
Y0792752D01*
X0406349Y0792091D01*
X0406145Y0791587D01*
X0405468Y0790910D01*
X0403363D01*
X0403100Y0791547D01*
X0402594Y0792053D01*
X0401932Y0792327D01*
X0401217D01*
X0400556Y0792053D01*
X0400049Y0791547D01*
X0399775Y0790885D01*
Y0790169D01*
X0400049Y0789508D01*
X0400169Y0789389D01*
X0399951Y0789026D01*
X0399442Y0788984D01*
X0398980Y0789446D01*
X0398319Y0789720D01*
X0397603D01*
X0396942Y0789446D01*
X0396436Y0788940D01*
X0396162Y0788278D01*
Y0787563D01*
X0396436Y0786901D01*
X0396942Y0786395D01*
X0397143Y0786312D01*
Y0785771D01*
X0396842Y0785646D01*
X0396336Y0785140D01*
X0396062Y0784478D01*
Y0783763D01*
X0396336Y0783101D01*
X0396842Y0782595D01*
X0397503Y0782321D01*
X0398219D01*
X0398880Y0782595D01*
X0399387Y0783101D01*
X0399660Y0783763D01*
Y0784478D01*
X0399387Y0785140D01*
X0398880Y0785646D01*
X0398679Y0785729D01*
Y0786270D01*
X0398980Y0786395D01*
X0399487Y0786901D01*
X0399512Y0786963D01*
X0400049Y0786973D01*
X0400556Y0786467D01*
X0401217Y0786193D01*
X0401706D01*
X0402320Y0785579D01*
X0402706Y0785321D01*
X0403161Y0785230D01*
X0406161D01*
X0406181Y0785234D01*
X0406672Y0785196D01*
X0406808Y0784888D01*
X0406863Y0784757D01*
X0407198Y0784422D01*
Y0783885D01*
X0406863Y0783550D01*
X0406681Y0783111D01*
Y0782637D01*
X0406863Y0782198D01*
X0406684Y0781670D01*
X0406626Y0781611D01*
X0406299Y0781370D01*
X0405972Y0781611D01*
X0405743Y0781840D01*
X0405082Y0782114D01*
X0404366D01*
X0403705Y0781840D01*
X0403199Y0781334D01*
X0402925Y0780673D01*
Y0779957D01*
X0403199Y0779296D01*
X0403459Y0779035D01*
X0403199Y0778775D01*
X0402925Y0778114D01*
Y0777398D01*
X0403199Y0776737D01*
X0403705Y0776230D01*
X0404366Y0775957D01*
X0404840D01*
X0405671Y0775126D01*
Y0763120D01*
X0405762Y0762665D01*
X0406020Y0762279D01*
X0409120Y0759179D01*
X0409506Y0758921D01*
X0409961Y0758830D01*
X0456561D01*
X0457017Y0758921D01*
X0457403Y0759179D01*
X0459703Y0761479D01*
X0459961Y0761865D01*
X0460051Y0762320D01*
Y0769266D01*
X0460387Y0769601D01*
X0460661Y0770262D01*
Y0770978D01*
X0460387Y0771639D01*
X0459880Y0772146D01*
X0459219Y0772420D01*
X0458503D01*
X0457842Y0772146D01*
X0457559Y0771863D01*
X0456987Y0771940D01*
X0456985Y0771942D01*
X0456480Y0772446D01*
X0455819Y0772720D01*
X0455103D01*
X0454896Y0772634D01*
X0454244Y0772901D01*
X0454187Y0773039D01*
X0453680Y0773546D01*
X0453827Y0774014D01*
X0454003Y0774221D01*
X0454219D01*
X0454880Y0774495D01*
X0455387Y0775001D01*
X0455660Y0775663D01*
Y0776378D01*
X0455387Y0777039D01*
X0454880Y0777546D01*
X0454219Y0777820D01*
X0453503D01*
X0453142Y0777670D01*
X0452854Y0777785D01*
X0452604Y0777961D01*
X0452461Y0778308D01*
X0452385Y0778383D01*
X0452222Y0778789D01*
X0452387Y0779035D01*
X0452534Y0779183D01*
X0452716Y0779621D01*
Y0779698D01*
X0453103Y0780079D01*
X0453819D01*
X0454480Y0780352D01*
X0454987Y0780859D01*
X0455082Y0781089D01*
X0455339Y0781132D01*
X0455638Y0781124D01*
X0455784Y0780978D01*
X0456213Y0780800D01*
X0458213D01*
X0458643Y0780978D01*
X0458665Y0781001D01*
X0459635D01*
X0459954Y0780682D01*
X0460393Y0780500D01*
X0460867D01*
X0461236Y0780253D01*
Y0772105D01*
Y0749198D01*
X0460785Y0748746D01*
X0460527Y0748360D01*
X0460436Y0747905D01*
Y0731705D01*
X0460527Y0731249D01*
X0460785Y0730863D01*
X0461211Y0730437D01*
X0461597Y0730179D01*
X0462053Y0730089D01*
X0467172D01*
X0467507Y0729753D01*
X0468169Y0729479D01*
X0468885D01*
X0469546Y0729753D01*
X0469775Y0729982D01*
X0470101Y0730223D01*
X0470428Y0729982D01*
X0470657Y0729753D01*
X0471318Y0729479D01*
X0471429D01*
Y0728921D01*
X0471703Y0728260D01*
X0472209Y0727753D01*
X0472870Y0727479D01*
X0473586D01*
X0474248Y0727753D01*
X0474509Y0728015D01*
X0478927D01*
X0479382Y0728105D01*
X0479768Y0728363D01*
X0480468Y0729063D01*
X0480726Y0729449D01*
X0480817Y0729905D01*
Y0729919D01*
X0481023Y0730089D01*
X0484471D01*
X0484806Y0729753D01*
X0485467Y0729479D01*
X0485627D01*
Y0728947D01*
X0485901Y0728286D01*
X0486407Y0727779D01*
X0487069Y0727505D01*
X0487784D01*
X0488446Y0727779D01*
X0488675Y0728008D01*
X0489001Y0728249D01*
X0489328Y0728008D01*
X0489557Y0727779D01*
X0490218Y0727505D01*
X0490934D01*
X0491595Y0727779D01*
X0491824Y0728008D01*
X0492151Y0728249D01*
X0492478Y0728008D01*
X0492707Y0727779D01*
X0493368Y0727505D01*
X0494084D01*
X0494745Y0727779D01*
X0494974Y0728008D01*
X0495301Y0728249D01*
X0495627Y0728008D01*
X0495856Y0727779D01*
X0496518Y0727505D01*
X0497233D01*
X0497895Y0727779D01*
X0498124Y0728008D01*
X0498450Y0728249D01*
X0498777Y0728008D01*
X0499006Y0727779D01*
X0499667Y0727505D01*
X0500383D01*
X0501044Y0727779D01*
X0501273Y0728008D01*
X0501600Y0728249D01*
X0501927Y0728008D01*
X0502155Y0727779D01*
X0502817Y0727505D01*
X0503533D01*
X0504194Y0727779D01*
X0504423Y0728008D01*
X0504749Y0728249D01*
X0505076Y0728008D01*
X0505305Y0727779D01*
X0505966Y0727505D01*
X0506682D01*
X0507343Y0727779D01*
X0507572Y0728008D01*
X0507899Y0728249D01*
X0508226Y0728008D01*
X0508455Y0727779D01*
X0509116Y0727505D01*
X0509832D01*
X0510493Y0727779D01*
X0510999Y0728286D01*
X0511273Y0728947D01*
Y0729479D01*
X0511380D01*
X0512041Y0729753D01*
X0512104Y0729817D01*
X0512788Y0729793D01*
X0512998Y0729583D01*
X0513659Y0729309D01*
X0513839D01*
Y0729150D01*
X0514113Y0728489D01*
X0514619Y0727983D01*
X0515280Y0727709D01*
X0515996D01*
X0516658Y0727983D01*
X0517005Y0728329D01*
X0517451Y0727882D01*
X0518113Y0727609D01*
X0518829D01*
X0519490Y0727882D01*
X0519996Y0728389D01*
X0520270Y0729050D01*
Y0729766D01*
X0519996Y0730427D01*
X0519490Y0730933D01*
X0518966Y0731150D01*
Y0731466D01*
X0518692Y0732127D01*
X0518357Y0732462D01*
Y0733758D01*
X0518266Y0734214D01*
X0518008Y0734600D01*
X0514007Y0738601D01*
Y0743208D01*
X0513917Y0743663D01*
X0513659Y0744049D01*
X0510359Y0747349D01*
X0510444Y0747894D01*
X0510470Y0747905D01*
X0510976Y0748411D01*
X0511250Y0749072D01*
Y0749788D01*
X0511089Y0750175D01*
X0511352Y0750718D01*
X0511362Y0750725D01*
X0511482Y0750749D01*
X0511574Y0750810D01*
X0512043Y0751005D01*
X0512549Y0751511D01*
X0512823Y0752172D01*
Y0752888D01*
X0512549Y0753549D01*
X0512207Y0753891D01*
Y0753908D01*
X0512126Y0754316D01*
X0512249Y0754456D01*
X0512527Y0754650D01*
X0513109Y0754409D01*
X0513825D01*
X0514486Y0754682D01*
X0514605Y0754801D01*
X0514723Y0754682D01*
X0515384Y0754409D01*
X0516100D01*
X0516761Y0754682D01*
X0516880Y0754801D01*
X0516998Y0754682D01*
X0517659Y0754409D01*
X0518375D01*
X0519036Y0754682D01*
X0519543Y0755189D01*
X0519816Y0755850D01*
Y0756566D01*
X0519543Y0757227D01*
X0519036Y0757733D01*
X0518375Y0758007D01*
X0517659D01*
X0516998Y0757733D01*
X0516880Y0757615D01*
X0516761Y0757733D01*
X0516100Y0758007D01*
X0515384D01*
X0514723Y0757733D01*
X0514605Y0757615D01*
X0514486Y0757733D01*
X0513825Y0758007D01*
X0513109D01*
X0512448Y0757733D01*
X0512330Y0757615D01*
X0512211Y0757733D01*
X0511550Y0758007D01*
X0510834D01*
X0510173Y0757733D01*
X0510055Y0757615D01*
X0509936Y0757733D01*
X0509275Y0758007D01*
X0509100Y0758507D01*
X0525068Y0774476D01*
X0525326Y0774862D01*
X0525417Y0775317D01*
Y0792905D01*
X0525326Y0793360D01*
X0525068Y0793746D01*
X0520800Y0798014D01*
X0521007Y0798515D01*
X0529027D01*
Y0797847D01*
X0529093Y0797689D01*
X0528707Y0797530D01*
X0528201Y0797024D01*
X0527927Y0796362D01*
Y0795647D01*
X0528201Y0794985D01*
X0528707Y0794479D01*
X0529369Y0794205D01*
X0530085D01*
X0530746Y0794479D01*
X0531252Y0794985D01*
X0531526Y0795647D01*
Y0796362D01*
X0531461Y0796520D01*
X0531846Y0796679D01*
X0532352Y0797186D01*
X0532626Y0797847D01*
Y0798562D01*
X0532352Y0799224D01*
X0532004Y0799571D01*
X0531926Y0799964D01*
X0531668Y0800350D01*
X0531472Y0800546D01*
X0531086Y0800804D01*
X0530631Y0800895D01*
X0507263D01*
X0507098Y0801141D01*
Y0801615D01*
X0506917Y0802054D01*
X0506581Y0802389D01*
X0506143Y0802571D01*
X0505668D01*
X0505230Y0802389D01*
X0504921Y0802081D01*
X0504639Y0802363D01*
X0504201Y0802545D01*
X0503726D01*
X0503288Y0802363D01*
X0502979Y0802054D01*
X0502644Y0802389D01*
X0502206Y0802571D01*
X0501731D01*
X0501293Y0802389D01*
X0500957Y0802054D01*
X0500776Y0801615D01*
Y0801141D01*
X0500957Y0800702D01*
X0501293Y0800367D01*
X0501731Y0800185D01*
X0502206D01*
X0502644Y0800367D01*
X0502953Y0800675D01*
X0503288Y0800340D01*
X0503726Y0800159D01*
X0504201D01*
X0504639Y0800340D01*
X0504919Y0800620D01*
X0505302Y0800296D01*
Y0800273D01*
X0505368Y0800113D01*
X0505287Y0799705D01*
X0505377Y0799249D01*
X0505480Y0799096D01*
X0505351Y0798521D01*
X0505327Y0798493D01*
X0505230Y0798452D01*
X0504921Y0798144D01*
X0504613Y0798452D01*
X0504174Y0798634D01*
X0503700D01*
X0503261Y0798452D01*
X0502953Y0798144D01*
X0502644Y0798452D01*
X0502206Y0798634D01*
X0501731D01*
X0501293Y0798452D01*
X0500957Y0798117D01*
X0500776Y0797678D01*
Y0797204D01*
X0500957Y0796765D01*
X0501293Y0796430D01*
X0501731Y0796248D01*
X0502206D01*
X0502587Y0796406D01*
X0502807Y0796301D01*
X0503039Y0796117D01*
X0503036Y0796105D01*
X0503127Y0795649D01*
X0503385Y0795263D01*
X0503541Y0795159D01*
X0503473Y0794603D01*
X0503261Y0794515D01*
X0502953Y0794207D01*
X0502644Y0794515D01*
X0502206Y0794697D01*
X0501731D01*
X0501293Y0794515D01*
X0500957Y0794180D01*
X0500776Y0793741D01*
Y0793267D01*
X0500957Y0792828D01*
X0501293Y0792493D01*
X0501731Y0792311D01*
X0502206D01*
X0502578Y0792465D01*
X0502846Y0792334D01*
X0503041Y0792182D01*
X0503127Y0791749D01*
X0503385Y0791363D01*
X0503596Y0791222D01*
X0503518Y0790685D01*
X0503261Y0790578D01*
X0502953Y0790270D01*
X0502644Y0790578D01*
X0502206Y0790760D01*
X0501731D01*
X0501293Y0790578D01*
X0500957Y0790243D01*
X0500776Y0789804D01*
Y0789330D01*
X0500957Y0788891D01*
X0501293Y0788556D01*
X0501731Y0788374D01*
X0502206D01*
X0502644Y0788556D01*
X0502953Y0788864D01*
X0503261Y0788556D01*
X0503330Y0788527D01*
Y0787794D01*
X0503508Y0787365D01*
X0503704Y0787169D01*
X0504133Y0786991D01*
X0504873D01*
X0505080Y0786491D01*
X0504894Y0786306D01*
X0504713Y0785867D01*
Y0785393D01*
X0504715Y0785386D01*
Y0768118D01*
X0499276Y0762678D01*
X0499018Y0762292D01*
X0498927Y0761836D01*
Y0751194D01*
X0498427Y0750987D01*
X0496217Y0753198D01*
Y0786605D01*
X0496126Y0787060D01*
X0495868Y0787446D01*
X0495482Y0787704D01*
X0495027Y0787795D01*
X0494750Y0787740D01*
X0494362Y0788128D01*
X0493933Y0788306D01*
X0493106D01*
X0492802Y0788610D01*
X0492363Y0788791D01*
X0491889D01*
X0491450Y0788610D01*
X0491115Y0788274D01*
X0491022Y0788050D01*
X0490476Y0787920D01*
X0490469Y0787921D01*
X0490362Y0788028D01*
X0489933Y0788206D01*
X0489241D01*
X0489222Y0788252D01*
X0488886Y0788588D01*
X0488448Y0788770D01*
X0487973D01*
X0487535Y0788588D01*
X0487199Y0788252D01*
X0487089Y0787987D01*
X0486580Y0787910D01*
X0486462Y0788028D01*
X0486033Y0788206D01*
X0485292D01*
X0485263Y0788274D01*
X0484928Y0788610D01*
X0484489Y0788791D01*
X0484015D01*
X0483576Y0788610D01*
X0483241Y0788274D01*
X0483059Y0787836D01*
Y0787361D01*
X0483241Y0786923D01*
X0483576Y0786587D01*
X0484015Y0786406D01*
X0484489D01*
X0484928Y0786587D01*
X0485263Y0786923D01*
X0485336Y0786945D01*
X0485736Y0786668D01*
Y0772105D01*
Y0750198D01*
X0481785Y0746246D01*
X0481527Y0745860D01*
X0481436Y0745405D01*
Y0745204D01*
X0480756D01*
X0480095Y0744930D01*
X0479640Y0744475D01*
X0477517Y0746598D01*
Y0749805D01*
X0477426Y0750260D01*
X0477168Y0750646D01*
X0477031Y0750784D01*
X0477128Y0751274D01*
X0477141Y0751279D01*
X0477647Y0751786D01*
X0477921Y0752447D01*
Y0753162D01*
X0477647Y0753824D01*
X0477141Y0754330D01*
X0476479Y0754604D01*
X0475764D01*
X0475552Y0754746D01*
Y0755427D01*
X0476303Y0756179D01*
X0476561Y0756565D01*
X0476651Y0757020D01*
Y0758220D01*
X0476561Y0758676D01*
X0476303Y0759062D01*
X0474202Y0761162D01*
X0474300Y0761653D01*
X0474403Y0761695D01*
X0474909Y0762201D01*
X0475182Y0762862D01*
Y0763578D01*
X0474909Y0764240D01*
X0474693Y0764455D01*
X0474413Y0764759D01*
X0474693Y0765108D01*
X0474887Y0765301D01*
X0475161Y0765963D01*
Y0766678D01*
X0474887Y0767340D01*
X0474380Y0767846D01*
X0474290Y0767883D01*
X0474027Y0768533D01*
X0474116Y0768750D01*
Y0769466D01*
X0473842Y0770127D01*
X0473662Y0770308D01*
X0473842Y0770489D01*
X0474116Y0771150D01*
Y0771866D01*
X0473842Y0772527D01*
X0473507Y0772862D01*
Y0787068D01*
X0473623Y0787348D01*
Y0787823D01*
X0473442Y0788261D01*
X0473106Y0788597D01*
X0472668Y0788778D01*
X0472193D01*
X0471755Y0788597D01*
X0471419Y0788261D01*
X0471384Y0788177D01*
X0471218Y0787928D01*
X0471127Y0787472D01*
Y0772862D01*
X0470792Y0772527D01*
X0470518Y0771866D01*
Y0771150D01*
X0470792Y0770489D01*
X0470973Y0770308D01*
X0470792Y0770127D01*
X0470518Y0769466D01*
Y0768750D01*
X0470792Y0768089D01*
X0471298Y0767583D01*
X0471388Y0767545D01*
X0471652Y0766895D01*
X0471562Y0766678D01*
Y0765963D01*
X0471836Y0765301D01*
X0472051Y0765086D01*
X0472331Y0764782D01*
X0472051Y0764433D01*
X0471858Y0764240D01*
X0471816Y0764137D01*
X0471325Y0764040D01*
X0469694Y0765671D01*
Y0781449D01*
X0469697Y0781456D01*
Y0781930D01*
X0469515Y0782369D01*
X0469207Y0782677D01*
X0469515Y0782986D01*
X0469697Y0783424D01*
Y0783899D01*
X0469515Y0784337D01*
X0469207Y0784646D01*
X0469515Y0784954D01*
X0469697Y0785393D01*
Y0785867D01*
X0469515Y0786306D01*
X0469591Y0786874D01*
X0469768Y0787304D01*
Y0791963D01*
X0470235Y0792311D01*
X0470710D01*
X0470994Y0792429D01*
X0471366Y0792057D01*
X0471248Y0791773D01*
Y0791298D01*
X0471430Y0790860D01*
X0471765Y0790524D01*
X0472204Y0790343D01*
X0472678D01*
X0473117Y0790524D01*
X0473452Y0790860D01*
X0473634Y0791298D01*
Y0791773D01*
X0473452Y0792211D01*
X0473144Y0792520D01*
X0473452Y0792828D01*
X0473634Y0793267D01*
Y0793741D01*
X0473452Y0794180D01*
X0473117Y0794515D01*
X0472678Y0794697D01*
X0472204D01*
X0471765Y0794515D01*
X0471457Y0794207D01*
X0471148Y0794515D01*
X0470710Y0794697D01*
X0470235D01*
X0470226Y0794697D01*
X0469654Y0794997D01*
X0469591Y0795150D01*
X0469091Y0795650D01*
X0468661Y0795828D01*
X0465096D01*
X0464996Y0796328D01*
X0465243Y0796430D01*
X0465503Y0796690D01*
X0466839D01*
X0467268Y0796868D01*
X0467591Y0797191D01*
X0467768Y0797620D01*
Y0798920D01*
X0467591Y0799350D01*
X0467291Y0799650D01*
X0467039Y0799754D01*
X0467025Y0800290D01*
X0467211Y0800367D01*
X0467547Y0800702D01*
X0467728Y0801141D01*
Y0801615D01*
X0467693Y0801700D01*
X0468027Y0802201D01*
X0468981D01*
X0469315Y0801700D01*
X0469279Y0801615D01*
Y0801141D01*
X0469461Y0800702D01*
X0469797Y0800367D01*
X0470235Y0800185D01*
X0470710D01*
X0471148Y0800367D01*
X0471457Y0800675D01*
X0471765Y0800367D01*
X0472204Y0800185D01*
X0472678D01*
X0473117Y0800367D01*
X0473452Y0800702D01*
X0473634Y0801141D01*
Y0801615D01*
X0473452Y0802054D01*
X0473117Y0802389D01*
X0472922Y0802470D01*
X0472624Y0803004D01*
Y0803712D01*
X0472938Y0804230D01*
X0473117Y0804304D01*
X0473452Y0804639D01*
X0473634Y0805078D01*
Y0805552D01*
X0473452Y0805991D01*
X0473117Y0806326D01*
X0472678Y0806508D01*
X0472204D01*
X0471765Y0806326D01*
X0471457Y0806018D01*
X0471148Y0806326D01*
X0470710Y0806508D01*
X0470235D01*
X0469797Y0806326D01*
X0469461Y0805991D01*
X0469279Y0805552D01*
Y0805078D01*
X0469306Y0805015D01*
X0468971Y0804515D01*
X0468037D01*
X0467702Y0805015D01*
X0467728Y0805078D01*
Y0805552D01*
X0467547Y0805991D01*
X0467211Y0806326D01*
X0466773Y0806508D01*
X0466298D01*
X0465860Y0806326D01*
X0465524Y0805991D01*
X0465343Y0805552D01*
Y0805078D01*
X0465369Y0805015D01*
X0465034Y0804515D01*
X0459266D01*
X0458949Y0804902D01*
X0458953Y0804922D01*
X0458898Y0805198D01*
X0459713Y0806013D01*
X0463961D01*
X0464391Y0806191D01*
X0464891Y0806691D01*
X0465068Y0807120D01*
Y0808169D01*
X0465243Y0808241D01*
X0465551Y0808549D01*
X0465860Y0808241D01*
X0466298Y0808059D01*
X0466773D01*
X0467211Y0808241D01*
X0467547Y0808576D01*
X0467728Y0809015D01*
Y0809489D01*
X0467547Y0809928D01*
X0467211Y0810263D01*
X0467191Y0810271D01*
Y0810396D01*
X0467013Y0810825D01*
X0466817Y0811021D01*
X0466388Y0811199D01*
X0466133Y0811510D01*
X0466138Y0811534D01*
X0466174Y0811636D01*
X0466590Y0811996D01*
X0466773D01*
X0467211Y0812178D01*
X0467547Y0812513D01*
X0467728Y0812952D01*
Y0813426D01*
X0467700Y0813495D01*
X0468858Y0814653D01*
X0469036Y0815082D01*
Y0815496D01*
X0468858Y0815926D01*
X0468821Y0815962D01*
X0468810Y0816159D01*
X0468850Y0816532D01*
X0468868Y0816569D01*
X0469091Y0816791D01*
X0469269Y0817220D01*
Y0818320D01*
X0469091Y0818750D01*
X0468691Y0819150D01*
X0468261Y0819328D01*
X0462781D01*
X0462589Y0819790D01*
X0463065Y0820266D01*
X0463556Y0820387D01*
X0463891Y0820052D01*
X0464330Y0819870D01*
X0464804D01*
X0465243Y0820052D01*
X0465578Y0820387D01*
X0465760Y0820826D01*
Y0821300D01*
X0465578Y0821739D01*
X0465270Y0822047D01*
X0465578Y0822356D01*
X0465626Y0822470D01*
X0466151Y0822557D01*
X0467339Y0821369D01*
X0467311Y0821300D01*
Y0820826D01*
X0467493Y0820387D01*
X0467828Y0820052D01*
X0468267Y0819870D01*
X0468741D01*
X0469180Y0820052D01*
X0469515Y0820387D01*
X0469581Y0820546D01*
X0470069Y0820608D01*
X0471262Y0819415D01*
X0471228Y0819332D01*
Y0818857D01*
X0471409Y0818419D01*
X0471745Y0818083D01*
X0472183Y0817902D01*
X0472534D01*
X0472599Y0817577D01*
X0472857Y0817191D01*
X0473243Y0816933D01*
X0473698Y0816843D01*
X0474049Y0816912D01*
X0474327Y0816797D01*
X0477882D01*
X0477981Y0816297D01*
X0477671Y0816169D01*
X0477335Y0815833D01*
X0477153Y0815395D01*
Y0814920D01*
X0477335Y0814482D01*
X0477644Y0814173D01*
X0477335Y0813865D01*
X0477153Y0813426D01*
Y0812952D01*
X0477335Y0812513D01*
X0477671Y0812178D01*
X0478109Y0811996D01*
X0478584D01*
X0479022Y0812178D01*
X0479331Y0812486D01*
X0479639Y0812178D01*
X0480078Y0811996D01*
X0480552D01*
X0480991Y0812178D01*
X0481326Y0812513D01*
X0481508Y0812952D01*
Y0813426D01*
X0481326Y0813865D01*
X0481018Y0814173D01*
X0481326Y0814482D01*
X0481508Y0814920D01*
Y0815395D01*
X0481326Y0815833D01*
X0480991Y0816169D01*
X0480552Y0816350D01*
X0480078D01*
X0479639Y0816169D01*
X0479331Y0815860D01*
X0479022Y0816169D01*
X0478712Y0816297D01*
X0478811Y0816797D01*
X0479827D01*
X0480256Y0816975D01*
X0480744Y0817464D01*
X0480922Y0817893D01*
Y0818055D01*
X0480991Y0818083D01*
X0481326Y0818419D01*
X0481418Y0818641D01*
X0481970Y0818796D01*
X0482101Y0818665D01*
X0482530Y0818487D01*
X0483212D01*
X0483241Y0818419D01*
X0483576Y0818083D01*
X0484015Y0817902D01*
X0484489D01*
X0484928Y0818083D01*
X0485263Y0818419D01*
X0485445Y0818857D01*
Y0819332D01*
X0485263Y0819770D01*
X0485066Y0819968D01*
X0485263Y0820387D01*
X0485264Y0820389D01*
X0485296Y0820437D01*
X0485873Y0820552D01*
X0487024Y0819400D01*
X0486996Y0819332D01*
Y0818857D01*
X0487178Y0818419D01*
X0487513Y0818083D01*
X0487952Y0817902D01*
X0488426D01*
X0488865Y0818083D01*
X0489200Y0818419D01*
X0489243Y0818521D01*
X0489406Y0818570D01*
X0489861Y0818480D01*
X0490262Y0818559D01*
X0490437Y0818487D01*
X0491500D01*
X0491677Y0818310D01*
X0492115Y0818128D01*
X0492590D01*
X0493028Y0818310D01*
X0493364Y0818645D01*
X0493897Y0818676D01*
X0493907Y0818665D01*
X0494337Y0818487D01*
X0495023D01*
X0495052Y0818419D01*
X0495387Y0818083D01*
X0495826Y0817902D01*
X0496300D01*
X0496739Y0818083D01*
X0497074Y0818419D01*
X0497203Y0818729D01*
X0497637Y0818835D01*
X0497744Y0818828D01*
X0497907Y0818665D01*
X0498337Y0818487D01*
X0498960D01*
X0498989Y0818419D01*
X0499324Y0818083D01*
X0499763Y0817902D01*
X0500237D01*
X0500676Y0818083D01*
X0501011Y0818419D01*
X0501193Y0818857D01*
Y0819332D01*
X0501164Y0819401D01*
X0501588Y0819685D01*
X0502197Y0819075D01*
X0502627Y0818897D01*
X0503242D01*
X0503579Y0818397D01*
X0503523Y0818246D01*
X0503261Y0818137D01*
X0502926Y0817802D01*
X0502744Y0817363D01*
Y0816889D01*
X0502535Y0816575D01*
X0502269D01*
X0501813Y0816485D01*
X0501427Y0816227D01*
X0501169Y0815841D01*
X0501078Y0815385D01*
X0501169Y0814930D01*
X0501329Y0814691D01*
X0501293Y0814200D01*
X0500957Y0813865D01*
X0500776Y0813426D01*
Y0812952D01*
X0500957Y0812513D01*
X0501293Y0812178D01*
X0501731Y0811996D01*
X0502206D01*
X0502644Y0812178D01*
X0502953Y0812486D01*
X0503261Y0812178D01*
X0503700Y0811996D01*
X0504174D01*
X0504613Y0812178D01*
X0504921Y0812486D01*
X0505230Y0812178D01*
X0505668Y0811996D01*
X0506143D01*
X0506192Y0812016D01*
X0519432D01*
X0522982Y0808466D01*
X0523368Y0808208D01*
X0523823Y0808118D01*
X0532730D01*
X0533136Y0807712D01*
Y0782198D01*
X0530785Y0779846D01*
X0530527Y0779460D01*
X0530436Y0779005D01*
Y0774805D01*
X0530527Y0774349D01*
X0530785Y0773963D01*
X0531285Y0773463D01*
X0531671Y0773205D01*
X0532127Y0773114D01*
X0532826D01*
X0532927Y0772963D01*
Y0772247D01*
X0533201Y0771586D01*
X0533707Y0771079D01*
X0534223Y0770866D01*
Y0770343D01*
X0533707Y0770130D01*
X0533201Y0769624D01*
X0532927Y0768962D01*
Y0768247D01*
X0533201Y0767586D01*
X0533707Y0767079D01*
X0534250Y0766854D01*
X0534312Y0766419D01*
X0534300Y0766334D01*
X0533807Y0766130D01*
X0533301Y0765624D01*
X0533027Y0764962D01*
Y0764247D01*
X0533301Y0763586D01*
X0533807Y0763079D01*
X0534469Y0762805D01*
X0535184D01*
X0535846Y0763079D01*
X0536352Y0763586D01*
X0536626Y0764247D01*
Y0764962D01*
X0536352Y0765624D01*
X0535846Y0766130D01*
X0535303Y0766355D01*
X0535241Y0766791D01*
X0535253Y0766875D01*
X0535746Y0767079D01*
X0536252Y0767586D01*
X0536526Y0768247D01*
Y0768962D01*
X0536252Y0769624D01*
X0535746Y0770130D01*
X0535230Y0770343D01*
Y0770866D01*
X0535746Y0771079D01*
X0536252Y0771586D01*
X0536526Y0772247D01*
Y0772963D01*
X0536627Y0773114D01*
X0540327D01*
X0540782Y0773205D01*
X0541168Y0773463D01*
X0541668Y0773963D01*
X0541926Y0774349D01*
X0542017Y0774805D01*
Y0775349D01*
X0542434Y0775466D01*
X0542517Y0775470D01*
X0543007Y0774979D01*
X0543379Y0774825D01*
Y0774284D01*
X0543007Y0774130D01*
X0542501Y0773624D01*
X0542227Y0772963D01*
Y0772247D01*
X0542501Y0771586D01*
X0543007Y0771079D01*
X0543669Y0770805D01*
X0544384D01*
X0545046Y0771079D01*
X0545327Y0771361D01*
X0563885D01*
X0564192Y0770861D01*
X0564027Y0770463D01*
Y0769779D01*
X0545297D01*
X0545046Y0770030D01*
X0544384Y0770304D01*
X0543669D01*
X0543007Y0770030D01*
X0542501Y0769524D01*
X0542227Y0768862D01*
Y0768147D01*
X0542501Y0767486D01*
X0543007Y0766979D01*
X0543379Y0766825D01*
Y0766284D01*
X0543007Y0766130D01*
X0542501Y0765624D01*
X0542227Y0764962D01*
Y0764247D01*
X0542501Y0763586D01*
X0543007Y0763079D01*
X0543669Y0762805D01*
X0544384D01*
X0545046Y0763079D01*
X0545552Y0763586D01*
X0545826Y0764247D01*
Y0764702D01*
X0546055Y0764930D01*
X0551196D01*
X0551388Y0764468D01*
X0550425Y0763506D01*
X0550149Y0763092D01*
X0550052Y0762605D01*
Y0761175D01*
X0549801Y0760924D01*
X0549527Y0760262D01*
Y0759547D01*
X0549801Y0758885D01*
X0550307Y0758379D01*
X0550969Y0758105D01*
X0551685D01*
X0552346Y0758379D01*
X0552852Y0758885D01*
X0553126Y0759547D01*
Y0760262D01*
X0552852Y0760924D01*
X0552601Y0761175D01*
Y0762077D01*
X0553855Y0763330D01*
X0574915D01*
X0575027Y0763163D01*
Y0762447D01*
X0575301Y0761786D01*
X0575332Y0761755D01*
X0575101Y0761524D01*
X0574827Y0760862D01*
Y0760147D01*
X0575101Y0759485D01*
X0575607Y0758979D01*
X0576269Y0758705D01*
X0576985D01*
X0577646Y0758979D01*
X0577777Y0759110D01*
X0577907Y0758979D01*
X0578569Y0758705D01*
X0579284D01*
X0579946Y0758979D01*
X0580452Y0759485D01*
X0580726Y0760147D01*
Y0760862D01*
X0580452Y0761524D01*
X0580271Y0761705D01*
X0580352Y0761786D01*
X0580626Y0762447D01*
Y0763163D01*
X0580738Y0763330D01*
X0593857D01*
X0594107Y0763079D01*
X0594769Y0762805D01*
X0595484D01*
X0596146Y0763079D01*
X0596652Y0763586D01*
X0596926Y0764247D01*
Y0764930D01*
X0598427D01*
Y0764247D01*
X0598701Y0763586D01*
X0599207Y0763079D01*
X0599869Y0762805D01*
X0600585D01*
X0601246Y0763079D01*
X0601752Y0763586D01*
X0602026Y0764247D01*
Y0764962D01*
X0601752Y0765624D01*
X0601246Y0766130D01*
X0601194Y0766301D01*
X0601204Y0766317D01*
X0601301Y0766805D01*
Y0794235D01*
X0601552Y0794486D01*
X0601826Y0795147D01*
Y0795862D01*
X0601552Y0796524D01*
X0601046Y0797030D01*
X0600385Y0797304D01*
X0599669D01*
X0599007Y0797030D01*
X0598501Y0796524D01*
X0598227Y0795862D01*
Y0795147D01*
X0598467Y0794569D01*
X0598405Y0794373D01*
X0598385Y0794337D01*
X0598190Y0794089D01*
X0597586D01*
X0597546Y0794130D01*
X0596884Y0794404D01*
X0596169D01*
X0595507Y0794130D01*
X0595001Y0793624D01*
X0594727Y0792963D01*
Y0792247D01*
X0595001Y0791585D01*
X0595132Y0791455D01*
X0595001Y0791324D01*
X0594727Y0790662D01*
Y0789947D01*
X0595001Y0789286D01*
X0595132Y0789155D01*
X0595001Y0789024D01*
X0594727Y0788363D01*
Y0787647D01*
X0595001Y0786985D01*
X0595232Y0786755D01*
X0595101Y0786624D01*
X0594827Y0785962D01*
Y0785247D01*
X0595101Y0784586D01*
X0595607Y0784079D01*
X0596269Y0783805D01*
X0596984D01*
X0597036Y0783827D01*
X0597452Y0783549D01*
Y0769779D01*
X0567626D01*
Y0770463D01*
X0567461Y0770861D01*
X0567768Y0771361D01*
X0572634D01*
X0573121Y0771458D01*
X0573535Y0771734D01*
X0573828Y0772027D01*
X0574104Y0772440D01*
X0574201Y0772928D01*
Y0774835D01*
X0574452Y0775085D01*
X0574726Y0775747D01*
Y0776463D01*
X0574452Y0777124D01*
X0573946Y0777630D01*
X0573914Y0777733D01*
X0574104Y0778017D01*
X0574201Y0778505D01*
Y0779559D01*
X0574452Y0779810D01*
X0574726Y0780471D01*
Y0781187D01*
X0574452Y0781848D01*
X0574223Y0782077D01*
X0573982Y0782404D01*
X0574223Y0782730D01*
X0574452Y0782960D01*
X0574726Y0783621D01*
Y0784337D01*
X0574452Y0784998D01*
X0573946Y0785504D01*
X0573284Y0785778D01*
X0572569D01*
X0571907Y0785504D01*
X0571657Y0785253D01*
X0564955D01*
X0564826Y0785447D01*
Y0786163D01*
X0564552Y0786824D01*
X0564046Y0787330D01*
X0563384Y0787604D01*
X0562669D01*
X0562007Y0787330D01*
X0561501Y0786824D01*
X0561227Y0786163D01*
Y0785447D01*
X0561098Y0785253D01*
X0547601D01*
X0547134Y0785160D01*
X0547102Y0785181D01*
X0546844Y0785577D01*
X0547052Y0785785D01*
X0547326Y0786447D01*
Y0787162D01*
X0547052Y0787824D01*
X0546546Y0788330D01*
X0545885Y0788604D01*
X0545169D01*
X0544507Y0788330D01*
X0544172Y0787995D01*
X0541927D01*
X0541471Y0787904D01*
X0541085Y0787646D01*
X0540979Y0787540D01*
X0540517Y0787731D01*
Y0824505D01*
X0540426Y0824960D01*
X0540168Y0825346D01*
X0539068Y0826446D01*
X0538682Y0826704D01*
X0538227Y0826795D01*
X0536483D01*
X0536365Y0827212D01*
X0536361Y0827295D01*
X0536852Y0827785D01*
X0537126Y0828447D01*
Y0828805D01*
X0537584D01*
X0538246Y0829079D01*
X0538752Y0829585D01*
X0539026Y0830247D01*
Y0830605D01*
X0539485D01*
X0540146Y0830879D01*
X0540652Y0831386D01*
X0540926Y0832047D01*
Y0832763D01*
X0540652Y0833424D01*
X0540358Y0833718D01*
X0540565Y0834218D01*
X0547724D01*
X0562876Y0819066D01*
X0563262Y0818808D01*
X0563717Y0818718D01*
X0579824D01*
X0583476Y0815066D01*
X0583862Y0814808D01*
X0584317Y0814718D01*
X0608124D01*
X0608227Y0814615D01*
Y0803808D01*
X0608318Y0803352D01*
X0608576Y0802966D01*
X0608976Y0802566D01*
X0609362Y0802308D01*
X0609817Y0802218D01*
X0615117D01*
X0615573Y0802308D01*
X0615959Y0802566D01*
X0616459Y0803066D01*
X0616717Y0803452D01*
X0616807Y0803908D01*
Y0807654D01*
X0616943Y0807789D01*
X0617216Y0808450D01*
Y0809166D01*
X0616943Y0809827D01*
X0616436Y0810333D01*
X0615775Y0810607D01*
X0615059D01*
X0614398Y0810333D01*
X0613892Y0809827D01*
X0613678Y0809311D01*
X0613156D01*
X0612943Y0809827D01*
X0612607Y0810162D01*
Y0815908D01*
X0612517Y0816363D01*
X0612259Y0816749D01*
X0611530Y0817478D01*
X0611144Y0817736D01*
X0610689Y0817826D01*
X0585482D01*
X0581559Y0821749D01*
X0581173Y0822007D01*
X0580717Y0822098D01*
X0576792D01*
X0576626Y0822347D01*
Y0823063D01*
X0576352Y0823724D01*
X0575846Y0824230D01*
X0575184Y0824504D01*
X0574469D01*
X0573807Y0824230D01*
X0573427Y0823849D01*
X0573046Y0824230D01*
X0572385Y0824504D01*
X0571669D01*
X0571007Y0824230D01*
X0570501Y0823724D01*
X0570227Y0823063D01*
Y0822347D01*
X0570061Y0822098D01*
X0564710D01*
X0538859Y0847949D01*
X0538473Y0848207D01*
X0538017Y0848298D01*
X0518446D01*
X0518193Y0848771D01*
X0518252Y0848907D01*
X0518287Y0848961D01*
X0518298Y0849015D01*
X0518388Y0849224D01*
X0518581Y0849262D01*
X0519077Y0849593D01*
X0519077Y0849593D01*
X0519077Y0849593D01*
X0519409Y0850089D01*
X0519525Y0850675D01*
X0519409Y0851260D01*
X0519517Y0851505D01*
X0521026Y0853015D01*
X0521026Y0853015D01*
X0521270Y0853379D01*
X0521355Y0853810D01*
Y0855878D01*
X0521601Y0855992D01*
X0521855Y0856031D01*
X0522307Y0855579D01*
X0522969Y0855305D01*
X0523685D01*
X0524346Y0855579D01*
X0524454Y0855688D01*
X0524563Y0855579D01*
X0525224Y0855305D01*
X0525940D01*
X0526601Y0855579D01*
X0527107Y0856085D01*
X0527381Y0856747D01*
Y0857463D01*
X0527107Y0858124D01*
X0526601Y0858630D01*
X0525940Y0858904D01*
X0525224D01*
X0524563Y0858630D01*
X0524454Y0858521D01*
X0524346Y0858630D01*
X0523685Y0858904D01*
X0522969D01*
X0522307Y0858630D01*
X0521855Y0858178D01*
X0521601Y0858217D01*
X0521355Y0858331D01*
Y0859902D01*
X0524311Y0862857D01*
X0524923Y0862762D01*
X0525306Y0862379D01*
X0525967Y0862105D01*
X0526683D01*
X0527321Y0862370D01*
X0527959Y0862105D01*
X0528675D01*
X0529336Y0862379D01*
X0529842Y0862885D01*
X0530116Y0863547D01*
Y0864262D01*
X0529842Y0864924D01*
X0529336Y0865430D01*
X0528675Y0865704D01*
X0527959D01*
X0527321Y0865440D01*
X0526683Y0865704D01*
X0526051D01*
Y0869105D01*
X0526051Y0869105D01*
X0525965Y0869535D01*
X0525721Y0869899D01*
X0525721Y0869899D01*
X0522577Y0873044D01*
X0522743Y0873585D01*
X0523213Y0873779D01*
X0523719Y0874286D01*
X0523993Y0874947D01*
Y0875526D01*
X0524427Y0875760D01*
X0525041Y0875505D01*
X0525757D01*
X0526418Y0875779D01*
X0526924Y0876285D01*
X0527198Y0876947D01*
Y0877662D01*
X0526924Y0878324D01*
X0526418Y0878830D01*
X0525757Y0879104D01*
D02*
G37*
G36*
X0540592Y0866804D02*
X0539877D01*
X0539215Y0866530D01*
X0538709Y0866024D01*
X0538435Y0865362D01*
Y0864647D01*
X0538709Y0863986D01*
X0539215Y0863479D01*
X0539877Y0863205D01*
X0540592D01*
X0541254Y0863479D01*
X0541704Y0863930D01*
X0541989Y0863812D01*
X0542464D01*
X0542902Y0863993D01*
X0543238Y0864329D01*
X0543420Y0864767D01*
Y0865242D01*
X0543238Y0865680D01*
X0542902Y0866016D01*
X0542464Y0866198D01*
X0541989D01*
X0541704Y0866079D01*
X0541254Y0866530D01*
X0540592Y0866804D01*
D02*
G37*
G36*
X0556267Y0863516D02*
X0555793D01*
X0555354Y0863335D01*
X0555019Y0862999D01*
X0554837Y0862560D01*
Y0862086D01*
X0555019Y0861648D01*
X0555354Y0861312D01*
X0555793Y0861130D01*
X0556267D01*
X0556706Y0861312D01*
X0557042Y0861648D01*
X0557223Y0862086D01*
Y0862560D01*
X0557042Y0862999D01*
X0556706Y0863335D01*
X0556267Y0863516D01*
D02*
G37*
G36*
X0562168Y0861516D02*
X0561693D01*
X0561255Y0861335D01*
X0560919Y0860999D01*
X0560737Y0860561D01*
Y0860086D01*
X0560919Y0859647D01*
X0561255Y0859312D01*
X0561693Y0859130D01*
X0562168D01*
X0562606Y0859312D01*
X0562942Y0859647D01*
X0563123Y0860086D01*
Y0860561D01*
X0562942Y0860999D01*
X0562606Y0861335D01*
X0562168Y0861516D01*
D02*
G37*
G36*
X0554367Y0859516D02*
X0553893D01*
X0553454Y0859335D01*
X0553119Y0858999D01*
X0552937Y0858560D01*
Y0858086D01*
X0553119Y0857648D01*
X0553454Y0857312D01*
X0553893Y0857130D01*
X0554367D01*
X0554806Y0857312D01*
X0555141Y0857648D01*
X0555323Y0858086D01*
Y0858560D01*
X0555141Y0858999D01*
X0554806Y0859335D01*
X0554367Y0859516D01*
D02*
G37*
G36*
X0607153Y0877181D02*
X0605446D01*
X0603760Y0876914D01*
X0602137Y0876387D01*
X0600617Y0875612D01*
X0599236Y0874609D01*
X0598029Y0873402D01*
X0597026Y0872021D01*
X0596251Y0870501D01*
X0595724Y0868878D01*
X0595457Y0867192D01*
Y0865485D01*
X0595724Y0863800D01*
X0596251Y0862177D01*
X0597026Y0860656D01*
X0598029Y0859275D01*
X0599236Y0858068D01*
X0600617Y0857065D01*
X0602137Y0856290D01*
X0603760Y0855763D01*
X0605446Y0855496D01*
X0607153D01*
X0608838Y0855763D01*
X0610461Y0856290D01*
X0611982Y0857065D01*
X0613363Y0858068D01*
X0614569Y0859275D01*
X0615573Y0860656D01*
X0616347Y0862177D01*
X0616875Y0863800D01*
X0617142Y0865485D01*
Y0867192D01*
X0616875Y0868878D01*
X0616347Y0870501D01*
X0615573Y0872021D01*
X0614569Y0873402D01*
X0613363Y0874609D01*
X0611982Y0875612D01*
X0610461Y0876387D01*
X0608838Y0876914D01*
X0607153Y0877181D01*
D02*
G37*
G36*
X0402428D02*
X0400722D01*
X0399036Y0876914D01*
X0397413Y0876387D01*
X0395892Y0875612D01*
X0394511Y0874609D01*
X0393305Y0873402D01*
X0392301Y0872021D01*
X0391527Y0870501D01*
X0390999Y0868878D01*
X0390732Y0867192D01*
Y0865485D01*
X0390999Y0863800D01*
X0391527Y0862177D01*
X0392301Y0860656D01*
X0393305Y0859275D01*
X0394511Y0858068D01*
X0395892Y0857065D01*
X0397413Y0856290D01*
X0399036Y0855763D01*
X0400722Y0855496D01*
X0402428D01*
X0404114Y0855763D01*
X0405737Y0856290D01*
X0407258Y0857065D01*
X0408638Y0858068D01*
X0409845Y0859275D01*
X0410848Y0860656D01*
X0411623Y0862177D01*
X0412150Y0863800D01*
X0412417Y0865485D01*
Y0867192D01*
X0412150Y0868878D01*
X0411623Y0870501D01*
X0410848Y0872021D01*
X0409845Y0873402D01*
X0408638Y0874609D01*
X0407258Y0875612D01*
X0405737Y0876387D01*
X0404114Y0876914D01*
X0402428Y0877181D01*
D02*
G37*
G36*
X0589099Y0857813D02*
X0588624D01*
X0588186Y0857632D01*
X0587850Y0857296D01*
X0587668Y0856858D01*
Y0856383D01*
X0587850Y0855945D01*
X0588186Y0855609D01*
X0588624Y0855427D01*
X0589099D01*
X0589537Y0855609D01*
X0589873Y0855945D01*
X0590054Y0856383D01*
Y0856858D01*
X0589873Y0857296D01*
X0589537Y0857632D01*
X0589099Y0857813D01*
D02*
G37*
G36*
X0562668Y0855116D02*
X0562193D01*
X0561755Y0854935D01*
X0561419Y0854599D01*
X0561237Y0854160D01*
Y0853686D01*
X0561419Y0853248D01*
X0561755Y0852912D01*
X0562193Y0852730D01*
X0562668D01*
X0563106Y0852912D01*
X0563442Y0853248D01*
X0563623Y0853686D01*
Y0854160D01*
X0563442Y0854599D01*
X0563106Y0854935D01*
X0562668Y0855116D01*
D02*
G37*
G36*
X0573068Y0848516D02*
X0572593D01*
X0572155Y0848335D01*
X0571819Y0847999D01*
X0571637Y0847561D01*
Y0847086D01*
X0571819Y0846647D01*
X0572155Y0846312D01*
X0572593Y0846130D01*
X0573068D01*
X0573506Y0846312D01*
X0573841Y0846647D01*
X0574023Y0847086D01*
Y0847561D01*
X0573841Y0847999D01*
X0573506Y0848335D01*
X0573068Y0848516D01*
D02*
G37*
G36*
X0599575Y0848707D02*
X0598859D01*
X0598198Y0848433D01*
X0597692Y0847927D01*
X0597418Y0847266D01*
Y0846550D01*
X0597692Y0845889D01*
X0598198Y0845382D01*
X0598859Y0845109D01*
X0599575D01*
X0600236Y0845382D01*
X0600742Y0845889D01*
X0601016Y0846550D01*
Y0847266D01*
X0600742Y0847927D01*
X0600236Y0848433D01*
X0599575Y0848707D01*
D02*
G37*
G36*
X0562267Y0841816D02*
X0561793D01*
X0561354Y0841635D01*
X0561019Y0841299D01*
X0560837Y0840860D01*
Y0840386D01*
X0561019Y0839948D01*
X0561354Y0839612D01*
X0561793Y0839430D01*
X0562267D01*
X0562706Y0839612D01*
X0563041Y0839948D01*
X0563223Y0840386D01*
Y0840860D01*
X0563041Y0841299D01*
X0562706Y0841635D01*
X0562267Y0841816D01*
D02*
G37*
G36*
X0556254Y0837401D02*
X0555780D01*
X0555341Y0837219D01*
X0555006Y0836884D01*
X0554824Y0836445D01*
Y0835970D01*
X0555006Y0835532D01*
X0555341Y0835196D01*
X0555780Y0835015D01*
X0556254D01*
X0556693Y0835196D01*
X0557028Y0835532D01*
X0557210Y0835970D01*
Y0836445D01*
X0557028Y0836884D01*
X0556693Y0837219D01*
X0556254Y0837401D01*
D02*
G37*
G36*
X0392184Y0833904D02*
X0391469D01*
X0390807Y0833630D01*
X0390301Y0833124D01*
X0390027Y0832463D01*
Y0831747D01*
X0390301Y0831085D01*
X0390807Y0830579D01*
X0391469Y0830305D01*
X0392184D01*
X0392294Y0830351D01*
X0392663Y0829962D01*
X0392462Y0829478D01*
Y0828763D01*
X0392736Y0828101D01*
X0393242Y0827595D01*
X0393903Y0827321D01*
X0394619D01*
X0395280Y0827595D01*
X0395787Y0828101D01*
X0396060Y0828763D01*
Y0829478D01*
X0395787Y0830140D01*
X0395280Y0830646D01*
X0394619Y0830920D01*
X0393903D01*
X0393794Y0830874D01*
X0393425Y0831263D01*
X0393626Y0831747D01*
Y0832463D01*
X0393352Y0833124D01*
X0392846Y0833630D01*
X0392184Y0833904D01*
D02*
G37*
G36*
X0606784Y0829004D02*
X0606069D01*
X0605407Y0828730D01*
X0604901Y0828224D01*
X0604627Y0827563D01*
Y0826847D01*
X0604901Y0826186D01*
X0605407Y0825679D01*
X0606069Y0825405D01*
X0606784D01*
X0607446Y0825679D01*
X0607952Y0826186D01*
X0608226Y0826847D01*
Y0827563D01*
X0607952Y0828224D01*
X0607446Y0828730D01*
X0606784Y0829004D01*
D02*
G37*
G36*
X0607984Y0824304D02*
X0607269D01*
X0606607Y0824030D01*
X0606127Y0823549D01*
X0605646Y0824030D01*
X0604985Y0824304D01*
X0604269D01*
X0603607Y0824030D01*
X0603101Y0823524D01*
X0602827Y0822863D01*
Y0822147D01*
X0603101Y0821486D01*
X0603607Y0820979D01*
X0604269Y0820705D01*
X0604985D01*
X0605646Y0820979D01*
X0606127Y0821460D01*
X0606607Y0820979D01*
X0607269Y0820705D01*
X0607984D01*
X0608646Y0820979D01*
X0609152Y0821486D01*
X0609426Y0822147D01*
Y0822863D01*
X0609152Y0823524D01*
X0608646Y0824030D01*
X0607984Y0824304D01*
D02*
G37*
G36*
X0553375Y0825607D02*
X0552659D01*
X0551998Y0825333D01*
X0551492Y0824827D01*
X0551218Y0824166D01*
Y0823450D01*
X0551492Y0822789D01*
X0551998Y0822283D01*
X0552659Y0822009D01*
X0553375D01*
X0554036Y0822283D01*
X0554542Y0822789D01*
X0554816Y0823450D01*
Y0824166D01*
X0554542Y0824827D01*
X0554036Y0825333D01*
X0553375Y0825607D01*
D02*
G37*
G36*
X0490395Y0816350D02*
X0489920D01*
X0489482Y0816169D01*
X0489173Y0815860D01*
X0488865Y0816169D01*
X0488426Y0816350D01*
X0487952D01*
X0487513Y0816169D01*
X0487178Y0815833D01*
X0486996Y0815395D01*
Y0814920D01*
X0487178Y0814482D01*
X0487486Y0814173D01*
X0487178Y0813865D01*
X0486996Y0813426D01*
Y0812952D01*
X0487178Y0812513D01*
X0487513Y0812178D01*
X0487952Y0811996D01*
X0488426D01*
X0488865Y0812178D01*
X0489200Y0812513D01*
X0489382Y0812952D01*
Y0813426D01*
X0489264Y0813710D01*
X0489636Y0814082D01*
X0489920Y0813965D01*
X0490395D01*
X0490833Y0814146D01*
X0491169Y0814482D01*
X0491350Y0814920D01*
Y0815395D01*
X0491169Y0815833D01*
X0490833Y0816169D01*
X0490395Y0816350D01*
D02*
G37*
G36*
X0472678D02*
X0472204D01*
X0471765Y0816169D01*
X0471430Y0815833D01*
X0471248Y0815395D01*
Y0814920D01*
X0471366Y0814636D01*
X0470994Y0814264D01*
X0470710Y0814382D01*
X0470235D01*
X0469797Y0814200D01*
X0469461Y0813865D01*
X0469279Y0813426D01*
Y0812952D01*
X0469461Y0812513D01*
X0469797Y0812178D01*
X0470235Y0811996D01*
X0470710D01*
X0471148Y0812178D01*
X0471457Y0812486D01*
X0471765Y0812178D01*
X0472204Y0811996D01*
X0472678D01*
X0473117Y0812178D01*
X0473452Y0812513D01*
X0473634Y0812952D01*
Y0813426D01*
X0473452Y0813865D01*
X0473144Y0814173D01*
X0473452Y0814482D01*
X0473634Y0814920D01*
Y0815395D01*
X0473452Y0815833D01*
X0473117Y0816169D01*
X0472678Y0816350D01*
D02*
G37*
G36*
X0496300Y0815366D02*
X0495826D01*
X0495387Y0815184D01*
X0495052Y0814849D01*
X0494870Y0814410D01*
Y0813936D01*
X0495052Y0813498D01*
X0495387Y0813162D01*
X0495826Y0812980D01*
X0496300D01*
X0496739Y0813162D01*
X0497074Y0813498D01*
X0497256Y0813936D01*
Y0814410D01*
X0497074Y0814849D01*
X0496739Y0815184D01*
X0496300Y0815366D01*
D02*
G37*
G36*
X0498269Y0810445D02*
X0497794D01*
X0497356Y0810263D01*
X0497047Y0809955D01*
X0496739Y0810263D01*
X0496300Y0810445D01*
X0495826D01*
X0495387Y0810263D01*
X0495052Y0809928D01*
X0494870Y0809489D01*
Y0809015D01*
X0495052Y0808576D01*
X0495387Y0808241D01*
X0495826Y0808059D01*
X0496300D01*
X0496739Y0808241D01*
X0497047Y0808549D01*
X0497356Y0808241D01*
X0497794Y0808059D01*
X0498269D01*
X0498707Y0808241D01*
X0499043Y0808576D01*
X0499224Y0809015D01*
Y0809489D01*
X0499043Y0809928D01*
X0498707Y0810263D01*
X0498269Y0810445D01*
D02*
G37*
G36*
X0472678D02*
X0472204D01*
X0471765Y0810263D01*
X0471457Y0809955D01*
X0471148Y0810263D01*
X0470710Y0810445D01*
X0470235D01*
X0469797Y0810263D01*
X0469461Y0809928D01*
X0469279Y0809489D01*
Y0809015D01*
X0469461Y0808576D01*
X0469797Y0808241D01*
X0470235Y0808059D01*
X0470710D01*
X0471148Y0808241D01*
X0471457Y0808549D01*
X0471765Y0808241D01*
X0472204Y0808059D01*
X0472678D01*
X0473117Y0808241D01*
X0473452Y0808576D01*
X0473634Y0809015D01*
Y0809489D01*
X0473452Y0809928D01*
X0473117Y0810263D01*
X0472678Y0810445D01*
D02*
G37*
G36*
X0568584Y0809804D02*
X0567869D01*
X0567207Y0809530D01*
X0566701Y0809024D01*
X0566427Y0808362D01*
Y0807647D01*
X0566701Y0806985D01*
X0567207Y0806479D01*
X0567869Y0806205D01*
X0568584D01*
X0569246Y0806479D01*
X0569752Y0806985D01*
X0570026Y0807647D01*
Y0808362D01*
X0569752Y0809024D01*
X0569246Y0809530D01*
X0568584Y0809804D01*
D02*
G37*
G36*
X0496398Y0806513D02*
X0495924D01*
X0495485Y0806332D01*
X0495150Y0805996D01*
X0494968Y0805558D01*
Y0805083D01*
X0495150Y0804645D01*
X0495485Y0804309D01*
X0495924Y0804128D01*
X0496398D01*
X0496837Y0804309D01*
X0497173Y0804645D01*
X0497354Y0805083D01*
Y0805558D01*
X0497173Y0805996D01*
X0496837Y0806332D01*
X0496398Y0806513D01*
D02*
G37*
G36*
X0506143Y0806508D02*
X0505668D01*
X0505230Y0806326D01*
X0504894Y0805991D01*
X0504713Y0805552D01*
Y0805078D01*
X0504894Y0804639D01*
X0505230Y0804304D01*
X0505668Y0804122D01*
X0506143D01*
X0506581Y0804304D01*
X0506917Y0804639D01*
X0507098Y0805078D01*
Y0805552D01*
X0506917Y0805991D01*
X0506581Y0806326D01*
X0506143Y0806508D01*
D02*
G37*
G36*
X0488426Y0806508D02*
X0487952D01*
X0487513Y0806326D01*
X0487178Y0805991D01*
X0486996Y0805552D01*
Y0805078D01*
X0487178Y0804639D01*
X0487513Y0804304D01*
X0487952Y0804122D01*
X0488426D01*
X0488865Y0804304D01*
X0489200Y0804639D01*
X0489382Y0805078D01*
Y0805552D01*
X0489200Y0805991D01*
X0488865Y0806326D01*
X0488426Y0806508D01*
D02*
G37*
G36*
X0484489D02*
X0484015D01*
X0483576Y0806326D01*
X0483241Y0805991D01*
X0483059Y0805552D01*
Y0805078D01*
X0483241Y0804639D01*
X0483576Y0804304D01*
X0484015Y0804122D01*
X0484489D01*
X0484928Y0804304D01*
X0485263Y0804639D01*
X0485445Y0805078D01*
Y0805552D01*
X0485263Y0805991D01*
X0484928Y0806326D01*
X0484489Y0806508D01*
D02*
G37*
G36*
X0480552D02*
X0480078D01*
X0479639Y0806326D01*
X0479304Y0805991D01*
X0479122Y0805552D01*
Y0805078D01*
X0479304Y0804639D01*
X0479639Y0804304D01*
X0480078Y0804122D01*
X0480552D01*
X0480991Y0804304D01*
X0481326Y0804639D01*
X0481508Y0805078D01*
Y0805552D01*
X0481326Y0805991D01*
X0480991Y0806326D01*
X0480552Y0806508D01*
D02*
G37*
G36*
X0498269Y0802571D02*
X0497794D01*
X0497356Y0802389D01*
X0497047Y0802081D01*
X0496739Y0802389D01*
X0496300Y0802571D01*
X0495826D01*
X0495387Y0802389D01*
X0495052Y0802054D01*
X0494870Y0801615D01*
Y0801141D01*
X0495052Y0800702D01*
X0495387Y0800367D01*
X0495826Y0800185D01*
X0496300D01*
X0496739Y0800367D01*
X0497047Y0800675D01*
X0497356Y0800367D01*
X0497794Y0800185D01*
X0498269D01*
X0498707Y0800367D01*
X0499043Y0800702D01*
X0499224Y0801141D01*
Y0801615D01*
X0499043Y0802054D01*
X0498707Y0802389D01*
X0498269Y0802571D01*
D02*
G37*
G36*
X0599375Y0804407D02*
X0598659D01*
X0597998Y0804133D01*
X0597492Y0803627D01*
X0597218Y0802966D01*
Y0802250D01*
X0597492Y0801589D01*
X0597998Y0801083D01*
X0598659Y0800809D01*
X0599375D01*
X0600036Y0801083D01*
X0600542Y0801589D01*
X0600816Y0802250D01*
Y0802966D01*
X0600542Y0803627D01*
X0600036Y0804133D01*
X0599375Y0804407D01*
D02*
G37*
G36*
X0586484Y0806804D02*
X0585769D01*
X0585107Y0806530D01*
X0584601Y0806024D01*
X0584327Y0805363D01*
Y0804647D01*
X0584601Y0803986D01*
X0584882Y0803705D01*
X0584601Y0803424D01*
X0584327Y0802763D01*
Y0802047D01*
X0584601Y0801385D01*
X0585107Y0800879D01*
X0585769Y0800605D01*
X0586484D01*
X0587146Y0800879D01*
X0587277Y0801010D01*
X0587407Y0800879D01*
X0588069Y0800605D01*
X0588785D01*
X0589446Y0800879D01*
X0589952Y0801385D01*
X0590226Y0802047D01*
Y0802763D01*
X0589952Y0803424D01*
X0589721Y0803655D01*
X0589952Y0803885D01*
X0590226Y0804547D01*
Y0805262D01*
X0589952Y0805924D01*
X0589446Y0806430D01*
X0588785Y0806704D01*
X0588069D01*
X0587407Y0806430D01*
X0587327Y0806349D01*
X0587146Y0806530D01*
X0586484Y0806804D01*
D02*
G37*
G36*
X0484389Y0802871D02*
X0483915D01*
X0483476Y0802689D01*
X0483141Y0802354D01*
X0482959Y0801915D01*
Y0801441D01*
X0483141Y0801002D01*
X0483476Y0800667D01*
X0483915Y0800485D01*
X0484389D01*
X0484828Y0800667D01*
X0485163Y0801002D01*
X0485345Y0801441D01*
Y0801915D01*
X0485163Y0802354D01*
X0484828Y0802689D01*
X0484389Y0802871D01*
D02*
G37*
G36*
X0488426Y0802571D02*
X0487952D01*
X0487513Y0802389D01*
X0487178Y0802054D01*
X0486996Y0801615D01*
Y0801141D01*
X0487178Y0800702D01*
X0487513Y0800367D01*
X0487952Y0800185D01*
X0488426D01*
X0488865Y0800367D01*
X0489200Y0800702D01*
X0489382Y0801141D01*
Y0801615D01*
X0489200Y0802054D01*
X0488865Y0802389D01*
X0488426Y0802571D01*
D02*
G37*
G36*
X0480552D02*
X0480078D01*
X0479639Y0802389D01*
X0479304Y0802054D01*
X0479122Y0801615D01*
Y0801141D01*
X0479304Y0800702D01*
X0479639Y0800367D01*
X0480078Y0800185D01*
X0480552D01*
X0480991Y0800367D01*
X0481326Y0800702D01*
X0481508Y0801141D01*
Y0801615D01*
X0481326Y0802054D01*
X0480991Y0802389D01*
X0480552Y0802571D01*
D02*
G37*
G36*
X0564784Y0803504D02*
X0564069D01*
X0563407Y0803230D01*
X0562901Y0802724D01*
X0562627Y0802063D01*
Y0801347D01*
X0562901Y0800686D01*
X0563407Y0800179D01*
X0564069Y0799905D01*
X0564527D01*
Y0799647D01*
X0564801Y0798985D01*
X0565307Y0798479D01*
X0565969Y0798205D01*
X0566684D01*
X0567346Y0798479D01*
X0567852Y0798985D01*
X0568126Y0799647D01*
Y0800362D01*
X0567852Y0801024D01*
X0567346Y0801530D01*
X0566684Y0801804D01*
X0566226D01*
Y0802063D01*
X0565952Y0802724D01*
X0565446Y0803230D01*
X0564784Y0803504D01*
D02*
G37*
G36*
X0472678Y0798634D02*
X0472204D01*
X0471765Y0798452D01*
X0471457Y0798144D01*
X0471148Y0798452D01*
X0470710Y0798634D01*
X0470235D01*
X0469797Y0798452D01*
X0469461Y0798117D01*
X0469279Y0797678D01*
Y0797204D01*
X0469461Y0796765D01*
X0469797Y0796430D01*
X0470235Y0796248D01*
X0470710D01*
X0471148Y0796430D01*
X0471457Y0796738D01*
X0471765Y0796430D01*
X0472204Y0796248D01*
X0472678D01*
X0473117Y0796430D01*
X0473452Y0796765D01*
X0473634Y0797204D01*
Y0797678D01*
X0473452Y0798117D01*
X0473117Y0798452D01*
X0472678Y0798634D01*
D02*
G37*
G36*
X0398519Y0801220D02*
X0397803D01*
X0397142Y0800946D01*
X0396636Y0800439D01*
X0396362Y0799778D01*
Y0799062D01*
X0396636Y0798401D01*
X0397142Y0797895D01*
X0397803Y0797621D01*
X0398519D01*
X0399180Y0797895D01*
X0399687Y0798401D01*
X0399960Y0799062D01*
Y0799778D01*
X0399687Y0800439D01*
X0399180Y0800946D01*
X0398519Y0801220D01*
D02*
G37*
G36*
X0615685Y0800504D02*
X0614969D01*
X0614307Y0800230D01*
X0613801Y0799724D01*
X0613527Y0799062D01*
Y0798347D01*
X0613801Y0797685D01*
X0614307Y0797179D01*
X0614969Y0796905D01*
X0615685D01*
X0616346Y0797179D01*
X0616852Y0797685D01*
X0617126Y0798347D01*
Y0799062D01*
X0616852Y0799724D01*
X0616346Y0800230D01*
X0615685Y0800504D01*
D02*
G37*
G36*
X0488426Y0798634D02*
X0487952D01*
X0487513Y0798452D01*
X0487178Y0798117D01*
X0486996Y0797678D01*
Y0797204D01*
X0487178Y0796765D01*
X0487513Y0796430D01*
X0487952Y0796248D01*
X0488426D01*
X0488865Y0796430D01*
X0489200Y0796765D01*
X0489382Y0797204D01*
Y0797678D01*
X0489200Y0798117D01*
X0488865Y0798452D01*
X0488426Y0798634D01*
D02*
G37*
G36*
X0480552D02*
X0480078D01*
X0479639Y0798452D01*
X0479304Y0798117D01*
X0479122Y0797678D01*
Y0797204D01*
X0479304Y0796765D01*
X0479639Y0796430D01*
X0480078Y0796248D01*
X0480552D01*
X0480991Y0796430D01*
X0481326Y0796765D01*
X0481508Y0797204D01*
Y0797678D01*
X0481326Y0798117D01*
X0480991Y0798452D01*
X0480552Y0798634D01*
D02*
G37*
G36*
X0496498Y0798613D02*
X0496024D01*
X0495585Y0798432D01*
X0495250Y0798096D01*
X0495068Y0797658D01*
Y0797183D01*
X0495250Y0796745D01*
X0495585Y0796409D01*
X0496024Y0796228D01*
X0496498D01*
X0496937Y0796409D01*
X0497273Y0796745D01*
X0497454Y0797183D01*
Y0797658D01*
X0497273Y0798096D01*
X0496937Y0798432D01*
X0496498Y0798613D01*
D02*
G37*
G36*
X0579084Y0796804D02*
X0578369D01*
X0577707Y0796530D01*
X0577403Y0796226D01*
X0577180Y0796033D01*
X0576750Y0796226D01*
X0576546Y0796430D01*
X0575884Y0796704D01*
X0575169D01*
X0574507Y0796430D01*
X0574001Y0795924D01*
X0573727Y0795262D01*
Y0794547D01*
X0574001Y0793886D01*
X0574507Y0793379D01*
X0575169Y0793105D01*
X0575884D01*
X0576546Y0793379D01*
X0576850Y0793683D01*
X0577074Y0793876D01*
X0577503Y0793683D01*
X0577707Y0793479D01*
X0578369Y0793205D01*
X0579084D01*
X0579746Y0793479D01*
X0580252Y0793986D01*
X0580526Y0794647D01*
Y0795363D01*
X0580252Y0796024D01*
X0579746Y0796530D01*
X0579084Y0796804D01*
D02*
G37*
G36*
X0490395Y0794697D02*
X0489920D01*
X0489482Y0794515D01*
X0489173Y0794207D01*
X0488865Y0794515D01*
X0488426Y0794697D01*
X0487952D01*
X0487513Y0794515D01*
X0487178Y0794180D01*
X0486996Y0793741D01*
Y0793267D01*
X0487178Y0792828D01*
X0487486Y0792520D01*
X0487178Y0792211D01*
X0486996Y0791773D01*
Y0791298D01*
X0487178Y0790860D01*
X0487513Y0790524D01*
X0487952Y0790343D01*
X0488426D01*
X0488865Y0790524D01*
X0489200Y0790860D01*
X0489382Y0791298D01*
Y0791773D01*
X0489264Y0792057D01*
X0489636Y0792429D01*
X0489920Y0792311D01*
X0490395D01*
X0490833Y0792493D01*
X0491169Y0792828D01*
X0491350Y0793267D01*
Y0793741D01*
X0491169Y0794180D01*
X0490833Y0794515D01*
X0490395Y0794697D01*
D02*
G37*
G36*
X0570075Y0797007D02*
X0569359D01*
X0568698Y0796733D01*
X0568192Y0796227D01*
X0567918Y0795566D01*
Y0794850D01*
X0568192Y0794189D01*
X0568698Y0793682D01*
X0569359Y0793409D01*
X0570075D01*
X0570736Y0793682D01*
X0571243Y0794189D01*
X0571516Y0794850D01*
Y0795566D01*
X0571243Y0796227D01*
X0570736Y0796733D01*
X0570075Y0797007D01*
D02*
G37*
G36*
X0398419Y0796220D02*
X0397703D01*
X0397042Y0795946D01*
X0396536Y0795439D01*
X0396262Y0794778D01*
Y0794063D01*
X0396536Y0793401D01*
X0397042Y0792895D01*
X0397703Y0792621D01*
X0398419D01*
X0399080Y0792895D01*
X0399587Y0793401D01*
X0399861Y0794063D01*
Y0794778D01*
X0399587Y0795439D01*
X0399080Y0795946D01*
X0398419Y0796220D01*
D02*
G37*
G36*
X0562175Y0796207D02*
X0561459D01*
X0560798Y0795933D01*
X0560292Y0795427D01*
X0560018Y0794766D01*
Y0794050D01*
X0560292Y0793389D01*
X0560798Y0792882D01*
X0561459Y0792609D01*
X0562175D01*
X0562836Y0792882D01*
X0563343Y0793389D01*
X0563616Y0794050D01*
Y0794766D01*
X0563343Y0795427D01*
X0562836Y0795933D01*
X0562175Y0796207D01*
D02*
G37*
G36*
X0496300Y0794734D02*
X0495826D01*
X0495387Y0794552D01*
X0495052Y0794217D01*
X0494870Y0793778D01*
Y0793304D01*
X0495052Y0792865D01*
X0495379Y0792538D01*
X0495052Y0792211D01*
X0494870Y0791773D01*
Y0791298D01*
X0495052Y0790860D01*
X0495387Y0790524D01*
X0495826Y0790343D01*
X0496300D01*
X0496739Y0790524D01*
X0497074Y0790860D01*
X0497256Y0791298D01*
Y0791773D01*
X0497074Y0792211D01*
X0496747Y0792538D01*
X0497074Y0792865D01*
X0497256Y0793304D01*
Y0793778D01*
X0497074Y0794217D01*
X0496739Y0794552D01*
X0496300Y0794734D01*
D02*
G37*
G36*
X0480552Y0794697D02*
X0480078D01*
X0479639Y0794515D01*
X0479304Y0794180D01*
X0479122Y0793741D01*
Y0793267D01*
X0479304Y0792828D01*
X0479612Y0792520D01*
X0479304Y0792211D01*
X0479122Y0791773D01*
Y0791298D01*
X0479304Y0790860D01*
X0479639Y0790524D01*
X0480078Y0790343D01*
X0480552D01*
X0480991Y0790524D01*
X0481326Y0790860D01*
X0481508Y0791298D01*
Y0791773D01*
X0481326Y0792211D01*
X0481018Y0792520D01*
X0481326Y0792828D01*
X0481508Y0793267D01*
Y0793741D01*
X0481326Y0794180D01*
X0480991Y0794515D01*
X0480552Y0794697D01*
D02*
G37*
G36*
X0553875Y0793207D02*
X0553159D01*
X0552498Y0792933D01*
X0551992Y0792427D01*
X0551718Y0791766D01*
Y0791050D01*
X0551992Y0790389D01*
X0552498Y0789883D01*
X0553159Y0789609D01*
X0553875D01*
X0554536Y0789883D01*
X0555043Y0790389D01*
X0555316Y0791050D01*
Y0791766D01*
X0555043Y0792427D01*
X0554536Y0792933D01*
X0553875Y0793207D01*
D02*
G37*
G36*
X0565865Y0791868D02*
X0565150D01*
X0564488Y0791595D01*
X0563982Y0791088D01*
X0563708Y0790427D01*
Y0789711D01*
X0563982Y0789050D01*
X0564488Y0788544D01*
X0565150Y0788270D01*
X0565865D01*
X0566527Y0788544D01*
X0567033Y0789050D01*
X0567307Y0789711D01*
Y0790427D01*
X0567033Y0791088D01*
X0566527Y0791595D01*
X0565865Y0791868D01*
D02*
G37*
G36*
X0529404Y0793404D02*
X0528688D01*
X0528027Y0793130D01*
X0527521Y0792624D01*
X0527247Y0791962D01*
Y0791247D01*
X0527489Y0790662D01*
X0527247Y0790078D01*
Y0789362D01*
X0527521Y0788701D01*
X0528027Y0788195D01*
X0528688Y0787921D01*
X0529404D01*
X0530065Y0788195D01*
X0530572Y0788701D01*
X0530845Y0789362D01*
Y0790078D01*
X0530604Y0790662D01*
X0530845Y0791247D01*
Y0791962D01*
X0530572Y0792624D01*
X0530065Y0793130D01*
X0529404Y0793404D01*
D02*
G37*
G36*
X0604284Y0783604D02*
X0603569D01*
X0602907Y0783330D01*
X0602401Y0782824D01*
X0602127Y0782163D01*
Y0781447D01*
X0602393Y0780805D01*
X0602127Y0780162D01*
Y0779447D01*
X0602401Y0778786D01*
X0602907Y0778279D01*
X0603569Y0778005D01*
X0604284D01*
X0604946Y0778279D01*
X0605452Y0778786D01*
X0605726Y0779447D01*
Y0780162D01*
X0605460Y0780805D01*
X0605726Y0781447D01*
Y0782163D01*
X0605452Y0782824D01*
X0604946Y0783330D01*
X0604284Y0783604D01*
D02*
G37*
G36*
X0502585Y0771604D02*
X0501869D01*
X0501207Y0771330D01*
X0500701Y0770824D01*
X0500427Y0770162D01*
Y0769447D01*
X0500701Y0768785D01*
X0501207Y0768279D01*
X0501869Y0768005D01*
X0502585D01*
X0503246Y0768279D01*
X0503752Y0768785D01*
X0504026Y0769447D01*
Y0770162D01*
X0503752Y0770824D01*
X0503246Y0771330D01*
X0502585Y0771604D01*
D02*
G37*
G36*
X0478685Y0770604D02*
X0477969D01*
X0477307Y0770330D01*
X0476801Y0769824D01*
X0476527Y0769163D01*
Y0768447D01*
X0476801Y0767786D01*
X0477307Y0767279D01*
X0477969Y0767005D01*
X0478685D01*
X0479346Y0767279D01*
X0479852Y0767786D01*
X0480126Y0768447D01*
Y0769163D01*
X0479852Y0769824D01*
X0479346Y0770330D01*
X0478685Y0770604D01*
D02*
G37*
G36*
X0593684Y0761704D02*
X0592969D01*
X0592307Y0761430D01*
X0592177Y0761299D01*
X0592046Y0761430D01*
X0591385Y0761704D01*
X0590669D01*
X0590007Y0761430D01*
X0589977Y0761399D01*
X0589946Y0761430D01*
X0589285Y0761704D01*
X0588569D01*
X0587907Y0761430D01*
X0587401Y0760924D01*
X0587127Y0760262D01*
Y0759547D01*
X0587401Y0758885D01*
X0587907Y0758379D01*
X0588569Y0758105D01*
X0589285D01*
X0589946Y0758379D01*
X0589977Y0758410D01*
X0590007Y0758379D01*
X0590669Y0758105D01*
X0591385D01*
X0592046Y0758379D01*
X0592177Y0758510D01*
X0592307Y0758379D01*
X0592969Y0758105D01*
X0593684D01*
X0594346Y0758379D01*
X0594852Y0758885D01*
X0595126Y0759547D01*
Y0760262D01*
X0594852Y0760924D01*
X0594346Y0761430D01*
X0593684Y0761704D01*
D02*
G37*
G36*
X0598884Y0762204D02*
X0598169D01*
X0597507Y0761930D01*
X0597001Y0761424D01*
X0596727Y0760763D01*
Y0760047D01*
X0597001Y0759385D01*
X0597507Y0758879D01*
X0598169Y0758605D01*
X0598884D01*
X0599546Y0758879D01*
X0600052Y0759385D01*
X0600326Y0760047D01*
Y0760763D01*
X0600052Y0761424D01*
X0599546Y0761930D01*
X0598884Y0762204D01*
D02*
G37*
G36*
X0613685Y0764304D02*
X0612969D01*
X0612307Y0764030D01*
X0611801Y0763524D01*
X0611527Y0762862D01*
Y0762147D01*
X0611801Y0761485D01*
X0612032Y0761255D01*
X0611801Y0761024D01*
X0611527Y0760362D01*
Y0759647D01*
X0611801Y0758986D01*
X0612307Y0758479D01*
X0612969Y0758205D01*
X0613685D01*
X0614346Y0758479D01*
X0614600Y0758734D01*
X0614927Y0758939D01*
X0615253Y0758734D01*
X0615507Y0758479D01*
X0616169Y0758205D01*
X0616885D01*
X0617546Y0758479D01*
X0618052Y0758986D01*
X0618326Y0759647D01*
Y0760362D01*
X0618052Y0761024D01*
X0617871Y0761205D01*
X0618052Y0761385D01*
X0618326Y0762047D01*
Y0762762D01*
X0618052Y0763424D01*
X0617546Y0763930D01*
X0616885Y0764204D01*
X0616169D01*
X0615507Y0763930D01*
X0615303Y0763726D01*
X0614874Y0763533D01*
X0614650Y0763726D01*
X0614346Y0764030D01*
X0613685Y0764304D01*
D02*
G37*
G36*
X0527975Y0764507D02*
X0527259D01*
X0526598Y0764233D01*
X0526092Y0763727D01*
X0525818Y0763066D01*
Y0762350D01*
X0526092Y0761689D01*
X0526446Y0761334D01*
X0526581Y0761120D01*
X0526462Y0760697D01*
X0526192Y0760427D01*
X0525918Y0759766D01*
Y0759050D01*
X0526192Y0758389D01*
X0526698Y0757882D01*
X0527359Y0757609D01*
X0528075D01*
X0528736Y0757882D01*
X0529243Y0758389D01*
X0529516Y0759050D01*
Y0759766D01*
X0529243Y0760427D01*
X0528888Y0760781D01*
X0528754Y0760995D01*
X0528872Y0761418D01*
X0529143Y0761689D01*
X0529416Y0762350D01*
Y0763066D01*
X0529143Y0763727D01*
X0528636Y0764233D01*
X0527975Y0764507D01*
D02*
G37*
G36*
X0539275Y0757907D02*
X0538559D01*
X0537898Y0757633D01*
X0537392Y0757127D01*
X0537118Y0756466D01*
Y0755750D01*
X0537392Y0755089D01*
X0537898Y0754583D01*
X0538559Y0754309D01*
X0539275D01*
X0539936Y0754583D01*
X0540443Y0755089D01*
X0540716Y0755750D01*
Y0756466D01*
X0540443Y0757127D01*
X0539936Y0757633D01*
X0539275Y0757907D01*
D02*
G37*
G36*
X0530785Y0753804D02*
X0530069D01*
X0529407Y0753530D01*
X0528977Y0753099D01*
X0528546Y0753530D01*
X0527884Y0753804D01*
X0527169D01*
X0526507Y0753530D01*
X0526001Y0753024D01*
X0525727Y0752362D01*
Y0751647D01*
X0526001Y0750985D01*
X0526182Y0750805D01*
X0526001Y0750624D01*
X0525727Y0749963D01*
Y0749247D01*
X0526001Y0748586D01*
X0526507Y0748079D01*
X0527169Y0747805D01*
X0527884D01*
X0528546Y0748079D01*
X0528977Y0748510D01*
X0529407Y0748079D01*
X0530069Y0747805D01*
X0530785D01*
X0531446Y0748079D01*
X0531952Y0748586D01*
X0532226Y0749247D01*
Y0749963D01*
X0531952Y0750624D01*
X0531771Y0750805D01*
X0531952Y0750985D01*
X0532226Y0751647D01*
Y0752362D01*
X0531952Y0753024D01*
X0531446Y0753530D01*
X0530785Y0753804D01*
D02*
G37*
G36*
X0545084Y0743004D02*
X0544369D01*
X0543707Y0742730D01*
X0543201Y0742224D01*
X0543160Y0742216D01*
X0542746Y0742630D01*
X0542085Y0742904D01*
X0541369D01*
X0540707Y0742630D01*
X0540327Y0742249D01*
X0540046Y0742530D01*
X0539385Y0742804D01*
X0538669D01*
X0538007Y0742530D01*
X0537501Y0742024D01*
X0537227Y0741362D01*
Y0740647D01*
X0537501Y0739986D01*
X0538007Y0739479D01*
X0538669Y0739205D01*
X0539385D01*
X0540046Y0739479D01*
X0540427Y0739860D01*
X0540707Y0739579D01*
X0541369Y0739305D01*
X0542085D01*
X0542746Y0739579D01*
X0543252Y0740086D01*
X0543293Y0740094D01*
X0543707Y0739679D01*
X0544369Y0739405D01*
X0545084D01*
X0545746Y0739679D01*
X0546252Y0740185D01*
X0546526Y0740847D01*
Y0741563D01*
X0546252Y0742224D01*
X0545746Y0742730D01*
X0545084Y0743004D01*
D02*
G37*
G36*
X0530484Y0742704D02*
X0529769D01*
X0529107Y0742430D01*
X0528677Y0741999D01*
X0528446Y0742230D01*
X0527784Y0742504D01*
X0527069D01*
X0526407Y0742230D01*
X0525901Y0741724D01*
X0525627Y0741062D01*
Y0740347D01*
X0525901Y0739685D01*
X0526407Y0739179D01*
X0527069Y0738905D01*
X0527784D01*
X0528446Y0739179D01*
X0528877Y0739610D01*
X0529107Y0739379D01*
X0529769Y0739105D01*
X0530484D01*
X0531146Y0739379D01*
X0531277Y0739510D01*
X0531607Y0739179D01*
X0532269Y0738905D01*
X0532984D01*
X0533646Y0739179D01*
X0534152Y0739685D01*
X0534426Y0740347D01*
Y0741062D01*
X0534152Y0741724D01*
X0533646Y0742230D01*
X0532984Y0742504D01*
X0532269D01*
X0531607Y0742230D01*
X0531477Y0742099D01*
X0531146Y0742430D01*
X0530484Y0742704D01*
D02*
G37*
G36*
X0521685Y0741304D02*
X0520969D01*
X0520307Y0741030D01*
X0519801Y0740524D01*
X0519527Y0739862D01*
Y0739147D01*
X0519801Y0738485D01*
X0519982Y0738305D01*
X0519801Y0738124D01*
X0519527Y0737463D01*
Y0736747D01*
X0519801Y0736086D01*
X0520307Y0735579D01*
X0520969Y0735305D01*
X0521685D01*
X0522346Y0735579D01*
X0522852Y0736086D01*
X0523126Y0736747D01*
Y0737463D01*
X0522852Y0738124D01*
X0522671Y0738305D01*
X0522852Y0738485D01*
X0523126Y0739147D01*
Y0739862D01*
X0522852Y0740524D01*
X0522346Y0741030D01*
X0521685Y0741304D01*
D02*
G37*
G36*
X0586484Y0738404D02*
X0585769D01*
X0585107Y0738130D01*
X0584601Y0737624D01*
X0584327Y0736963D01*
Y0736247D01*
X0584601Y0735585D01*
X0584905Y0735281D01*
X0585052Y0734955D01*
X0584905Y0734628D01*
X0584601Y0734324D01*
X0584327Y0733663D01*
Y0732947D01*
X0584601Y0732285D01*
X0585107Y0731779D01*
X0585769Y0731505D01*
X0586484D01*
X0587146Y0731779D01*
X0587652Y0732285D01*
X0587926Y0732947D01*
Y0733663D01*
X0587652Y0734324D01*
X0587348Y0734628D01*
X0587202Y0734955D01*
X0587348Y0735281D01*
X0587652Y0735585D01*
X0587926Y0736247D01*
Y0736963D01*
X0587652Y0737624D01*
X0587146Y0738130D01*
X0586484Y0738404D01*
D02*
G37*
G36*
X0562084Y0734904D02*
X0561369D01*
X0560707Y0734630D01*
X0560201Y0734124D01*
X0559927Y0733462D01*
Y0732747D01*
X0560201Y0732086D01*
X0560707Y0731579D01*
X0561369Y0731305D01*
X0562084D01*
X0562746Y0731579D01*
X0563252Y0732086D01*
X0563526Y0732747D01*
Y0733462D01*
X0563252Y0734124D01*
X0562746Y0734630D01*
X0562084Y0734904D01*
D02*
G37*
G36*
X0557284D02*
X0556569D01*
X0555907Y0734630D01*
X0555401Y0734124D01*
X0555127Y0733462D01*
Y0732747D01*
X0555401Y0732086D01*
X0555907Y0731579D01*
X0556569Y0731305D01*
X0557284D01*
X0557946Y0731579D01*
X0558452Y0732086D01*
X0558726Y0732747D01*
Y0733462D01*
X0558452Y0734124D01*
X0557946Y0734630D01*
X0557284Y0734904D01*
D02*
G37*
G36*
X0607153Y0751197D02*
X0605446D01*
X0603760Y0750930D01*
X0602137Y0750402D01*
X0600617Y0749628D01*
X0599236Y0748625D01*
X0598029Y0747418D01*
X0597026Y0746037D01*
X0596251Y0744516D01*
X0595724Y0742893D01*
X0595457Y0741208D01*
Y0739501D01*
X0595724Y0737815D01*
X0596251Y0736192D01*
X0597026Y0734672D01*
X0598029Y0733291D01*
X0599236Y0732084D01*
X0600617Y0731081D01*
X0602137Y0730306D01*
X0603760Y0729779D01*
X0605446Y0729512D01*
X0607153D01*
X0608838Y0729779D01*
X0610461Y0730306D01*
X0611982Y0731081D01*
X0613363Y0732084D01*
X0614569Y0733291D01*
X0615573Y0734672D01*
X0616347Y0736192D01*
X0616875Y0737815D01*
X0617142Y0739501D01*
Y0741208D01*
X0616875Y0742893D01*
X0616347Y0744516D01*
X0615573Y0746037D01*
X0614569Y0747418D01*
X0613363Y0748625D01*
X0611982Y0749628D01*
X0610461Y0750402D01*
X0608838Y0750930D01*
X0607153Y0751197D01*
D02*
G37*
G36*
X0402428D02*
X0400722D01*
X0399036Y0750930D01*
X0397413Y0750402D01*
X0395892Y0749628D01*
X0394511Y0748625D01*
X0393305Y0747418D01*
X0392301Y0746037D01*
X0391527Y0744516D01*
X0390999Y0742893D01*
X0390732Y0741208D01*
Y0739501D01*
X0390999Y0737815D01*
X0391527Y0736192D01*
X0392301Y0734672D01*
X0393305Y0733291D01*
X0394511Y0732084D01*
X0395892Y0731081D01*
X0397413Y0730306D01*
X0399036Y0729779D01*
X0400722Y0729512D01*
X0402428D01*
X0404114Y0729779D01*
X0405737Y0730306D01*
X0407258Y0731081D01*
X0408638Y0732084D01*
X0409845Y0733291D01*
X0410848Y0734672D01*
X0411623Y0736192D01*
X0412150Y0737815D01*
X0412417Y0739501D01*
Y0741208D01*
X0412150Y0742893D01*
X0411623Y0744516D01*
X0410848Y0746037D01*
X0409845Y0747418D01*
X0408638Y0748625D01*
X0407258Y0749628D01*
X0405737Y0750402D01*
X0404114Y0750930D01*
X0402428Y0751197D01*
D02*
G37*
%LPD*%
G36*
X0488236Y0864837D02*
Y0860005D01*
X0488327Y0859549D01*
X0488558Y0859204D01*
X0488500Y0858959D01*
X0488395Y0858704D01*
X0488369D01*
X0487707Y0858430D01*
X0487201Y0857924D01*
X0487029Y0857507D01*
X0486759D01*
X0486098Y0857233D01*
X0485967Y0857102D01*
X0485836Y0857233D01*
X0485175Y0857507D01*
X0484775D01*
X0484602Y0857924D01*
X0484096Y0858430D01*
X0483435Y0858704D01*
X0482719D01*
X0482058Y0858430D01*
X0481927Y0858299D01*
X0481796Y0858430D01*
X0481135Y0858704D01*
X0480419D01*
X0480407Y0858712D01*
Y0859415D01*
X0484810Y0863818D01*
X0486017D01*
X0486473Y0863908D01*
X0486859Y0864166D01*
X0487736Y0865044D01*
X0488236Y0864837D01*
D02*
G37*
G36*
X0464580Y0841468D02*
Y0826193D01*
X0464330D01*
X0463891Y0826011D01*
X0463556Y0825676D01*
X0463374Y0825237D01*
Y0825010D01*
X0455918D01*
X0455865Y0825276D01*
X0455607Y0825662D01*
X0455569Y0825688D01*
Y0826277D01*
X0455761Y0826565D01*
X0455852Y0827020D01*
X0455761Y0827476D01*
X0455503Y0827862D01*
X0455117Y0828120D01*
X0454661Y0828211D01*
X0453315D01*
X0453080Y0828446D01*
X0452959Y0828496D01*
X0452928Y0828967D01*
X0453300Y0829330D01*
X0454365D01*
X0454821Y0829421D01*
X0455207Y0829679D01*
X0455403Y0829875D01*
X0455661Y0830261D01*
X0455752Y0830716D01*
Y0832724D01*
X0455719Y0832888D01*
X0455959Y0833201D01*
X0456116Y0833330D01*
X0457919D01*
X0458168Y0832958D01*
Y0832483D01*
X0458350Y0832045D01*
X0458685Y0831709D01*
X0459124Y0831527D01*
X0459598D01*
X0460037Y0831709D01*
X0460373Y0832045D01*
X0460375Y0832051D01*
X0460403Y0832079D01*
X0460661Y0832465D01*
X0460751Y0832920D01*
Y0834705D01*
Y0839720D01*
X0460661Y0840176D01*
X0460403Y0840562D01*
X0459539Y0841426D01*
X0459730Y0841888D01*
X0464160D01*
X0464580Y0841468D01*
D02*
G37*
G36*
X0510036Y0840861D02*
Y0820605D01*
X0510049Y0820540D01*
X0509680Y0820112D01*
X0507295D01*
X0507010Y0820612D01*
X0507098Y0820826D01*
Y0821300D01*
X0506917Y0821739D01*
X0506581Y0822074D01*
X0506442Y0822132D01*
Y0824084D01*
X0506857Y0824166D01*
X0506955Y0824232D01*
X0507198Y0823989D01*
X0507637Y0823807D01*
X0508111D01*
X0508550Y0823989D01*
X0508885Y0824324D01*
X0509067Y0824763D01*
Y0825237D01*
X0508885Y0825676D01*
X0508550Y0826011D01*
X0508111Y0826193D01*
X0507637D01*
X0507551Y0826250D01*
Y0834605D01*
X0507551Y0834605D01*
X0507465Y0835035D01*
X0507403Y0835128D01*
Y0839392D01*
X0509346Y0841335D01*
X0509545Y0841339D01*
X0510036Y0840861D01*
D02*
G37*
G36*
X0546382Y0837060D02*
X0546191Y0836598D01*
X0535917D01*
X0535462Y0836507D01*
X0535076Y0836249D01*
X0528076Y0829249D01*
X0527818Y0828863D01*
X0527727Y0828408D01*
Y0823208D01*
X0527818Y0822752D01*
X0528076Y0822366D01*
X0529076Y0821366D01*
X0529318Y0821204D01*
X0529459Y0820638D01*
X0529373Y0820552D01*
X0529099Y0819891D01*
Y0819606D01*
X0512564D01*
X0512297Y0820105D01*
X0512326Y0820149D01*
X0512417Y0820605D01*
Y0841350D01*
X0512752Y0841685D01*
X0513026Y0842347D01*
Y0842821D01*
X0516123Y0845918D01*
X0537524D01*
X0546382Y0837060D01*
D02*
G37*
G36*
X0461451Y0794395D02*
X0461560Y0794113D01*
X0461406Y0793741D01*
Y0793267D01*
X0461587Y0792828D01*
X0461888Y0792528D01*
X0461871Y0792363D01*
X0461739Y0792028D01*
X0458961D01*
X0458532Y0791850D01*
X0458232Y0791550D01*
X0458130Y0791305D01*
X0457592Y0791309D01*
X0457491Y0791554D01*
X0457295Y0791750D01*
X0456865Y0791928D01*
X0455661D01*
X0455232Y0791750D01*
X0455032Y0791550D01*
X0454854Y0791120D01*
Y0789718D01*
X0454620Y0789562D01*
X0453468Y0788411D01*
X0447342D01*
X0447135Y0788910D01*
X0449874Y0791650D01*
X0450392Y0791574D01*
X0450670Y0791145D01*
X0450450Y0790925D01*
X0450268Y0790486D01*
Y0790012D01*
X0450450Y0789573D01*
X0450785Y0789238D01*
X0451224Y0789056D01*
X0451698D01*
X0452137Y0789238D01*
X0452473Y0789573D01*
X0452654Y0790012D01*
Y0790486D01*
X0452473Y0790925D01*
X0452152Y0791245D01*
X0452473Y0791566D01*
X0452654Y0792004D01*
Y0792430D01*
X0457061D01*
X0457517Y0792521D01*
X0457903Y0792779D01*
X0458161Y0793165D01*
X0458251Y0793620D01*
X0458196Y0793897D01*
X0458913Y0794613D01*
X0461313D01*
X0461451Y0794395D01*
D02*
G37*
G36*
X0562282Y0782204D02*
X0562001Y0781924D01*
X0561727Y0781262D01*
Y0780547D01*
X0562001Y0779885D01*
X0562507Y0779379D01*
X0562991Y0779179D01*
X0562891Y0778679D01*
X0545499D01*
X0545477Y0778714D01*
X0545346Y0779179D01*
X0545752Y0779586D01*
X0546026Y0780247D01*
Y0780602D01*
X0546770Y0781346D01*
X0546770Y0781346D01*
X0548129Y0782704D01*
X0562075D01*
X0562282Y0782204D01*
D02*
G37*
G36*
X0561727Y0775863D02*
Y0775147D01*
X0562001Y0774485D01*
X0562077Y0774410D01*
X0561870Y0773910D01*
X0545266D01*
X0545046Y0774130D01*
X0544674Y0774284D01*
Y0774825D01*
X0545046Y0774979D01*
X0545552Y0775486D01*
X0545819Y0776130D01*
X0561549D01*
X0561727Y0775863D01*
D02*
G37*
G36*
X0517838Y0790259D02*
Y0783511D01*
X0517611Y0783359D01*
X0516895D01*
X0516234Y0783085D01*
X0515728Y0782579D01*
X0515454Y0781918D01*
Y0781202D01*
X0515728Y0780541D01*
X0515862Y0780407D01*
X0515655Y0779907D01*
X0515459D01*
X0514798Y0779633D01*
X0514292Y0779127D01*
X0514018Y0778466D01*
Y0777750D01*
X0514292Y0777089D01*
X0514798Y0776582D01*
X0515459Y0776309D01*
X0516175D01*
X0516836Y0776582D01*
X0517338Y0777084D01*
X0517363Y0777084D01*
X0517838Y0776979D01*
Y0774512D01*
X0503539Y0760212D01*
X0503010Y0760391D01*
X0502971Y0760678D01*
X0508459Y0766166D01*
X0508717Y0766552D01*
X0508807Y0767008D01*
Y0770545D01*
X0509307Y0770879D01*
X0509485Y0770805D01*
X0510200D01*
X0510862Y0771079D01*
X0511368Y0771586D01*
X0511642Y0772247D01*
Y0772963D01*
X0511368Y0773624D01*
X0510942Y0774050D01*
X0511759Y0774866D01*
X0512017Y0775252D01*
X0512107Y0775708D01*
X0512017Y0776163D01*
X0511759Y0776549D01*
X0511524Y0776706D01*
Y0788608D01*
X0511347Y0789037D01*
X0510387Y0789996D01*
X0509958Y0790174D01*
X0506976D01*
X0506652Y0790553D01*
X0506699Y0790815D01*
X0506798Y0791014D01*
X0517082D01*
X0517838Y0790259D01*
D02*
G37*
G36*
X0450455Y0778489D02*
X0450489Y0778359D01*
X0450438Y0778308D01*
X0450256Y0777870D01*
Y0777395D01*
X0450438Y0776957D01*
X0450774Y0776621D01*
X0451212Y0776439D01*
X0451600D01*
X0451699Y0776426D01*
X0452062Y0776053D01*
Y0775904D01*
X0446468Y0770310D01*
X0443042D01*
X0442835Y0770811D01*
X0446345Y0774321D01*
X0446819D01*
X0447480Y0774595D01*
X0447987Y0775101D01*
X0448260Y0775763D01*
Y0776478D01*
X0447987Y0777140D01*
X0447480Y0777646D01*
X0447075Y0777813D01*
X0446862Y0778360D01*
X0446866Y0778400D01*
X0446944Y0778518D01*
X0449310D01*
X0449765Y0778608D01*
X0449947Y0778729D01*
X0450455Y0778489D01*
D02*
G37*
G36*
X0509727Y0742315D02*
Y0737008D01*
X0509818Y0736552D01*
X0510076Y0736166D01*
X0512827Y0733415D01*
Y0732831D01*
X0512395Y0732561D01*
X0512251Y0732594D01*
X0512041Y0732804D01*
X0511380Y0733078D01*
X0510664D01*
X0510003Y0732804D01*
X0509774Y0732575D01*
X0509447Y0732334D01*
X0509120Y0732575D01*
X0508891Y0732804D01*
X0508230Y0733078D01*
X0507514D01*
X0506853Y0732804D01*
X0506624Y0732575D01*
X0506297Y0732334D01*
X0505971Y0732575D01*
X0505742Y0732804D01*
X0505081Y0733078D01*
X0504365D01*
X0503703Y0732804D01*
X0503475Y0732575D01*
X0503148Y0732334D01*
X0502821Y0732575D01*
X0502592Y0732804D01*
X0501931Y0733078D01*
X0501290D01*
X0501141Y0733280D01*
X0501045Y0733540D01*
X0503520Y0736015D01*
X0504027D01*
X0504482Y0736105D01*
X0504868Y0736363D01*
X0506859Y0738354D01*
X0507117Y0738740D01*
X0507207Y0739195D01*
Y0743678D01*
X0508364D01*
X0509727Y0742315D01*
D02*
G37*
%LPC*%
G36*
X0513654Y0785701D02*
X0513180D01*
X0512741Y0785519D01*
X0512406Y0785183D01*
X0512224Y0784745D01*
Y0784270D01*
X0512406Y0783832D01*
X0512741Y0783497D01*
X0513180Y0783315D01*
X0513654D01*
X0514093Y0783497D01*
X0514429Y0783832D01*
X0514610Y0784270D01*
Y0784745D01*
X0514429Y0785183D01*
X0514093Y0785519D01*
X0513654Y0785701D01*
D02*
G37*
%LPD*%
D10*
X0600027Y0766805D02*
Y0795505D01*
X0545527Y0766205D02*
X0599427D01*
X0600027Y0766805D01*
X0598227Y0768505D02*
X0598727Y0769005D01*
X0544027Y0768505D02*
X0598227D01*
X0598316Y0792815D02*
X0598727Y0792405D01*
Y0769005D02*
Y0792405D01*
X0596737Y0792815D02*
X0598316D01*
X0596527Y0792605D02*
X0596737Y0792815D01*
X0543927Y0764605D02*
X0545527Y0766205D01*
X0553327Y0764605D02*
X0595127D01*
X0547601Y0783979D02*
X0572927D01*
X0545869Y0782247D02*
X0547601Y0783979D01*
X0545869Y0782247D02*
Y0782247D01*
X0544227Y0780605D02*
X0545869Y0782247D01*
X0571827Y0777405D02*
X0572927Y0778505D01*
X0544869Y0777405D02*
X0571827D01*
X0572927Y0778505D02*
Y0780829D01*
X0544027Y0776505D02*
Y0776562D01*
X0544869Y0777405D01*
X0543796Y0772635D02*
X0572634D01*
X0572927Y0772928D01*
Y0776105D01*
X0551327Y0759905D02*
Y0762605D01*
X0553327Y0764605D01*
D57*
X0437180Y0818640D02*
G03*
X0437152Y0818641I-0000028J-0000334D01*
G01*
X0437298Y0818630D02*
G03*
X0437336Y0818629I0000028J0000334D01*
G01*
X0444935Y0789584D02*
G03*
X0445299Y0789220I0000364J0000000D01*
G01*
X0444935Y0789585D02*
G03*
X0444570Y0789949I-0000364J0000000D01*
G01*
X0444570D02*
G03*
X0444206Y0789585I0000000J-0000364D01*
G01*
X0443842Y0788724D02*
G03*
X0444206Y0789088I0000000J0000364D01*
G01*
X0443478D02*
G03*
X0443842Y0788724I0000364J0000000D01*
G01*
X0443478Y0790256D02*
G03*
X0443114Y0790620I-0000364J0000000D01*
G01*
X0443114D02*
G03*
X0442750Y0790256I0000000J-0000364D01*
G01*
X0442385Y0788620D02*
G03*
X0442750Y0788984I0000000J0000364D01*
G01*
X0442021D02*
G03*
X0442385Y0788620I0000364J0000000D01*
G01*
X0442021Y0790256D02*
G03*
X0441657Y0790620I-0000364J0000000D01*
G01*
X0441657D02*
G03*
X0441293Y0790256I0000000J-0000364D01*
G01*
X0440929Y0789220D02*
G03*
X0441293Y0789584I0000000J0000364D01*
G01*
X0448627Y0799920D02*
G03*
X0448263Y0799556I0000000J-0000364D01*
G01*
X0447899Y0798920D02*
G03*
X0448263Y0799285I0000000J0000364D01*
G01*
X0447535D02*
G03*
X0447899Y0798920I0000364J0000000D01*
G01*
X0447535Y0800328D02*
G03*
X0447170Y0800692I-0000364J0000000D01*
G01*
X0447170D02*
G03*
X0446806Y0800328I0000000J-0000364D01*
G01*
X0446442Y0798920D02*
G03*
X0446806Y0799285I0000000J0000364D01*
G01*
X0446078D02*
G03*
X0446442Y0798920I0000364J0000000D01*
G01*
X0446078Y0800328D02*
G03*
X0445714Y0800692I-0000364J0000000D01*
G01*
X0445714D02*
G03*
X0445350Y0800328I0000000J-0000364D01*
G01*
X0444985Y0798920D02*
G03*
X0445350Y0799285I0000000J0000364D01*
G01*
X0444621D02*
G03*
X0444985Y0798920I0000364J0000000D01*
G01*
X0444621Y0800328D02*
G03*
X0444257Y0800692I-0000364J0000000D01*
G01*
X0444257D02*
G03*
X0443893Y0800328I0000000J-0000364D01*
G01*
X0443529Y0799920D02*
G03*
X0443893Y0800284I0000000J0000364D01*
G01*
X0447205Y0793985D02*
G03*
X0447569Y0793620I0000364J0000000D01*
G01*
X0447205Y0794256D02*
G03*
X0446840Y0794620I-0000364J0000000D01*
G01*
X0446840D02*
G03*
X0446476Y0794256I0000000J-0000364D01*
G01*
X0446112Y0791549D02*
G03*
X0446476Y0791913I0000000J0000364D01*
G01*
X0445748D02*
G03*
X0446112Y0791549I0000364J0000000D01*
G01*
X0445748Y0794256D02*
G03*
X0445384Y0794620I-0000364J0000000D01*
G01*
X0445384D02*
G03*
X0445020Y0794256I0000000J-0000364D01*
G01*
X0444655Y0791549D02*
G03*
X0445020Y0791913I0000000J0000364D01*
G01*
X0444291D02*
G03*
X0444655Y0791549I0000364J0000000D01*
G01*
X0444291Y0794256D02*
G03*
X0443927Y0794620I-0000364J0000000D01*
G01*
X0443927D02*
G03*
X0443563Y0794256I0000000J-0000364D01*
G01*
X0443199Y0791549D02*
G03*
X0443563Y0791913I0000000J0000364D01*
G01*
X0442835D02*
G03*
X0443199Y0791549I0000364J0000000D01*
G01*
X0442835Y0794256D02*
G03*
X0442470Y0794620I-0000364J0000000D01*
G01*
X0442470D02*
G03*
X0442106Y0794256I0000000J-0000364D01*
G01*
X0441742Y0791549D02*
G03*
X0442106Y0791913I0000000J0000364D01*
G01*
X0441378D02*
G03*
X0441742Y0791549I0000364J0000000D01*
G01*
X0441378Y0794256D02*
G03*
X0441014Y0794620I-0000364J0000000D01*
G01*
X0441014D02*
G03*
X0440650Y0794256I0000000J-0000364D01*
G01*
X0440285Y0791549D02*
G03*
X0440650Y0791913I0000000J0000364D01*
G01*
X0439921D02*
G03*
X0440285Y0791549I0000364J0000000D01*
G01*
X0439921Y0794256D02*
G03*
X0439557Y0794620I-0000364J0000000D01*
G01*
X0439557D02*
G03*
X0439193Y0794256I0000000J-0000364D01*
G01*
X0438829Y0793620D02*
G03*
X0439193Y0793985I0000000J0000364D01*
G01*
X0447205Y0796784D02*
G03*
X0447569Y0796420I0000364J0000000D01*
G01*
X0447205Y0797602D02*
G03*
X0446840Y0797966I-0000364J0000000D01*
G01*
X0446840D02*
G03*
X0446476Y0797602I0000000J-0000364D01*
G01*
X0446112Y0795420D02*
G03*
X0446476Y0795785I0000000J0000364D01*
G01*
X0445748D02*
G03*
X0446112Y0795420I0000364J0000000D01*
G01*
X0445748Y0797602D02*
G03*
X0445384Y0797966I-0000364J0000000D01*
G01*
X0445384D02*
G03*
X0445020Y0797602I0000000J-0000364D01*
G01*
X0444655Y0795420D02*
G03*
X0445020Y0795785I0000000J0000364D01*
G01*
X0444291D02*
G03*
X0444655Y0795420I0000364J0000000D01*
G01*
X0444291Y0797602D02*
G03*
X0443927Y0797966I-0000364J0000000D01*
G01*
X0443927D02*
G03*
X0443563Y0797602I0000000J-0000364D01*
G01*
X0443199Y0795420D02*
G03*
X0443563Y0795785I0000000J0000364D01*
G01*
X0442835D02*
G03*
X0443199Y0795420I0000364J0000000D01*
G01*
X0442835Y0797602D02*
G03*
X0442470Y0797966I-0000364J0000000D01*
G01*
X0442470D02*
G03*
X0442106Y0797602I0000000J-0000364D01*
G01*
X0441742Y0795420D02*
G03*
X0442106Y0795785I0000000J0000364D01*
G01*
X0441378D02*
G03*
X0441742Y0795420I0000364J0000000D01*
G01*
X0441378Y0797602D02*
G03*
X0441014Y0797966I-0000364J0000000D01*
G01*
X0441014D02*
G03*
X0440650Y0797602I0000000J-0000364D01*
G01*
X0440285Y0795420D02*
G03*
X0440650Y0795785I0000000J0000364D01*
G01*
X0439921D02*
G03*
X0440285Y0795420I0000364J0000000D01*
G01*
X0439921Y0797602D02*
G03*
X0439557Y0797966I-0000364J0000000D01*
G01*
X0439557D02*
G03*
X0439193Y0797602I0000000J-0000364D01*
G01*
X0438829Y0796420D02*
G03*
X0439193Y0796784I0000000J0000364D01*
G01*
X0419848Y0805684D02*
G03*
X0420212Y0805320I0000364J0000000D01*
G01*
X0419848Y0805685D02*
G03*
X0419484Y0806049I-0000364J0000000D01*
G01*
X0419484D02*
G03*
X0419120Y0805685I0000000J-0000364D01*
G01*
X0418755Y0804667D02*
G03*
X0419120Y0805031I0000000J0000364D01*
G01*
X0418391D02*
G03*
X0418755Y0804667I0000364J0000000D01*
G01*
X0418391Y0806134D02*
G03*
X0418027Y0806498I-0000364J0000000D01*
G01*
X0418027D02*
G03*
X0417663Y0806134I0000000J-0000364D01*
G01*
X0417299Y0804577D02*
G03*
X0417663Y0804941I0000000J0000364D01*
G01*
X0416935D02*
G03*
X0417299Y0804577I0000364J0000000D01*
G01*
X0416935Y0806134D02*
G03*
X0416570Y0806498I-0000364J0000000D01*
G01*
X0416570D02*
G03*
X0416206Y0806134I0000000J-0000364D01*
G01*
X0415842Y0804577D02*
G03*
X0416206Y0804941I0000000J0000364D01*
G01*
X0415478D02*
G03*
X0415842Y0804577I0000364J0000000D01*
G01*
X0415478Y0806134D02*
G03*
X0415114Y0806498I-0000364J0000000D01*
G01*
X0415114D02*
G03*
X0414749Y0806134I0000000J-0000364D01*
G01*
X0414385Y0804577D02*
G03*
X0414749Y0804941I0000000J0000364D01*
G01*
X0414021D02*
G03*
X0414385Y0804577I0000364J0000000D01*
G01*
X0414021Y0806134D02*
G03*
X0413657Y0806498I-0000364J0000000D01*
G01*
X0413657D02*
G03*
X0413293Y0806134I0000000J-0000364D01*
G01*
X0412929Y0805320D02*
G03*
X0413293Y0805684I0000000J0000364D01*
G01*
X0420141Y0801620D02*
G03*
X0419776Y0801256I0000000J-0000364D01*
G01*
X0419412Y0800892D02*
G03*
X0419776Y0801256I0000000J0000364D01*
G01*
X0419048D02*
G03*
X0419412Y0800892I0000364J0000000D01*
G01*
X0419048Y0801646D02*
G03*
X0418684Y0802010I-0000364J0000000D01*
G01*
X0418684D02*
G03*
X0418320Y0801646I0000000J-0000364D01*
G01*
X0417955Y0800292D02*
G03*
X0418320Y0800656I0000000J0000364D01*
G01*
X0417591D02*
G03*
X0417955Y0800292I0000364J0000000D01*
G01*
X0417591Y0801977D02*
G03*
X0417227Y0802341I-0000364J0000000D01*
G01*
X0417227D02*
G03*
X0416863Y0801977I0000000J-0000364D01*
G01*
X0416499Y0800292D02*
G03*
X0416863Y0800656I0000000J0000364D01*
G01*
X0416135D02*
G03*
X0416499Y0800292I0000364J0000000D01*
G01*
X0416135Y0801977D02*
G03*
X0415770Y0802341I-0000364J0000000D01*
G01*
X0415770D02*
G03*
X0415406Y0801977I0000000J-0000364D01*
G01*
X0415042Y0800292D02*
G03*
X0415406Y0800656I0000000J0000364D01*
G01*
X0414678D02*
G03*
X0415042Y0800292I0000364J0000000D01*
G01*
X0414678Y0801977D02*
G03*
X0414314Y0802341I-0000364J0000000D01*
G01*
X0414314D02*
G03*
X0413949Y0801977I0000000J-0000364D01*
G01*
X0413585Y0800292D02*
G03*
X0413949Y0800656I0000000J0000364D01*
G01*
X0413221D02*
G03*
X0413585Y0800292I0000364J0000000D01*
G01*
X0413221Y0801256D02*
G03*
X0412857Y0801620I-0000364J0000000D01*
G01*
X0435809Y0818641D02*
G03*
X0435833Y0818641I0000021J0000334D01*
G01*
X0458958Y0810592D02*
G03*
X0458495Y0810129I0000000J-0000463D01*
G01*
X0457570Y0808845D02*
G03*
X0458495Y0808845I0000463J0000000D01*
G01*
X0457570Y0810176D02*
G03*
X0456645Y0810176I-0000463J0000000D01*
G01*
X0455720Y0808845D02*
G03*
X0456645Y0808845I0000463J0000000D01*
G01*
X0455720Y0810129D02*
G03*
X0455257Y0810592I-0000463J0000000D01*
G01*
X0457987Y0816494D02*
G03*
X0457333Y0816494I-0000327J-0000327D01*
G01*
X0455342Y0815158D02*
G03*
X0455996Y0815158I0000327J0000327D01*
G01*
X0455342Y0815812D02*
G03*
X0455342Y0815158I0000327J-0000327D01*
G01*
X0456724Y0817194D02*
G03*
X0456724Y0817848I-0000327J0000327D01*
G01*
D02*
G03*
X0456070Y0817848I-0000327J-0000327D01*
G01*
X0454034Y0816466D02*
G03*
X0454688Y0816466I0000327J0000327D01*
G01*
X0454034Y0817120D02*
G03*
X0454034Y0816466I0000327J-0000327D01*
G01*
X0455370Y0818457D02*
G03*
X0455370Y0819111I-0000327J0000327D01*
G01*
X0447858Y0811320D02*
G03*
X0447396Y0810858I0000000J-0000463D01*
G01*
X0446471Y0808448D02*
G03*
X0447396Y0808448I0000463J0000000D01*
G01*
X0446471Y0811073D02*
G03*
X0445545Y0811073I-0000463J0000000D01*
G01*
X0444620Y0808448D02*
G03*
X0445545Y0808448I0000463J0000000D01*
G01*
X0444620Y0811073D02*
G03*
X0443695Y0811073I-0000463J0000000D01*
G01*
X0442770Y0808448D02*
G03*
X0443695Y0808448I0000463J0000000D01*
G01*
X0442770Y0811073D02*
G03*
X0441845Y0811073I-0000463J0000000D01*
G01*
X0440919Y0808448D02*
G03*
X0441845Y0808448I0000463J0000000D01*
G01*
X0440919Y0810662D02*
G03*
X0440130Y0810989I-0000463J0000000D01*
G01*
X0447268Y0813483D02*
G03*
X0447730Y0813020I0000463J0000000D01*
G01*
X0447268Y0817012D02*
G03*
X0446342Y0817012I-0000463J0000000D01*
G01*
X0445417Y0813470D02*
G03*
X0446342Y0813470I0000463J0000000D01*
G01*
X0445417Y0817012D02*
G03*
X0444492Y0817012I-0000463J0000000D01*
G01*
X0443567Y0813470D02*
G03*
X0444492Y0813470I0000463J0000000D01*
G01*
X0443567Y0817012D02*
G03*
X0442642Y0817012I-0000463J0000000D01*
G01*
X0441716Y0813470D02*
G03*
X0442642Y0813470I0000463J0000000D01*
G01*
X0441716Y0817012D02*
G03*
X0440791Y0817012I-0000463J0000000D01*
G01*
X0440329Y0813020D02*
G03*
X0440791Y0813483I0000000J0000463D01*
G01*
X0413976Y0788114D02*
G03*
X0414194Y0788100I0000197J0001346D01*
G01*
X0413206Y0785810D02*
G03*
X0414230Y0785380I0000993J0000930D01*
G01*
X0481517Y0847808D02*
Y0854108D01*
X0480717Y0849308D02*
Y0853408D01*
X0478117Y0856008D02*
X0480717Y0853408D01*
X0477127Y0845717D02*
X0480717Y0849308D01*
X0479217Y0856408D02*
X0481517Y0854108D01*
X0480753Y0847043D02*
X0481517Y0847808D01*
X0479217Y0856408D02*
Y0859908D01*
X0487127Y0866117D02*
Y0868105D01*
X0486017Y0865008D02*
X0487127Y0866117D01*
X0484317Y0865008D02*
X0486017D01*
X0479217Y0859908D02*
X0484317Y0865008D01*
X0480753Y0843543D02*
Y0847043D01*
Y0839172D02*
X0482517Y0837408D01*
Y0833208D02*
Y0837408D01*
X0480753Y0839172D02*
Y0843543D01*
X0481617Y0833608D02*
Y0836708D01*
X0477127Y0841198D02*
X0481617Y0836708D01*
X0477127Y0841198D02*
Y0843508D01*
X0480217Y0832208D02*
X0481617Y0833608D01*
X0481017Y0831708D02*
X0482517Y0833208D01*
X0481017Y0823908D02*
Y0831708D01*
Y0823908D02*
X0482417Y0822508D01*
Y0821408D02*
Y0822508D01*
X0482618Y0821206D02*
X0482762Y0821063D01*
X0482417Y0821408D02*
X0482618Y0821206D01*
X0482762Y0821063D02*
X0484252D01*
X0480217Y0822908D02*
X0481717Y0821408D01*
X0480217Y0822908D02*
Y0832208D01*
X0481717Y0819908D02*
Y0821408D01*
X0482530Y0819094D02*
X0484252D01*
X0481717Y0819908D02*
X0482530Y0819094D01*
X0479417Y0832825D02*
Y0832844D01*
Y0821961D02*
Y0832825D01*
Y0832844D02*
Y0833707D01*
X0480257Y0834546D01*
X0479417Y0821961D02*
X0480315Y0821063D01*
X0486817Y0832844D02*
Y0835899D01*
Y0832825D02*
Y0832844D01*
Y0822466D02*
Y0832825D01*
Y0835899D02*
X0487337Y0836418D01*
Y0836727D01*
X0485917Y0832844D02*
Y0841376D01*
X0486561Y0842020D01*
X0485917Y0821366D02*
Y0832825D01*
Y0832844D01*
Y0821366D02*
X0488189Y0819094D01*
X0486817Y0822466D02*
X0488189Y0821095D01*
X0489861Y0841839D02*
X0490770Y0842748D01*
X0490877D01*
X0490827Y0842605D02*
Y0852305D01*
X0478117Y0856008D02*
Y0860508D01*
X0484635Y0868013D02*
X0484727Y0868105D01*
X0478117Y0860508D02*
X0484635Y0867025D01*
Y0868013D01*
X0477127Y0843508D02*
Y0845717D01*
X0444767Y0848905D02*
X0467640D01*
X0474427Y0842118D01*
X0473698Y0834705D02*
Y0841817D01*
X0444465Y0848176D02*
X0467339D01*
X0474427Y0819805D02*
Y0842118D01*
X0467339Y0848176D02*
X0473698Y0841817D01*
X0474427Y0819805D02*
X0475077Y0819154D01*
X0473698Y0818033D02*
Y0834705D01*
Y0818033D02*
X0474327Y0817405D01*
X0517167Y0731108D02*
Y0733758D01*
X0515617Y0729529D02*
X0515638Y0729508D01*
X0515617Y0729529D02*
Y0733808D01*
X0514017Y0731108D02*
Y0733908D01*
X0510917Y0737008D02*
X0514017Y0733908D01*
X0505217Y0754684D02*
Y0758808D01*
Y0754684D02*
X0507623Y0752279D01*
X0509451Y0749430D02*
Y0752374D01*
X0506617Y0755208D02*
X0509451Y0752374D01*
X0508517Y0754408D02*
X0510517D01*
X0507557Y0755368D02*
X0508517Y0754408D01*
X0507557Y0755368D02*
Y0758647D01*
X0506617Y0755208D02*
Y0758908D01*
X0510517Y0754408D02*
X0511017Y0753908D01*
Y0752708D02*
Y0753908D01*
Y0752708D02*
X0511117Y0752608D01*
X0511024Y0752530D02*
Y0752608D01*
X0506617Y0758908D02*
X0522928Y0775219D01*
X0511027Y0751849D02*
Y0752530D01*
X0522928Y0775219D02*
Y0792367D01*
X0503937Y0797420D02*
X0504008Y0797350D01*
X0507557Y0758647D02*
X0524227Y0775317D01*
Y0792905D01*
X0505217Y0758808D02*
X0520327Y0773917D01*
Y0791289D01*
X0504017Y0759008D02*
X0519029Y0774019D01*
X0504017Y0751714D02*
Y0759008D01*
Y0751714D02*
X0506301Y0749430D01*
X0512817Y0738108D02*
X0517167Y0733758D01*
X0512817Y0738108D02*
Y0743208D01*
X0509517Y0746508D02*
X0512817Y0743208D01*
X0506817Y0746508D02*
X0509517D01*
X0506617Y0745608D02*
X0509217D01*
X0511917Y0742908D01*
Y0737508D02*
Y0742908D01*
X0501646Y0751679D02*
X0506817Y0746508D01*
X0501646Y0751679D02*
Y0761036D01*
X0507617Y0767008D01*
Y0772408D01*
X0510917Y0775708D01*
X0509958Y0789567D02*
X0510917Y0788608D01*
Y0775708D02*
Y0788608D01*
X0506717Y0772808D02*
X0509842Y0775933D01*
X0506717Y0767208D02*
Y0772808D01*
X0500917Y0761408D02*
X0506717Y0767208D01*
X0500917Y0751308D02*
Y0761408D01*
Y0751308D02*
X0506617Y0745608D01*
X0500117Y0761836D02*
X0505905Y0767625D01*
X0500117Y0750908D02*
Y0761836D01*
Y0750908D02*
X0506157Y0744868D01*
X0508857D01*
X0510917Y0742808D01*
X0511917Y0737508D02*
X0515617Y0733808D01*
X0510917Y0737008D02*
Y0742808D01*
X0501820Y0748005D02*
X0506017Y0743808D01*
X0499727Y0748005D02*
X0501820D01*
X0506017Y0739195D02*
Y0743808D01*
X0501917Y0746708D02*
X0504617Y0744008D01*
X0499463Y0746708D02*
X0501917D01*
X0494227Y0751944D02*
X0499463Y0746708D01*
X0504027Y0737205D02*
X0506017Y0739195D01*
X0503227Y0740905D02*
X0504617Y0742295D01*
Y0744008D01*
X0519029Y0774019D02*
Y0790752D01*
X0505905Y0767625D02*
Y0785630D01*
X0509842Y0775933D02*
Y0786614D01*
X0503937Y0787794D02*
X0504133Y0787598D01*
X0508858D01*
X0503937Y0787794D02*
Y0789567D01*
X0508858Y0787598D02*
X0509842Y0786614D01*
X0503937Y0789567D02*
X0503937Y0789567D01*
X0505905D02*
X0509958D01*
X0478627Y0832825D02*
Y0832844D01*
X0478265Y0834204D02*
Y0834546D01*
X0478627Y0832844D02*
Y0833843D01*
X0478265Y0834204D02*
X0478627Y0833843D01*
Y0822205D02*
Y0832825D01*
X0459485Y0832844D02*
X0459561Y0832920D01*
X0459466Y0832825D02*
X0459485Y0832844D01*
X0459361Y0832720D02*
X0459466Y0832825D01*
X0459561Y0832920D02*
Y0834705D01*
X0452235Y0796320D02*
X0454625Y0798710D01*
X0455861Y0799947D01*
X0450561Y0796320D02*
X0452235D01*
X0455861Y0799947D02*
Y0801820D01*
X0452961Y0834320D02*
X0453881Y0833400D01*
X0410996Y0826485D02*
X0411061Y0826420D01*
X0454961Y0802820D02*
X0464361D01*
X0442617Y0801908D02*
X0443105Y0801420D01*
X0453561D02*
X0454961Y0802820D01*
X0443105Y0801420D02*
X0453561D01*
X0453419Y0781920D02*
X0453461Y0781878D01*
X0451523Y0781920D02*
X0453419D01*
X0490527Y0875605D02*
X0497027Y0869105D01*
X0527827Y0813005D02*
Y0816505D01*
X0502269Y0815385D02*
X0524846D01*
X0427817Y0810608D02*
X0428117Y0810308D01*
X0423622Y0810660D02*
X0423674Y0810608D01*
X0427817D01*
X0419817Y0807808D02*
X0420472Y0808463D01*
Y0809744D01*
X0418157Y0807808D02*
X0419817D01*
X0417961Y0808004D02*
Y0812620D01*
Y0808004D02*
X0418157Y0807808D01*
X0421961Y0809464D02*
Y0811820D01*
Y0809464D02*
X0422703Y0808722D01*
X0423379D02*
X0423621Y0808480D01*
X0422703Y0808722D02*
X0423379D01*
X0468965Y0787108D02*
X0469161Y0787304D01*
X0466517D02*
Y0791508D01*
X0469161Y0787304D02*
Y0794720D01*
X0466713Y0787108D02*
X0468965D01*
X0466517Y0787304D02*
X0466713Y0787108D01*
X0466535Y0791416D02*
Y0793504D01*
X0462661Y0796216D02*
Y0797320D01*
X0462465Y0796020D02*
X0462661Y0796216D01*
X0459161Y0796020D02*
X0462465D01*
X0456017Y0781604D02*
Y0782708D01*
X0456213Y0781408D02*
X0458213D01*
X0458413Y0781608D01*
X0456017Y0781604D02*
X0456213Y0781408D01*
X0454405Y0784320D02*
X0456017Y0782708D01*
X0458413Y0781608D02*
X0460617D01*
X0442461Y0784320D02*
X0454405D01*
X0472017Y0803004D02*
Y0803712D01*
X0466617Y0802808D02*
X0471821D01*
X0454649Y0803908D02*
X0471821D01*
Y0802808D02*
X0472017Y0803004D01*
X0471821Y0803908D02*
X0472017Y0803712D01*
X0466417Y0802608D02*
X0466617Y0802808D01*
X0466417Y0801608D02*
Y0802608D01*
X0452890Y0802149D02*
X0454649Y0803908D01*
X0464521Y0817126D02*
X0464717Y0816930D01*
X0464521Y0815820D02*
X0464717Y0816016D01*
Y0816930D01*
X0462756Y0817126D02*
X0464521D01*
X0458809Y0815820D02*
X0464521D01*
X0427617Y0811965D02*
Y0813576D01*
X0428861Y0814820D01*
X0427617Y0811965D02*
X0428574Y0811008D01*
X0465161Y0811816D02*
Y0813364D01*
X0463517Y0814108D02*
X0464417D01*
X0465161Y0813364D01*
X0462598Y0813189D02*
X0463517Y0814108D01*
X0431413Y0806220D02*
X0434830D01*
X0435061Y0806452D02*
Y0807820D01*
X0434830Y0806220D02*
X0435061Y0806452D01*
X0431217Y0806416D02*
X0431413Y0806220D01*
X0431217Y0806416D02*
Y0809908D01*
X0431834Y0810248D02*
X0432829Y0809253D01*
X0431557Y0810248D02*
X0431834D01*
X0431217Y0809908D02*
X0431557Y0810248D01*
X0422530Y0827620D02*
X0441261D01*
X0421761Y0826852D02*
X0422530Y0827620D01*
X0421761Y0816620D02*
Y0826852D01*
X0409461Y0814924D02*
X0409657Y0815120D01*
X0409461Y0812611D02*
Y0814924D01*
X0409657Y0815120D02*
X0420261D01*
X0409617Y0810976D02*
X0409906Y0811265D01*
X0409617Y0810264D02*
Y0810976D01*
Y0810264D02*
X0410361Y0809520D01*
X0412261D01*
X0466517Y0813308D02*
X0466654D01*
X0468429Y0815082D02*
Y0815496D01*
X0468217Y0815708D02*
X0468429Y0815496D01*
X0466654Y0813308D02*
X0468429Y0815082D01*
X0466717Y0815708D02*
X0468217D01*
X0466030Y0815020D02*
X0466717Y0815708D01*
X0458561Y0815020D02*
X0466030D01*
X0400013Y0803849D02*
X0417930D01*
X0399817Y0804045D02*
X0400013Y0803849D01*
X0399817Y0804045D02*
Y0808268D01*
X0400013Y0808465D01*
X0404460D01*
X0431697Y0799487D02*
X0433389Y0801179D01*
X0425261Y0801283D02*
X0425457Y0801479D01*
X0418071Y0803708D02*
X0431117D01*
X0430557Y0802208D02*
X0430857Y0801908D01*
X0421917Y0802208D02*
X0430557D01*
X0423761Y0797820D02*
X0423961Y0798020D01*
X0428994Y0799487D02*
X0431697D01*
X0404761Y0800420D02*
X0407410Y0803069D01*
X0431015Y0802779D02*
X0443341D01*
X0407410Y0803069D02*
X0417680D01*
X0417769Y0802979D02*
X0430816D01*
X0421330Y0801620D02*
X0421917Y0802208D01*
X0428065Y0801479D02*
X0428261Y0801283D01*
X0431117Y0803708D02*
X0431317Y0803508D01*
X0430816Y0802979D02*
X0431015Y0802779D01*
X0417680Y0803069D02*
X0417769Y0802979D01*
X0417930Y0803849D02*
X0418071Y0803708D01*
X0430857Y0801908D02*
X0442617D01*
X0421030Y0801620D02*
X0421330D01*
X0428261Y0800220D02*
Y0801283D01*
X0425261Y0799720D02*
Y0801283D01*
X0428261Y0800220D02*
X0428994Y0799487D01*
X0425457Y0801479D02*
X0428065D01*
X0423961Y0798020D02*
X0425661D01*
X0431317Y0803508D02*
X0442717D01*
X0421845Y0804436D02*
X0442346D01*
X0420961Y0805320D02*
X0421845Y0804436D01*
X0438759Y0805507D02*
X0438857Y0805604D01*
X0425117Y0805644D02*
X0425597Y0805165D01*
X0438759Y0805506D02*
X0438759Y0805506D01*
X0438417Y0805165D02*
X0438664Y0805411D01*
X0438759Y0805506D02*
X0438759Y0805507D01*
X0438759Y0805507D02*
X0438759Y0805507D01*
X0442346Y0804436D02*
X0443560Y0805650D01*
X0425597Y0805165D02*
X0438417D01*
X0438664Y0805411D02*
X0438759Y0805506D01*
X0443341Y0802779D02*
X0443971Y0802149D01*
X0433389Y0801179D02*
X0441802D01*
X0443061Y0799920D01*
X0443560Y0805650D02*
X0456991D01*
X0425117Y0805644D02*
Y0807276D01*
X0443971Y0802149D02*
X0452890D01*
X0442717Y0803508D02*
X0444131Y0804922D01*
X0428574Y0811008D02*
X0429917D01*
X0437180Y0818640D02*
X0437298Y0818630D01*
X0435833Y0818641D02*
X0437152D01*
X0438857Y0805604D02*
Y0807912D01*
X0444131Y0804922D02*
X0457763D01*
X0432829Y0808793D02*
Y0809253D01*
Y0808793D02*
X0433071Y0808552D01*
X0427761Y0808020D02*
X0428117Y0808376D01*
Y0810308D01*
X0437382Y0811041D02*
X0439361Y0813020D01*
X0432941Y0811041D02*
X0437382D01*
X0435061Y0807820D02*
X0435561Y0808320D01*
X0432861Y0811120D02*
X0432941Y0811041D01*
X0435561Y0808320D02*
X0437461D01*
X0439596Y0810455D01*
X0438857Y0807912D02*
X0439053Y0808108D01*
X0439921D01*
X0425117Y0807276D02*
X0425861Y0808020D01*
X0440117Y0806816D02*
Y0807912D01*
Y0806816D02*
X0440313Y0806620D01*
X0448361D01*
X0449301Y0810592D02*
X0454165D01*
X0448861Y0810152D02*
X0449301Y0810592D01*
X0448861Y0807120D02*
Y0810152D01*
X0439921Y0808108D02*
X0440117Y0807912D01*
X0404460Y0808465D02*
X0404517Y0808408D01*
X0404761Y0798420D02*
Y0800420D01*
X0486517Y0853095D02*
X0487327Y0853905D01*
X0486517Y0843508D02*
X0486561Y0843464D01*
X0486517Y0843508D02*
Y0853095D01*
X0486561Y0842020D02*
Y0843464D01*
X0409561Y0820920D02*
Y0821920D01*
X0409761Y0820720D02*
X0411061D01*
X0409561Y0820920D02*
X0409761Y0820720D01*
X0406261Y0808420D02*
Y0809486D01*
X0404724Y0811024D02*
X0406261Y0809486D01*
X0548217Y0835408D02*
X0563717Y0819908D01*
X0580317D01*
X0535917Y0835408D02*
X0548217D01*
X0610689Y0816636D02*
X0611417Y0815908D01*
Y0808808D02*
Y0815908D01*
X0615617Y0803908D02*
Y0808608D01*
X0615417Y0808808D02*
X0615617Y0808608D01*
X0615117Y0803408D02*
X0615617Y0803908D01*
X0609417Y0803808D02*
Y0815108D01*
Y0803808D02*
X0609817Y0803408D01*
X0615117D01*
X0608617Y0815908D02*
X0609417Y0815108D01*
X0584317Y0815908D02*
X0608617D01*
X0584989Y0816636D02*
X0610689D01*
X0580717Y0820908D02*
X0584989Y0816636D01*
X0564217Y0820908D02*
X0580717D01*
X0580317Y0819908D02*
X0584317Y0815908D01*
X0538017Y0847108D02*
X0564217Y0820908D01*
X0528917Y0828408D02*
X0535917Y0835408D01*
X0528917Y0823208D02*
Y0828408D01*
Y0823208D02*
X0529917Y0822208D01*
X0533017D01*
X0534017Y0821208D01*
Y0812408D02*
Y0821208D01*
X0526317Y0811608D02*
X0533217D01*
X0534017Y0812408D01*
X0524927Y0812998D02*
Y0815305D01*
Y0812998D02*
X0526317Y0811608D01*
X0524824Y0810308D02*
X0533317D01*
X0535727Y0786805D02*
Y0807898D01*
X0533317Y0810308D02*
X0535727Y0807898D01*
X0520627Y0814505D02*
X0524824Y0810308D01*
X0519925Y0813206D02*
X0523823Y0809308D01*
X0533223D02*
X0534327Y0808205D01*
X0523823Y0809308D02*
X0533223D01*
X0515630Y0847108D02*
X0538017D01*
X0511227Y0842705D02*
X0515630Y0847108D01*
X0457763Y0804922D02*
X0459461Y0806620D01*
X0456991Y0805650D02*
X0458961Y0807620D01*
X0472317Y0771508D02*
Y0787472D01*
X0472430Y0787586D01*
X0445761Y0789220D02*
X0445997Y0789456D01*
X0445299Y0789220D02*
X0445761D01*
X0444935Y0789584D02*
Y0789585D01*
X0444570Y0789949D02*
X0444570D01*
X0444206Y0789088D02*
Y0789585D01*
X0443842Y0788724D02*
X0443842D01*
X0443478Y0789088D02*
Y0790256D01*
X0443114Y0790620D02*
X0443114D01*
X0442750Y0788984D02*
Y0790256D01*
X0442385Y0788620D02*
X0442385D01*
X0442021Y0788984D02*
Y0790256D01*
X0441657Y0790620D02*
X0441657D01*
X0441293Y0789584D02*
Y0790256D01*
X0440761Y0789220D02*
X0440929D01*
X0445997Y0789456D02*
X0450161Y0793620D01*
X0457061D01*
X0440261Y0789220D02*
X0440761D01*
X0453127Y0794508D02*
X0455117D01*
X0449417D02*
X0453027D01*
X0453127D01*
X0456361Y0795752D02*
Y0797520D01*
X0455117Y0794508D02*
X0456361Y0795752D01*
X0448530Y0793620D02*
X0449417Y0794508D01*
X0450262Y0782403D02*
X0450282Y0782604D01*
X0450238Y0782170D02*
X0450262Y0782403D01*
X0450217Y0782328D02*
Y0782408D01*
X0448410Y0780520D02*
X0450217Y0782328D01*
X0438761Y0774920D02*
X0444361Y0780520D01*
X0448410D01*
X0450225Y0782052D02*
X0450238Y0782170D01*
X0446049Y0779708D02*
X0449310D01*
X0440061Y0773720D02*
X0446049Y0779708D01*
X0449310D02*
X0451523Y0781920D01*
X0453027Y0827020D02*
X0453127D01*
X0452161D02*
X0453027D01*
X0468661Y0795220D02*
X0469161Y0794720D01*
X0458661Y0795220D02*
X0468661D01*
X0438661Y0790820D02*
X0440261Y0789220D01*
X0429861Y0795420D02*
X0429921D01*
Y0795669D02*
X0431761Y0793829D01*
X0457061Y0793620D02*
X0458661Y0795220D01*
X0435461Y0790820D02*
X0438661D01*
X0433257Y0793620D02*
X0438661D01*
X0433061Y0793816D02*
Y0795820D01*
Y0793816D02*
X0433257Y0793620D01*
X0432361Y0791120D02*
X0435161D01*
X0435461Y0790820D01*
X0431761Y0791720D02*
X0432361Y0791120D01*
X0431761Y0791720D02*
Y0793829D01*
X0426861Y0795420D02*
Y0796820D01*
X0425661Y0798020D02*
X0426861Y0796820D01*
X0425761Y0794320D02*
X0426861Y0795420D01*
X0425761Y0792420D02*
Y0794320D01*
X0458961Y0791420D02*
X0462365D01*
X0458661Y0791120D02*
X0458961Y0791420D01*
X0458661Y0789320D02*
Y0791120D01*
X0462561Y0791616D02*
Y0793320D01*
X0462365Y0791420D02*
X0462561Y0791616D01*
X0456865Y0791320D02*
X0457061Y0791124D01*
Y0789320D02*
Y0791124D01*
X0455661Y0791320D02*
X0456865D01*
X0455461Y0788720D02*
Y0791120D01*
X0455661Y0791320D01*
X0458261Y0788920D02*
X0458661Y0789320D01*
X0457461Y0788920D02*
X0458261D01*
X0457061Y0789320D02*
X0457461Y0788920D01*
X0453961Y0787220D02*
X0455461Y0788720D01*
X0462561Y0793320D02*
X0462661Y0793420D01*
X0440661Y0787220D02*
X0453961D01*
X0439861Y0788020D02*
X0440661Y0787220D01*
X0435761Y0788020D02*
X0439861D01*
X0435261Y0788520D02*
X0435761Y0788020D01*
X0435261Y0788520D02*
Y0789120D01*
X0434661Y0789720D02*
X0435261Y0789120D01*
X0433161Y0789220D02*
X0433661Y0789720D01*
X0434661D01*
X0433161Y0786420D02*
Y0789220D01*
X0432861Y0786120D02*
X0433161Y0786420D01*
X0432061Y0786120D02*
X0432861D01*
X0425161Y0791820D02*
X0431961Y0785020D01*
X0422661Y0791820D02*
X0425161D01*
X0431961Y0785020D02*
X0439361D01*
X0425761Y0792420D02*
X0432061Y0786120D01*
X0424861Y0799320D02*
X0425261Y0799720D01*
X0422261Y0799320D02*
X0424861D01*
X0422061Y0798820D02*
Y0799120D01*
X0422261Y0799320D01*
X0448761Y0799920D02*
X0449361Y0799320D01*
X0448627Y0799920D02*
X0448761D01*
X0448263Y0799285D02*
Y0799556D01*
X0447899Y0798920D02*
X0447899D01*
X0447535Y0799285D02*
Y0800328D01*
X0447170Y0800692D02*
X0447170D01*
X0446806Y0799285D02*
Y0800328D01*
X0446442Y0798920D02*
X0446442D01*
X0446078Y0799285D02*
Y0800328D01*
X0445714Y0800692D02*
X0445714D01*
X0445350Y0799285D02*
Y0800328D01*
X0444985Y0798920D02*
X0444985D01*
X0444621Y0799285D02*
Y0800328D01*
X0444257Y0800692D02*
X0444257D01*
X0443893Y0800284D02*
Y0800328D01*
X0443361Y0799920D02*
X0443529D01*
X0449361Y0799320D02*
X0449761Y0798920D01*
X0443061Y0799920D02*
X0443361D01*
X0449761Y0797120D02*
Y0798920D01*
X0459161Y0800420D02*
Y0801824D01*
X0458965Y0802020D02*
X0459161Y0801824D01*
X0458157Y0802020D02*
X0458965D01*
X0457961Y0800316D02*
Y0801824D01*
X0458157Y0802020D01*
X0457765Y0800120D02*
X0457961Y0800316D01*
X0457261Y0800120D02*
X0457765D01*
X0462365Y0800020D02*
X0462561Y0800216D01*
Y0801420D01*
X0459561Y0800020D02*
X0462365D01*
X0422061Y0797087D02*
X0423485Y0795664D01*
X0459161Y0800420D02*
X0459561Y0800020D01*
X0457061Y0800320D02*
X0457261Y0800120D01*
X0457061Y0800320D02*
Y0801820D01*
X0456861Y0802020D02*
X0457061Y0801820D01*
X0456061Y0802020D02*
X0456861D01*
X0455861Y0801820D02*
X0456061Y0802020D01*
X0452590Y0795349D02*
X0456461Y0799220D01*
X0466861D01*
X0449433Y0795349D02*
X0452590D01*
X0449761Y0797120D02*
X0450561Y0796320D01*
X0422061Y0797087D02*
Y0798720D01*
X0440561Y0786220D02*
X0454161D01*
X0439361Y0785020D02*
X0440561Y0786220D01*
X0454161D02*
X0455461Y0787520D01*
X0463261D01*
X0464923Y0789182D02*
Y0790344D01*
X0463261Y0787520D02*
X0464923Y0789182D01*
X0464567Y0790700D02*
Y0793504D01*
Y0790700D02*
X0464923Y0790344D01*
X0420472Y0795669D02*
X0422061Y0794080D01*
X0428561Y0781820D02*
Y0786420D01*
X0426461Y0788520D02*
X0428561Y0786420D01*
Y0781820D02*
X0429461Y0780920D01*
X0423361Y0788520D02*
X0426461D01*
X0420361Y0791520D02*
X0423361Y0788520D01*
X0422061Y0792420D02*
X0422661Y0791820D01*
X0422061Y0792420D02*
Y0794080D01*
X0448361Y0796420D02*
X0449433Y0795349D01*
X0448161Y0796420D02*
X0448361D01*
X0447569Y0793620D02*
X0448261D01*
X0447205Y0793985D02*
Y0794256D01*
X0446840Y0794620D02*
X0446840D01*
X0446476Y0791913D02*
Y0794256D01*
X0446112Y0791549D02*
X0446112D01*
X0445748Y0791913D02*
Y0794256D01*
X0445384Y0794620D02*
X0445384D01*
X0445020Y0791913D02*
Y0794256D01*
X0444655Y0791549D02*
X0444655D01*
X0444291Y0791913D02*
Y0794256D01*
X0443927Y0794620D02*
X0443927D01*
X0443563Y0791913D02*
Y0794256D01*
X0443199Y0791549D02*
X0443199D01*
X0442835Y0791913D02*
Y0794256D01*
X0442470Y0794620D02*
X0442470D01*
X0442106Y0791913D02*
Y0794256D01*
X0441742Y0791549D02*
X0441742D01*
X0441378Y0791913D02*
Y0794256D01*
X0441014Y0794620D02*
X0441014D01*
X0440650Y0791913D02*
Y0794256D01*
X0440285Y0791549D02*
X0440285D01*
X0439921Y0791913D02*
Y0794256D01*
X0439557Y0794620D02*
X0439557D01*
X0439193Y0793985D02*
Y0794256D01*
X0438661Y0793620D02*
X0438829D01*
X0448261D02*
X0448530D01*
X0456361Y0797520D02*
X0456761Y0797920D01*
X0458661Y0796520D02*
X0459161Y0796020D01*
X0458261Y0797920D02*
X0458661Y0797520D01*
Y0796520D02*
Y0797520D01*
X0456761Y0797920D02*
X0458261D01*
X0434879Y0796420D02*
X0438661D01*
X0447569D02*
X0448161D01*
X0447205Y0796784D02*
Y0797602D01*
X0446840Y0797966D02*
X0446840D01*
X0446476Y0795785D02*
Y0797602D01*
X0446112Y0795420D02*
X0446112D01*
X0445748Y0795785D02*
Y0797602D01*
X0445384Y0797966D02*
X0445384D01*
X0445020Y0795785D02*
Y0797602D01*
X0444655Y0795420D02*
X0444655D01*
X0444291Y0795785D02*
Y0797602D01*
X0443927Y0797966D02*
X0443927D01*
X0443563Y0795785D02*
Y0797602D01*
X0443199Y0795420D02*
X0443199D01*
X0442835Y0795785D02*
Y0797602D01*
X0442470Y0797966D02*
X0442470D01*
X0442106Y0795785D02*
Y0797602D01*
X0441742Y0795420D02*
X0441742D01*
X0441378Y0795785D02*
Y0797602D01*
X0441014Y0797966D02*
X0441014D01*
X0440650Y0795785D02*
Y0797602D01*
X0440285Y0795420D02*
X0440285D01*
X0439921Y0795785D02*
Y0797602D01*
X0439557Y0797966D02*
X0439557D01*
X0439193Y0796784D02*
Y0797602D01*
X0438661Y0796420D02*
X0438829D01*
X0466861Y0799220D02*
X0467161Y0798920D01*
Y0797620D02*
Y0798920D01*
X0466839Y0797298D02*
X0467161Y0797620D01*
X0464884Y0797298D02*
X0466839D01*
X0464661Y0797520D02*
X0464884Y0797298D01*
X0433071Y0798228D02*
X0434879Y0796420D01*
X0411023Y0795669D02*
X0412275Y0796920D01*
X0417161D01*
X0418461Y0795620D01*
Y0792020D02*
Y0795620D01*
Y0792020D02*
X0418961Y0791520D01*
X0429461Y0780920D02*
X0437161D01*
X0418961Y0791520D02*
X0420361D01*
X0441461Y0785220D02*
X0454761D01*
X0437161Y0780920D02*
X0441461Y0785220D01*
X0454761D02*
X0455861Y0786320D01*
X0462256Y0785630D02*
X0462598D01*
X0461566Y0786320D02*
X0462256Y0785630D01*
X0455861Y0786320D02*
X0461566D01*
X0437661Y0779520D02*
X0442461Y0784320D01*
X0426661Y0779520D02*
X0437661D01*
X0425161Y0781020D02*
X0426661Y0779520D01*
X0425161Y0781020D02*
Y0783950D01*
X0421291Y0787820D02*
X0425161Y0783950D01*
X0415561Y0791820D02*
X0419561Y0787820D01*
X0421291D01*
X0415531Y0790820D02*
X0418561Y0787790D01*
Y0783420D02*
Y0787790D01*
X0407061Y0790820D02*
X0415531D01*
X0409861Y0791820D02*
X0415561D01*
X0405961Y0789720D02*
X0407061Y0790820D01*
X0409461Y0792220D02*
X0409861Y0791820D01*
X0409461Y0792220D02*
Y0794082D01*
X0407874Y0795669D02*
X0409461Y0794082D01*
X0420212Y0805320D02*
X0420961D01*
X0419848Y0805684D02*
Y0805685D01*
X0419484Y0806049D02*
X0419484D01*
X0419120Y0805031D02*
Y0805685D01*
X0418755Y0804667D02*
X0418755D01*
X0418391Y0805031D02*
Y0806134D01*
X0418027Y0806498D02*
X0418027D01*
X0417663Y0804941D02*
Y0806134D01*
X0417299Y0804577D02*
X0417299D01*
X0416935Y0804941D02*
Y0806134D01*
X0416570Y0806498D02*
X0416570D01*
X0416206Y0804941D02*
Y0806134D01*
X0415842Y0804577D02*
X0415842D01*
X0415478Y0804941D02*
Y0806134D01*
X0415114Y0806498D02*
X0415114D01*
X0414749Y0804941D02*
Y0806134D01*
X0414385Y0804577D02*
X0414385D01*
X0414021Y0804941D02*
Y0806134D01*
X0413657Y0806498D02*
X0413657D01*
X0413293Y0805684D02*
Y0806134D01*
X0412761Y0805320D02*
X0412929D01*
X0411161D02*
X0412761D01*
X0409261Y0807220D02*
X0411161Y0805320D01*
X0407461Y0807220D02*
X0409261D01*
X0406261Y0808420D02*
X0407461Y0807220D01*
X0458961Y0807620D02*
X0462365D01*
X0462561Y0807816D02*
Y0808920D01*
X0462365Y0807620D02*
X0462561Y0807816D01*
X0462592Y0809245D02*
X0462598Y0809252D01*
X0420141Y0801620D02*
X0421030D01*
X0419776Y0801256D02*
Y0801256D01*
X0419412Y0800892D02*
X0419412D01*
X0419048Y0801256D02*
Y0801646D01*
X0418684Y0802010D02*
X0418684D01*
X0418320Y0800656D02*
Y0801646D01*
X0417955Y0800292D02*
X0417955D01*
X0417591Y0800656D02*
Y0801977D01*
X0417227Y0802341D02*
X0417227D01*
X0416863Y0800656D02*
Y0801977D01*
X0416499Y0800292D02*
X0416499D01*
X0416135Y0800656D02*
Y0801977D01*
X0415770Y0802341D02*
X0415770D01*
X0415406Y0800656D02*
Y0801977D01*
X0415042Y0800292D02*
X0415042D01*
X0414678Y0800656D02*
Y0801977D01*
X0414314Y0802341D02*
X0414314D01*
X0413949Y0800656D02*
Y0801977D01*
X0413585Y0800292D02*
X0413585D01*
X0413221Y0800656D02*
Y0801256D01*
X0411961Y0801620D02*
X0412857D01*
X0409261Y0799520D02*
X0411361Y0801620D01*
X0411961D01*
X0406961Y0799520D02*
X0409261D01*
X0464561Y0801384D02*
Y0802620D01*
X0464361Y0802820D02*
X0464561Y0802620D01*
Y0801384D02*
X0464567Y0801378D01*
X0404724Y0795669D02*
X0406361Y0797306D01*
Y0798920D02*
X0406961Y0799520D01*
X0406361Y0797306D02*
Y0798920D01*
X0447761Y0782320D02*
X0447782Y0782300D01*
X0443061Y0782320D02*
X0447761D01*
X0445519Y0827262D02*
X0445761Y0827020D01*
X0445019Y0827262D02*
X0445519D01*
X0435809Y0818641D02*
X0435809Y0818641D01*
X0437338Y0818629D02*
X0438822Y0818681D01*
X0435201D02*
X0435809Y0818641D01*
X0435833Y0818641D02*
X0435833Y0818641D01*
X0437336Y0818629D02*
X0437338Y0818629D01*
X0438822Y0818681D02*
X0438920Y0818779D01*
X0439561Y0819420D01*
X0435103Y0818779D02*
X0435201Y0818681D01*
X0434061Y0819820D02*
X0435103Y0818779D01*
X0438661Y0825120D02*
X0441961Y0821820D01*
X0428961Y0823420D02*
X0430661Y0825120D01*
X0438661D01*
X0416561Y0833220D02*
X0417061Y0833720D01*
X0415561Y0821520D02*
X0416561Y0822520D01*
Y0833220D01*
X0413761Y0836520D02*
X0448161D01*
X0451661Y0833020D01*
X0412561Y0835320D02*
X0413761Y0836520D01*
X0410861Y0837020D02*
X0411861Y0838020D01*
X0448261D02*
X0450461Y0835820D01*
X0411861Y0838020D02*
X0448261D01*
X0458549Y0834705D02*
X0458561Y0834716D01*
X0456057Y0834520D02*
X0458365D01*
X0455873Y0834705D02*
X0456057Y0834520D01*
X0455861Y0834716D02*
X0455873Y0834705D01*
X0458365Y0834520D02*
X0458549Y0834705D01*
X0455861Y0835789D02*
X0455987Y0835915D01*
X0455861Y0834716D02*
Y0835789D01*
X0458561Y0834716D02*
Y0837820D01*
X0455361Y0838120D02*
X0458261D01*
X0453861Y0839620D02*
X0455361Y0838120D01*
X0458261D02*
X0458561Y0837820D01*
X0409361Y0827865D02*
Y0839320D01*
X0409661Y0839620D01*
X0453861D01*
X0407861Y0826520D02*
X0408016D01*
X0409361Y0827865D01*
X0452961Y0837420D02*
X0454265D01*
X0454561Y0837124D01*
X0453761Y0835820D02*
X0454561Y0836620D01*
Y0837124D01*
X0450461Y0835820D02*
X0453761D01*
X0410861Y0829120D02*
Y0837020D01*
X0454561Y0830716D02*
Y0832724D01*
X0454365Y0830520D02*
X0454561Y0830716D01*
X0453885Y0833400D02*
X0454561Y0832724D01*
X0453257Y0830520D02*
X0454365D01*
X0453127Y0830651D02*
X0453257Y0830520D01*
X0453061Y0830716D02*
X0453127Y0830651D01*
X0453061Y0830716D02*
Y0832220D01*
X0453881Y0833400D02*
X0453885D01*
X0452261Y0833020D02*
X0453061Y0832220D01*
X0451661Y0833020D02*
X0452261D01*
X0412561Y0825920D02*
Y0835320D01*
X0409722Y0826485D02*
X0410996D01*
X0409461Y0825720D02*
Y0826224D01*
X0409722Y0826485D01*
X0409461Y0825720D02*
X0409961Y0825220D01*
X0411861D01*
X0412561Y0825920D01*
X0446265Y0835020D02*
X0446461Y0834824D01*
Y0832420D02*
Y0834824D01*
X0416061Y0835020D02*
X0446265D01*
X0409561Y0821920D02*
X0409961Y0822320D01*
X0411561D01*
X0413761Y0824520D01*
X0414761D01*
X0415561Y0825320D01*
Y0834520D01*
X0416061Y0835020D01*
X0417061Y0833720D02*
X0441761D01*
X0445061Y0830420D01*
X0453127Y0827020D02*
X0454661D01*
X0454961Y0825016D02*
Y0826720D01*
X0454661Y0827020D02*
X0454961Y0826720D01*
X0453027Y0824820D02*
X0454765D01*
X0454961Y0825016D01*
X0450861Y0824820D02*
X0453027D01*
X0450061Y0825620D02*
X0450861Y0824820D01*
X0450061Y0825620D02*
Y0828646D01*
X0448287Y0830420D02*
X0450061Y0828646D01*
X0446603Y0829320D02*
X0448361Y0827562D01*
X0444461Y0829320D02*
X0446603D01*
X0448361Y0827220D02*
Y0827562D01*
X0411561Y0818920D02*
X0412561Y0819920D01*
X0411161Y0818920D02*
X0411561D01*
X0412561Y0819920D02*
Y0820820D01*
X0413261Y0821520D01*
X0415561D01*
X0417461Y0817320D02*
Y0832120D01*
X0417861Y0832520D01*
X0417433Y0815892D02*
X0418361Y0816820D01*
Y0828620D01*
X0416761Y0816620D02*
X0417461Y0817320D01*
X0417861Y0832520D02*
X0441261D01*
X0418761Y0829020D02*
X0422361D01*
X0418361Y0828620D02*
X0418761Y0829020D01*
X0445061Y0830420D02*
X0448287D01*
X0424661Y0831320D02*
X0440961D01*
X0422361Y0829020D02*
X0424661Y0831320D01*
X0407033Y0815892D02*
X0417433D01*
X0405961Y0817120D02*
Y0818420D01*
X0406461Y0816620D02*
X0416761D01*
X0405961Y0817120D02*
X0406461Y0816620D01*
X0407581Y0818701D02*
X0407661Y0818620D01*
X0406242Y0818701D02*
X0407581D01*
X0405961Y0818420D02*
X0406242Y0818701D01*
X0405961Y0814820D02*
X0407033Y0815892D01*
X0420261Y0815120D02*
X0421761Y0816620D01*
X0421061Y0814220D02*
X0422561Y0815720D01*
Y0819520D01*
X0425061Y0822020D01*
X0440961Y0831320D02*
X0445019Y0827262D01*
X0441261Y0832520D02*
X0444461Y0829320D01*
X0401561Y0816120D02*
X0401596D01*
X0402896Y0814820D01*
X0405961D01*
X0459561Y0834705D02*
Y0839720D01*
X0457061Y0842220D02*
X0459561Y0839720D01*
X0408161Y0842220D02*
X0457061D01*
X0406861Y0831074D02*
Y0840920D01*
X0408161Y0842220D01*
X0407861Y0830620D02*
Y0840620D01*
X0408461Y0841220D01*
X0455698D01*
X0455894Y0841024D01*
Y0839987D02*
Y0841024D01*
Y0839987D02*
X0455961Y0839920D01*
X0406361Y0829120D02*
X0407861Y0830620D01*
X0405161Y0826620D02*
X0406361Y0827820D01*
Y0829120D01*
X0404861Y0826620D02*
X0405161D01*
X0404861Y0829074D02*
X0406861Y0831074D01*
X0404861Y0829020D02*
Y0829074D01*
X0442353Y0843078D02*
X0464653D01*
X0442957Y0844534D02*
X0465257D01*
X0438755Y0847706D02*
X0442655Y0843806D01*
X0438027Y0847405D02*
X0442353Y0843078D01*
X0443258Y0845263D02*
X0465987D01*
X0444127Y0849545D02*
X0444767Y0848905D01*
X0439483Y0848008D02*
X0442957Y0844534D01*
X0443862Y0846720D02*
X0466590D01*
X0443560Y0845991D02*
X0466289D01*
X0442655Y0843806D02*
X0464955D01*
X0444164Y0847448D02*
X0466983D01*
X0442527Y0849085D02*
X0444164Y0847448D01*
X0466590Y0846720D02*
X0471227Y0842083D01*
X0440227Y0848295D02*
X0443258Y0845263D01*
X0464653Y0843078D02*
X0465770Y0841961D01*
X0443327Y0849315D02*
X0444465Y0848176D01*
X0464955Y0843806D02*
X0466535Y0842226D01*
X0440998Y0848553D02*
X0443560Y0845991D01*
X0441727Y0848855D02*
X0443862Y0846720D01*
X0466983Y0847448D02*
X0472441Y0841990D01*
X0466289Y0845991D02*
X0470498Y0841782D01*
X0465987Y0845263D02*
X0469770Y0841480D01*
X0465257Y0844534D02*
X0467264Y0842527D01*
X0417961Y0812620D02*
X0418761Y0813420D01*
X0421661D01*
X0453027Y0821820D02*
X0453127D01*
X0456561D01*
X0441961D02*
X0453027D01*
X0458761Y0819620D02*
X0461561D01*
X0456561Y0821820D02*
X0458761Y0819620D01*
X0458958Y0810592D02*
X0459731D01*
X0458495Y0808845D02*
Y0810129D01*
X0457570Y0808845D02*
Y0810176D01*
X0456645Y0808845D02*
Y0810176D01*
X0455720Y0808845D02*
Y0810129D01*
X0454165Y0810592D02*
X0455257D01*
X0459731D02*
X0466388D01*
X0466584Y0809498D02*
Y0810396D01*
X0466388Y0810592D02*
X0466584Y0810396D01*
Y0809498D02*
X0466661Y0809420D01*
X0425861Y0808020D02*
X0427761D01*
X0462661Y0817220D02*
X0462756Y0817126D01*
X0431661Y0817120D02*
Y0819120D01*
Y0817120D02*
X0431961Y0816820D01*
X0433661D01*
X0432361Y0819820D02*
X0434061D01*
X0431661Y0819120D02*
X0432361Y0819820D01*
X0433661Y0816820D02*
X0434361Y0816120D01*
Y0813520D02*
Y0816120D01*
X0432061Y0813020D02*
X0433861D01*
X0434361Y0813520D01*
X0431161Y0814820D02*
X0431461Y0814520D01*
X0428861Y0814820D02*
X0431161D01*
X0431461Y0813620D02*
X0432061Y0813020D01*
X0431461Y0813620D02*
Y0814520D01*
X0466761Y0816920D02*
X0468361D01*
X0468661Y0817220D02*
Y0818320D01*
X0468361Y0816920D02*
X0468661Y0817220D01*
X0468261Y0818720D02*
X0468661Y0818320D01*
X0457861Y0818720D02*
X0468261D01*
X0466661Y0817020D02*
X0466761Y0816920D01*
X0439561Y0819420D02*
X0454461D01*
X0458661Y0815820D02*
X0458809D01*
X0457987Y0816494D02*
X0458661Y0815820D01*
X0457987Y0816494D02*
X0457987Y0816494D01*
X0455996Y0815158D02*
X0457333Y0816494D01*
X0455996Y0815158D02*
Y0815158D01*
X0455342D02*
X0455342Y0815158D01*
Y0815812D02*
X0456724Y0817194D01*
Y0817194D02*
Y0817194D01*
X0454688Y0816466D02*
X0456070Y0817848D01*
X0454688Y0816466D02*
Y0816466D01*
X0454034D02*
X0454034Y0816466D01*
Y0817120D02*
X0455370Y0818457D01*
X0455370Y0819111D02*
X0455370Y0819111D01*
X0455061Y0819420D02*
X0455370Y0819111D01*
X0454461Y0819420D02*
X0455061D01*
X0425061Y0822020D02*
Y0824620D01*
X0415361Y0809320D02*
X0416661D01*
X0417061Y0809720D01*
Y0813820D01*
X0417461Y0814220D01*
X0409906Y0811265D02*
X0410816D01*
X0411161Y0810920D02*
X0411264Y0811024D01*
X0410816Y0811265D02*
X0410961Y0811120D01*
X0408161Y0811311D02*
X0409461Y0812611D01*
X0408161Y0810920D02*
Y0811311D01*
X0412261Y0809520D02*
X0412561Y0809220D01*
X0412961D01*
X0413561Y0809820D01*
X0414861D01*
X0415361Y0809320D01*
X0439361Y0813020D02*
X0440161D01*
X0448896Y0811620D02*
X0464965D01*
X0448596Y0811320D02*
X0448896Y0811620D01*
X0464965D02*
X0465161Y0811816D01*
X0447858Y0811320D02*
X0448596D01*
X0447396Y0808448D02*
Y0810858D01*
X0446471Y0808448D02*
Y0811073D01*
X0445545Y0808448D02*
Y0811073D01*
X0444620Y0808448D02*
Y0811073D01*
X0443695Y0808448D02*
Y0811073D01*
X0442770Y0808448D02*
Y0811073D01*
X0441845Y0808448D02*
Y0811073D01*
X0440919Y0808448D02*
Y0810662D01*
X0439596Y0810455D02*
X0440130Y0810989D01*
X0448982Y0813020D02*
X0456561D01*
X0458561Y0815020D01*
X0448361Y0806620D02*
X0448861Y0807120D01*
X0447730Y0813020D02*
X0448982D01*
X0447268Y0813483D02*
Y0817012D01*
X0446342Y0813470D02*
Y0817012D01*
X0445417Y0813470D02*
Y0817012D01*
X0444492Y0813470D02*
Y0817012D01*
X0443567Y0813470D02*
Y0817012D01*
X0442642Y0813470D02*
Y0817012D01*
X0441716Y0813470D02*
Y0817012D01*
X0440791Y0813483D02*
Y0817012D01*
X0440161Y0813020D02*
X0440329D01*
X0415382Y0785400D02*
X0416261Y0784520D01*
X0414194Y0788100D02*
X0415484Y0788120D01*
X0413263Y0788218D02*
X0413976Y0788114D01*
X0411161Y0787993D02*
X0413206Y0785810D01*
X0414230Y0785380D02*
X0415104Y0785400D01*
X0415484Y0788120D02*
X0415761D01*
X0417661Y0786220D01*
X0411961Y0789520D02*
X0413263Y0788218D01*
X0415104Y0785400D02*
X0415382D01*
X0459461Y0806620D02*
X0463961D01*
X0464461Y0807120D01*
Y0809220D01*
X0438741Y0821441D02*
X0439561Y0820620D01*
X0432382Y0821441D02*
X0438741D01*
X0427661Y0816720D02*
X0432382Y0821441D01*
X0425061Y0824620D02*
X0426861Y0826420D01*
X0440561D01*
X0443950Y0823032D01*
X0427661Y0814720D02*
Y0816720D01*
X0426661Y0813720D02*
X0427661Y0814720D01*
X0426661Y0812420D02*
Y0813720D01*
X0426261Y0812020D02*
X0426661Y0812420D01*
X0422161Y0812020D02*
X0426261D01*
X0421661Y0813420D02*
X0422982Y0814741D01*
X0425282D01*
X0426361Y0815820D01*
X0421961Y0811820D02*
X0422161Y0812020D01*
X0439561Y0820620D02*
X0455961D01*
X0457861Y0818720D01*
X0426361Y0815820D02*
Y0817420D01*
X0417461Y0814220D02*
X0421061D01*
X0426361Y0817420D02*
X0428961Y0820020D01*
Y0823420D01*
X0463004Y0821063D02*
X0464567D01*
X0461561Y0819620D02*
X0463004Y0821063D01*
X0443950Y0823032D02*
X0464567D01*
X0445061Y0823820D02*
X0463387D01*
X0441261Y0827620D02*
X0445061Y0823820D01*
X0463387D02*
X0464567Y0825000D01*
X0446961Y0769120D02*
X0453861Y0776020D01*
X0415061Y0769120D02*
X0446961D01*
X0423861Y0774920D02*
X0438761D01*
X0422361Y0776420D02*
X0423861Y0774920D01*
X0417661Y0783020D02*
Y0786220D01*
X0411061Y0785320D02*
X0411186D01*
X0412861Y0782620D02*
X0416761Y0778720D01*
X0412861Y0782620D02*
Y0783645D01*
X0411186Y0785320D02*
X0412861Y0783645D01*
X0401761Y0790420D02*
X0401908D01*
X0402608Y0789720D01*
X0405961D01*
X0418561Y0783420D02*
X0419461Y0782520D01*
X0420561D02*
X0423661Y0779420D01*
X0419461Y0782520D02*
X0420561D01*
X0423661Y0777120D02*
Y0779420D01*
Y0777120D02*
X0424561Y0776220D01*
X0436961D01*
X0443061Y0782320D01*
X0401761Y0787820D02*
X0403161Y0786420D01*
X0406161D01*
X0401761Y0787820D02*
Y0788120D01*
X0406161Y0786420D02*
X0409261Y0789520D01*
X0411961D01*
X0417661Y0783020D02*
X0419261Y0781420D01*
X0420261D01*
X0422361Y0779320D01*
Y0776420D02*
Y0779320D01*
X0419161Y0773720D02*
X0440061D01*
X0418261Y0774620D02*
X0419161Y0773720D01*
X0416261Y0781920D02*
X0418261Y0779920D01*
X0416261Y0781920D02*
Y0784520D01*
X0418261Y0774620D02*
Y0779920D01*
X0416761Y0772820D02*
X0418261Y0771320D01*
X0416761Y0772820D02*
Y0778720D01*
X0411061Y0779996D02*
Y0780120D01*
Y0779996D02*
X0412661Y0778396D01*
Y0771520D02*
Y0778396D01*
X0418261Y0771320D02*
X0441661D01*
X0446461Y0776120D01*
X0411023Y0769458D02*
Y0777458D01*
X0410961Y0777520D02*
X0411023Y0777458D01*
X0412661Y0771520D02*
X0415061Y0769120D01*
X0411023Y0769458D02*
X0413561Y0766920D01*
X0451761D01*
X0452661Y0767820D01*
Y0772020D01*
X0409361Y0767420D02*
Y0778827D01*
Y0767420D02*
X0412661Y0764120D01*
X0408361Y0765020D02*
Y0775320D01*
X0406161Y0777520D02*
X0408361Y0775320D01*
Y0765020D02*
X0411161Y0762220D01*
X0406861Y0763120D02*
Y0775619D01*
X0405061Y0777419D02*
X0406861Y0775619D01*
Y0763120D02*
X0409961Y0760020D01*
X0408068Y0780120D02*
X0409361Y0778827D01*
X0408061Y0780120D02*
X0408068D01*
X0406161Y0777520D02*
Y0778720D01*
X0412661Y0764120D02*
X0454661D01*
X0455461Y0764920D01*
Y0770920D01*
X0405058Y0779823D02*
X0406161Y0778720D01*
X0405058Y0780117D02*
X0405061Y0780120D01*
X0405058Y0779823D02*
Y0780117D01*
X0405061Y0777419D02*
Y0777620D01*
X0404761Y0777719D02*
Y0777720D01*
X0411161Y0762220D02*
X0456161D01*
X0457061Y0763120D01*
Y0768220D01*
X0409961Y0760020D02*
X0456561D01*
X0458861Y0762320D01*
Y0770620D01*
X0407929Y0818288D02*
X0408287D01*
X0466527Y0761175D02*
X0470461Y0757240D01*
X0468127Y0750105D02*
X0470461Y0752439D01*
Y0757240D01*
X0469027Y0752805D02*
Y0754605D01*
X0474361Y0755920D02*
X0475461Y0757020D01*
Y0758220D01*
X0474361Y0751770D02*
Y0755920D01*
Y0751770D02*
X0476327Y0749805D01*
X0468504Y0765178D02*
X0475461Y0758220D01*
X0469889Y0761092D02*
X0469961D01*
X0467261Y0763720D02*
X0469889Y0761092D01*
X0471627Y0752705D02*
Y0759355D01*
X0469961Y0761020D02*
X0471627Y0759355D01*
X0467261Y0763720D02*
Y0782419D01*
X0468504Y0783661D01*
X0466527Y0761175D02*
Y0784905D01*
X0467203Y0785581D01*
X0468504Y0765178D02*
Y0781693D01*
X0517575Y0792205D02*
X0519029Y0790752D01*
X0505905Y0801378D02*
X0505909Y0801375D01*
Y0800273D02*
Y0801375D01*
Y0800273D02*
X0506477Y0799705D01*
X0515427D01*
X0515527D01*
X0530631D01*
X0530827Y0799509D01*
Y0798405D02*
Y0799509D01*
X0489861Y0834705D02*
Y0841839D01*
Y0819670D02*
Y0834705D01*
Y0819670D02*
X0490437Y0819094D01*
X0492126D02*
X0492353Y0819321D01*
X0490437Y0819094D02*
X0492126D01*
X0488211Y0787577D02*
X0488232Y0787598D01*
X0489933D01*
X0488189Y0772105D02*
Y0781693D01*
X0538727Y0776605D02*
X0539327Y0777205D01*
Y0824505D01*
X0533427Y0776605D02*
X0538727D01*
X0540327Y0774305D02*
X0540827Y0774805D01*
X0532127Y0774305D02*
X0540327D01*
X0540827Y0774805D02*
Y0785705D01*
X0531627Y0774805D02*
Y0779005D01*
Y0774805D02*
X0532127Y0774305D01*
X0541927Y0786805D02*
X0545527D01*
X0540827Y0785705D02*
X0541927Y0786805D01*
X0534327Y0781705D02*
Y0808205D01*
X0531627Y0779005D02*
X0534327Y0781705D01*
X0505923Y0813206D02*
X0519925D01*
X0503937Y0813189D02*
X0504008Y0813260D01*
X0504227Y0814505D02*
X0520627D01*
X0503927Y0814205D02*
X0504227Y0814505D01*
X0524846Y0815385D02*
X0524927Y0815305D01*
X0501968Y0815085D02*
X0502269Y0815385D01*
X0519191Y0796105D02*
X0522928Y0792367D01*
X0518113Y0793503D02*
X0520327Y0791289D01*
X0519729Y0797403D02*
X0524227Y0792905D01*
X0490155Y0772105D02*
Y0784876D01*
Y0748376D02*
Y0772105D01*
X0492127Y0742780D02*
Y0746405D01*
X0490155Y0748376D02*
X0492127Y0746405D01*
X0489427Y0749605D02*
Y0772105D01*
X0488976Y0749154D02*
X0489427Y0749605D01*
X0488976Y0742754D02*
Y0749154D01*
X0503027Y0737205D02*
X0504027D01*
X0498327Y0731305D02*
Y0732505D01*
X0503027Y0737205D01*
X0503227Y0739481D02*
Y0740905D01*
X0495027Y0752705D02*
X0499727Y0748005D01*
X0493427Y0751305D02*
X0499127Y0745605D01*
X0496827Y0729065D02*
Y0733081D01*
X0503227Y0739481D01*
X0494227Y0751944D02*
Y0784905D01*
X0493450Y0785681D02*
X0494227Y0784905D01*
X0493427Y0751305D02*
Y0783476D01*
X0495227Y0731305D02*
Y0734105D01*
X0500027Y0738905D01*
Y0741205D01*
X0501527Y0742705D01*
X0500427Y0745605D02*
X0501527Y0744505D01*
Y0742705D02*
Y0744505D01*
X0499127Y0745605D02*
X0500427D01*
X0493701Y0729405D02*
Y0736079D01*
X0496827Y0739205D01*
Y0741205D01*
X0498427Y0742805D01*
Y0744805D01*
X0492126Y0751105D02*
X0498427Y0744805D01*
X0492127Y0731081D02*
Y0736905D01*
X0493727Y0738505D01*
Y0741305D01*
X0495227Y0742805D01*
Y0745257D01*
X0490927Y0749557D02*
X0495227Y0745257D01*
X0490927Y0749557D02*
Y0786605D01*
X0489933Y0787598D02*
X0490927Y0786605D01*
X0489231Y0783572D02*
X0489427Y0783376D01*
Y0772105D02*
Y0783376D01*
X0489451Y0785581D02*
X0490155Y0784876D01*
X0488239Y0783572D02*
X0489231D01*
X0495027Y0752705D02*
Y0786605D01*
X0493933Y0787698D02*
X0495027Y0786605D01*
X0493231Y0783672D02*
X0493427Y0783476D01*
X0492239Y0783672D02*
X0493231D01*
X0492126Y0751105D02*
Y0781693D01*
X0490551Y0729305D02*
Y0741205D01*
X0492127Y0742780D01*
X0488189Y0749692D02*
Y0772105D01*
X0485827Y0742705D02*
Y0747330D01*
X0488189Y0749692D01*
X0488976Y0731305D02*
Y0734291D01*
X0487427Y0735841D02*
Y0741205D01*
Y0735841D02*
X0488976Y0734291D01*
X0487427Y0741205D02*
X0488976Y0742754D01*
X0486927Y0749705D02*
Y0772105D01*
Y0786705D01*
X0482627Y0745405D02*
X0486927Y0749705D01*
X0484227Y0735905D02*
Y0741105D01*
Y0735905D02*
X0487427Y0732705D01*
Y0729305D02*
Y0732705D01*
X0484227Y0741105D02*
X0485827Y0742705D01*
X0482627D02*
Y0745405D01*
X0481023Y0731279D02*
X0485825D01*
X0480827Y0731475D02*
Y0740905D01*
Y0731475D02*
X0481023Y0731279D01*
X0479627Y0729905D02*
Y0742805D01*
X0480827Y0740905D02*
X0482627Y0742705D01*
X0473327Y0729205D02*
X0478927D01*
X0479627Y0729905D01*
X0476327Y0746105D02*
Y0749805D01*
Y0746105D02*
X0479627Y0742805D01*
X0474826Y0731279D02*
Y0737505D01*
X0470927Y0741405D02*
X0474826Y0737505D01*
X0468127Y0745805D02*
Y0750105D01*
X0468527Y0745405D02*
X0470527D01*
X0468127Y0745805D02*
X0468527Y0745405D01*
X0470527D02*
X0470927Y0745005D01*
Y0741405D02*
Y0745005D01*
X0471627Y0752705D02*
X0474827Y0749505D01*
Y0741005D02*
Y0749505D01*
X0466627Y0750405D02*
X0469027Y0752805D01*
X0466627Y0739405D02*
Y0750405D01*
X0471227Y0739105D02*
X0471676Y0738655D01*
Y0731279D02*
Y0738655D01*
X0466927Y0739105D02*
X0471227D01*
X0466627Y0739405D02*
X0466927Y0739105D01*
X0469027Y0754661D02*
Y0756305D01*
X0464567Y0760764D02*
X0469027Y0756305D01*
X0464567Y0760764D02*
Y0781693D01*
X0465427Y0737605D02*
X0465727Y0737304D01*
X0470056D01*
X0462427Y0748705D02*
Y0772105D01*
Y0783490D01*
X0461627Y0731705D02*
Y0747905D01*
X0462427Y0748705D01*
X0463227Y0748905D02*
Y0772105D01*
Y0783305D01*
Y0748905D02*
X0465427Y0746705D01*
Y0737605D02*
Y0746705D01*
X0462427Y0783490D02*
X0464567Y0785630D01*
X0462053Y0731279D02*
X0468527D01*
X0461627Y0731705D02*
X0462053Y0731279D01*
X0531627Y0825605D02*
X0538227D01*
X0539327Y0824505D01*
X0529781Y0818415D02*
X0530899Y0819533D01*
X0515427Y0818415D02*
X0515527D01*
X0505226D02*
X0515427D01*
X0515527D02*
X0529781D01*
X0527205Y0817126D02*
X0527827Y0816505D01*
X0503937Y0817126D02*
X0505226Y0818415D01*
X0505905Y0817126D02*
X0527205D01*
X0490872Y0861159D02*
X0491858Y0860173D01*
X0494884Y0863047D02*
X0495727Y0862205D01*
X0499727D01*
X0500627Y0861305D01*
X0491858Y0860173D02*
X0496458D01*
X0497527Y0859105D01*
X0487727Y0875363D02*
X0488112Y0874977D01*
Y0874919D02*
X0490872Y0872159D01*
Y0861159D02*
Y0872159D01*
X0487727Y0875363D02*
Y0875605D01*
X0488112Y0874919D02*
Y0874977D01*
X0497027Y0867205D02*
Y0869105D01*
X0494884Y0865062D02*
X0497027Y0867205D01*
X0496365Y0843606D02*
Y0843843D01*
X0500627Y0848105D01*
X0495527Y0842768D02*
X0496365Y0843606D01*
X0495527Y0842619D02*
Y0842768D01*
X0494884Y0863047D02*
Y0865062D01*
X0500000Y0821063D02*
X0500026Y0821037D01*
X0500233Y0820830D02*
X0501301D01*
X0500026Y0821037D02*
X0500233Y0820830D01*
X0500627Y0848105D02*
Y0861305D01*
X0495341Y0842619D02*
X0495512D01*
X0493427Y0840705D02*
X0495341Y0842619D01*
X0500303Y0842781D02*
X0500550D01*
X0497327Y0839805D02*
X0500303Y0842781D01*
X0491227Y0852705D02*
X0496627D01*
X0490027Y0859405D02*
X0495627D01*
X0496627Y0852705D02*
X0497527Y0853605D01*
X0496527Y0854605D02*
Y0858505D01*
X0497527Y0853605D02*
Y0859105D01*
X0495627Y0859405D02*
X0496527Y0858505D01*
X0495827Y0853905D02*
X0496527Y0854605D01*
X0487327Y0853905D02*
X0495827D01*
X0511227Y0820605D02*
Y0842705D01*
X0510127Y0819505D02*
X0511227Y0820605D01*
X0497327Y0820105D02*
Y0839805D01*
Y0820105D02*
X0498337Y0819094D01*
X0492094Y0821005D02*
X0492152Y0821063D01*
X0489427Y0860005D02*
X0490027Y0859405D01*
X0489427Y0860005D02*
Y0868105D01*
X0490827Y0852305D02*
X0491227Y0852705D01*
X0477679Y0821257D02*
X0478627Y0822205D01*
X0476378Y0821063D02*
X0476572Y0821257D01*
X0477679D01*
X0502627Y0819505D02*
X0510127D01*
X0501301Y0820830D02*
X0502627Y0819505D01*
X0503894Y0820905D02*
X0503952Y0820963D01*
X0493427Y0820005D02*
Y0840705D01*
X0451625Y0860103D02*
X0451827Y0860305D01*
X0451625Y0859203D02*
Y0860103D01*
X0480315Y0817893D02*
Y0819094D01*
X0449425Y0858203D02*
Y0860303D01*
X0449427Y0860305D01*
X0447115Y0857093D02*
Y0860316D01*
X0442527Y0854905D02*
Y0860305D01*
X0437927Y0854605D02*
X0439483Y0853048D01*
X0444827Y0856005D02*
Y0860305D01*
X0438027Y0847405D02*
Y0852205D01*
X0444127Y0851705D02*
X0451625Y0859203D01*
X0438755Y0847706D02*
Y0852676D01*
X0433327Y0856905D02*
X0438027Y0852205D01*
X0437927Y0854605D02*
Y0860305D01*
X0440227Y0848295D02*
Y0860305D01*
X0439483Y0848008D02*
Y0853048D01*
X0435627Y0855805D02*
X0438755Y0852676D01*
X0433327Y0856905D02*
Y0860305D01*
X0435627Y0855805D02*
Y0860305D01*
X0442527Y0852505D02*
X0447115Y0857093D01*
X0441727Y0852905D02*
X0444827Y0856005D01*
X0440998Y0853376D02*
X0442527Y0854905D01*
X0440998Y0848553D02*
Y0853376D01*
X0442527Y0849085D02*
Y0852505D01*
X0441727Y0848855D02*
Y0852905D01*
X0443327Y0852105D02*
X0449425Y0858203D01*
X0443327Y0849315D02*
Y0852105D01*
X0444127Y0849545D02*
Y0851705D01*
X0470498Y0822969D02*
Y0841782D01*
X0471227Y0824209D02*
Y0842083D01*
X0472441Y0825020D02*
Y0841990D01*
X0472421Y0825000D02*
X0472441Y0825020D01*
X0472404Y0823032D02*
X0472421D01*
Y0819094D02*
Y0819115D01*
X0472404Y0821063D02*
X0472421D01*
X0471227Y0824209D02*
X0472404Y0823032D01*
X0470498Y0822969D02*
X0472404Y0821063D01*
X0469770Y0821766D02*
X0472421Y0819115D01*
X0469770Y0821766D02*
Y0841480D01*
X0466535Y0825000D02*
Y0842226D01*
X0467264Y0826240D02*
Y0842527D01*
Y0826240D02*
X0468504Y0825000D01*
X0465770Y0823797D02*
Y0841961D01*
Y0823797D02*
X0468504Y0821063D01*
X0466535Y0825000D02*
X0468504Y0823032D01*
X0486033Y0787598D02*
X0486927Y0786705D01*
X0484249Y0787598D02*
X0486033D01*
X0479827Y0817405D02*
X0480315Y0817893D01*
X0474327Y0817405D02*
X0479827D01*
X0475077Y0819154D02*
X0476318D01*
X0476378Y0819094D01*
X0498337D02*
X0500052D01*
X0494337D02*
X0496052D01*
X0493427Y0820005D02*
X0494337Y0819094D01*
X0468455Y0785581D02*
X0468504Y0785630D01*
X0463227Y0783305D02*
X0463527Y0783605D01*
X0464510D01*
X0464567Y0783661D01*
X0467203Y0785581D02*
X0468455D01*
X0492149Y0787698D02*
X0493933D01*
X0492198Y0785681D02*
X0493450D01*
X0488198Y0785581D02*
X0489451D01*
X0505907Y0793503D02*
X0518113D01*
X0505944Y0797403D02*
X0519729D01*
X0504227Y0792205D02*
X0517575D01*
X0505905Y0797441D02*
X0505944Y0797403D01*
X0504227Y0796105D02*
X0519191D01*
X0503927Y0793510D02*
X0504018Y0793419D01*
Y0792414D02*
Y0793419D01*
Y0792414D02*
X0504227Y0792205D01*
X0503927Y0797410D02*
X0503937Y0797420D01*
X0503927Y0796405D02*
Y0797410D01*
Y0796405D02*
X0504227Y0796105D01*
X0503927Y0813199D02*
Y0814205D01*
Y0813199D02*
X0503937Y0813189D01*
X0501968D02*
Y0815085D01*
D71*
X0485709Y0863208D02*
D03*
X0484252Y0823032D02*
D03*
X0484252Y0825000D02*
D03*
X0483077Y0856905D02*
D03*
X0480777D02*
D03*
X0480753Y0843543D02*
D03*
X0487337Y0836727D02*
D03*
X0490877Y0842748D02*
D03*
X0476378Y0825000D02*
D03*
X0479727Y0868005D02*
D03*
X0476378Y0823032D02*
D03*
X0477127Y0843508D02*
D03*
X0618291Y0860833D02*
D03*
X0616091Y0857433D02*
D03*
X0600591Y0878533D02*
D03*
X0596791Y0876133D02*
D03*
X0517167Y0731108D02*
D03*
X0523512Y0727264D02*
D03*
X0515638Y0729508D02*
D03*
X0515638Y0727264D02*
D03*
X0514017Y0731108D02*
D03*
X0507623Y0752279D02*
D03*
X0507817Y0743508D02*
D03*
X0505905Y0785630D02*
D03*
X0512417Y0774308D02*
D03*
X0505905Y0789567D02*
D03*
X0503937D02*
D03*
X0478265Y0834546D02*
D03*
X0480257D02*
D03*
X0455961Y0832020D02*
D03*
X0459361Y0832720D02*
D03*
X0452961Y0834320D02*
D03*
X0453461Y0781878D02*
D03*
X0448717Y0790022D02*
D03*
X0498843Y0868700D02*
D03*
X0490527Y0875805D02*
D03*
X0524927Y0815305D02*
D03*
X0527827Y0813005D02*
D03*
X0558030Y0858323D02*
D03*
X0565730Y0865423D02*
D03*
X0572730Y0849623D02*
D03*
X0564930Y0853423D02*
D03*
X0559630Y0846623D02*
D03*
X0554030Y0840623D02*
D03*
X0560017Y0835908D02*
D03*
X0552727Y0817605D02*
D03*
X0423569Y0797860D02*
D03*
X0429917Y0811008D02*
D03*
X0433071Y0808552D02*
D03*
X0423621Y0808480D02*
D03*
X0404317Y0832108D02*
D03*
X0550217Y0876508D02*
D03*
X0583317Y0877008D02*
D03*
X0577517Y0876608D02*
D03*
X0572317Y0877008D02*
D03*
X0566417D02*
D03*
X0560717Y0876808D02*
D03*
X0555117Y0876708D02*
D03*
X0546117Y0876008D02*
D03*
X0587117Y0873608D02*
D03*
X0580617D02*
D03*
X0574817Y0873808D02*
D03*
X0569317Y0873508D02*
D03*
X0563917Y0873308D02*
D03*
X0558617Y0873508D02*
D03*
X0552517Y0873408D02*
D03*
X0545417Y0873008D02*
D03*
X0542117Y0875208D02*
D03*
X0538017Y0875308D02*
D03*
X0543417Y0877608D02*
D03*
X0540017Y0877508D02*
D03*
X0536217Y0877308D02*
D03*
X0532617D02*
D03*
X0528617Y0877408D02*
D03*
X0514317Y0878008D02*
D03*
X0498617Y0877708D02*
D03*
X0511017Y0876408D02*
D03*
X0507717Y0877808D02*
D03*
X0467717Y0875608D02*
D03*
X0522417Y0742908D02*
D03*
X0538417Y0751208D02*
D03*
X0515917Y0737508D02*
D03*
X0482117Y0729708D02*
D03*
X0615617Y0748808D02*
D03*
X0618517Y0742408D02*
D03*
X0603317Y0728108D02*
D03*
X0597417Y0731108D02*
D03*
X0404717Y0727508D02*
D03*
X0410917Y0729708D02*
D03*
X0389117Y0744608D02*
D03*
X0391817Y0749408D02*
D03*
X0405717Y0879108D02*
D03*
X0410917Y0876208D02*
D03*
X0389217Y0860708D02*
D03*
X0391817Y0856108D02*
D03*
X0486517Y0843508D02*
D03*
X0405117Y0840508D02*
D03*
X0430917Y0850608D02*
D03*
X0429017Y0852908D02*
D03*
X0513117Y0832208D02*
D03*
X0411064Y0820870D02*
D03*
X0404724Y0811024D02*
D03*
X0611417Y0808808D02*
D03*
X0615417D02*
D03*
X0472317Y0771508D02*
D03*
X0472430Y0787586D02*
D03*
X0449417Y0776508D02*
D03*
X0450282Y0782604D02*
D03*
X0548427Y0780005D02*
D03*
X0552727Y0787305D02*
D03*
X0501227Y0868727D02*
D03*
X0504927Y0877305D02*
D03*
X0502935D02*
D03*
X0523512Y0880020D02*
D03*
X0515638D02*
D03*
X0507764D02*
D03*
X0503827D02*
D03*
X0484142D02*
D03*
X0468394D02*
D03*
X0472331D02*
D03*
X0488079D02*
D03*
X0476268D02*
D03*
X0480205D02*
D03*
X0503937Y0823032D02*
D03*
X0452061Y0826920D02*
D03*
X0602253Y0854823D02*
D03*
X0613670Y0853248D02*
D03*
X0618001Y0849705D02*
D03*
X0607764Y0854035D02*
D03*
X0597528Y0856398D02*
D03*
X0594379Y0861122D02*
D03*
X0593985Y0866634D02*
D03*
X0593591Y0872933D02*
D03*
X0590442Y0877657D02*
D03*
X0617213Y0755610D02*
D03*
X0611308Y0752460D02*
D03*
X0604221Y0752854D02*
D03*
X0598316Y0750886D02*
D03*
X0594772Y0746555D02*
D03*
X0593985Y0740354D02*
D03*
X0593591Y0734350D02*
D03*
X0590835Y0730020D02*
D03*
X0419182Y0728445D02*
D03*
X0414457Y0733563D02*
D03*
X0414064Y0739075D02*
D03*
X0413670Y0745374D02*
D03*
X0410127Y0750886D02*
D03*
X0403827Y0752854D02*
D03*
X0397528D02*
D03*
X0392804Y0754429D02*
D03*
X0389654Y0758366D02*
D03*
X0418788Y0878445D02*
D03*
X0415245Y0874508D02*
D03*
X0414064Y0868996D02*
D03*
Y0863484D02*
D03*
X0412489Y0857972D02*
D03*
X0407371Y0854429D02*
D03*
X0401072Y0854035D02*
D03*
X0395166Y0853642D02*
D03*
X0391229Y0850886D02*
D03*
X0388867Y0846949D02*
D03*
X0511701Y0880020D02*
D03*
X0527449D02*
D03*
X0519575D02*
D03*
X0539260D02*
D03*
X0535323D02*
D03*
X0531387D02*
D03*
X0551072D02*
D03*
X0547134D02*
D03*
X0543197D02*
D03*
X0562883D02*
D03*
X0558946D02*
D03*
X0555009D02*
D03*
X0574693D02*
D03*
X0570756D02*
D03*
X0566819D02*
D03*
X0586505D02*
D03*
X0582568D02*
D03*
X0578631D02*
D03*
X0425087D02*
D03*
X0429024D02*
D03*
X0432961D02*
D03*
X0444772D02*
D03*
X0440835D02*
D03*
X0436898D02*
D03*
X0456583D02*
D03*
X0452646D02*
D03*
X0448709D02*
D03*
X0464457D02*
D03*
X0460520D02*
D03*
X0492016D02*
D03*
X0499890D02*
D03*
X0495953D02*
D03*
X0619969Y0844586D02*
D03*
Y0840650D02*
D03*
Y0836712D02*
D03*
Y0824901D02*
D03*
Y0828839D02*
D03*
Y0832775D02*
D03*
Y0813090D02*
D03*
Y0817027D02*
D03*
Y0820965D02*
D03*
Y0805216D02*
D03*
Y0809153D02*
D03*
Y0777657D02*
D03*
Y0781594D02*
D03*
Y0785531D02*
D03*
Y0765846D02*
D03*
Y0769783D02*
D03*
Y0773720D02*
D03*
X0586505Y0727264D02*
D03*
X0582568D02*
D03*
X0578631D02*
D03*
X0566819D02*
D03*
X0570756D02*
D03*
X0574693D02*
D03*
X0555009D02*
D03*
X0558946D02*
D03*
X0562883D02*
D03*
X0543197D02*
D03*
X0547134D02*
D03*
X0551072D02*
D03*
X0531387D02*
D03*
X0539260D02*
D03*
X0519575D02*
D03*
X0527449D02*
D03*
X0507764D02*
D03*
X0511701D02*
D03*
X0503827D02*
D03*
X0499890D02*
D03*
X0495953D02*
D03*
X0484142D02*
D03*
X0488079D02*
D03*
X0492016D02*
D03*
X0472331D02*
D03*
X0476268D02*
D03*
X0480205D02*
D03*
X0460520D02*
D03*
X0464457D02*
D03*
X0468394D02*
D03*
X0448709D02*
D03*
X0452646D02*
D03*
X0456583D02*
D03*
X0436898D02*
D03*
X0440835D02*
D03*
X0444772D02*
D03*
X0425087D02*
D03*
X0429024D02*
D03*
X0432961D02*
D03*
X0388473Y0834744D02*
D03*
Y0838681D02*
D03*
Y0842618D02*
D03*
Y0822933D02*
D03*
Y0826870D02*
D03*
Y0830807D02*
D03*
Y0811122D02*
D03*
Y0815059D02*
D03*
Y0818996D02*
D03*
Y0799311D02*
D03*
Y0803248D02*
D03*
Y0807185D02*
D03*
Y0787500D02*
D03*
Y0791437D02*
D03*
Y0795374D02*
D03*
Y0775689D02*
D03*
Y0779626D02*
D03*
Y0783563D02*
D03*
Y0771752D02*
D03*
Y0767815D02*
D03*
Y0763878D02*
D03*
X0462598Y0801378D02*
D03*
Y0797441D02*
D03*
X0464567D02*
D03*
X0447782Y0782300D02*
D03*
X0445761Y0827020D02*
D03*
X0448361Y0827220D02*
D03*
X0407874Y0826378D02*
D03*
X0455987Y0835915D02*
D03*
X0411023Y0828981D02*
D03*
X0411024Y0826520D02*
D03*
X0466535Y0809252D02*
D03*
X0407874Y0811024D02*
D03*
X0433126Y0811079D02*
D03*
X0460561Y0805320D02*
D03*
X0460661Y0793620D02*
D03*
X0423622Y0810660D02*
D03*
X0460661Y0825020D02*
D03*
Y0826920D02*
D03*
X0411023Y0787992D02*
D03*
Y0780034D02*
D03*
Y0777756D02*
D03*
X0404724D02*
D03*
X0453861Y0776020D02*
D03*
X0452661Y0772020D02*
D03*
X0455561Y0773420D02*
D03*
X0455461Y0770920D02*
D03*
X0457061Y0768220D02*
D03*
X0458861Y0770620D02*
D03*
X0446461Y0776120D02*
D03*
X0455961Y0839920D02*
D03*
X0452961Y0837420D02*
D03*
X0446461Y0832420D02*
D03*
X0411023Y0785483D02*
D03*
X0423485Y0795664D02*
D03*
X0420472Y0809744D02*
D03*
X0469027Y0754605D02*
D03*
X0469961Y0761092D02*
D03*
X0468435Y0801395D02*
D03*
X0507861Y0801320D02*
D03*
X0505905Y0801378D02*
D03*
X0507874Y0825000D02*
D03*
X0499961Y0793520D02*
D03*
X0492353Y0819321D02*
D03*
X0495961Y0817020D02*
D03*
X0490158Y0809252D02*
D03*
X0494095D02*
D03*
Y0805315D02*
D03*
X0484261Y0817120D02*
D03*
X0484252Y0809252D02*
D03*
X0466535Y0813189D02*
D03*
X0468461Y0813320D02*
D03*
X0468504Y0797441D02*
D03*
X0472441Y0817126D02*
D03*
X0468504Y0809252D02*
D03*
X0488211Y0787577D02*
D03*
X0488361Y0789520D02*
D03*
X0480261D02*
D03*
X0488189Y0781693D02*
D03*
X0401575Y0790527D02*
D03*
X0397958Y0814823D02*
D03*
X0404845Y0824081D02*
D03*
X0401561Y0820820D02*
D03*
X0401575Y0826378D02*
D03*
Y0787992D02*
D03*
X0411023Y0795669D02*
D03*
X0433071Y0798228D02*
D03*
Y0795669D02*
D03*
X0429921D02*
D03*
X0420472D02*
D03*
X0404761Y0775020D02*
D03*
X0407874Y0780315D02*
D03*
X0404724D02*
D03*
X0397861Y0781620D02*
D03*
X0401575Y0785433D02*
D03*
X0404724Y0793110D02*
D03*
X0398061Y0791720D02*
D03*
X0404724Y0795669D02*
D03*
X0407874D02*
D03*
X0404724Y0798228D02*
D03*
X0401575D02*
D03*
X0407874Y0818701D02*
D03*
X0401575Y0816142D02*
D03*
X0411023Y0811024D02*
D03*
X0404724Y0808465D02*
D03*
X0397761Y0809820D02*
D03*
X0411023Y0818701D02*
D03*
X0404724Y0828937D02*
D03*
Y0826378D02*
D03*
X0507874Y0809252D02*
D03*
X0472441Y0789567D02*
D03*
X0480315Y0819094D02*
D03*
X0496063Y0789567D02*
D03*
X0462598Y0817126D02*
D03*
X0466535D02*
D03*
X0613961Y0830220D02*
D03*
X0533427Y0776605D02*
D03*
X0545527Y0786805D02*
D03*
X0535727D02*
D03*
X0530827Y0798205D02*
D03*
X0511024Y0752530D02*
D03*
X0509451Y0749430D02*
D03*
X0506301D02*
D03*
X0498423Y0731279D02*
D03*
X0496875Y0729305D02*
D03*
X0495274Y0731279D02*
D03*
X0493726Y0729305D02*
D03*
X0492124Y0731279D02*
D03*
X0490576Y0729305D02*
D03*
X0488975Y0731279D02*
D03*
X0487427Y0729305D02*
D03*
X0485825Y0731279D02*
D03*
X0473228Y0729279D02*
D03*
X0474803Y0741405D02*
D03*
X0474826Y0731279D02*
D03*
X0471676D02*
D03*
X0470056Y0737304D02*
D03*
X0468527Y0731279D02*
D03*
X0531627Y0825605D02*
D03*
X0530899Y0819533D02*
D03*
X0552727Y0807705D02*
D03*
X0551161Y0800620D02*
D03*
X0503937Y0817126D02*
D03*
X0505905Y0821063D02*
D03*
X0495627Y0868005D02*
D03*
X0493327D02*
D03*
X0506027Y0875305D02*
D03*
X0508027D02*
D03*
X0501727D02*
D03*
X0499727D02*
D03*
X0503937Y0825000D02*
D03*
X0500000Y0823032D02*
D03*
Y0825000D02*
D03*
Y0821063D02*
D03*
X0495512Y0842619D02*
D03*
X0500550Y0842781D02*
D03*
X0496063Y0825000D02*
D03*
Y0823032D02*
D03*
X0492126D02*
D03*
Y0825000D02*
D03*
X0487727Y0875705D02*
D03*
X0511227Y0842705D02*
D03*
X0488189Y0821095D02*
D03*
X0489427Y0868105D02*
D03*
X0487127D02*
D03*
X0484727D02*
D03*
X0503937Y0821063D02*
D03*
X0451827Y0860305D02*
D03*
X0551161Y0804920D02*
D03*
X0480315Y0821063D02*
D03*
X0541527Y0751405D02*
D03*
X0550527Y0740305D02*
D03*
Y0734205D02*
D03*
X0590727Y0795105D02*
D03*
X0586727Y0794905D02*
D03*
X0582519Y0794805D02*
D03*
X0574527Y0771605D02*
D03*
X0596127Y0771905D02*
D03*
X0596327Y0780829D02*
D03*
Y0776805D02*
D03*
X0592927Y0771805D02*
D03*
X0588627Y0771705D02*
D03*
X0584827D02*
D03*
X0581627Y0771605D02*
D03*
X0577727D02*
D03*
X0591967Y0787128D02*
D03*
Y0779254D02*
D03*
X0584881D02*
D03*
Y0787128D02*
D03*
X0577794Y0779254D02*
D03*
Y0787128D02*
D03*
X0584881Y0790278D02*
D03*
Y0776105D02*
D03*
X0577794Y0783191D02*
D03*
X0591967D02*
D03*
Y0776105D02*
D03*
X0577794D02*
D03*
X0591967Y0790605D02*
D03*
X0584881Y0783191D02*
D03*
X0560727Y0815305D02*
D03*
X0556627Y0812805D02*
D03*
X0558327Y0817805D02*
D03*
X0547727Y0747305D02*
D03*
X0551627Y0744905D02*
D03*
X0546627Y0751505D02*
D03*
X0551627Y0751105D02*
D03*
X0541527Y0755805D02*
D03*
X0551427Y0756005D02*
D03*
X0550127Y0764305D02*
D03*
X0548527Y0770405D02*
D03*
Y0774905D02*
D03*
X0552927Y0798405D02*
D03*
X0568227Y0818305D02*
D03*
X0564327Y0818205D02*
D03*
X0590127Y0821105D02*
D03*
Y0824805D02*
D03*
X0594127D02*
D03*
X0586127D02*
D03*
X0594127Y0821105D02*
D03*
X0586127D02*
D03*
X0617227Y0777805D02*
D03*
Y0780705D02*
D03*
X0572827Y0734705D02*
D03*
X0574727Y0737805D02*
D03*
X0570727Y0737705D02*
D03*
X0574727Y0741405D02*
D03*
X0570727D02*
D03*
X0574727Y0744805D02*
D03*
X0570827Y0744705D02*
D03*
X0595127Y0764605D02*
D03*
X0544227Y0780605D02*
D03*
X0544027Y0776505D02*
D03*
X0572927Y0783979D02*
D03*
Y0780829D02*
D03*
X0544027Y0772605D02*
D03*
X0572927Y0776105D02*
D03*
X0551327Y0759905D02*
D03*
X0544027Y0768505D02*
D03*
Y0764605D02*
D03*
X0600027Y0795505D02*
D03*
X0596527Y0792605D02*
D03*
X0482027Y0868005D02*
D03*
X0449427Y0860305D02*
D03*
X0437927D02*
D03*
X0440227D02*
D03*
X0435627D02*
D03*
X0442527D02*
D03*
X0444827D02*
D03*
X0433327D02*
D03*
X0447115Y0860316D02*
D03*
X0472421Y0825000D02*
D03*
Y0823032D02*
D03*
Y0821063D02*
D03*
Y0819094D02*
D03*
X0464567Y0825000D02*
D03*
X0484252Y0787598D02*
D03*
X0468504Y0823032D02*
D03*
Y0825000D02*
D03*
X0462598Y0785630D02*
D03*
X0505905Y0817126D02*
D03*
X0500000Y0819094D02*
D03*
X0478346Y0797441D02*
D03*
X0484252Y0803347D02*
D03*
Y0811220D02*
D03*
Y0797441D02*
D03*
Y0795472D02*
D03*
X0474409Y0797441D02*
D03*
Y0805315D02*
D03*
X0490158D02*
D03*
X0496063Y0819094D02*
D03*
X0488189D02*
D03*
X0484252D02*
D03*
X0476378D02*
D03*
X0462598Y0809252D02*
D03*
X0464567D02*
D03*
Y0801378D02*
D03*
X0466535D02*
D03*
X0462598Y0813189D02*
D03*
Y0793504D02*
D03*
X0464567D02*
D03*
X0466535D02*
D03*
X0492126Y0787598D02*
D03*
X0460630Y0781693D02*
D03*
Y0779724D02*
D03*
X0505905Y0793504D02*
D03*
X0503937D02*
D03*
X0501968Y0813189D02*
D03*
X0503937D02*
D03*
X0505905D02*
D03*
X0503937Y0797441D02*
D03*
X0505905D02*
D03*
X0492126Y0785630D02*
D03*
Y0783661D02*
D03*
Y0781693D02*
D03*
X0488189Y0785630D02*
D03*
Y0783661D02*
D03*
X0468504Y0785630D02*
D03*
Y0783661D02*
D03*
Y0781693D02*
D03*
X0464567D02*
D03*
Y0783661D02*
D03*
Y0785630D02*
D03*
Y0823032D02*
D03*
Y0821063D02*
D03*
X0468504D02*
D03*
X0476378D02*
D03*
X0507874Y0826968D02*
D03*
X0484252Y0821063D02*
D03*
X0492126D02*
D03*
D72*
X0484636Y0847705D02*
G03*
X0484992Y0847349I0000356J0000000D01*
G01*
X0485321Y0846636D02*
G03*
X0485321Y0847349I0000000J0000356D01*
G01*
X0484992Y0846636D02*
G03*
X0484636Y0846280I0000000J-0000356D01*
G01*
X0476857Y0838374D02*
G03*
X0476857Y0839087I0000000J0000356D01*
G01*
X0476602Y0838374D02*
G03*
X0476602Y0837661I0000000J-0000356D01*
G01*
X0476245Y0839443D02*
G03*
X0476602Y0839087I0000356J0000000D01*
G01*
X0477118Y0836949D02*
G03*
X0477118Y0837661I0000000J0000356D01*
G01*
X0476602Y0836949D02*
G03*
X0476245Y0836592I0000000J-0000356D01*
G01*
X0484636Y0848785D02*
Y0853647D01*
Y0847705D02*
Y0848785D01*
X0484992Y0847349D02*
X0485321D01*
X0484992Y0846636D02*
X0485321D01*
X0484636Y0845408D02*
Y0846280D01*
Y0828269D02*
Y0845408D01*
X0483817Y0828608D02*
Y0853308D01*
X0481798Y0826589D02*
X0483817Y0828608D01*
X0482681Y0823606D02*
X0483425D01*
X0481798Y0824489D02*
Y0826589D01*
Y0824489D02*
X0482681Y0823606D01*
X0483425D02*
X0484000Y0823032D01*
X0484252D01*
X0484000Y0825000D02*
X0484252D01*
X0483425Y0824425D02*
X0484000Y0825000D01*
X0482617Y0824828D02*
X0483020Y0824425D01*
X0483425D01*
X0482617Y0826250D02*
X0484636Y0828269D01*
X0482617Y0824828D02*
Y0826250D01*
X0482388Y0855895D02*
Y0856159D01*
X0480777Y0856848D02*
X0481569Y0856056D01*
Y0855556D02*
Y0856056D01*
X0482388Y0856159D02*
X0483077Y0856848D01*
X0482388Y0855895D02*
X0484636Y0853647D01*
X0481569Y0855556D02*
X0483817Y0853308D01*
X0477717Y0855166D02*
X0479736Y0853147D01*
X0475774Y0846265D02*
X0479736Y0850227D01*
X0477717Y0854008D02*
X0478917Y0852808D01*
X0479736Y0850227D02*
Y0853147D01*
X0475427Y0829323D02*
Y0842137D01*
X0478917Y0850566D02*
Y0852808D01*
X0474955Y0846604D02*
X0478917Y0850566D01*
X0480777Y0856848D02*
Y0856905D01*
X0483077Y0856848D02*
Y0856905D01*
X0476298Y0861147D02*
X0480517Y0865366D01*
X0477117Y0860808D02*
X0481336Y0865027D01*
X0479727Y0867760D02*
X0480517Y0866969D01*
X0481336Y0866968D02*
X0482027Y0867658D01*
X0481336Y0865027D02*
Y0866968D01*
X0480517Y0865366D02*
Y0866969D01*
X0479727Y0867760D02*
Y0868005D01*
X0476602Y0837661D02*
X0477118D01*
X0476602Y0838374D02*
X0476857D01*
X0476245Y0839443D02*
Y0840920D01*
X0476602Y0839087D02*
X0476857D01*
X0476602Y0836949D02*
X0477118D01*
X0476527Y0825149D02*
Y0829005D01*
X0476378Y0825000D02*
X0476527Y0825149D01*
X0476245Y0829286D02*
Y0835720D01*
Y0829286D02*
X0476527Y0829005D01*
X0476245Y0835720D02*
Y0836592D01*
X0475213Y0823136D02*
X0476273D01*
X0476378Y0823032D01*
X0475027Y0823323D02*
Y0828923D01*
X0475427Y0829323D01*
X0475027Y0823323D02*
X0475213Y0823136D01*
X0476298Y0855427D02*
Y0861147D01*
Y0855427D02*
X0477717Y0854008D01*
X0477117Y0855766D02*
Y0860808D01*
Y0855766D02*
X0477717Y0855166D01*
X0477717D01*
X0475774Y0842948D02*
X0476245Y0842476D01*
Y0840920D02*
Y0842476D01*
X0475774Y0842948D02*
Y0846265D01*
X0474955Y0842608D02*
Y0846604D01*
Y0842608D02*
X0475427Y0842137D01*
X0482027Y0867658D02*
Y0868005D01*
X0502927Y0823005D02*
X0503879D01*
X0502527Y0823405D02*
X0502927Y0823005D01*
X0499979Y0823105D02*
X0500052Y0823032D01*
Y0825000D02*
Y0836979D01*
X0503937Y0825000D02*
Y0834705D01*
X0502527Y0823405D02*
Y0834705D01*
X0498727Y0823405D02*
Y0837005D01*
Y0823405D02*
X0499027Y0823105D01*
X0499979D01*
X0496052Y0825000D02*
Y0836979D01*
X0492152Y0825000D02*
Y0836979D01*
X0494727Y0823405D02*
X0495027Y0823105D01*
X0495979D01*
X0494727Y0823405D02*
Y0837005D01*
X0495979Y0823105D02*
X0496052Y0823032D01*
X0490827Y0824331D02*
X0492126Y0823032D01*
X0490827Y0824331D02*
Y0836847D01*
D73*
X0438759Y0805507D02*
D03*
X0438759Y0805506D02*
D03*
D74*
X0509561Y0855000D02*
G03*
X0509959Y0854602I0000398J0000000D01*
G01*
X0510167Y0853807D02*
G03*
X0510167Y0854602I0000000J0000398D01*
G01*
X0509959Y0853807D02*
G03*
X0509959Y0853011I0000000J-0000398D01*
G01*
X0510326Y0852216D02*
G03*
X0510326Y0853011I0000000J0000398D01*
G01*
X0509959Y0852216D02*
G03*
X0509561Y0851818I0000000J-0000398D01*
G01*
X0497386Y0849764D02*
G03*
X0497386Y0849202I0000281J-0000281D01*
G01*
X0497474Y0848551D02*
G03*
X0497474Y0849114I-0000281J0000281D01*
G01*
X0496912Y0848551D02*
G03*
X0497474Y0848551I0000281J0000281D01*
G01*
X0496824Y0848639D02*
G03*
X0496262Y0848639I-0000281J-0000281D01*
G01*
D02*
G03*
X0496262Y0848077I0000281J-0000281D01*
G01*
X0496350Y0847427D02*
G03*
X0496350Y0847989I-0000281J0000281D01*
G01*
X0495787Y0847427D02*
G03*
X0496350Y0847427I0000281J0000281D01*
G01*
X0495699Y0847515D02*
G03*
X0495137Y0847515I-0000281J-0000281D01*
G01*
X0505811Y0850089D02*
G03*
X0505811Y0849527I0000281J-0000281D01*
G01*
X0505949Y0848827D02*
G03*
X0505949Y0849389I-0000281J0000281D01*
G01*
X0505387Y0848827D02*
G03*
X0505949Y0848827I0000281J0000281D01*
G01*
X0505249Y0848964D02*
G03*
X0504686Y0848964I-0000281J-0000281D01*
G01*
D02*
G03*
X0504686Y0848402I0000281J-0000281D01*
G01*
X0504824Y0847702D02*
G03*
X0504824Y0848264I-0000281J0000281D01*
G01*
X0504262Y0847702D02*
G03*
X0504824Y0847702I0000281J0000281D01*
G01*
X0504124Y0847840D02*
G03*
X0503561Y0847840I-0000281J-0000281D01*
G01*
D02*
G03*
X0503561Y0847277I0000281J-0000281D01*
G01*
X0503699Y0846577D02*
G03*
X0503699Y0847139I-0000281J0000281D01*
G01*
X0503137Y0846577D02*
G03*
X0503699Y0846577I0000281J0000281D01*
G01*
X0502999Y0846715D02*
G03*
X0502437Y0846715I-0000281J-0000281D01*
G01*
X0512027Y0855003D02*
G03*
X0512424Y0854605I0000398J0000000D01*
G01*
X0512724Y0853810D02*
G03*
X0512724Y0854605I0000000J0000398D01*
G01*
X0512424Y0853810D02*
G03*
X0512424Y0853015I0000000J-0000398D01*
G01*
X0512829Y0852219D02*
G03*
X0512829Y0853015I0000000J0000398D01*
G01*
X0512424Y0852219D02*
G03*
X0512027Y0851822I0000000J-0000398D01*
G01*
X0518109Y0851687D02*
G03*
X0518109Y0851124I0000281J-0000281D01*
G01*
X0518277Y0850394D02*
G03*
X0518277Y0850956I-0000281J0000281D01*
G01*
X0517714Y0850394D02*
G03*
X0518277Y0850394I0000281J0000281D01*
G01*
X0517546Y0850562D02*
G03*
X0516984Y0850562I-0000281J-0000281D01*
G01*
D02*
G03*
X0516984Y0849999I0000281J-0000281D01*
G01*
X0517156Y0849265D02*
G03*
X0517156Y0849827I-0000281J0000281D01*
G01*
X0516593Y0849265D02*
G03*
X0517156Y0849265I0000281J0000281D01*
G01*
X0516421Y0849437D02*
G03*
X0515859Y0849437I-0000281J-0000281D01*
G01*
X0501599Y0867705D02*
Y0867705D01*
X0501479Y0867824D02*
X0501599Y0867705D01*
X0499154Y0868700D02*
X0500854Y0867000D01*
X0501479Y0867824D02*
Y0868475D01*
X0498843Y0868700D02*
X0499154D01*
X0501227Y0868727D02*
X0501479Y0868475D01*
X0501599Y0867705D02*
X0501599D01*
X0502460Y0867400D02*
X0503027D01*
X0502061Y0867000D02*
X0502460Y0867400D01*
X0506103Y0851378D02*
X0507327Y0852601D01*
X0502169Y0868105D02*
X0503319D01*
X0501599Y0867705D02*
X0501769D01*
X0495037Y0840312D02*
X0506103Y0851378D01*
X0503319Y0868105D02*
X0504331Y0867092D01*
X0500854Y0867000D02*
X0502061D01*
X0501769Y0867705D02*
X0502169Y0868105D01*
X0504927Y0877197D02*
Y0877305D01*
X0502935Y0877197D02*
Y0877305D01*
X0505574Y0840149D02*
X0514603Y0849178D01*
X0505574Y0840149D02*
X0517953Y0852528D01*
X0519527Y0854101D01*
X0509561Y0855000D02*
Y0856020D01*
X0509959Y0854602D02*
X0510167D01*
X0509959Y0853807D02*
X0510167D01*
X0509959Y0853011D02*
X0510326D01*
X0509959Y0852216D02*
X0510326D01*
X0509561Y0850920D02*
Y0851818D01*
Y0856020D02*
Y0860911D01*
Y0848547D02*
Y0850920D01*
X0499742Y0838728D02*
X0509561Y0848547D01*
X0508856Y0861203D02*
X0512918Y0865265D01*
X0499037Y0839020D02*
X0508856Y0848839D01*
X0509561Y0860911D02*
X0513623Y0864973D01*
X0508856Y0848839D02*
Y0861203D01*
X0497386Y0849764D02*
X0498352Y0850730D01*
X0497386Y0849202D02*
X0497474Y0849114D01*
X0497474Y0849114D02*
X0497474Y0849114D01*
Y0848551D02*
X0497474Y0848551D01*
X0496912Y0848551D02*
X0496912Y0848551D01*
X0496824Y0848639D02*
X0496912Y0848551D01*
X0496824Y0848639D02*
X0496824Y0848639D01*
X0496262Y0848077D02*
X0496262Y0848077D01*
X0496350Y0847989D01*
X0496350Y0847989D02*
X0496350Y0847989D01*
X0495787Y0847427D02*
X0495787Y0847427D01*
X0495699Y0847515D02*
X0495787Y0847427D01*
X0495699Y0847515D02*
X0495699Y0847515D01*
X0494502Y0846880D02*
X0495137Y0847515D01*
X0498352Y0850730D02*
X0499531Y0851910D01*
X0493631Y0846010D02*
X0494502Y0846880D01*
X0505811Y0850089D02*
X0506602Y0850880D01*
X0505811Y0849527D02*
X0505949Y0849389D01*
X0505949Y0849389D02*
X0505949Y0849389D01*
X0505387Y0848827D02*
X0505387Y0848827D01*
X0505249Y0848964D02*
X0505387Y0848827D01*
X0505249Y0848964D02*
X0505249Y0848964D01*
X0504686Y0848402D02*
X0504686Y0848402D01*
X0504824Y0848264D01*
X0504824Y0848264D02*
X0504824Y0848264D01*
Y0847702D02*
X0504824Y0847702D01*
X0504262Y0847702D02*
X0504262Y0847702D01*
X0504124Y0847840D02*
X0504262Y0847702D01*
X0504124Y0847840D02*
X0504124Y0847840D01*
X0503561Y0847277D02*
X0503561Y0847277D01*
X0503699Y0847139D01*
X0503699Y0847139D02*
X0503699Y0847139D01*
X0503137Y0846577D02*
X0503137Y0846577D01*
X0502999Y0846715D02*
X0503137Y0846577D01*
X0502999Y0846715D02*
X0502999Y0846715D01*
X0501802Y0846080D02*
X0502437Y0846715D01*
X0495742Y0840020D02*
X0501802Y0846080D01*
X0506602Y0850880D02*
X0508031Y0852310D01*
X0512027Y0855003D02*
Y0855791D01*
X0512424Y0854605D02*
X0512724D01*
X0512424Y0853810D02*
X0512724D01*
X0512424Y0853015D02*
X0512829D01*
X0512424Y0852219D02*
X0512829D01*
X0512027Y0850924D02*
Y0851822D01*
Y0848405D02*
Y0850924D01*
Y0855791D02*
Y0861505D01*
X0518109Y0851687D02*
X0518722Y0852300D01*
X0518109Y0851124D02*
X0518109Y0851124D01*
X0518277Y0850956D01*
X0518277Y0850394D02*
X0518277Y0850394D01*
X0517546Y0850562D02*
X0517714Y0850394D01*
X0517546Y0850562D02*
X0517546Y0850562D01*
X0516984Y0849999D02*
X0516984Y0849999D01*
X0517156Y0849827D01*
X0517156Y0849827D02*
X0517156Y0849827D01*
X0516593Y0849265D02*
X0516593Y0849265D01*
X0516421Y0849437D02*
X0516593Y0849265D01*
X0516421Y0849437D02*
X0516421Y0849437D01*
X0515224Y0848802D02*
X0515859Y0849437D01*
X0506279Y0839857D02*
X0515224Y0848802D01*
X0518722Y0852300D02*
X0520231Y0853810D01*
X0519527Y0854101D02*
Y0860660D01*
X0520231Y0853810D02*
Y0860367D01*
X0506631Y0825000D02*
X0507874D01*
X0520231Y0860367D02*
X0524927Y0865063D01*
Y0869105D01*
X0519527Y0860660D02*
X0524222Y0865355D01*
Y0868813D01*
X0502937Y0840312D02*
X0511322Y0848697D01*
Y0861797D01*
X0502937Y0837215D02*
Y0840312D01*
X0503642Y0837189D02*
Y0840020D01*
X0512027Y0848405D01*
X0507387Y0873300D02*
X0519735D01*
X0520027Y0874005D02*
X0524927Y0869105D01*
X0507679Y0874005D02*
X0520027D01*
X0519735Y0873300D02*
X0524222Y0868813D01*
X0507379Y0874305D02*
X0507679Y0874005D01*
X0506427Y0825205D02*
Y0834605D01*
Y0825205D02*
X0506631Y0825000D01*
X0505427Y0824905D02*
Y0834505D01*
Y0824905D02*
X0505905Y0824426D01*
Y0821063D02*
Y0824426D01*
X0504499Y0872605D02*
X0510527D01*
X0504207Y0871900D02*
X0510235D01*
X0514927Y0864405D02*
Y0868205D01*
X0514222Y0864697D02*
Y0867913D01*
X0506674Y0874013D02*
X0507387Y0873300D01*
X0510527Y0872605D02*
X0514927Y0868205D01*
X0510235Y0871900D02*
X0514222Y0867913D01*
X0506279Y0834752D02*
X0506427Y0834605D01*
X0505574Y0834652D02*
Y0840149D01*
X0506279Y0834752D02*
Y0839857D01*
X0505427Y0834505D02*
X0505574Y0834652D01*
X0512918Y0865265D02*
Y0867316D01*
X0510135Y0870100D02*
X0512918Y0867316D01*
X0510427Y0870805D02*
X0513623Y0867608D01*
Y0864973D02*
Y0867608D01*
X0511322Y0861797D02*
X0514222Y0864697D01*
X0512027Y0861505D02*
X0514927Y0864405D01*
X0503578Y0872529D02*
X0504207Y0871900D01*
X0504283Y0872821D02*
X0504499Y0872605D01*
X0507379Y0874557D02*
X0508027Y0875205D01*
X0506674Y0874013D02*
Y0874557D01*
X0507379Y0874305D02*
Y0874557D01*
X0506027Y0875205D02*
Y0875305D01*
Y0875205D02*
X0506674Y0874557D01*
X0508027Y0875205D02*
Y0875305D01*
X0500374Y0871160D02*
X0501435Y0870100D01*
X0501727Y0870805D02*
X0510427D01*
X0501435Y0870100D02*
X0510135D01*
X0501079Y0871452D02*
X0501727Y0870805D01*
X0503578Y0872529D02*
Y0876553D01*
X0504283Y0872821D02*
Y0876553D01*
X0504927Y0877197D01*
X0502935D02*
X0503578Y0876553D01*
X0492722Y0862155D02*
X0494040Y0860836D01*
X0493427Y0862447D02*
X0494332Y0861541D01*
X0497790D02*
X0499531Y0859800D01*
X0497498Y0860836D02*
X0498827Y0859508D01*
X0494040Y0860836D02*
X0497498D01*
X0494332Y0861541D02*
X0497790D01*
X0500374Y0871160D02*
Y0874357D01*
X0501079Y0871452D02*
Y0874065D01*
X0501079Y0874065D01*
X0499727Y0875205D02*
Y0875305D01*
Y0875205D02*
X0500374Y0874557D01*
Y0874357D02*
Y0874557D01*
X0501727Y0875205D02*
Y0875305D01*
X0501079Y0874557D02*
X0501727Y0875205D01*
X0501079Y0874065D02*
Y0874557D01*
X0500374Y0874357D02*
X0500374Y0874357D01*
X0503937Y0834705D02*
Y0836894D01*
X0503642Y0837189D02*
X0503937Y0836894D01*
X0502527Y0834705D02*
Y0836805D01*
X0502937Y0837215D01*
X0503627Y0860605D02*
X0504227Y0860005D01*
X0503627Y0860605D02*
Y0866800D01*
X0504331Y0860897D02*
Y0867092D01*
Y0860897D02*
X0504519Y0860709D01*
X0499037Y0837315D02*
Y0839020D01*
X0498727Y0837005D02*
X0499037Y0837315D01*
X0499742Y0837290D02*
X0500052Y0836979D01*
X0499742Y0837290D02*
Y0838728D01*
X0504227Y0860005D02*
X0506727D01*
X0504519Y0860709D02*
X0507019D01*
X0503027Y0867400D02*
X0503627Y0866800D01*
X0494829Y0867407D02*
X0495427Y0868005D01*
X0495627D01*
X0499531Y0851910D02*
Y0859800D01*
X0493427Y0862447D02*
Y0864132D01*
X0492722Y0864424D02*
X0492722Y0864424D01*
X0493427Y0864132D02*
X0493427Y0864132D01*
Y0865210D01*
X0492722Y0862155D02*
Y0864424D01*
X0492722Y0864424D02*
Y0865502D01*
X0494124Y0866905D01*
X0493427Y0865210D02*
X0494829Y0866613D01*
X0494829Y0866945D02*
Y0867407D01*
X0493327Y0868005D02*
X0493527D01*
X0494124Y0867407D01*
X0494124Y0867237D02*
X0494124Y0867237D01*
X0494829Y0866945D02*
X0494829Y0866945D01*
X0494829Y0866613D02*
Y0866945D01*
X0494124Y0866905D02*
Y0867237D01*
X0494124Y0867237D02*
Y0867407D01*
X0493631Y0842109D02*
Y0846010D01*
X0492927Y0846301D02*
X0498827Y0852201D01*
X0492927Y0842401D02*
Y0846301D01*
X0498827Y0852201D02*
Y0859508D01*
X0508031Y0852310D02*
Y0859697D01*
X0495037Y0837315D02*
Y0840312D01*
X0507327Y0852601D02*
Y0859405D01*
X0495742Y0837290D02*
Y0840020D01*
Y0837290D02*
X0496052Y0836979D01*
X0494727Y0837005D02*
X0495037Y0837315D01*
X0507019Y0860709D02*
X0508031Y0859697D01*
X0506727Y0860005D02*
X0507327Y0859405D01*
X0490827Y0836847D02*
X0491137Y0837157D01*
Y0840612D01*
X0492927Y0842401D01*
X0491842Y0837290D02*
X0492152Y0836979D01*
X0491842Y0837290D02*
Y0840320D01*
X0493631Y0842109D01*
M02*
