M48
;Layer_Color=9474304
;FILE_FORMAT=2:4
INCH
;TYPE=PLATED
T04F00S00C0.0197
T05F00S00C0.0217
;TYPE=NON_PLATED
%
G90
G05
T04
G00X038335Y067126
M15
G01Y067402
M16
G00X040934Y067126
M15
G01Y067402
M16
G00X069330Y070837
M15
G01X069054
M16
G00X069330Y073435
M15
G01X069054
M16
T05
G00X067802Y075955
M15
G01X067625
M16
G00X069745Y075959
M15
G01X069391
M16
G00X069745Y079494
M15
G01X069391
M16
G00X067802Y079498
M15
G01X067625
M16
G00X067802Y082411
M15
G01X067625
M16
G00X069745Y082415
M15
G01X069391
M16
G00X069745Y085951
M15
G01X069391
M16
G00X067802Y085955
M15
G01X067625
M16
M17
M30
