M48
;Layer_Color=9474304
;FILE_FORMAT=2:4
INCH
;TYPE=PLATED
T1F00S00C0.0080
T2F00S00C0.1260
%
T01
X040472Y072751
X041092Y072971
X041446Y073356
X041406Y073907
X041367Y074537
X041013Y075089
X040383Y075285
X039753
X039280Y075443
X039182Y074941
X038912Y074461
X038965Y075837
X038847Y076388
Y076781
Y077175
Y077569
Y077963
X040472Y078031
Y077776
X040476Y077502
X040787Y077776
Y078031
X041102Y078003
Y077776
X041417Y077904
X041466Y077642
X042006Y077602
X042047Y077904
X042726Y077788
X042986Y077782
X044646Y077612
X044942Y077651
X045145Y077763
X045152Y077986
X045386Y077602
X045556Y077342
X045546Y077092
X045886Y077062
X045706Y076822
X045266Y077202
X046063Y077972
X046462Y074944
X046353Y074640
X046853Y074340
Y073128
X046839Y072726
X046446
X046052
X045658
X045265
X044871
X044477
X044084
X043690
X043296
X042902
X042509
X041918Y072844
X047233Y072726
X047323Y072928
X047168Y073128
X047483
X047742Y073071
X047627Y072726
X048021
X048414
X048808
X048743Y072930
X049058
X049373
X049688
X049595Y072726
X049989
X050002Y072930
X050317
X050383Y072726
X050776
X050632Y072930
X050947
X051102Y073128
X050787
X050472
X050157
X049842
X049527
X049212
X048897
X048583
X048212Y072971
X048263Y074030
X048583
X048898
X049213
X049528
X049843
X050157
X050466
X050315Y074340
X050000
X049685
X049370
X049055
X048740
X048425
X048111
X047639
X047323
X047480Y074140
X047572Y073921
X047783Y074130
X046902Y074061
X047006Y073730
X047013Y074940
X047283
X047612Y075280
X047336Y075772
X047338Y076322
X047336Y076632
X047232Y076911
Y077151
X047833Y076880
X046996Y076109
X046903Y075460
X050762Y075228
X051102Y075253
X051119Y075621
X050892
X051347
X051574
X051802
X052772Y075941
X052762Y076271
X053483Y076460
X053473Y076860
Y077260
X053343Y077660
X054403Y077650
Y077260
Y076850
Y076460
X055013Y076430
X055133Y075990
X055143Y075600
X055163Y075110
X054663Y075150
X054153Y075140
X053842Y075121
X053892Y075611
X054153Y075580
X054773Y074730
X055163Y074490
X055053Y074030
Y073420
X055107Y072726
X054713
X054320
X053926
X053139
X052745
X052351
X051958
X051847Y072941
X051564Y072951
X051564Y072726
X051170
X051402Y073111
X051717
X051592Y073751
X052133Y073710
Y073950
X052242Y074291
X052743Y074070
X053013Y074090
X053263Y074070
X053903Y074100
X054173Y074110
X054473Y074120
X055693Y073310
X056173
X056288Y072726
X056682
X057076
X057469
X057863
X058257
X058650
X058613Y073330
Y073660
X059359Y073435
X059398Y074035
X059477Y074655
X059832Y075089
X060422Y075285
X061131Y075246
X061562Y074881
X061721Y075561
X061653Y076000
Y076240
X061333Y076250
Y076000
X061997Y076585
Y076978
Y077372
Y077766
X061723Y077780
Y078070
X060393Y077980
X059633Y078083
Y077680
X059197Y077610
Y077925
X058488
Y077610
X058483Y077170
X058163Y077160
X057773
X057453
X057293Y077610
Y078083
X057779Y077925
Y077610
X056613Y077480
X056353Y077550
Y078090
X056583Y077010
X054853Y077040
Y077490
X054843Y078000
X054423Y078060
X051582Y077811
X051242Y077431
X050984Y077260
X050787Y077972
X050223Y076980
X050630Y074943
X050945
X050782Y074351
X052753Y074960
Y075200
X053043
Y074960
X057083Y074470
X057073Y074140
Y073770
X057473Y073780
Y074140
Y074480
X057283Y073470
X055895Y072726
X055501
X059084Y073002
X059742Y073111
X060332Y072811
X061852Y074241
X059853Y076040
X059333Y075990
X059103
X058893
X057893Y076050
X057663
X057683Y076280
X057883
X059513Y076460
X060023
X059613Y077190
X059293Y077180
X058863Y077170
X049202Y072726
X049213Y078169
Y078366
Y078563
Y078760
X048821Y078758
X048819Y078563
Y078366
Y078169
X048836Y078952
X048819Y079154
Y079350
X049016
X048819Y079744
X048425
Y079547
X048032Y079350
Y079154
X048026Y078952
X048425Y078760
X047243Y078759
X047244Y078957
X047244Y079154
Y079350
X047047
Y079744
X047244
X047441
X047835
X048032
Y080138
Y080532
X048425
Y080335
X048415Y080168
X048819Y080138
Y080532
X049016
Y080925
X049409
X049606
X049803
X049616Y080532
X049409Y080532
X049606Y080138
X049803
X050197Y080138
X050396Y080135
X050591Y080138
X050786Y080132
X050591Y079744
X050394
X050197
Y079350
X050394
X050591
X050591Y078957
X050394
X050197Y078957
X049606Y078957
Y079154
Y079354
X049996Y079352
X049626Y079742
X049606Y081417
X049596Y081702
X049606Y081909
X049606Y082106
Y082303
Y082500
X050000
Y082303
Y082106
X050000Y081909
X050394Y081713
X050591
Y082106
X050394
Y082303
Y082500
X050787
Y082697
X051312Y083221
X051123Y084270
X050055Y084278
X049551Y084262
X049088Y084275
X048652Y084351
X048075Y084354
X047713Y084351
X047703Y085190
X047473
X047243
X047013
X048078Y085690
X048308
X048482Y085571
X048712
X048873Y085690
X049103
X049373Y085680
X050283Y085720
X050513
X050583Y086380
X050813
X050933Y086580
X051162
X051693Y086380
X051923
X052013Y086590
X052243
X052632Y086390
X052832
X052558Y085710
X052333
X051613Y085720
X051383
X051390Y087530
X051590
X051711Y087730
X051910
X052020Y087530
X052219
X052341Y087730
X052540
X052862Y087741
X052745Y088002
X052351
X051958
X051564
X051432Y087801
X051170Y088002
X050776
X050772Y087781
X050803Y087530
X050603
X050493Y087730
X050293
X050173Y087530
X049973
X049862Y087771
X049989Y088002
X050383
X049595
X049202
X048808
X048414
X048021
X047627
X047233
X047973Y086800
X048203
X048473Y086810
X048713
X048943
X049333Y086800
X049563
X049884Y086870
X050123Y086873
X050193Y086570
X049963
X049873Y086370
X049643
X048571Y086321
X048773Y087570
X049053Y087580
X051102Y087641
X053262Y087731
X053622
X053532Y088002
X053926
X054002Y087751
X054342Y087761
X054320Y088002
X054713
X055107
X055501
X055512Y087671
X055022Y087651
X054612Y087601
X054542Y087301
X054212Y087521
X053802Y087531
X053139Y088002
X054023Y086500
X054223
X055603Y086232
X055413Y085832
X055803
X056193Y086032
X056243Y085392
X056493Y085342
X057273Y084962
X057283Y084732
X055963Y084662
X056203Y084062
X056002Y083591
X055602Y083621
X055403Y084062
X055302Y082381
X055273Y081760
X055833Y081780
X056073Y081530
X056433Y081820
X056823Y081830
X057203Y082270
X057483
X058613Y082110
Y082480
X059013
Y082110
X059413
Y082480
X060463Y082250
X060763
X060643Y082720
X061396Y083022
X061997Y082884
Y082490
Y082096
Y081703
Y081309
Y080915
Y080522
X061542Y080881
X061142
X061533Y079870
X061997Y078553
Y078159
X060393Y078180
X059663Y078560
X059653Y078800
Y079030
Y079260
X060003Y079550
X059902Y080261
X058843Y080240
X058613
Y080500
X058843Y080490
X058673Y079490
X059073Y079510
X059197Y079060
Y078713
Y078319
X058488
Y078713
Y079028
X058252Y079480
X057873Y079500
X057553Y079490
X056972Y079521
X056633Y080000
X056443Y080170
X056182Y079441
X056551Y079007
X056303Y078580
X057293Y078398
X057779Y078319
Y078713
X055273Y078730
X055352Y079141
X055293Y079840
X055116Y080062
Y080492
X055273Y080770
X055663Y081280
X056823Y080800
X054553Y078680
X053573
X052905Y078972
Y079160
X052973Y079600
X053083Y079820
X052783Y081300
X052493Y081530
X053090Y081953
X053163Y082560
X053353Y082720
X053533Y082880
X053723Y083060
X053913Y083240
X050591Y081319
X050394
X050197
X050787Y080925
X050591Y080532
X050591Y078563
X051342Y078451
X051725Y078156
X048819Y081319
X048819Y081516
X049016
X048819Y081909
Y082109
X048425Y082106
X048425Y082303
X048425Y082500
X048425Y081909
X048426Y081712
X048425Y081122
Y080925
X048032Y081319
Y081516
X047835
Y081319
X047244
Y081516
X047244Y081713
X047242Y081909
Y082106
Y082303
Y082500
X047638
Y082303
Y082106
Y081909
X048032
X048032Y082106
X049213
Y082303
Y082500
X049235Y081932
X048816Y082702
X048734Y083673
X048026Y083455
X047826
X047047Y081319
Y080925
X047244
Y080532
X047441
X047047
Y080138
X047244
X055252Y087341
X055862Y087351
X056072Y087681
X055895Y088002
X056288
X056682
X056642Y087701
X057232
X057076Y088002
X057469
X057863
X058257
X058332Y087701
X058062Y087361
X057482Y087381
X057752Y087661
X056932Y087351
X056392Y087331
X056573Y086542
X059398Y086663
X059438Y086112
X059753Y085640
X060225Y085482
X060776Y085404
X061367Y085325
X061609Y085743
X061829Y086083
X061800Y084970
X061997Y084459
Y084065
Y083671
Y083278
X059922Y084691
X058886Y085662
X058712Y087361
X058650Y088002
X059044Y087766
X059679Y087613
X060059Y087853
X059359Y087293
X046772Y087561
X046839Y088002
X046446
X046052
X045658
X045265
X044871
X044477
X044084
X043690
X043296
X042902
X042509
X041879Y087844
X041524Y087451
X041092Y087621
X040572Y087911
X041406Y086900
Y086348
X041249Y085797
X040737Y085443
X040107Y085404
X039517Y085364
X039182Y085611
X039123Y085089
X038887Y084695
X038847Y084262
Y083868
Y083474
Y083081
Y082687
Y082293
Y081900
Y081506
Y081112
Y080718
Y080325
Y079931
Y079537
Y079144
Y078750
Y078356
X039786Y078412
Y078162
X039796Y078792
X040157Y078799
Y079053
X039806Y079172
Y079442
X039816Y079942
X040157Y079823
X040472
Y079567
Y079311
X040787
Y079567
Y079816
Y080088
Y080586
X040795Y080866
X040787Y081102
Y081358
X041102
Y081102
Y080816
X041417Y080846
Y081358
Y081798
Y082010
X041424Y082296
X041101Y082380
X041102Y082652
X041102Y082898
X040799Y082882
X040787Y082638
Y082376
Y082126
Y081870
X041102
X041106Y082087
X040485Y082408
X040472Y082638
Y082894
X040432Y083211
X040157Y082638
X040159Y082425
X040156Y082082
X040157Y081614
Y081358
X040472Y081346
Y081102
Y080846
Y080591
X039776Y080732
Y080982
Y081232
X039796Y081482
X039796Y081722
X040472Y081618
X042040Y081742
Y081998
Y082254
X042362Y082382
X042677
Y082126
Y082898
X042992
X043296Y082310
X043646Y082280
X043649Y082000
X043667Y081728
X043666Y081450
X043656Y081240
Y080968
X043656Y080696
X043307Y080855
X043313Y081108
X042992Y081101
X042982Y080882
X042985Y080652
X042984Y080085
X042992Y079813
Y079567
Y079318
Y079046
X042362
Y079318
X042348Y079566
X042357Y079786
X042362Y080076
X042047Y079823
Y079567
X042048Y079322
X042047Y078928
X042047Y078646
Y078415
X042362Y078289
X042677Y078276
Y078548
X043308Y078306
X043663Y078356
X043668Y078653
X043697Y078942
X043686Y079218
X043676Y079498
Y079778
X043653Y079976
X043307Y079823
Y079567
X042376Y080649
X042362Y080848
X042362Y081066
X042361Y081338
X042401Y081610
X042992Y081618
X042992Y081346
X042047Y081206
Y080974
X041417Y079828
X041102Y079823
Y079567
Y079318
X041499Y079321
X041417Y078946
X041420Y078674
X041417Y078402
X041102Y078276
Y078548
Y078799
X040787Y078543
Y078287
X040472Y078799
X040157Y078543
X044778Y078230
X045028Y078260
X045346Y078188
X046063Y078169
X046066Y078462
X046260Y078563
X046457
Y078366
Y078169
X046850
Y078366
Y078563
X046346Y078957
X046066Y078952
Y079362
X046260Y079350
X046457
X046654
X046850Y079744
X046457Y079744
X046260
X046066Y079742
Y080142
X046260Y080138
X046457
X046654
X046843Y080140
X046654Y080532
Y080925
X046457
X046260
X046066Y080922
X046056Y080532
X046066Y081322
X046260Y081319
X046654
X046846Y081332
X046850Y080925
X046654Y081713
X046260
X046056Y081702
X046066Y082102
X046457Y082106
Y082303
Y082500
X046066Y082502
Y082692
X045936Y083272
X045596Y083202
X045599Y083591
X045596Y083992
X045296Y083742
Y083432
X045150Y083149
X045157Y082906
X045206Y082692
X044836Y082722
X044576Y082702
X044646Y083242
X044916Y083232
X044926Y081772
X045150Y081684
X045157Y081476
X045136Y080900
Y080701
X045120Y080356
X045155Y079995
X045158Y079781
X045425Y080021
X045356Y080907
X045146Y079224
Y079025
X044872Y079002
X046850Y082106
Y082303
Y082500
X046783Y085190
X046553
X046323
X046093
X045863
X045633
X045403
X045183Y086030
X044943
X044711Y086032
X044483Y086030
X044253
X044023
X043793
X043563
X043333
X042902Y085291
X043092Y085061
X042047Y083038
Y082766
X041417
Y083022
X040512Y084051
X039183Y083210
X039426Y082912
X038922Y086071
T02
X040157Y074035
X060630
Y086634
X040157
M30
