G04*
G04 #@! TF.GenerationSoftware,Altium Limited,Altium Designer,22.8.2 (66)*
G04*
G04 Layer_Color=16711935*
%FSAX25Y25*%
%MOIN*%
G70*
G04*
G04 #@! TF.SameCoordinates,F4A2C5FB-41C3-4025-BEE9-57CBDAA8531C*
G04*
G04*
G04 #@! TF.FilePolarity,Negative*
G04*
G01*
G75*
%ADD30C,0.03150*%
%ADD31C,0.01575*%
%ADD32C,0.02362*%
%ADD35C,0.02368*%
G04:AMPARAMS|DCode=37|XSize=41.4mil|YSize=37.47mil|CornerRadius=5.35mil|HoleSize=0mil|Usage=FLASHONLY|Rotation=270.000|XOffset=0mil|YOffset=0mil|HoleType=Round|Shape=RoundedRectangle|*
%AMROUNDEDRECTD37*
21,1,0.04140,0.02677,0,0,270.0*
21,1,0.03071,0.03747,0,0,270.0*
1,1,0.01069,-0.01339,-0.01535*
1,1,0.01069,-0.01339,0.01535*
1,1,0.01069,0.01339,0.01535*
1,1,0.01069,0.01339,-0.01535*
%
%ADD37ROUNDEDRECTD37*%
G04:AMPARAMS|DCode=41|XSize=27.62mil|YSize=27.62mil|CornerRadius=4.36mil|HoleSize=0mil|Usage=FLASHONLY|Rotation=270.000|XOffset=0mil|YOffset=0mil|HoleType=Round|Shape=RoundedRectangle|*
%AMROUNDEDRECTD41*
21,1,0.02762,0.01890,0,0,270.0*
21,1,0.01890,0.02762,0,0,270.0*
1,1,0.00872,-0.00945,-0.00945*
1,1,0.00872,-0.00945,0.00945*
1,1,0.00872,0.00945,0.00945*
1,1,0.00872,0.00945,-0.00945*
%
%ADD41ROUNDEDRECTD41*%
G04:AMPARAMS|DCode=42|XSize=41.4mil|YSize=37.47mil|CornerRadius=5.35mil|HoleSize=0mil|Usage=FLASHONLY|Rotation=180.000|XOffset=0mil|YOffset=0mil|HoleType=Round|Shape=RoundedRectangle|*
%AMROUNDEDRECTD42*
21,1,0.04140,0.02677,0,0,180.0*
21,1,0.03071,0.03747,0,0,180.0*
1,1,0.01069,-0.01535,0.01339*
1,1,0.01069,0.01535,0.01339*
1,1,0.01069,0.01535,-0.01339*
1,1,0.01069,-0.01535,-0.01339*
%
%ADD42ROUNDEDRECTD42*%
G04:AMPARAMS|DCode=45|XSize=24mil|YSize=24mil|CornerRadius=4mil|HoleSize=0mil|Usage=FLASHONLY|Rotation=0.000|XOffset=0mil|YOffset=0mil|HoleType=Round|Shape=RoundedRectangle|*
%AMROUNDEDRECTD45*
21,1,0.02400,0.01600,0,0,0.0*
21,1,0.01600,0.02400,0,0,0.0*
1,1,0.00800,0.00800,-0.00800*
1,1,0.00800,-0.00800,-0.00800*
1,1,0.00800,-0.00800,0.00800*
1,1,0.00800,0.00800,0.00800*
%
%ADD45ROUNDEDRECTD45*%
G04:AMPARAMS|DCode=46|XSize=24mil|YSize=24mil|CornerRadius=4mil|HoleSize=0mil|Usage=FLASHONLY|Rotation=270.000|XOffset=0mil|YOffset=0mil|HoleType=Round|Shape=RoundedRectangle|*
%AMROUNDEDRECTD46*
21,1,0.02400,0.01600,0,0,270.0*
21,1,0.01600,0.02400,0,0,270.0*
1,1,0.00800,-0.00800,-0.00800*
1,1,0.00800,-0.00800,0.00800*
1,1,0.00800,0.00800,0.00800*
1,1,0.00800,0.00800,-0.00800*
%
%ADD46ROUNDEDRECTD46*%
G04:AMPARAMS|DCode=47|XSize=18.01mil|YSize=18.01mil|CornerRadius=4.2mil|HoleSize=0mil|Usage=FLASHONLY|Rotation=270.000|XOffset=0mil|YOffset=0mil|HoleType=Round|Shape=RoundedRectangle|*
%AMROUNDEDRECTD47*
21,1,0.01801,0.00961,0,0,270.0*
21,1,0.00961,0.01801,0,0,270.0*
1,1,0.00840,-0.00480,-0.00480*
1,1,0.00840,-0.00480,0.00480*
1,1,0.00840,0.00480,0.00480*
1,1,0.00840,0.00480,-0.00480*
%
%ADD47ROUNDEDRECTD47*%
G04:AMPARAMS|DCode=49|XSize=18.01mil|YSize=18.01mil|CornerRadius=4.2mil|HoleSize=0mil|Usage=FLASHONLY|Rotation=180.000|XOffset=0mil|YOffset=0mil|HoleType=Round|Shape=RoundedRectangle|*
%AMROUNDEDRECTD49*
21,1,0.01801,0.00961,0,0,180.0*
21,1,0.00961,0.01801,0,0,180.0*
1,1,0.00840,-0.00480,0.00480*
1,1,0.00840,0.00480,0.00480*
1,1,0.00840,0.00480,-0.00480*
1,1,0.00840,-0.00480,-0.00480*
%
%ADD49ROUNDEDRECTD49*%
%ADD52C,0.20085*%
%ADD53C,0.02198*%
G04:AMPARAMS|DCode=84|XSize=11.87mil|YSize=31.56mil|CornerRadius=2.79mil|HoleSize=0mil|Usage=FLASHONLY|Rotation=0.000|XOffset=0mil|YOffset=0mil|HoleType=Round|Shape=RoundedRectangle|*
%AMROUNDEDRECTD84*
21,1,0.01187,0.02598,0,0,0.0*
21,1,0.00630,0.03156,0,0,0.0*
1,1,0.00558,0.00315,-0.01299*
1,1,0.00558,-0.00315,-0.01299*
1,1,0.00558,-0.00315,0.01299*
1,1,0.00558,0.00315,0.01299*
%
%ADD84ROUNDEDRECTD84*%
G04:AMPARAMS|DCode=85|XSize=17.78mil|YSize=17.78mil|CornerRadius=3.38mil|HoleSize=0mil|Usage=FLASHONLY|Rotation=90.000|XOffset=0mil|YOffset=0mil|HoleType=Round|Shape=RoundedRectangle|*
%AMROUNDEDRECTD85*
21,1,0.01778,0.01102,0,0,90.0*
21,1,0.01102,0.01778,0,0,90.0*
1,1,0.00676,0.00551,0.00551*
1,1,0.00676,0.00551,-0.00551*
1,1,0.00676,-0.00551,-0.00551*
1,1,0.00676,-0.00551,0.00551*
%
%ADD85ROUNDEDRECTD85*%
G04:AMPARAMS|DCode=86|XSize=17.78mil|YSize=17.78mil|CornerRadius=3.38mil|HoleSize=0mil|Usage=FLASHONLY|Rotation=0.000|XOffset=0mil|YOffset=0mil|HoleType=Round|Shape=RoundedRectangle|*
%AMROUNDEDRECTD86*
21,1,0.01778,0.01102,0,0,0.0*
21,1,0.01102,0.01778,0,0,0.0*
1,1,0.00676,0.00551,-0.00551*
1,1,0.00676,-0.00551,-0.00551*
1,1,0.00676,-0.00551,0.00551*
1,1,0.00676,0.00551,0.00551*
%
%ADD86ROUNDEDRECTD86*%
G04:AMPARAMS|DCode=87|XSize=27.62mil|YSize=27.62mil|CornerRadius=4.36mil|HoleSize=0mil|Usage=FLASHONLY|Rotation=180.000|XOffset=0mil|YOffset=0mil|HoleType=Round|Shape=RoundedRectangle|*
%AMROUNDEDRECTD87*
21,1,0.02762,0.01890,0,0,180.0*
21,1,0.01890,0.02762,0,0,180.0*
1,1,0.00872,-0.00945,0.00945*
1,1,0.00872,0.00945,0.00945*
1,1,0.00872,0.00945,-0.00945*
1,1,0.00872,-0.00945,-0.00945*
%
%ADD87ROUNDEDRECTD87*%
%ADD88C,0.03550*%
G04:AMPARAMS|DCode=89|XSize=46.91mil|YSize=54.79mil|CornerRadius=6.29mil|HoleSize=0mil|Usage=FLASHONLY|Rotation=0.000|XOffset=0mil|YOffset=0mil|HoleType=Round|Shape=RoundedRectangle|*
%AMROUNDEDRECTD89*
21,1,0.04691,0.04221,0,0,0.0*
21,1,0.03433,0.05479,0,0,0.0*
1,1,0.01258,0.01717,-0.02110*
1,1,0.01258,-0.01717,-0.02110*
1,1,0.01258,-0.01717,0.02110*
1,1,0.01258,0.01717,0.02110*
%
%ADD89ROUNDEDRECTD89*%
G04:AMPARAMS|DCode=90|XSize=47.31mil|YSize=78.8mil|CornerRadius=6.33mil|HoleSize=0mil|Usage=FLASHONLY|Rotation=180.000|XOffset=0mil|YOffset=0mil|HoleType=Round|Shape=RoundedRectangle|*
%AMROUNDEDRECTD90*
21,1,0.04731,0.06614,0,0,180.0*
21,1,0.03465,0.07880,0,0,180.0*
1,1,0.01266,-0.01732,0.03307*
1,1,0.01266,0.01732,0.03307*
1,1,0.01266,0.01732,-0.03307*
1,1,0.01266,-0.01732,-0.03307*
%
%ADD90ROUNDEDRECTD90*%
G36*
X0385717Y0724508D02*
X0422331D01*
X0412883Y0733957D01*
Y0746555D01*
X0406977Y0752460D01*
X0395560D01*
X0387686Y0760334D01*
X0385717D01*
Y0724508D01*
D02*
G37*
G36*
Y0881988D02*
Y0845374D01*
X0395166Y0854823D01*
X0407764D01*
X0413670Y0860728D01*
Y0872146D01*
X0421544Y0880020D01*
Y0881988D01*
X0385717D01*
D02*
G37*
G36*
X0622331Y0726083D02*
Y0762697D01*
X0612883Y0753248D01*
X0600284D01*
X0594379Y0747342D01*
Y0735925D01*
X0586505Y0728051D01*
Y0726083D01*
X0622331D01*
D02*
G37*
G36*
X0621544Y0881988D02*
X0584930D01*
X0594379Y0872539D01*
Y0859941D01*
X0600284Y0854035D01*
X0611701D01*
X0619575Y0846161D01*
X0621544D01*
Y0881988D01*
D02*
G37*
D30*
X0424300Y0879626D02*
G03*
X0414064Y0870571I-0000591J-0009646D01*
G01*
X0398709Y0854035D02*
G03*
X0388473Y0844980I-0000591J-0009646D01*
G01*
X0403827Y0854035D02*
G03*
X0414064Y0863090I0000591J0009646D01*
G01*
X0388473Y0763090D02*
G03*
X0397528Y0752854I0009646J-0000591D01*
G01*
X0414064Y0742618D02*
G03*
X0405009Y0752854I-0009646J0000591D01*
G01*
X0414064Y0737500D02*
G03*
X0423119Y0727264I0009646J-0000591D01*
G01*
X0583749Y0727264D02*
G03*
X0593985Y0736319I0000591J0009646D01*
G01*
X0604221Y0752460D02*
G03*
X0593985Y0743405I-0000591J-0009646D01*
G01*
X0609339Y0752460D02*
G03*
X0619575Y0761516I0000591J0009646D01*
G01*
Y0843799D02*
G03*
X0610520Y0854035I-0009646J0000591D01*
G01*
X0593985Y0864272D02*
G03*
X0603040Y0854035I0009646J-0000591D01*
G01*
X0593985Y0869390D02*
G03*
X0584930Y0879626I-0009646J0000591D01*
G01*
X0424693Y0879626D02*
X0482174Y0879626D01*
X0398709Y0854035D02*
X0403040D01*
X0414064Y0863484D02*
Y0870571D01*
X0529418Y0879626D02*
X0584536D01*
X0593985Y0864665D02*
Y0868996D01*
X0603434Y0854035D02*
X0610127D01*
X0619575Y0762303D02*
Y0843799D01*
X0604615Y0752460D02*
X0608946D01*
X0593985Y0737106D02*
Y0742618D01*
X0518394Y0727264D02*
X0583355D01*
X0423119D02*
X0470756D01*
X0414064Y0737894D02*
Y0742618D01*
X0398316Y0752854D02*
X0404615D01*
X0388473Y0762697D02*
Y0844586D01*
D31*
X0482961Y0880413D02*
X0528631D01*
D32*
X0471150Y0726870D02*
X0518001D01*
D35*
X0440027Y0749105D02*
D03*
X0433727D02*
D03*
X0427827D02*
D03*
X0422127D02*
D03*
X0576227Y0732405D02*
D03*
X0576027Y0756805D02*
D03*
X0569617Y0797908D02*
D03*
X0553517Y0795208D02*
D03*
X0472227Y0845605D02*
D03*
X0505027Y0769905D02*
D03*
X0477027Y0845705D02*
D03*
X0535727Y0798505D02*
D03*
X0527327Y0819605D02*
D03*
X0481327Y0845705D02*
D03*
X0490927Y0845605D02*
D03*
X0495527Y0845705D02*
D03*
X0486527Y0845605D02*
D03*
X0534646Y0846205D02*
D03*
X0529946D02*
D03*
X0525389D02*
D03*
X0521146D02*
D03*
D37*
X0585476Y0741805D02*
D03*
X0579177D02*
D03*
X0560177D02*
D03*
X0566476D02*
D03*
X0606076Y0818205D02*
D03*
X0599777D02*
D03*
X0574277Y0818505D02*
D03*
X0580576D02*
D03*
D41*
X0420933Y0807020D02*
D03*
X0417390D02*
D03*
X0417233Y0811120D02*
D03*
X0413690D02*
D03*
X0417133Y0795520D02*
D03*
X0413590D02*
D03*
X0548398Y0759905D02*
D03*
X0544855D02*
D03*
X0606698Y0801405D02*
D03*
X0603155D02*
D03*
X0606698Y0805405D02*
D03*
X0603155D02*
D03*
X0525398Y0801405D02*
D03*
X0521855D02*
D03*
D42*
X0609427Y0791554D02*
D03*
Y0785255D02*
D03*
X0609127Y0766455D02*
D03*
Y0772754D02*
D03*
X0615427Y0791454D02*
D03*
Y0785155D02*
D03*
X0615127Y0766555D02*
D03*
Y0772854D02*
D03*
D45*
X0423661Y0818131D02*
D03*
Y0821910D02*
D03*
X0417161Y0789410D02*
D03*
Y0785631D02*
D03*
X0397361Y0826410D02*
D03*
Y0822631D02*
D03*
X0417261Y0819331D02*
D03*
Y0823110D02*
D03*
X0470461Y0815131D02*
D03*
Y0818910D02*
D03*
X0492861Y0789631D02*
D03*
Y0793410D02*
D03*
D46*
X0501851Y0827620D02*
D03*
X0498071D02*
D03*
X0430251Y0831820D02*
D03*
X0426472D02*
D03*
X0476472Y0799420D02*
D03*
X0480251D02*
D03*
X0466471Y0791420D02*
D03*
X0470251D02*
D03*
X0488327Y0799408D02*
D03*
X0492107D02*
D03*
X0486251Y0815220D02*
D03*
X0482472D02*
D03*
X0471771Y0803320D02*
D03*
X0475551D02*
D03*
X0476672Y0807320D02*
D03*
X0480451D02*
D03*
X0488372D02*
D03*
X0492151D02*
D03*
X0493027Y0803508D02*
D03*
X0496807D02*
D03*
X0598637Y0757705D02*
D03*
X0602416D02*
D03*
X0580337Y0746905D02*
D03*
X0584116D02*
D03*
X0566207Y0857708D02*
D03*
X0562427D02*
D03*
X0564727Y0862208D02*
D03*
X0568507D02*
D03*
D47*
X0505962Y0807120D02*
D03*
X0508561D02*
D03*
X0502860Y0815320D02*
D03*
X0500262D02*
D03*
X0500062Y0811020D02*
D03*
X0502661D02*
D03*
X0502561Y0807120D02*
D03*
X0499962D02*
D03*
X0498862Y0795620D02*
D03*
X0501461D02*
D03*
X0499662Y0799420D02*
D03*
X0502260D02*
D03*
X0501660Y0804820D02*
D03*
X0499062D02*
D03*
X0491060Y0795520D02*
D03*
X0488462D02*
D03*
X0479960Y0795420D02*
D03*
X0477362D02*
D03*
X0467362Y0807220D02*
D03*
X0469960D02*
D03*
X0469460Y0803320D02*
D03*
X0466862D02*
D03*
X0474261Y0799320D02*
D03*
X0471662D02*
D03*
X0472462Y0795420D02*
D03*
X0475061D02*
D03*
X0466962Y0799320D02*
D03*
X0469560D02*
D03*
X0469661Y0795520D02*
D03*
X0467062D02*
D03*
X0477460Y0793320D02*
D03*
X0474862D02*
D03*
X0478062Y0817020D02*
D03*
X0480660D02*
D03*
X0477362Y0811320D02*
D03*
X0479960D02*
D03*
X0475061D02*
D03*
X0472462D02*
D03*
X0471862Y0807220D02*
D03*
X0474461D02*
D03*
X0470461Y0811220D02*
D03*
X0467862D02*
D03*
X0462262Y0805220D02*
D03*
X0464860D02*
D03*
X0501961Y0787220D02*
D03*
X0499362D02*
D03*
X0405362Y0831320D02*
D03*
X0407961D02*
D03*
X0401461Y0805220D02*
D03*
X0398862D02*
D03*
X0398763Y0801320D02*
D03*
X0401361D02*
D03*
X0409460Y0775020D02*
D03*
X0406862D02*
D03*
X0429860Y0779920D02*
D03*
X0427262D02*
D03*
X0490660Y0803320D02*
D03*
X0488062D02*
D03*
X0480560Y0803220D02*
D03*
X0477962D02*
D03*
X0491260Y0811320D02*
D03*
X0488662D02*
D03*
X0496161Y0811520D02*
D03*
X0493562D02*
D03*
X0494562Y0807220D02*
D03*
X0497160D02*
D03*
X0494562Y0795620D02*
D03*
X0497160D02*
D03*
X0497060Y0799420D02*
D03*
X0494462D02*
D03*
X0555916Y0842408D02*
D03*
X0553318D02*
D03*
X0556518Y0833808D02*
D03*
X0559116D02*
D03*
X0522227Y0798405D02*
D03*
X0524826D02*
D03*
X0535727Y0784705D02*
D03*
X0538326D02*
D03*
X0542927D02*
D03*
X0545526D02*
D03*
X0543626Y0824505D02*
D03*
X0541027D02*
D03*
X0539426Y0804805D02*
D03*
X0536827D02*
D03*
D49*
X0509361Y0795521D02*
D03*
Y0798120D02*
D03*
Y0800821D02*
D03*
Y0803420D02*
D03*
X0490161Y0817021D02*
D03*
Y0819620D02*
D03*
X0498061Y0816820D02*
D03*
Y0814221D02*
D03*
X0494161Y0813221D02*
D03*
Y0815820D02*
D03*
X0485917Y0801208D02*
D03*
Y0803807D02*
D03*
X0482461Y0803520D02*
D03*
Y0800921D02*
D03*
X0486017Y0799107D02*
D03*
Y0796509D02*
D03*
X0486261Y0794620D02*
D03*
Y0792021D02*
D03*
X0482461D02*
D03*
Y0794620D02*
D03*
Y0796621D02*
D03*
Y0799220D02*
D03*
X0498261Y0791520D02*
D03*
Y0788921D02*
D03*
X0482461Y0787521D02*
D03*
Y0790120D02*
D03*
X0486261D02*
D03*
Y0787521D02*
D03*
X0474461Y0788821D02*
D03*
Y0791420D02*
D03*
X0492261Y0815820D02*
D03*
Y0813221D02*
D03*
X0474317Y0817607D02*
D03*
Y0815009D02*
D03*
X0476217Y0815807D02*
D03*
Y0813209D02*
D03*
X0418361Y0827721D02*
D03*
Y0830320D02*
D03*
X0403661Y0817921D02*
D03*
Y0820520D02*
D03*
X0408061Y0787721D02*
D03*
Y0790320D02*
D03*
X0399961Y0781421D02*
D03*
Y0784020D02*
D03*
X0431961Y0793220D02*
D03*
Y0790621D02*
D03*
X0423661Y0788020D02*
D03*
Y0785421D02*
D03*
X0434061Y0786621D02*
D03*
Y0789220D02*
D03*
Y0817421D02*
D03*
Y0820020D02*
D03*
X0439961Y0822120D02*
D03*
Y0819521D02*
D03*
Y0809920D02*
D03*
Y0807321D02*
D03*
Y0799220D02*
D03*
Y0796621D02*
D03*
Y0784121D02*
D03*
Y0786720D02*
D03*
X0486261Y0810221D02*
D03*
Y0812820D02*
D03*
X0482461D02*
D03*
Y0810221D02*
D03*
X0482617Y0805509D02*
D03*
Y0808107D02*
D03*
X0485917Y0808307D02*
D03*
Y0805709D02*
D03*
X0505861Y0825820D02*
D03*
Y0823221D02*
D03*
X0558217Y0853609D02*
D03*
Y0856207D02*
D03*
X0568117Y0850606D02*
D03*
Y0848008D02*
D03*
X0550817Y0854809D02*
D03*
Y0857407D02*
D03*
X0548417D02*
D03*
Y0854809D02*
D03*
X0557917Y0844108D02*
D03*
Y0846707D02*
D03*
X0490227Y0823804D02*
D03*
Y0821205D02*
D03*
D52*
X0606299Y0740354D02*
D03*
Y0866339D02*
D03*
X0401575Y0740354D02*
D03*
Y0866339D02*
D03*
D53*
X0553017Y0823808D02*
D03*
X0556030Y0862323D02*
D03*
X0554130Y0858323D02*
D03*
X0561930Y0860323D02*
D03*
X0558030Y0858323D02*
D03*
X0565730Y0865423D02*
D03*
X0572830Y0847323D02*
D03*
X0572730Y0849623D02*
D03*
X0564930Y0853423D02*
D03*
X0562430Y0853923D02*
D03*
X0559630Y0846623D02*
D03*
X0554030Y0840623D02*
D03*
X0562030D02*
D03*
X0560017Y0835908D02*
D03*
X0556017Y0836208D02*
D03*
D84*
X0465245Y0872303D02*
D03*
Y0860177D02*
D03*
X0466819Y0872303D02*
D03*
Y0860177D02*
D03*
X0468394Y0872303D02*
D03*
Y0860177D02*
D03*
X0469969Y0872303D02*
D03*
Y0860177D02*
D03*
X0471544Y0872303D02*
D03*
Y0860177D02*
D03*
X0473119Y0872303D02*
D03*
Y0860177D02*
D03*
X0474693Y0872303D02*
D03*
Y0860177D02*
D03*
X0476268Y0872303D02*
D03*
Y0860177D02*
D03*
X0477843Y0872303D02*
D03*
Y0860177D02*
D03*
X0479418Y0872303D02*
D03*
Y0860177D02*
D03*
X0480993Y0872303D02*
D03*
Y0860177D02*
D03*
X0482568Y0872303D02*
D03*
Y0860177D02*
D03*
X0484142Y0872303D02*
D03*
Y0860177D02*
D03*
X0485717Y0872303D02*
D03*
Y0860177D02*
D03*
X0487292Y0872303D02*
D03*
Y0860177D02*
D03*
X0488867Y0872303D02*
D03*
Y0860177D02*
D03*
X0490442Y0872303D02*
D03*
Y0860177D02*
D03*
X0492016Y0872303D02*
D03*
Y0860177D02*
D03*
X0493591Y0872303D02*
D03*
Y0860177D02*
D03*
X0495166Y0872303D02*
D03*
Y0860177D02*
D03*
X0496741Y0872303D02*
D03*
Y0860177D02*
D03*
X0498316Y0872303D02*
D03*
Y0860177D02*
D03*
X0499890Y0872303D02*
D03*
Y0860177D02*
D03*
X0501465Y0872303D02*
D03*
Y0860177D02*
D03*
X0503040Y0872303D02*
D03*
Y0860177D02*
D03*
X0504615Y0872303D02*
D03*
Y0860177D02*
D03*
X0506190Y0872303D02*
D03*
Y0860177D02*
D03*
X0507764Y0872303D02*
D03*
Y0860177D02*
D03*
X0509339Y0872303D02*
D03*
Y0860177D02*
D03*
X0510914Y0872303D02*
D03*
Y0860177D02*
D03*
X0512489Y0872303D02*
D03*
Y0860177D02*
D03*
X0514064Y0872303D02*
D03*
Y0860177D02*
D03*
X0515638Y0872303D02*
D03*
Y0860177D02*
D03*
X0517213Y0872303D02*
D03*
Y0860177D02*
D03*
X0518788Y0872303D02*
D03*
Y0860177D02*
D03*
X0520363Y0872303D02*
D03*
Y0860177D02*
D03*
X0521938Y0872303D02*
D03*
Y0860177D02*
D03*
X0523512Y0872303D02*
D03*
Y0860177D02*
D03*
X0525087Y0872303D02*
D03*
Y0860177D02*
D03*
X0526662Y0872303D02*
D03*
Y0860177D02*
D03*
X0528237Y0872303D02*
D03*
Y0860177D02*
D03*
X0529812Y0872303D02*
D03*
Y0860177D02*
D03*
X0531387Y0872303D02*
D03*
Y0860177D02*
D03*
X0532961Y0872303D02*
D03*
Y0860177D02*
D03*
X0534536Y0872303D02*
D03*
Y0860177D02*
D03*
X0536111Y0872303D02*
D03*
Y0860177D02*
D03*
X0537686Y0872303D02*
D03*
Y0860177D02*
D03*
X0539260Y0872303D02*
D03*
Y0860177D02*
D03*
X0540835Y0872303D02*
D03*
Y0860177D02*
D03*
X0542410Y0872303D02*
D03*
Y0860177D02*
D03*
X0465245Y0746319D02*
D03*
Y0734193D02*
D03*
X0466819Y0746319D02*
D03*
Y0734193D02*
D03*
X0468394Y0746319D02*
D03*
Y0734193D02*
D03*
X0469969Y0746319D02*
D03*
Y0734193D02*
D03*
X0471544Y0746319D02*
D03*
Y0734193D02*
D03*
X0473119Y0746319D02*
D03*
Y0734193D02*
D03*
X0474693Y0746319D02*
D03*
Y0734193D02*
D03*
X0476268Y0746319D02*
D03*
Y0734193D02*
D03*
X0477843Y0746319D02*
D03*
Y0734193D02*
D03*
X0479418Y0746319D02*
D03*
Y0734193D02*
D03*
X0480993Y0746319D02*
D03*
Y0734193D02*
D03*
X0482568Y0746319D02*
D03*
Y0734193D02*
D03*
X0484142Y0746319D02*
D03*
Y0734193D02*
D03*
X0485717Y0746319D02*
D03*
Y0734193D02*
D03*
X0487292Y0746319D02*
D03*
Y0734193D02*
D03*
X0488867Y0746319D02*
D03*
Y0734193D02*
D03*
X0490442Y0746319D02*
D03*
Y0734193D02*
D03*
X0492016Y0746319D02*
D03*
Y0734193D02*
D03*
X0493591Y0746319D02*
D03*
Y0734193D02*
D03*
X0495166Y0746319D02*
D03*
Y0734193D02*
D03*
X0496741Y0746319D02*
D03*
Y0734193D02*
D03*
X0498316Y0746319D02*
D03*
Y0734193D02*
D03*
X0499890Y0746319D02*
D03*
Y0734193D02*
D03*
X0501465Y0746319D02*
D03*
Y0734193D02*
D03*
X0503040Y0746319D02*
D03*
Y0734193D02*
D03*
X0504615Y0746319D02*
D03*
Y0734193D02*
D03*
X0506190Y0746319D02*
D03*
Y0734193D02*
D03*
X0507764Y0746319D02*
D03*
Y0734193D02*
D03*
X0509339Y0746319D02*
D03*
Y0734193D02*
D03*
X0510914Y0746319D02*
D03*
Y0734193D02*
D03*
X0512489Y0746319D02*
D03*
Y0734193D02*
D03*
X0514064Y0746319D02*
D03*
Y0734193D02*
D03*
X0515638Y0746319D02*
D03*
Y0734193D02*
D03*
X0517213Y0746319D02*
D03*
Y0734193D02*
D03*
X0518788Y0746319D02*
D03*
Y0734193D02*
D03*
X0520363Y0746319D02*
D03*
Y0734193D02*
D03*
X0521938Y0746319D02*
D03*
Y0734193D02*
D03*
X0523512Y0746319D02*
D03*
Y0734193D02*
D03*
X0525087Y0746319D02*
D03*
Y0734193D02*
D03*
X0526662Y0746319D02*
D03*
Y0734193D02*
D03*
X0528237Y0746319D02*
D03*
Y0734193D02*
D03*
X0529812Y0746319D02*
D03*
Y0734193D02*
D03*
X0531387Y0746319D02*
D03*
Y0734193D02*
D03*
X0532961Y0746319D02*
D03*
Y0734193D02*
D03*
X0534536Y0746319D02*
D03*
Y0734193D02*
D03*
X0536111Y0746319D02*
D03*
Y0734193D02*
D03*
X0537686Y0746319D02*
D03*
Y0734193D02*
D03*
X0539260Y0746319D02*
D03*
Y0734193D02*
D03*
X0540835Y0746319D02*
D03*
Y0734193D02*
D03*
X0542410Y0746319D02*
D03*
Y0734193D02*
D03*
D85*
X0525339Y0781820D02*
D03*
X0522583D02*
D03*
X0525339Y0778120D02*
D03*
X0522583D02*
D03*
X0529839Y0768708D02*
D03*
X0532595D02*
D03*
X0529839Y0764608D02*
D03*
X0532595D02*
D03*
X0476183Y0766220D02*
D03*
X0478939D02*
D03*
X0476183Y0763120D02*
D03*
X0478939D02*
D03*
X0476183Y0759920D02*
D03*
X0478939D02*
D03*
X0476183Y0756720D02*
D03*
X0478939D02*
D03*
X0525305Y0785705D02*
D03*
X0522549D02*
D03*
X0558539Y0862208D02*
D03*
X0561295D02*
D03*
X0548005Y0756105D02*
D03*
X0545249D02*
D03*
X0495549Y0852805D02*
D03*
X0498305D02*
D03*
X0491005D02*
D03*
X0488249D02*
D03*
X0542105Y0798705D02*
D03*
X0539349D02*
D03*
D86*
X0401361Y0811098D02*
D03*
Y0808342D02*
D03*
X0453561Y0803342D02*
D03*
Y0806098D02*
D03*
X0563027Y0788627D02*
D03*
Y0791383D02*
D03*
X0564517Y0838030D02*
D03*
Y0840786D02*
D03*
X0509827Y0770183D02*
D03*
Y0767427D02*
D03*
X0485027Y0836727D02*
D03*
Y0839483D02*
D03*
X0481827Y0839483D02*
D03*
Y0836727D02*
D03*
X0478627Y0839483D02*
D03*
Y0836727D02*
D03*
X0516627Y0835627D02*
D03*
Y0838383D02*
D03*
X0511227Y0835627D02*
D03*
Y0838383D02*
D03*
X0500527Y0835627D02*
D03*
Y0838383D02*
D03*
D87*
X0417261Y0776049D02*
D03*
Y0779592D02*
D03*
X0426761Y0793692D02*
D03*
Y0790149D02*
D03*
X0422761Y0773249D02*
D03*
Y0776792D02*
D03*
X0426761Y0796649D02*
D03*
Y0800192D02*
D03*
Y0810892D02*
D03*
Y0807349D02*
D03*
X0615427Y0801733D02*
D03*
Y0805276D02*
D03*
X0611327Y0801733D02*
D03*
Y0805276D02*
D03*
X0559327Y0787933D02*
D03*
Y0791476D02*
D03*
X0600727Y0790676D02*
D03*
Y0787133D02*
D03*
X0604827Y0790676D02*
D03*
Y0787133D02*
D03*
X0560727Y0776333D02*
D03*
Y0779876D02*
D03*
X0530827Y0813033D02*
D03*
Y0816576D02*
D03*
D88*
X0596261Y0847120D02*
D03*
X0585561Y0868120D02*
D03*
X0552627Y0737005D02*
D03*
X0540127Y0759705D02*
D03*
X0521617Y0754108D02*
D03*
X0568227Y0822705D02*
D03*
X0569927Y0770105D02*
D03*
X0591527Y0754605D02*
D03*
X0615327Y0795605D02*
D03*
X0606527Y0811505D02*
D03*
X0574427Y0798305D02*
D03*
X0581327Y0802405D02*
D03*
X0568227Y0791305D02*
D03*
X0521327Y0815205D02*
D03*
X0516627Y0846205D02*
D03*
X0511327Y0846105D02*
D03*
X0500427Y0845705D02*
D03*
D89*
X0536820Y0810313D02*
D03*
Y0818896D02*
D03*
X0543434D02*
D03*
Y0810313D02*
D03*
D90*
X0545648Y0791805D02*
D03*
X0535805D02*
D03*
M02*
