G04*
G04 #@! TF.GenerationSoftware,Altium Limited,Altium Designer,22.8.2 (66)*
G04*
G04 Layer_Physical_Order=4*
G04 Layer_Color=6736896*
%FSAX25Y25*%
%MOIN*%
G70*
G04*
G04 #@! TF.SameCoordinates,F4A2C5FB-41C3-4025-BEE9-57CBDAA8531C*
G04*
G04*
G04 #@! TF.FilePolarity,Positive*
G04*
G01*
G75*
%ADD31C,0.01575*%
%ADD59C,0.01000*%
%ADD61C,0.01181*%
%ADD71C,0.01598*%
G36*
X0604787Y0880819D02*
X0607170Y0880345D01*
X0609471Y0879564D01*
X0611650Y0878489D01*
X0613671Y0877139D01*
X0615498Y0875537D01*
X0617100Y0873710D01*
X0618450Y0871690D01*
X0619524Y0869510D01*
X0620306Y0867210D01*
X0620780Y0864826D01*
X0620936Y0862444D01*
X0620927Y0862402D01*
X0620927Y0744291D01*
X0620936Y0744249D01*
X0620780Y0741867D01*
X0620306Y0739483D01*
X0619524Y0737183D01*
X0618450Y0735003D01*
X0617100Y0732983D01*
X0615498Y0731156D01*
X0613671Y0729554D01*
X0611650Y0728204D01*
X0609471Y0727129D01*
X0607170Y0726348D01*
X0604787Y0725874D01*
X0602853Y0725747D01*
X0602362Y0725726D01*
X0602362Y0725726D01*
X0601862Y0725726D01*
X0406009Y0725726D01*
X0405512Y0725726D01*
X0405021Y0725747D01*
X0403087Y0725874D01*
X0400704Y0726348D01*
X0398403Y0727129D01*
X0396224Y0728204D01*
X0394203Y0729554D01*
X0392376Y0731156D01*
X0390774Y0732983D01*
X0389424Y0735003D01*
X0388350Y0737182D01*
X0387568Y0739483D01*
X0387094Y0741867D01*
X0386968Y0743800D01*
X0386947Y0744291D01*
X0386947Y0744291D01*
X0386947Y0744791D01*
X0386947Y0861905D01*
X0386947Y0861909D01*
X0386947Y0862402D01*
X0386968Y0862893D01*
X0387094Y0864826D01*
X0387568Y0867210D01*
X0388350Y0869510D01*
X0389424Y0871690D01*
X0390774Y0873710D01*
X0392376Y0875537D01*
X0394203Y0877139D01*
X0396224Y0878489D01*
X0398403Y0879564D01*
X0400704Y0880345D01*
X0403087Y0880819D01*
X0405469Y0880975D01*
X0405512Y0880967D01*
X0602362Y0880967D01*
X0602405Y0880975D01*
X0604787Y0880819D01*
D02*
G37*
%LPC*%
G36*
X0525757Y0879104D02*
X0525041D01*
X0524403Y0878839D01*
X0523765Y0879104D01*
X0523049D01*
X0522388Y0878830D01*
X0521882Y0878324D01*
X0521608Y0877662D01*
Y0877349D01*
X0521399Y0877231D01*
X0520899Y0877524D01*
Y0877662D01*
X0520625Y0878324D01*
X0520119Y0878830D01*
X0519458Y0879104D01*
X0518742D01*
X0518104Y0878839D01*
X0517466Y0879104D01*
X0516750D01*
X0516088Y0878830D01*
X0515582Y0878324D01*
X0515309Y0877662D01*
Y0877083D01*
X0514874Y0876849D01*
X0514258Y0877104D01*
X0513542D01*
X0512881Y0876830D01*
X0512374Y0876324D01*
X0512101Y0875663D01*
Y0874947D01*
X0512374Y0874286D01*
X0512881Y0873779D01*
X0513542Y0873505D01*
X0514258D01*
X0514900Y0873771D01*
X0515542Y0873505D01*
X0516258D01*
X0516919Y0873779D01*
X0517425Y0874286D01*
X0517699Y0874947D01*
Y0875256D01*
X0517901Y0875369D01*
X0518401Y0875077D01*
Y0874947D01*
X0518675Y0874286D01*
X0519181Y0873779D01*
X0519842Y0873505D01*
X0520558D01*
X0521197Y0873770D01*
X0521836Y0873505D01*
X0522552D01*
X0523213Y0873779D01*
X0523719Y0874286D01*
X0523993Y0874947D01*
Y0875526D01*
X0524427Y0875760D01*
X0525041Y0875505D01*
X0525757D01*
X0526418Y0875779D01*
X0526924Y0876285D01*
X0527198Y0876947D01*
Y0877662D01*
X0526924Y0878324D01*
X0526418Y0878830D01*
X0525757Y0879104D01*
D02*
G37*
G36*
X0505285D02*
X0504569D01*
X0503931Y0878839D01*
X0503292Y0879104D01*
X0502577D01*
X0501915Y0878830D01*
X0501409Y0878324D01*
X0501135Y0877662D01*
Y0877083D01*
X0500701Y0876849D01*
X0500084Y0877104D01*
X0499369D01*
X0498707Y0876830D01*
X0498201Y0876324D01*
X0497927Y0875663D01*
Y0874947D01*
X0498201Y0874286D01*
X0498707Y0873779D01*
X0499369Y0873505D01*
X0500084D01*
X0500727Y0873771D01*
X0501369Y0873505D01*
X0502084D01*
X0502746Y0873779D01*
X0503252Y0874286D01*
X0503526Y0874947D01*
Y0875256D01*
X0503727Y0875369D01*
X0504227Y0875077D01*
Y0874947D01*
X0504501Y0874286D01*
X0505007Y0873779D01*
X0505669Y0873505D01*
X0506385D01*
X0507027Y0873771D01*
X0507669Y0873505D01*
X0508385D01*
X0509046Y0873779D01*
X0509552Y0874286D01*
X0509826Y0874947D01*
Y0875663D01*
X0509552Y0876324D01*
X0509046Y0876830D01*
X0508385Y0877104D01*
X0507669D01*
X0507205Y0876912D01*
X0506726Y0877190D01*
Y0877662D01*
X0506452Y0878324D01*
X0505946Y0878830D01*
X0505285Y0879104D01*
D02*
G37*
G36*
X0490884Y0877604D02*
X0490169D01*
X0489507Y0877330D01*
X0489077Y0876899D01*
X0488746Y0877230D01*
X0488085Y0877504D01*
X0487369D01*
X0486707Y0877230D01*
X0486201Y0876724D01*
X0485927Y0876062D01*
Y0875347D01*
X0486201Y0874685D01*
X0486707Y0874179D01*
X0487369Y0873905D01*
X0488085D01*
X0488746Y0874179D01*
X0489177Y0874610D01*
X0489507Y0874279D01*
X0490169Y0874005D01*
X0490884D01*
X0491546Y0874279D01*
X0492052Y0874786D01*
X0492326Y0875447D01*
Y0876163D01*
X0492052Y0876824D01*
X0491546Y0877330D01*
X0490884Y0877604D01*
D02*
G37*
G36*
X0402428Y0877181D02*
X0400722D01*
X0399036Y0876914D01*
X0397413Y0876387D01*
X0395892Y0875612D01*
X0394511Y0874609D01*
X0393305Y0873402D01*
X0392301Y0872021D01*
X0391527Y0870501D01*
X0390999Y0868878D01*
X0390732Y0867192D01*
Y0865485D01*
X0390999Y0863800D01*
X0391527Y0862177D01*
X0392301Y0860656D01*
X0393305Y0859275D01*
X0394511Y0858068D01*
X0395892Y0857065D01*
X0397413Y0856290D01*
X0399036Y0855763D01*
X0400722Y0855496D01*
X0402428D01*
X0404114Y0855763D01*
X0405737Y0856290D01*
X0407258Y0857065D01*
X0408638Y0858068D01*
X0409845Y0859275D01*
X0410848Y0860656D01*
X0411623Y0862177D01*
X0412150Y0863800D01*
X0412417Y0865485D01*
Y0867192D01*
X0412150Y0868878D01*
X0411623Y0870501D01*
X0410848Y0872021D01*
X0409845Y0873402D01*
X0408638Y0874609D01*
X0407258Y0875612D01*
X0405737Y0876387D01*
X0404114Y0876914D01*
X0402428Y0877181D01*
D02*
G37*
G36*
X0607153D02*
X0605446D01*
X0603760Y0876914D01*
X0602137Y0876387D01*
X0600617Y0875612D01*
X0599236Y0874609D01*
X0598029Y0873402D01*
X0597026Y0872021D01*
X0596251Y0870501D01*
X0595724Y0868878D01*
X0595457Y0867192D01*
Y0865485D01*
X0595724Y0863800D01*
X0596251Y0862177D01*
X0597026Y0860656D01*
X0598029Y0859275D01*
X0599236Y0858068D01*
X0600617Y0857065D01*
X0602137Y0856290D01*
X0603760Y0855763D01*
X0605268Y0855524D01*
X0605229Y0855024D01*
X0603861D01*
X0603471Y0854947D01*
X0603140Y0854726D01*
X0602919Y0854395D01*
X0602914Y0854381D01*
X0602694Y0854162D01*
X0602408Y0854043D01*
X0602098D01*
X0601811Y0854162D01*
X0601592Y0854381D01*
X0601586Y0854395D01*
X0601365Y0854726D01*
X0601034Y0854947D01*
X0600644Y0855024D01*
X0589533D01*
X0589510Y0855078D01*
X0589537Y0855609D01*
X0589665Y0855737D01*
X0589713Y0855769D01*
X0589745Y0855817D01*
X0589873Y0855945D01*
X0589942Y0856111D01*
X0589974Y0856159D01*
X0589985Y0856217D01*
X0590054Y0856383D01*
Y0856563D01*
X0590065Y0856620D01*
X0590054Y0856677D01*
Y0856858D01*
X0589985Y0857024D01*
X0589974Y0857081D01*
X0589942Y0857129D01*
X0589873Y0857296D01*
X0589745Y0857424D01*
X0589713Y0857472D01*
X0586786Y0860399D01*
X0586395Y0860660D01*
X0585934Y0860751D01*
X0585934Y0860751D01*
X0569205D01*
Y0869424D01*
X0569113Y0869885D01*
X0568852Y0870276D01*
X0568852Y0870276D01*
X0568520Y0870608D01*
X0568540Y0870708D01*
X0568401Y0871405D01*
X0568006Y0871996D01*
X0567415Y0872392D01*
X0566717Y0872530D01*
X0425417D01*
X0425417Y0872530D01*
X0424720Y0872392D01*
X0424128Y0871996D01*
X0424128Y0871996D01*
X0421838Y0869706D01*
X0421443Y0869115D01*
X0421304Y0868417D01*
X0421304Y0868417D01*
Y0851859D01*
X0419175Y0849730D01*
X0393830D01*
X0393830Y0849730D01*
X0393132Y0849592D01*
X0392541Y0849196D01*
X0390538Y0847193D01*
X0390143Y0846602D01*
X0390004Y0845905D01*
X0390004Y0845905D01*
Y0832105D01*
Y0761305D01*
X0390004Y0761305D01*
X0390143Y0760607D01*
X0390538Y0760016D01*
X0394338Y0756216D01*
X0394338Y0756216D01*
X0394929Y0755821D01*
X0395627Y0755682D01*
X0395627Y0755682D01*
X0423672D01*
X0424604Y0754750D01*
Y0736605D01*
X0424604Y0736605D01*
X0424743Y0735907D01*
X0425138Y0735316D01*
X0427438Y0733016D01*
X0427438Y0733016D01*
X0428029Y0732621D01*
X0428727Y0732482D01*
X0428727Y0732482D01*
X0466537D01*
X0466871Y0731982D01*
X0466727Y0731636D01*
Y0730921D01*
X0467001Y0730260D01*
X0467507Y0729753D01*
X0468169Y0729479D01*
X0468885D01*
X0469546Y0729753D01*
X0469775Y0729982D01*
X0470101Y0730223D01*
X0470428Y0729982D01*
X0470657Y0729753D01*
X0471318Y0729479D01*
X0471429D01*
Y0728921D01*
X0471703Y0728260D01*
X0472209Y0727753D01*
X0472870Y0727479D01*
X0473586D01*
X0474248Y0727753D01*
X0474754Y0728260D01*
X0475028Y0728921D01*
Y0729479D01*
X0475184D01*
X0475845Y0729753D01*
X0476351Y0730260D01*
X0476625Y0730921D01*
Y0731636D01*
X0476482Y0731982D01*
X0476816Y0732482D01*
X0483835D01*
X0484169Y0731982D01*
X0484026Y0731636D01*
Y0730921D01*
X0484300Y0730260D01*
X0484806Y0729753D01*
X0485467Y0729479D01*
X0485627D01*
Y0728947D01*
X0485901Y0728286D01*
X0486407Y0727779D01*
X0487069Y0727505D01*
X0487784D01*
X0488446Y0727779D01*
X0488675Y0728008D01*
X0489001Y0728249D01*
X0489328Y0728008D01*
X0489557Y0727779D01*
X0490218Y0727505D01*
X0490934D01*
X0491595Y0727779D01*
X0491824Y0728008D01*
X0492151Y0728249D01*
X0492478Y0728008D01*
X0492707Y0727779D01*
X0493368Y0727505D01*
X0494084D01*
X0494745Y0727779D01*
X0494974Y0728008D01*
X0495301Y0728249D01*
X0495627Y0728008D01*
X0495856Y0727779D01*
X0496518Y0727505D01*
X0497233D01*
X0497895Y0727779D01*
X0498124Y0728008D01*
X0498450Y0728249D01*
X0498777Y0728008D01*
X0499006Y0727779D01*
X0499667Y0727505D01*
X0500383D01*
X0501044Y0727779D01*
X0501273Y0728008D01*
X0501600Y0728249D01*
X0501927Y0728008D01*
X0502155Y0727779D01*
X0502817Y0727505D01*
X0503533D01*
X0504194Y0727779D01*
X0504423Y0728008D01*
X0504749Y0728249D01*
X0505076Y0728008D01*
X0505305Y0727779D01*
X0505966Y0727505D01*
X0506682D01*
X0507343Y0727779D01*
X0507572Y0728008D01*
X0507899Y0728249D01*
X0508226Y0728008D01*
X0508455Y0727779D01*
X0509116Y0727505D01*
X0509832D01*
X0510493Y0727779D01*
X0510999Y0728286D01*
X0511273Y0728947D01*
Y0729479D01*
X0511380D01*
X0512041Y0729753D01*
X0512104Y0729817D01*
X0512788Y0729793D01*
X0512998Y0729583D01*
X0513659Y0729309D01*
X0513839D01*
Y0729150D01*
X0514113Y0728489D01*
X0514619Y0727983D01*
X0515280Y0727709D01*
X0515996D01*
X0516658Y0727983D01*
X0516686Y0728011D01*
X0517182Y0728119D01*
X0517281Y0728053D01*
X0517451Y0727882D01*
X0517674Y0727790D01*
X0517773Y0727724D01*
X0517890Y0727701D01*
X0518113Y0727609D01*
X0518354D01*
X0518471Y0727585D01*
X0518587Y0727609D01*
X0518829D01*
X0519051Y0727701D01*
X0519168Y0727724D01*
X0519267Y0727790D01*
X0519490Y0727882D01*
X0519660Y0728053D01*
X0519759Y0728119D01*
X0519772Y0728138D01*
X0520243Y0728609D01*
X0520245Y0728609D01*
X0520831Y0728023D01*
X0521327Y0727692D01*
X0521912Y0727575D01*
X0585827D01*
X0586412Y0727692D01*
X0586908Y0728023D01*
X0590708Y0731823D01*
X0591040Y0732319D01*
X0591156Y0732905D01*
Y0746371D01*
X0599608Y0754823D01*
X0599940Y0755319D01*
X0599976Y0755501D01*
X0600056Y0755485D01*
X0615636D01*
X0616026Y0755563D01*
X0616357Y0755784D01*
X0616504Y0756004D01*
X0616772Y0756271D01*
X0617058Y0756390D01*
X0617368D01*
X0617736Y0756237D01*
X0618127Y0756160D01*
X0618517Y0756237D01*
X0618848Y0756458D01*
X0619069Y0756789D01*
X0619146Y0757179D01*
Y0776230D01*
X0619146Y0776230D01*
X0619069Y0776620D01*
X0618848Y0776951D01*
X0618517Y0777172D01*
X0618127Y0777250D01*
X0617736Y0777172D01*
X0617382Y0777025D01*
X0617071D01*
X0616785Y0777144D01*
X0616566Y0777363D01*
X0616447Y0777650D01*
Y0777960D01*
X0616566Y0778246D01*
X0616853Y0778534D01*
X0617074Y0778864D01*
X0617152Y0779255D01*
X0617074Y0779645D01*
X0616853Y0779976D01*
X0616566Y0780263D01*
X0616447Y0780550D01*
Y0780860D01*
X0616566Y0781146D01*
X0616785Y0781366D01*
X0617071Y0781484D01*
X0617382D01*
X0617736Y0781337D01*
X0618127Y0781260D01*
X0618517Y0781337D01*
X0618848Y0781558D01*
X0619069Y0781889D01*
X0619146Y0782279D01*
Y0824005D01*
Y0847905D01*
X0619069Y0848296D01*
X0618848Y0848626D01*
X0618517Y0848847D01*
X0618127Y0848925D01*
X0617846D01*
X0617559Y0849044D01*
X0617340Y0849263D01*
X0617221Y0849549D01*
Y0849860D01*
X0617340Y0850146D01*
X0617559Y0850366D01*
X0617846Y0850484D01*
X0618127D01*
X0618517Y0850562D01*
X0618848Y0850783D01*
X0619069Y0851114D01*
X0619146Y0851504D01*
Y0854005D01*
X0619069Y0854395D01*
X0618848Y0854726D01*
X0618517Y0854947D01*
X0618127Y0855024D01*
X0615304D01*
X0614914Y0854947D01*
X0614583Y0854726D01*
X0614362Y0854395D01*
X0614284Y0854005D01*
X0614362Y0853615D01*
X0614450Y0853403D01*
Y0853093D01*
X0614331Y0852806D01*
X0614112Y0852587D01*
X0613825Y0852468D01*
X0613515D01*
X0613228Y0852587D01*
X0613009Y0852806D01*
X0612890Y0853093D01*
Y0853403D01*
X0612978Y0853615D01*
X0613056Y0854005D01*
X0612978Y0854395D01*
X0612757Y0854726D01*
X0612426Y0854947D01*
X0612036Y0855024D01*
X0609564D01*
X0609173Y0854947D01*
X0608843Y0854726D01*
X0608622Y0854395D01*
X0608544Y0854005D01*
Y0853880D01*
X0608425Y0853594D01*
X0608206Y0853374D01*
X0607920Y0853256D01*
X0607609D01*
X0607323Y0853374D01*
X0607103Y0853594D01*
X0606985Y0853880D01*
Y0854005D01*
X0606907Y0854395D01*
X0606686Y0854726D01*
X0606355Y0854947D01*
X0606107Y0854996D01*
X0606156Y0855496D01*
X0607153D01*
X0608838Y0855763D01*
X0610461Y0856290D01*
X0611982Y0857065D01*
X0613363Y0858068D01*
X0614569Y0859275D01*
X0615573Y0860656D01*
X0616347Y0862177D01*
X0616875Y0863800D01*
X0617142Y0865485D01*
Y0867192D01*
X0616875Y0868878D01*
X0616347Y0870501D01*
X0615573Y0872021D01*
X0614569Y0873402D01*
X0613363Y0874609D01*
X0611982Y0875612D01*
X0610461Y0876387D01*
X0608838Y0876914D01*
X0607153Y0877181D01*
D02*
G37*
G36*
Y0751197D02*
X0605446D01*
X0603760Y0750930D01*
X0602137Y0750402D01*
X0600617Y0749628D01*
X0599236Y0748625D01*
X0598029Y0747418D01*
X0597026Y0746037D01*
X0596251Y0744516D01*
X0595724Y0742893D01*
X0595457Y0741208D01*
Y0739501D01*
X0595724Y0737815D01*
X0596251Y0736192D01*
X0597026Y0734672D01*
X0598029Y0733291D01*
X0599236Y0732084D01*
X0600617Y0731081D01*
X0602137Y0730306D01*
X0603760Y0729779D01*
X0605446Y0729512D01*
X0607153D01*
X0608838Y0729779D01*
X0610461Y0730306D01*
X0611982Y0731081D01*
X0613363Y0732084D01*
X0614569Y0733291D01*
X0615573Y0734672D01*
X0616347Y0736192D01*
X0616875Y0737815D01*
X0617142Y0739501D01*
Y0741208D01*
X0616875Y0742893D01*
X0616347Y0744516D01*
X0615573Y0746037D01*
X0614569Y0747418D01*
X0613363Y0748625D01*
X0611982Y0749628D01*
X0610461Y0750402D01*
X0608838Y0750930D01*
X0607153Y0751197D01*
D02*
G37*
G36*
X0402428D02*
X0400722D01*
X0399036Y0750930D01*
X0397413Y0750402D01*
X0395892Y0749628D01*
X0394511Y0748625D01*
X0393305Y0747418D01*
X0392301Y0746037D01*
X0391527Y0744516D01*
X0390999Y0742893D01*
X0390732Y0741208D01*
Y0739501D01*
X0390999Y0737815D01*
X0391527Y0736192D01*
X0392301Y0734672D01*
X0393305Y0733291D01*
X0394511Y0732084D01*
X0395892Y0731081D01*
X0397413Y0730306D01*
X0399036Y0729779D01*
X0400722Y0729512D01*
X0402428D01*
X0404114Y0729779D01*
X0405737Y0730306D01*
X0407258Y0731081D01*
X0408638Y0732084D01*
X0409845Y0733291D01*
X0410848Y0734672D01*
X0411623Y0736192D01*
X0412150Y0737815D01*
X0412417Y0739501D01*
Y0741208D01*
X0412150Y0742893D01*
X0411623Y0744516D01*
X0410848Y0746037D01*
X0409845Y0747418D01*
X0408638Y0748625D01*
X0407258Y0749628D01*
X0405737Y0750402D01*
X0404114Y0750930D01*
X0402428Y0751197D01*
D02*
G37*
%LPD*%
G36*
X0477972Y0868470D02*
X0477927Y0868363D01*
Y0867647D01*
X0478201Y0866986D01*
X0478707Y0866479D01*
X0479369Y0866205D01*
X0480085D01*
X0480746Y0866479D01*
X0480877Y0866610D01*
X0481007Y0866479D01*
X0481669Y0866205D01*
X0482384D01*
X0483046Y0866479D01*
X0483427Y0866860D01*
X0483707Y0866579D01*
X0484369Y0866305D01*
X0485084D01*
X0485746Y0866579D01*
X0485927Y0866760D01*
X0486107Y0866579D01*
X0486769Y0866305D01*
X0487485D01*
X0488146Y0866579D01*
X0488277Y0866710D01*
X0488407Y0866579D01*
X0489069Y0866305D01*
X0489784D01*
X0490446Y0866579D01*
X0490952Y0867085D01*
X0491085Y0867408D01*
X0491627D01*
X0491801Y0866986D01*
X0492307Y0866479D01*
X0492969Y0866205D01*
X0493684D01*
X0494346Y0866479D01*
X0494477Y0866610D01*
X0494607Y0866479D01*
X0495269Y0866205D01*
X0495985D01*
X0496646Y0866479D01*
X0497152Y0866986D01*
X0497232Y0867179D01*
X0497722Y0867276D01*
X0497824Y0867175D01*
X0497877Y0867153D01*
X0498029Y0866549D01*
X0497827Y0866063D01*
Y0865555D01*
X0497672Y0865422D01*
X0497361Y0865265D01*
X0496784Y0865504D01*
X0496069D01*
X0495407Y0865230D01*
X0494901Y0864724D01*
X0494627Y0864062D01*
Y0863347D01*
X0494901Y0862685D01*
X0495160Y0862427D01*
X0494953Y0861927D01*
X0464327D01*
X0464327Y0861927D01*
X0463629Y0861788D01*
X0463038Y0861393D01*
X0463038Y0861393D01*
X0459272Y0857627D01*
X0441727D01*
X0441727Y0857627D01*
X0441029Y0857488D01*
X0440438Y0857093D01*
X0440438Y0857093D01*
X0437738Y0854393D01*
X0437343Y0853802D01*
X0437204Y0853105D01*
X0437204Y0853105D01*
Y0847060D01*
X0436572Y0846427D01*
X0421733D01*
X0421526Y0846927D01*
X0424415Y0849816D01*
X0424415Y0849816D01*
X0424810Y0850407D01*
X0424949Y0851105D01*
X0424949Y0851105D01*
Y0867662D01*
X0426172Y0868885D01*
X0477694D01*
X0477972Y0868470D01*
D02*
G37*
G36*
X0566796Y0868820D02*
Y0860046D01*
X0561603Y0854852D01*
X0561467D01*
X0561374Y0854891D01*
X0561291Y0854947D01*
X0561192Y0854966D01*
X0561100Y0855005D01*
X0560999Y0855005D01*
X0560901Y0855024D01*
X0526568D01*
X0526468Y0855524D01*
X0526601Y0855579D01*
X0527107Y0856085D01*
X0527381Y0856747D01*
Y0857463D01*
X0527249Y0857782D01*
X0527583Y0858282D01*
X0549717D01*
X0550415Y0858421D01*
X0551006Y0858816D01*
X0551401Y0859407D01*
X0551540Y0860105D01*
X0551520Y0860204D01*
X0554663Y0863348D01*
X0555019Y0862999D01*
X0554837Y0862560D01*
Y0862086D01*
X0555019Y0861648D01*
X0555354Y0861312D01*
X0555793Y0861130D01*
X0556267D01*
X0556706Y0861312D01*
X0557042Y0861648D01*
X0557223Y0862086D01*
Y0862560D01*
X0557042Y0862999D01*
X0556706Y0863335D01*
X0556267Y0863516D01*
X0555793D01*
X0555354Y0863335D01*
X0555006Y0863690D01*
X0555619Y0864303D01*
X0560018D01*
X0560726Y0863596D01*
Y0860323D01*
X0560737Y0860266D01*
Y0860086D01*
X0560806Y0859919D01*
X0560818Y0859862D01*
X0560850Y0859814D01*
X0560919Y0859647D01*
X0561046Y0859520D01*
X0561079Y0859472D01*
X0561127Y0859439D01*
X0561255Y0859312D01*
X0561421Y0859243D01*
X0561469Y0859211D01*
X0561526Y0859199D01*
X0561693Y0859130D01*
X0561873D01*
X0561930Y0859119D01*
X0561987Y0859130D01*
X0562168D01*
X0562334Y0859199D01*
X0562391Y0859211D01*
X0562439Y0859243D01*
X0562606Y0859312D01*
X0562733Y0859439D01*
X0562782Y0859472D01*
X0562814Y0859520D01*
X0562942Y0859647D01*
X0563011Y0859814D01*
X0563043Y0859862D01*
X0563054Y0859919D01*
X0563123Y0860086D01*
Y0860266D01*
X0563134Y0860323D01*
Y0864095D01*
X0563134Y0864095D01*
X0563043Y0864556D01*
X0562782Y0864946D01*
X0562782Y0864946D01*
X0561369Y0866359D01*
X0560978Y0866620D01*
X0560517Y0866712D01*
X0560517Y0866712D01*
X0555120D01*
X0555120Y0866712D01*
X0554659Y0866620D01*
X0554269Y0866359D01*
X0554269Y0866359D01*
X0549817Y0861907D01*
X0549717Y0861927D01*
X0529537D01*
X0529414Y0862204D01*
X0529384Y0862427D01*
X0529842Y0862885D01*
X0530116Y0863547D01*
Y0864262D01*
X0529842Y0864924D01*
X0529336Y0865430D01*
X0528675Y0865704D01*
X0527959D01*
X0527321Y0865440D01*
X0526683Y0865704D01*
X0525967D01*
X0525306Y0865430D01*
X0524799Y0864924D01*
X0524525Y0864262D01*
Y0863547D01*
X0524799Y0862885D01*
X0525258Y0862427D01*
X0525228Y0862204D01*
X0525105Y0861927D01*
X0520601D01*
X0520394Y0862427D01*
X0520752Y0862786D01*
X0521026Y0863447D01*
Y0864054D01*
X0521255Y0864250D01*
X0521274Y0864261D01*
X0521488Y0864346D01*
X0522069Y0864105D01*
X0522785D01*
X0523446Y0864379D01*
X0523952Y0864886D01*
X0524226Y0865547D01*
Y0866263D01*
X0523952Y0866924D01*
X0523446Y0867430D01*
X0522785Y0867704D01*
X0522069D01*
X0521407Y0867430D01*
X0521277Y0867299D01*
X0521146Y0867430D01*
X0520484Y0867704D01*
X0519769D01*
X0519107Y0867430D01*
X0518601Y0866924D01*
X0518327Y0866263D01*
Y0865655D01*
X0518098Y0865460D01*
X0518079Y0865448D01*
X0517865Y0865363D01*
X0517284Y0865604D01*
X0516569D01*
X0515907Y0865330D01*
X0515401Y0864824D01*
X0515127Y0864163D01*
Y0863447D01*
X0515401Y0862786D01*
X0515760Y0862427D01*
X0515553Y0861927D01*
X0509501D01*
X0509294Y0862427D01*
X0509652Y0862786D01*
X0509926Y0863447D01*
Y0864105D01*
X0510346Y0864279D01*
X0510475Y0864408D01*
X0510604Y0864279D01*
X0511265Y0864005D01*
X0511981D01*
X0512642Y0864279D01*
X0513148Y0864785D01*
X0513422Y0865447D01*
Y0866162D01*
X0513148Y0866824D01*
X0512642Y0867330D01*
X0511981Y0867604D01*
X0511265D01*
X0510604Y0867330D01*
X0510475Y0867201D01*
X0510346Y0867330D01*
X0509685Y0867604D01*
X0508969D01*
X0508307Y0867330D01*
X0507801Y0866824D01*
X0507527Y0866162D01*
Y0865504D01*
X0507107Y0865330D01*
X0506977Y0865199D01*
X0506846Y0865330D01*
X0506184Y0865604D01*
X0505469D01*
X0504807Y0865330D01*
X0504301Y0864824D01*
X0504027Y0864163D01*
Y0863447D01*
X0504301Y0862786D01*
X0504660Y0862427D01*
X0504453Y0861927D01*
X0500201D01*
X0499994Y0862427D01*
X0500252Y0862685D01*
X0500526Y0863347D01*
Y0863854D01*
X0500682Y0863987D01*
X0500992Y0864144D01*
X0501569Y0863905D01*
X0502284D01*
X0502946Y0864179D01*
X0503452Y0864686D01*
X0503726Y0865347D01*
Y0866063D01*
X0503452Y0866724D01*
X0502946Y0867230D01*
X0502906Y0867246D01*
X0502764Y0867736D01*
X0503026Y0868369D01*
Y0868885D01*
X0566717D01*
X0566796Y0868820D01*
D02*
G37*
G36*
X0618127Y0851504D02*
X0617643D01*
X0616982Y0851230D01*
X0616475Y0850724D01*
X0616201Y0850062D01*
Y0849347D01*
X0616475Y0848685D01*
X0616982Y0848179D01*
X0617643Y0847905D01*
X0618127D01*
Y0823705D01*
Y0782279D01*
X0617585Y0782504D01*
X0616869D01*
X0616207Y0782230D01*
X0615701Y0781724D01*
X0615427Y0781063D01*
Y0780347D01*
X0615701Y0779685D01*
X0616132Y0779255D01*
X0615701Y0778824D01*
X0615427Y0778162D01*
Y0777447D01*
X0615701Y0776786D01*
X0616207Y0776279D01*
X0616869Y0776005D01*
X0617585D01*
X0618127Y0776230D01*
Y0757179D01*
X0617571Y0757409D01*
X0616855D01*
X0616194Y0757135D01*
X0615688Y0756629D01*
X0615636Y0756505D01*
X0600056D01*
Y0759395D01*
X0600326Y0760047D01*
Y0760763D01*
X0600052Y0761424D01*
X0599546Y0761930D01*
X0598884Y0762204D01*
X0598169D01*
X0597946Y0762112D01*
Y0763153D01*
X0597869Y0763543D01*
X0597648Y0763874D01*
X0597327Y0764088D01*
Y0765385D01*
X0598602D01*
X0598427Y0764962D01*
Y0764247D01*
X0598701Y0763586D01*
X0599207Y0763079D01*
X0599869Y0762805D01*
X0600585D01*
X0601246Y0763079D01*
X0601752Y0763586D01*
X0602026Y0764247D01*
Y0764962D01*
X0601851Y0765385D01*
X0605227D01*
X0605617Y0765463D01*
X0605948Y0765684D01*
X0606169Y0766014D01*
X0606246Y0766405D01*
Y0806605D01*
X0608527D01*
Y0820930D01*
X0608646Y0820979D01*
X0609152Y0821486D01*
X0609426Y0822147D01*
Y0822863D01*
X0609152Y0823524D01*
X0608971Y0823705D01*
X0608742Y0823934D01*
X0608671Y0824005D01*
X0608695D01*
X0608689Y0824012D01*
X0608651Y0824203D01*
X0608627Y0824264D01*
Y0839305D01*
X0563106D01*
X0562899Y0839805D01*
X0563041Y0839948D01*
X0563223Y0840386D01*
Y0840860D01*
X0563041Y0841299D01*
X0562706Y0841635D01*
X0562267Y0841816D01*
X0561793D01*
X0561354Y0841635D01*
X0561019Y0841299D01*
X0560837Y0840860D01*
Y0840386D01*
X0561019Y0839948D01*
X0561162Y0839805D01*
X0560955Y0839305D01*
X0555106D01*
X0554899Y0839805D01*
X0555042Y0839948D01*
X0555223Y0840386D01*
Y0840860D01*
X0555042Y0841299D01*
X0554706Y0841635D01*
X0554268Y0841816D01*
X0553793D01*
X0553355Y0841635D01*
X0553019Y0841299D01*
X0552837Y0840860D01*
Y0840386D01*
X0553019Y0839948D01*
X0553162Y0839805D01*
X0552955Y0839305D01*
X0496827D01*
Y0826516D01*
X0496327Y0826182D01*
X0496300Y0826193D01*
X0495826D01*
X0495387Y0826011D01*
X0495052Y0825676D01*
X0494870Y0825237D01*
Y0824763D01*
X0495052Y0824324D01*
X0495360Y0824016D01*
X0495052Y0823707D01*
X0494870Y0823269D01*
Y0822794D01*
X0495052Y0822356D01*
X0495360Y0822047D01*
X0495052Y0821739D01*
X0494870Y0821300D01*
Y0820826D01*
X0495052Y0820387D01*
X0495360Y0820079D01*
X0495052Y0819770D01*
X0494870Y0819332D01*
Y0818857D01*
X0495052Y0818419D01*
X0495286Y0818032D01*
X0494950Y0817696D01*
X0494768Y0817258D01*
Y0816783D01*
X0494950Y0816345D01*
X0495286Y0816009D01*
X0495722Y0815828D01*
X0495724Y0815821D01*
X0495732Y0815327D01*
X0495387Y0815184D01*
X0495052Y0814849D01*
X0494870Y0814410D01*
Y0813936D01*
X0495052Y0813498D01*
X0495387Y0813162D01*
X0495826Y0812980D01*
X0496300D01*
X0496327Y0812991D01*
X0496827Y0812657D01*
Y0799805D01*
X0498459D01*
Y0795220D01*
X0495967Y0792728D01*
X0495826D01*
X0495768Y0792705D01*
X0493327D01*
Y0802505D01*
X0488586D01*
X0488426Y0802571D01*
X0487952D01*
X0487792Y0802505D01*
X0485736D01*
X0485402Y0803005D01*
X0485445Y0803109D01*
Y0803584D01*
X0485263Y0804022D01*
X0484928Y0804358D01*
X0484489Y0804539D01*
X0484015D01*
X0483576Y0804358D01*
X0483241Y0804022D01*
X0483059Y0803584D01*
Y0803109D01*
X0483102Y0803005D01*
X0482768Y0802505D01*
X0480712D01*
X0480552Y0802571D01*
X0480078D01*
X0479918Y0802505D01*
X0478927D01*
Y0798492D01*
X0478584Y0798634D01*
X0478109D01*
X0477828Y0798518D01*
X0477414Y0798721D01*
X0477328Y0798810D01*
Y0813856D01*
X0477828Y0814081D01*
X0478109Y0813965D01*
X0478584D01*
X0479022Y0814146D01*
X0479331Y0814455D01*
X0479639Y0814146D01*
X0480078Y0813965D01*
X0480552D01*
X0480991Y0814146D01*
X0481326Y0814482D01*
X0481508Y0814920D01*
Y0814921D01*
X0482008Y0815128D01*
X0482700Y0814436D01*
X0482996Y0814238D01*
X0483345Y0814169D01*
X0487490D01*
X0487513Y0814146D01*
X0487952Y0813965D01*
X0488426D01*
X0488865Y0814146D01*
X0489173Y0814455D01*
X0489482Y0814146D01*
X0489920Y0813965D01*
X0490395D01*
X0490833Y0814146D01*
X0491169Y0814482D01*
X0491350Y0814920D01*
Y0815395D01*
X0491169Y0815833D01*
X0490833Y0816169D01*
X0490395Y0816350D01*
X0489920D01*
X0489482Y0816169D01*
X0489173Y0815860D01*
X0488865Y0816169D01*
X0488426Y0816350D01*
X0487952D01*
X0487513Y0816169D01*
X0487336Y0815992D01*
X0485527D01*
X0485375Y0816262D01*
X0485292Y0816492D01*
X0485454Y0816883D01*
Y0817358D01*
X0485273Y0817796D01*
X0484957Y0818112D01*
X0485263Y0818419D01*
X0485445Y0818857D01*
Y0819332D01*
X0485263Y0819770D01*
X0484955Y0820079D01*
X0485263Y0820387D01*
X0485445Y0820826D01*
Y0821300D01*
X0485263Y0821739D01*
X0484955Y0822047D01*
X0485263Y0822356D01*
X0485445Y0822794D01*
Y0823269D01*
X0485263Y0823707D01*
X0484955Y0824016D01*
X0485263Y0824324D01*
X0485445Y0824763D01*
Y0825237D01*
X0485263Y0825676D01*
X0484928Y0826011D01*
X0484489Y0826193D01*
X0484015D01*
X0483576Y0826011D01*
X0483241Y0825676D01*
X0483059Y0825237D01*
Y0824763D01*
X0483241Y0824324D01*
X0483549Y0824016D01*
X0483241Y0823707D01*
X0483059Y0823269D01*
Y0822794D01*
X0483241Y0822356D01*
X0483549Y0822047D01*
X0483241Y0821739D01*
X0483059Y0821300D01*
Y0820826D01*
X0483241Y0820387D01*
X0483549Y0820079D01*
X0483241Y0819770D01*
X0483059Y0819332D01*
Y0818857D01*
X0483241Y0818419D01*
X0483557Y0818103D01*
X0483250Y0817796D01*
X0483068Y0817358D01*
Y0817352D01*
X0482568Y0817145D01*
X0481861Y0817852D01*
X0481625Y0818010D01*
X0481544Y0818121D01*
X0481398Y0818593D01*
X0481508Y0818857D01*
Y0819332D01*
X0481326Y0819770D01*
X0481018Y0820079D01*
X0481326Y0820387D01*
X0481508Y0820826D01*
Y0821300D01*
X0481326Y0821739D01*
X0480991Y0822074D01*
X0480552Y0822256D01*
X0480078D01*
X0479639Y0822074D01*
X0479304Y0821739D01*
X0479122Y0821300D01*
Y0820826D01*
X0479304Y0820387D01*
X0479612Y0820079D01*
X0479304Y0819770D01*
X0479122Y0819332D01*
Y0818857D01*
X0479221Y0818619D01*
X0479181Y0818452D01*
X0479005Y0818146D01*
X0478941Y0818087D01*
X0478754Y0818050D01*
X0478459Y0817852D01*
X0477681Y0817074D01*
X0477484Y0816779D01*
X0477414Y0816430D01*
Y0815954D01*
X0477003D01*
X0476654Y0815885D01*
X0476359Y0815687D01*
X0475773Y0815102D01*
X0475575Y0814806D01*
X0475506Y0814457D01*
Y0806613D01*
X0475315Y0806482D01*
X0475006Y0806359D01*
X0474647Y0806508D01*
X0474172D01*
X0473734Y0806326D01*
X0473398Y0805991D01*
X0473216Y0805552D01*
Y0805078D01*
X0473398Y0804639D01*
X0473734Y0804304D01*
X0474172Y0804122D01*
X0474647D01*
X0475006Y0804271D01*
X0475315Y0804148D01*
X0475506Y0804017D01*
Y0798739D01*
X0475315Y0798608D01*
X0475006Y0798485D01*
X0474647Y0798634D01*
X0474172D01*
X0473734Y0798452D01*
X0473398Y0798117D01*
X0473216Y0797678D01*
Y0797204D01*
X0473398Y0796765D01*
X0473734Y0796430D01*
X0474172Y0796248D01*
X0474647D01*
X0475006Y0796397D01*
X0475315Y0796274D01*
X0475506Y0796143D01*
Y0792705D01*
X0472736D01*
X0472678Y0792728D01*
X0472204D01*
X0472147Y0792705D01*
X0471627D01*
Y0793173D01*
X0471665Y0793267D01*
Y0793741D01*
X0471627Y0793835D01*
Y0797110D01*
X0471665Y0797204D01*
Y0797678D01*
X0471627Y0797772D01*
Y0801047D01*
X0471665Y0801141D01*
Y0801615D01*
X0471627Y0801709D01*
Y0804984D01*
X0471665Y0805078D01*
Y0805552D01*
X0471627Y0805646D01*
Y0808921D01*
X0471665Y0809015D01*
Y0809489D01*
X0471627Y0809583D01*
Y0812858D01*
X0471665Y0812952D01*
Y0813426D01*
X0471627Y0813520D01*
Y0813662D01*
X0472127Y0813997D01*
X0472204Y0813965D01*
X0472678D01*
X0473117Y0814146D01*
X0473452Y0814482D01*
X0473634Y0814920D01*
Y0815395D01*
X0473452Y0815833D01*
X0473144Y0816142D01*
X0473452Y0816450D01*
X0473634Y0816889D01*
Y0817363D01*
X0473452Y0817802D01*
X0473134Y0818120D01*
X0473432Y0818419D01*
X0473614Y0818857D01*
Y0819332D01*
X0473432Y0819770D01*
X0473124Y0820079D01*
X0473432Y0820387D01*
X0473614Y0820826D01*
Y0821300D01*
X0473432Y0821739D01*
X0473124Y0822047D01*
X0473432Y0822356D01*
X0473614Y0822794D01*
Y0823269D01*
X0473432Y0823707D01*
X0473124Y0824016D01*
X0473432Y0824324D01*
X0473614Y0824763D01*
Y0825237D01*
X0473432Y0825676D01*
X0473096Y0826011D01*
X0472658Y0826193D01*
X0472183D01*
X0472127Y0826169D01*
X0471627Y0826503D01*
Y0850289D01*
X0472069Y0850105D01*
X0472785D01*
X0473446Y0850379D01*
X0473577Y0850510D01*
X0473707Y0850379D01*
X0474369Y0850105D01*
X0475084D01*
X0475746Y0850379D01*
X0475877Y0850510D01*
X0476007Y0850379D01*
X0476669Y0850105D01*
X0477385D01*
X0478046Y0850379D01*
X0478552Y0850885D01*
X0478826Y0851547D01*
Y0852262D01*
X0478552Y0852924D01*
X0478046Y0853430D01*
X0477865Y0853505D01*
X0477965Y0854005D01*
X0484227D01*
X0484459Y0853909D01*
X0485175D01*
X0485407Y0854005D01*
X0486527D01*
X0486759Y0853909D01*
X0487475D01*
X0487707Y0854005D01*
X0560901D01*
X0560813Y0853564D01*
X0560905Y0853103D01*
X0561166Y0852712D01*
X0561556Y0852451D01*
X0562017Y0852359D01*
X0562478Y0852451D01*
X0562869Y0852712D01*
X0563042Y0852886D01*
X0563106Y0852912D01*
X0563275Y0853081D01*
X0563823Y0852971D01*
X0563829Y0852965D01*
X0563919Y0852748D01*
X0564255Y0852412D01*
X0564693Y0852230D01*
X0565168D01*
X0565606Y0852412D01*
X0565941Y0852748D01*
X0566123Y0853186D01*
Y0853660D01*
X0565981Y0854005D01*
X0600644D01*
X0600727Y0853804D01*
X0601233Y0853297D01*
X0601895Y0853024D01*
X0602610D01*
X0603272Y0853297D01*
X0603778Y0853804D01*
X0603861Y0854005D01*
X0605965D01*
Y0853677D01*
X0606239Y0853016D01*
X0606745Y0852510D01*
X0607407Y0852236D01*
X0608122D01*
X0608784Y0852510D01*
X0609290Y0853016D01*
X0609564Y0853677D01*
Y0854005D01*
X0612036D01*
X0611871Y0853606D01*
Y0852890D01*
X0612145Y0852229D01*
X0612651Y0851723D01*
X0613312Y0851449D01*
X0614028D01*
X0614689Y0851723D01*
X0615195Y0852229D01*
X0615469Y0852890D01*
Y0853606D01*
X0615304Y0854005D01*
X0618127D01*
Y0851504D01*
D02*
G37*
G36*
X0453134Y0853482D02*
X0453007Y0853430D01*
X0452501Y0852924D01*
X0452227Y0852262D01*
Y0851547D01*
X0452501Y0850885D01*
X0453007Y0850379D01*
X0453669Y0850105D01*
X0454385D01*
X0455046Y0850379D01*
X0455177Y0850510D01*
X0455307Y0850379D01*
X0455969Y0850105D01*
X0456684D01*
X0457346Y0850379D01*
X0457477Y0850510D01*
X0457607Y0850379D01*
X0458269Y0850105D01*
X0458985D01*
X0459646Y0850379D01*
X0459777Y0850510D01*
X0459907Y0850379D01*
X0460569Y0850105D01*
X0461284D01*
X0461946Y0850379D01*
X0462077Y0850510D01*
X0462207Y0850379D01*
X0462869Y0850105D01*
X0463585D01*
X0464246Y0850379D01*
X0464377Y0850510D01*
X0464507Y0850379D01*
X0465169Y0850105D01*
X0465884D01*
X0466546Y0850379D01*
X0466677Y0850510D01*
X0466807Y0850379D01*
X0467469Y0850105D01*
X0468185D01*
X0468846Y0850379D01*
X0468977Y0850510D01*
X0469107Y0850379D01*
X0469769Y0850105D01*
X0470484D01*
X0470607Y0850024D01*
Y0839524D01*
X0457786D01*
X0457760Y0839563D01*
Y0840278D01*
X0457487Y0840940D01*
X0456980Y0841446D01*
X0456319Y0841720D01*
X0455603D01*
X0454942Y0841446D01*
X0454436Y0840940D01*
X0454162Y0840278D01*
Y0839563D01*
X0454258Y0839331D01*
X0454224Y0839283D01*
X0453855Y0838998D01*
X0453319Y0839220D01*
X0452603D01*
X0451942Y0838946D01*
X0451643Y0839226D01*
X0451559Y0839281D01*
X0451488Y0839352D01*
X0451395Y0839391D01*
X0451312Y0839447D01*
X0451213Y0839466D01*
X0451121Y0839505D01*
X0451020D01*
X0450922Y0839524D01*
X0396084D01*
Y0840684D01*
X0398182Y0842782D01*
X0437327D01*
X0437327Y0842782D01*
X0438024Y0842921D01*
X0438615Y0843316D01*
X0440315Y0845016D01*
X0440315Y0845016D01*
X0440710Y0845607D01*
X0440849Y0846305D01*
Y0852350D01*
X0442482Y0853982D01*
X0453034D01*
X0453134Y0853482D01*
D02*
G37*
G36*
X0562385Y0838584D02*
X0562715Y0838363D01*
X0563106Y0838285D01*
X0607607D01*
Y0829204D01*
X0607107Y0828870D01*
X0606784Y0829004D01*
X0606069D01*
X0605407Y0828730D01*
X0604901Y0828224D01*
X0604627Y0827563D01*
Y0826847D01*
X0604901Y0826186D01*
X0605407Y0825679D01*
X0606069Y0825405D01*
X0606784D01*
X0607107Y0825539D01*
X0607607Y0825205D01*
Y0824264D01*
X0607652Y0824040D01*
Y0824005D01*
X0607729Y0823615D01*
X0607950Y0823284D01*
X0608027Y0823207D01*
Y0822105D01*
Y0821802D01*
X0608016Y0821791D01*
X0607806Y0821651D01*
X0607585Y0821320D01*
X0607507Y0820930D01*
Y0807624D01*
X0606246D01*
X0605856Y0807547D01*
X0605736Y0807467D01*
X0605617Y0807547D01*
X0605227Y0807624D01*
X0577827D01*
Y0823905D01*
Y0824505D01*
X0577676D01*
X0577528Y0824726D01*
X0577197Y0824947D01*
X0576807Y0825024D01*
X0558027D01*
X0557636Y0824947D01*
X0557306Y0824726D01*
X0557158Y0824505D01*
X0554676D01*
X0554542Y0824827D01*
X0554036Y0825333D01*
X0553375Y0825607D01*
X0552659D01*
X0551998Y0825333D01*
X0551492Y0824827D01*
X0551358Y0824505D01*
X0533660D01*
X0533379Y0824925D01*
X0533557Y0825405D01*
X0533884D01*
X0534546Y0825679D01*
X0535052Y0826186D01*
X0535326Y0826847D01*
Y0827005D01*
X0535684D01*
X0536346Y0827279D01*
X0536852Y0827785D01*
X0537126Y0828447D01*
Y0828805D01*
X0537584D01*
X0538246Y0829079D01*
X0538752Y0829585D01*
X0539026Y0830247D01*
Y0830605D01*
X0539485D01*
X0540146Y0830879D01*
X0540652Y0831386D01*
X0540926Y0832047D01*
Y0832763D01*
X0540652Y0833424D01*
X0540146Y0833930D01*
X0539485Y0834204D01*
X0538769D01*
X0538107Y0833930D01*
X0537601Y0833424D01*
X0537327Y0832763D01*
Y0832404D01*
X0536869D01*
X0536207Y0832130D01*
X0535701Y0831624D01*
X0535427Y0830962D01*
Y0830604D01*
X0534969D01*
X0534307Y0830330D01*
X0533801Y0829824D01*
X0533527Y0829163D01*
Y0829004D01*
X0533169D01*
X0532507Y0828730D01*
X0532001Y0828224D01*
X0531727Y0827563D01*
Y0827404D01*
X0531269D01*
X0530607Y0827130D01*
X0530101Y0826624D01*
X0529827Y0825963D01*
Y0825247D01*
X0529928Y0825005D01*
X0529594Y0824505D01*
X0515827D01*
Y0782678D01*
X0515728Y0782579D01*
X0515454Y0781918D01*
Y0781202D01*
X0515728Y0780541D01*
X0515827Y0780442D01*
Y0779907D01*
X0515459D01*
X0514798Y0779633D01*
X0514292Y0779127D01*
X0514018Y0778466D01*
Y0777750D01*
X0514292Y0777089D01*
X0514798Y0776582D01*
X0515459Y0776309D01*
X0515827D01*
Y0767505D01*
X0481627D01*
Y0792705D01*
X0480610D01*
X0480552Y0792728D01*
X0480078D01*
X0480021Y0792705D01*
X0479327D01*
Y0796734D01*
X0479358Y0796765D01*
X0479539Y0797204D01*
Y0797678D01*
X0479533Y0797694D01*
X0479648Y0797771D01*
X0479869Y0798102D01*
X0479946Y0798492D01*
Y0801360D01*
X0480425Y0801542D01*
X0480712Y0801485D01*
X0482768D01*
X0482867Y0801505D01*
X0482967D01*
X0483060Y0801543D01*
X0483158Y0801563D01*
X0483242Y0801618D01*
X0483335Y0801657D01*
X0483406Y0801728D01*
X0483489Y0801784D01*
X0483545Y0801867D01*
X0483616Y0801938D01*
X0483727Y0802105D01*
X0484777D01*
X0484888Y0801938D01*
X0484959Y0801867D01*
X0485015Y0801784D01*
X0485098Y0801728D01*
X0485169Y0801657D01*
X0485262Y0801618D01*
X0485346Y0801563D01*
X0485444Y0801543D01*
X0485537Y0801505D01*
X0485637D01*
X0485736Y0801485D01*
X0487792D01*
X0488125Y0801551D01*
X0488253D01*
X0488586Y0801485D01*
X0492307D01*
Y0796105D01*
X0489027D01*
Y0793891D01*
X0488965Y0793741D01*
Y0793267D01*
X0488978Y0793235D01*
X0488755Y0792735D01*
X0488212D01*
X0488189Y0792740D01*
X0488132Y0792728D01*
X0487952D01*
X0487894Y0792705D01*
X0487027D01*
Y0792005D01*
X0487027Y0792005D01*
X0486996Y0791773D01*
Y0791663D01*
X0486985Y0791535D01*
X0486996Y0791478D01*
Y0791298D01*
X0487065Y0791131D01*
X0487076Y0791075D01*
X0487109Y0791026D01*
X0487178Y0790860D01*
X0487305Y0790732D01*
X0487337Y0790684D01*
X0487350Y0790196D01*
X0487168Y0789758D01*
Y0789283D01*
X0487350Y0788845D01*
X0487424Y0788771D01*
X0487535Y0788588D01*
X0487199Y0788252D01*
X0487018Y0787814D01*
Y0787339D01*
X0487199Y0786901D01*
X0487486Y0786614D01*
X0487178Y0786306D01*
X0486996Y0785867D01*
Y0785393D01*
X0487178Y0784954D01*
X0487486Y0784646D01*
X0487178Y0784337D01*
X0486996Y0783899D01*
Y0783424D01*
X0487178Y0782986D01*
X0487486Y0782677D01*
X0487178Y0782369D01*
X0486996Y0781930D01*
Y0781456D01*
X0487178Y0781017D01*
X0487513Y0780682D01*
X0487952Y0780500D01*
X0488426D01*
X0488865Y0780682D01*
X0489200Y0781017D01*
X0489382Y0781456D01*
Y0781930D01*
X0489200Y0782369D01*
X0488892Y0782677D01*
X0489200Y0782986D01*
X0489382Y0783424D01*
Y0783899D01*
X0489200Y0784337D01*
X0488892Y0784646D01*
X0489200Y0784954D01*
X0489382Y0785393D01*
Y0785867D01*
X0489200Y0786306D01*
X0488913Y0786592D01*
X0489222Y0786901D01*
X0489404Y0787339D01*
Y0787814D01*
X0489222Y0788252D01*
X0489148Y0788326D01*
X0489037Y0788509D01*
X0489373Y0788845D01*
X0489554Y0789283D01*
Y0789758D01*
X0489526Y0789827D01*
X0489860Y0790327D01*
X0490801D01*
X0491875Y0789253D01*
X0491706Y0788716D01*
X0491450Y0788610D01*
X0491115Y0788274D01*
X0490933Y0787836D01*
Y0787361D01*
X0491115Y0786923D01*
X0491423Y0786614D01*
X0491115Y0786306D01*
X0490933Y0785867D01*
Y0785393D01*
X0491115Y0784954D01*
X0491423Y0784646D01*
X0491115Y0784337D01*
X0490933Y0783899D01*
Y0783424D01*
X0491115Y0782986D01*
X0491423Y0782677D01*
X0491115Y0782369D01*
X0490933Y0781930D01*
Y0781456D01*
X0491115Y0781017D01*
X0491450Y0780682D01*
X0491889Y0780500D01*
X0492363D01*
X0492802Y0780682D01*
X0493137Y0781017D01*
X0493319Y0781456D01*
Y0781930D01*
X0493137Y0782369D01*
X0492829Y0782677D01*
X0493137Y0782986D01*
X0493319Y0783424D01*
Y0783899D01*
X0493137Y0784337D01*
X0492829Y0784646D01*
X0493137Y0784954D01*
X0493319Y0785393D01*
Y0785867D01*
X0493137Y0786306D01*
X0492829Y0786614D01*
X0493137Y0786923D01*
X0493243Y0787178D01*
X0493781Y0787347D01*
X0494381Y0786747D01*
X0494381Y0786747D01*
X0494772Y0786486D01*
X0495233Y0786394D01*
X0500000D01*
X0500000Y0786394D01*
X0500461Y0786486D01*
X0500851Y0786747D01*
X0502607Y0788503D01*
X0503244Y0788562D01*
X0503261Y0788556D01*
X0503700Y0788374D01*
X0504174D01*
X0504613Y0788556D01*
X0504921Y0788864D01*
X0505230Y0788556D01*
X0505668Y0788374D01*
X0506143D01*
X0506581Y0788556D01*
X0506917Y0788891D01*
X0507098Y0789330D01*
Y0789804D01*
X0507087Y0789831D01*
X0507346Y0790392D01*
X0507736Y0790653D01*
X0508659Y0791576D01*
X0508659Y0791576D01*
X0508920Y0791966D01*
X0509012Y0792427D01*
Y0794482D01*
X0508920Y0794943D01*
X0508659Y0795334D01*
X0508659Y0795334D01*
X0507736Y0796256D01*
X0507346Y0796517D01*
X0507326Y0796521D01*
X0507050Y0797086D01*
X0507098Y0797204D01*
Y0797678D01*
X0506917Y0798117D01*
X0506581Y0798452D01*
X0506143Y0798634D01*
X0505668D01*
X0505230Y0798452D01*
X0504921Y0798144D01*
X0504613Y0798452D01*
X0504174Y0798634D01*
X0503700D01*
X0503261Y0798452D01*
X0503188Y0798424D01*
X0502644Y0798452D01*
X0502478Y0798521D01*
X0502429Y0798554D01*
X0502372Y0798565D01*
X0502206Y0798634D01*
X0502026D01*
X0501968Y0798645D01*
X0501911Y0798634D01*
X0501731D01*
X0501565Y0798565D01*
X0501508Y0798554D01*
X0501459Y0798521D01*
X0501293Y0798452D01*
X0501165Y0798325D01*
X0501117Y0798292D01*
X0501085Y0798244D01*
X0500957Y0798117D01*
X0500888Y0797950D01*
X0500856Y0797902D01*
X0500845Y0797845D01*
X0500776Y0797678D01*
X0500281Y0797692D01*
Y0800642D01*
X0500316Y0801128D01*
X0500776Y0801141D01*
X0500957Y0800702D01*
X0501293Y0800367D01*
X0501731Y0800185D01*
X0502206D01*
X0502644Y0800367D01*
X0502953Y0800675D01*
X0503288Y0800340D01*
X0503726Y0800159D01*
X0504201D01*
X0504639Y0800340D01*
X0504948Y0800649D01*
X0505230Y0800367D01*
X0505668Y0800185D01*
X0506143D01*
X0506581Y0800367D01*
X0506855Y0800640D01*
X0507186Y0800309D01*
X0507624Y0800128D01*
X0508099D01*
X0508537Y0800309D01*
X0508873Y0800645D01*
X0509054Y0801083D01*
Y0801558D01*
X0508873Y0801996D01*
X0508537Y0802332D01*
X0508099Y0802513D01*
X0507624D01*
X0507186Y0802332D01*
X0506912Y0802058D01*
X0506581Y0802389D01*
X0506143Y0802571D01*
X0505668D01*
X0505230Y0802389D01*
X0504921Y0802081D01*
X0504639Y0802363D01*
X0504201Y0802545D01*
X0503726D01*
X0503288Y0802363D01*
X0502979Y0802054D01*
X0502644Y0802389D01*
X0502206Y0802571D01*
X0501731D01*
X0501293Y0802389D01*
X0500957Y0802054D01*
X0500776Y0801615D01*
X0500316Y0801628D01*
X0500281Y0802114D01*
Y0807751D01*
X0500212Y0808100D01*
X0500014Y0808396D01*
X0499224Y0809186D01*
Y0809489D01*
X0499043Y0809928D01*
X0498707Y0810263D01*
X0498269Y0810445D01*
X0497846D01*
Y0812657D01*
X0497827Y0812756D01*
Y0812856D01*
X0497788Y0812949D01*
X0497769Y0813047D01*
X0497713Y0813131D01*
X0497674Y0813224D01*
X0497603Y0813295D01*
X0497548Y0813378D01*
X0497464Y0813434D01*
X0497393Y0813505D01*
X0497146Y0813670D01*
X0497256Y0813936D01*
Y0814410D01*
X0497127Y0814723D01*
Y0816716D01*
X0497154Y0816783D01*
Y0817258D01*
X0497127Y0817324D01*
Y0818545D01*
X0497256Y0818857D01*
Y0819332D01*
X0497127Y0819644D01*
Y0820514D01*
X0497256Y0820826D01*
Y0821300D01*
X0497127Y0821612D01*
Y0822482D01*
X0497256Y0822794D01*
Y0823269D01*
X0497127Y0823581D01*
Y0824450D01*
X0497256Y0824763D01*
Y0825237D01*
X0497146Y0825503D01*
X0497393Y0825668D01*
X0497464Y0825739D01*
X0497548Y0825795D01*
X0497603Y0825879D01*
X0497674Y0825950D01*
X0497713Y0826042D01*
X0497769Y0826126D01*
X0497788Y0826224D01*
X0497827Y0826317D01*
Y0826418D01*
X0497846Y0826516D01*
Y0838285D01*
X0552955D01*
X0553345Y0838363D01*
X0553676Y0838584D01*
X0553757Y0838705D01*
X0554304D01*
X0554385Y0838584D01*
X0554715Y0838363D01*
X0555106Y0838285D01*
X0560955D01*
X0561345Y0838363D01*
X0561676Y0838584D01*
X0561757Y0838705D01*
X0562304D01*
X0562385Y0838584D01*
D02*
G37*
G36*
X0470607Y0826503D02*
X0470627Y0826405D01*
Y0826305D01*
X0470665Y0826212D01*
X0470685Y0826113D01*
X0470740Y0826030D01*
X0470779Y0825937D01*
X0470850Y0825866D01*
X0470906Y0825782D01*
X0470989Y0825727D01*
X0471060Y0825656D01*
X0471127Y0825611D01*
Y0814555D01*
X0471060Y0814510D01*
X0470989Y0814439D01*
X0470906Y0814383D01*
X0470850Y0814300D01*
X0470779Y0814229D01*
X0470740Y0814136D01*
X0470685Y0814053D01*
X0470665Y0813954D01*
X0470627Y0813861D01*
Y0813761D01*
X0470607Y0813662D01*
Y0813520D01*
X0470646Y0813325D01*
Y0813053D01*
X0470607Y0812858D01*
Y0809583D01*
X0470646Y0809388D01*
Y0809116D01*
X0470607Y0808921D01*
Y0805646D01*
X0470646Y0805451D01*
Y0805179D01*
X0470607Y0804984D01*
Y0801709D01*
X0470646Y0801514D01*
Y0801242D01*
X0470607Y0801047D01*
Y0797772D01*
X0470646Y0797577D01*
Y0797305D01*
X0470607Y0797110D01*
Y0793835D01*
X0470646Y0793640D01*
Y0793368D01*
X0470607Y0793173D01*
Y0792705D01*
X0470685Y0792314D01*
X0470906Y0791984D01*
X0471236Y0791763D01*
X0471627Y0791685D01*
X0472147D01*
X0472266Y0791709D01*
X0472616D01*
X0472736Y0791685D01*
X0473517D01*
Y0790885D01*
X0473360Y0790765D01*
X0473017Y0790619D01*
X0472678Y0790760D01*
X0472204D01*
X0471765Y0790578D01*
X0471430Y0790243D01*
X0471248Y0789804D01*
Y0789330D01*
X0471430Y0788891D01*
X0471739Y0788582D01*
X0471419Y0788261D01*
X0471238Y0787823D01*
Y0787348D01*
X0471419Y0786910D01*
X0471755Y0786574D01*
X0472193Y0786393D01*
X0472668D01*
X0473017Y0786538D01*
X0473343Y0786404D01*
X0473517Y0786278D01*
Y0773499D01*
X0473017Y0773165D01*
X0472675Y0773307D01*
X0471959D01*
X0471298Y0773033D01*
X0470792Y0772527D01*
X0470518Y0771866D01*
Y0771150D01*
X0470792Y0770489D01*
X0470973Y0770308D01*
X0470792Y0770127D01*
X0470518Y0769466D01*
Y0768750D01*
X0470792Y0768089D01*
X0471276Y0767605D01*
X0471298Y0767583D01*
X0471388Y0767545D01*
X0471652Y0766895D01*
X0471562Y0766678D01*
Y0765963D01*
X0471836Y0765301D01*
X0472051Y0765086D01*
X0472331Y0764782D01*
X0472051Y0764433D01*
X0471858Y0764240D01*
X0471584Y0763578D01*
Y0762862D01*
X0471684Y0762621D01*
X0471260Y0762338D01*
X0470980Y0762618D01*
X0470319Y0762892D01*
X0469603D01*
X0468942Y0762618D01*
X0468436Y0762112D01*
X0468162Y0761450D01*
Y0760735D01*
X0468436Y0760073D01*
X0468942Y0759567D01*
X0469603Y0759293D01*
X0470319D01*
X0470980Y0759567D01*
X0471487Y0760073D01*
X0471761Y0760735D01*
Y0761450D01*
X0471661Y0761692D01*
X0472084Y0761975D01*
X0472364Y0761695D01*
X0473025Y0761421D01*
X0473741D01*
X0474403Y0761695D01*
X0474909Y0762201D01*
X0475182Y0762862D01*
Y0763578D01*
X0474909Y0764240D01*
X0474693Y0764455D01*
X0474413Y0764759D01*
X0474693Y0765108D01*
X0474887Y0765301D01*
X0475161Y0765963D01*
Y0766405D01*
X0516727D01*
Y0767052D01*
X0516769Y0767114D01*
X0516846Y0767505D01*
Y0776309D01*
X0516795Y0776565D01*
X0516836Y0776582D01*
X0517343Y0777089D01*
X0517616Y0777750D01*
Y0778466D01*
X0517343Y0779127D01*
X0517208Y0779261D01*
X0517416Y0779761D01*
X0517611D01*
X0518272Y0780035D01*
X0518779Y0780541D01*
X0519053Y0781202D01*
Y0781918D01*
X0518779Y0782579D01*
X0518272Y0783085D01*
X0517611Y0783359D01*
X0516895D01*
X0516846Y0783339D01*
Y0823485D01*
X0529594D01*
X0529692Y0823505D01*
X0529792D01*
X0529885Y0823543D01*
X0529984Y0823563D01*
X0530067Y0823619D01*
X0530160Y0823657D01*
X0530231Y0823728D01*
X0530314Y0823784D01*
X0530370Y0823867D01*
X0530441Y0823938D01*
X0530486Y0824005D01*
X0530788D01*
X0531269Y0823805D01*
X0531985D01*
X0532465Y0824005D01*
X0532767D01*
X0532812Y0823938D01*
X0532883Y0823867D01*
X0532939Y0823784D01*
X0533022Y0823728D01*
X0533093Y0823657D01*
X0533186Y0823618D01*
X0533269Y0823563D01*
X0533368Y0823543D01*
X0533461Y0823505D01*
X0533561D01*
X0533660Y0823485D01*
X0551218D01*
Y0823450D01*
X0551492Y0822789D01*
X0551998Y0822283D01*
X0552659Y0822009D01*
X0553375D01*
X0554036Y0822283D01*
X0554542Y0822789D01*
X0554816Y0823450D01*
Y0823485D01*
X0557158D01*
X0557257Y0823505D01*
X0557357D01*
X0557450Y0823543D01*
X0557548Y0823563D01*
X0557632Y0823618D01*
X0557725Y0823657D01*
X0557795Y0823728D01*
X0557879Y0823784D01*
X0557935Y0823867D01*
X0558006Y0823938D01*
X0558027Y0823969D01*
Y0824005D01*
X0576807D01*
Y0807624D01*
X0571846D01*
Y0812305D01*
X0571769Y0812695D01*
X0571548Y0813026D01*
X0571217Y0813247D01*
X0570827Y0813324D01*
X0561944D01*
X0561817Y0813615D01*
X0561791Y0813824D01*
X0562252Y0814285D01*
X0562526Y0814947D01*
Y0815662D01*
X0562252Y0816324D01*
X0561746Y0816830D01*
X0561085Y0817104D01*
X0560525D01*
X0560228Y0817359D01*
X0560126Y0817544D01*
Y0818163D01*
X0559852Y0818824D01*
X0559346Y0819330D01*
X0559027Y0819462D01*
D01*
X0558684Y0819604D01*
X0557969D01*
X0557307Y0819330D01*
X0556801Y0818824D01*
X0556527Y0818163D01*
Y0817447D01*
X0556801Y0816786D01*
X0557307Y0816279D01*
X0557969Y0816005D01*
X0558528D01*
X0558825Y0815750D01*
X0558927Y0815565D01*
Y0814947D01*
X0559027Y0814707D01*
Y0813324D01*
X0558367D01*
X0558359Y0813323D01*
X0558152Y0813824D01*
X0557646Y0814330D01*
X0556985Y0814604D01*
X0556269D01*
X0555607Y0814330D01*
X0555101Y0813824D01*
X0554827Y0813163D01*
Y0812447D01*
X0555101Y0811786D01*
X0555607Y0811279D01*
X0556269Y0811005D01*
X0556527D01*
Y0797626D01*
X0554552D01*
X0554726Y0798047D01*
Y0798763D01*
X0554452Y0799424D01*
X0553946Y0799930D01*
X0553285Y0800204D01*
X0552936D01*
X0552960Y0800263D01*
Y0800978D01*
X0552687Y0801639D01*
X0552180Y0802146D01*
X0551519Y0802420D01*
X0550803D01*
X0550142Y0802146D01*
X0549636Y0801639D01*
X0549362Y0800978D01*
Y0800263D01*
X0549636Y0799601D01*
X0550142Y0799095D01*
X0550803Y0798821D01*
X0551152D01*
X0551127Y0798763D01*
Y0798047D01*
X0551301Y0797626D01*
X0532535D01*
X0532626Y0797847D01*
Y0798562D01*
X0532352Y0799224D01*
X0531846Y0799730D01*
X0531184Y0800004D01*
X0530469D01*
X0529807Y0799730D01*
X0529301Y0799224D01*
X0529027Y0798562D01*
Y0797847D01*
X0529093Y0797689D01*
X0528707Y0797530D01*
X0528201Y0797024D01*
X0527927Y0796362D01*
Y0795647D01*
X0528069Y0795306D01*
X0527793Y0795176D01*
X0527652Y0795072D01*
X0527506Y0794974D01*
X0527492Y0794954D01*
X0527472Y0794939D01*
X0527382Y0794789D01*
X0527285Y0794643D01*
X0527280Y0794619D01*
X0527267Y0794598D01*
X0527241Y0794425D01*
X0527207Y0794253D01*
X0527207Y0787405D01*
X0527285Y0787014D01*
X0527506Y0786684D01*
X0527836Y0786463D01*
X0528227Y0786385D01*
X0533953D01*
X0534201Y0785785D01*
X0534707Y0785279D01*
X0534757Y0785259D01*
X0534707Y0785005D01*
Y0778522D01*
X0534207Y0778229D01*
X0533784Y0778404D01*
X0533069D01*
X0532407Y0778130D01*
X0531901Y0777624D01*
X0531627Y0776963D01*
Y0776247D01*
X0531901Y0775586D01*
X0532407Y0775079D01*
X0533069Y0774805D01*
X0533784D01*
X0533852Y0774834D01*
X0533944Y0774809D01*
X0534301Y0774478D01*
X0534271Y0774363D01*
X0533707Y0774130D01*
X0533201Y0773624D01*
X0532927Y0772963D01*
Y0772247D01*
X0533201Y0771586D01*
X0533707Y0771079D01*
X0534223Y0770866D01*
Y0770343D01*
X0533707Y0770130D01*
X0533201Y0769624D01*
X0532927Y0768962D01*
Y0768247D01*
X0533201Y0767586D01*
X0533707Y0767079D01*
X0534250Y0766854D01*
X0534312Y0766419D01*
X0534300Y0766334D01*
X0533807Y0766130D01*
X0533301Y0765624D01*
X0533027Y0764962D01*
Y0764247D01*
X0533301Y0763586D01*
X0533807Y0763079D01*
X0534469Y0762805D01*
X0534707D01*
Y0755105D01*
X0520049D01*
X0519715Y0755605D01*
X0519816Y0755850D01*
Y0756566D01*
X0519543Y0757227D01*
X0519036Y0757733D01*
X0518375Y0758007D01*
X0517659D01*
X0516998Y0757733D01*
X0516880Y0757615D01*
X0516761Y0757733D01*
X0516100Y0758007D01*
X0515384D01*
X0514723Y0757733D01*
X0514605Y0757615D01*
X0514486Y0757733D01*
X0513825Y0758007D01*
X0513109D01*
X0512448Y0757733D01*
X0512330Y0757615D01*
X0512211Y0757733D01*
X0511550Y0758007D01*
X0510834D01*
X0510173Y0757733D01*
X0510055Y0757615D01*
X0509936Y0757733D01*
X0509275Y0758007D01*
X0508559D01*
X0507898Y0757733D01*
X0507392Y0757227D01*
X0507118Y0756566D01*
Y0755850D01*
X0507220Y0755605D01*
X0506885Y0755105D01*
X0470767D01*
X0470552Y0755624D01*
X0470046Y0756130D01*
X0469384Y0756404D01*
X0468669D01*
X0468007Y0756130D01*
X0467501Y0755624D01*
X0467286Y0755105D01*
X0428537D01*
X0428249Y0755505D01*
X0428110Y0756202D01*
X0427715Y0756793D01*
X0427715Y0756793D01*
X0425715Y0758793D01*
X0425124Y0759188D01*
X0424427Y0759327D01*
X0424427Y0759327D01*
X0396381D01*
X0393649Y0762059D01*
Y0767605D01*
Y0827427D01*
X0393903Y0827321D01*
X0394619D01*
X0395280Y0827595D01*
X0395787Y0828101D01*
X0396060Y0828763D01*
Y0829204D01*
X0396084Y0829320D01*
Y0838505D01*
X0450922D01*
X0451256Y0838005D01*
X0451162Y0837778D01*
Y0837062D01*
X0451436Y0836401D01*
X0451640Y0836197D01*
X0451921Y0835870D01*
X0451640Y0835544D01*
X0451436Y0835340D01*
X0451162Y0834678D01*
Y0833963D01*
X0451407Y0833372D01*
X0451294Y0833079D01*
X0451160Y0832870D01*
X0450882Y0832867D01*
X0450687Y0833340D01*
X0450180Y0833846D01*
X0449519Y0834120D01*
X0448803D01*
X0448142Y0833846D01*
X0447861Y0833565D01*
X0447480Y0833946D01*
X0446819Y0834220D01*
X0446103D01*
X0445442Y0833946D01*
X0444936Y0833440D01*
X0444662Y0832778D01*
Y0832063D01*
X0444936Y0831401D01*
X0445442Y0830895D01*
X0446103Y0830621D01*
X0446819D01*
X0447480Y0830895D01*
X0447761Y0831176D01*
X0448142Y0830795D01*
X0448803Y0830521D01*
X0449519D01*
X0449990Y0830716D01*
X0450489Y0830817D01*
X0450753Y0830553D01*
X0450814Y0830348D01*
X0450782Y0829958D01*
X0450560Y0829735D01*
X0450379Y0829297D01*
Y0828823D01*
X0450537Y0828440D01*
X0450444Y0828201D01*
X0450424Y0828193D01*
X0449887Y0828240D01*
X0449380Y0828746D01*
X0448719Y0829020D01*
X0448003D01*
X0447342Y0828746D01*
X0446961Y0828365D01*
X0446780Y0828546D01*
X0446119Y0828820D01*
X0445403D01*
X0444742Y0828546D01*
X0444236Y0828039D01*
X0443962Y0827378D01*
Y0826663D01*
X0444236Y0826001D01*
X0444742Y0825495D01*
X0445403Y0825221D01*
X0446119D01*
X0446780Y0825495D01*
X0447161Y0825876D01*
X0447342Y0825695D01*
X0448003Y0825421D01*
X0448719D01*
X0449380Y0825695D01*
X0449887Y0826201D01*
X0450420Y0826182D01*
X0450536Y0825901D01*
X0451042Y0825395D01*
X0451703Y0825121D01*
X0452419D01*
X0453080Y0825395D01*
X0453587Y0825901D01*
X0453861Y0826562D01*
Y0827278D01*
X0453587Y0827940D01*
X0453080Y0828446D01*
X0452677Y0828613D01*
X0452764Y0828823D01*
Y0829297D01*
X0452583Y0829735D01*
X0452319Y0830000D01*
X0452258Y0830205D01*
X0452289Y0830595D01*
X0452512Y0830817D01*
X0452693Y0831256D01*
Y0831730D01*
X0452566Y0832036D01*
X0452758Y0832414D01*
X0452866Y0832521D01*
X0453319D01*
X0453980Y0832795D01*
X0454487Y0833301D01*
X0454761Y0833963D01*
X0455261Y0834268D01*
X0455629Y0834115D01*
X0456345D01*
X0457006Y0834389D01*
X0457512Y0834895D01*
X0457786Y0835557D01*
Y0836272D01*
X0457512Y0836934D01*
X0457006Y0837440D01*
X0456476Y0837659D01*
X0456451Y0838176D01*
X0456980Y0838395D01*
X0457090Y0838505D01*
X0470607D01*
Y0826503D01*
D02*
G37*
G36*
X0580360Y0796208D02*
X0580420Y0796087D01*
X0580469Y0796044D01*
X0580506Y0795989D01*
X0580618Y0795914D01*
X0580720Y0795825D01*
X0580827Y0795764D01*
Y0795421D01*
X0580720Y0795162D01*
Y0794447D01*
X0580827Y0794188D01*
Y0793845D01*
X0580720Y0793784D01*
X0580618Y0793695D01*
X0580506Y0793620D01*
X0580469Y0793566D01*
X0580420Y0793523D01*
X0580360Y0793402D01*
X0580285Y0793289D01*
X0580272Y0793225D01*
X0580243Y0793166D01*
X0580233Y0793032D01*
X0580207Y0792899D01*
Y0788124D01*
X0579594D01*
X0579349Y0788076D01*
X0579320Y0788147D01*
X0578814Y0788654D01*
X0578152Y0788928D01*
X0577436D01*
X0576775Y0788654D01*
X0576269Y0788147D01*
X0576239Y0788076D01*
X0575995Y0788124D01*
X0572895D01*
X0572796Y0788105D01*
X0572696D01*
X0572603Y0788066D01*
X0572505Y0788047D01*
X0572421Y0787991D01*
X0572329Y0787952D01*
X0572286Y0787924D01*
X0571998Y0787866D01*
X0566198D01*
X0566098Y0788367D01*
X0566527Y0788544D01*
X0567033Y0789050D01*
X0567307Y0789711D01*
Y0790427D01*
X0567033Y0791088D01*
X0566527Y0791595D01*
X0565865Y0791868D01*
X0565150D01*
X0564488Y0791595D01*
X0563982Y0791088D01*
X0563708Y0790427D01*
Y0789711D01*
X0563982Y0789050D01*
X0564488Y0788544D01*
X0564955Y0788351D01*
X0564958Y0788306D01*
X0564890Y0787884D01*
X0564875Y0787843D01*
X0564792Y0787809D01*
X0564693Y0787789D01*
X0564610Y0787733D01*
X0564517Y0787695D01*
X0564446Y0787624D01*
X0564363Y0787568D01*
X0564307Y0787484D01*
X0564236Y0787413D01*
X0564230Y0787405D01*
X0563865D01*
X0563384Y0787604D01*
X0562669D01*
X0562188Y0787405D01*
X0561823D01*
X0561817Y0787413D01*
X0561746Y0787484D01*
X0561691Y0787568D01*
X0561607Y0787624D01*
X0561536Y0787695D01*
X0561443Y0787733D01*
X0561360Y0787789D01*
X0561261Y0787809D01*
X0561169Y0787847D01*
X0561068D01*
X0560970Y0787866D01*
X0554485D01*
X0554445Y0787859D01*
X0554252Y0788324D01*
X0553746Y0788830D01*
X0553085Y0789104D01*
X0552369D01*
X0551707Y0788830D01*
X0551201Y0788324D01*
X0551104Y0788089D01*
X0550927Y0788124D01*
X0547326D01*
X0546936Y0788047D01*
X0546872Y0788004D01*
X0546546Y0788330D01*
X0545885Y0788604D01*
X0545169D01*
X0544507Y0788330D01*
X0544181Y0788004D01*
X0544118Y0788047D01*
X0543727Y0788124D01*
X0537526D01*
X0537136Y0788047D01*
X0537072Y0788004D01*
X0536746Y0788330D01*
X0536085Y0788604D01*
X0535369D01*
X0534707Y0788330D01*
X0534201Y0787824D01*
X0534028Y0787405D01*
X0528227D01*
X0528227Y0794253D01*
X0528707Y0794479D01*
X0529369Y0794205D01*
X0530085D01*
X0530513Y0794383D01*
X0559614D01*
X0560018Y0794463D01*
Y0794050D01*
X0560292Y0793389D01*
X0560798Y0792882D01*
X0561459Y0792609D01*
X0562175D01*
X0562836Y0792882D01*
X0563343Y0793389D01*
X0563616Y0794050D01*
Y0794705D01*
X0567978D01*
X0568192Y0794189D01*
X0568698Y0793682D01*
X0569359Y0793409D01*
X0570075D01*
X0570736Y0793682D01*
X0571243Y0794189D01*
X0571456Y0794705D01*
X0573320D01*
X0573904Y0794121D01*
X0574001Y0793886D01*
X0574507Y0793379D01*
X0575169Y0793105D01*
X0575884D01*
X0576546Y0793379D01*
X0577052Y0793886D01*
X0577326Y0794547D01*
Y0795262D01*
X0577109Y0795785D01*
X0577344Y0796285D01*
X0580308D01*
X0580360Y0796208D01*
D02*
G37*
G36*
X0570827Y0806605D02*
X0605227D01*
Y0766405D01*
X0579827D01*
Y0752705D01*
X0553427D01*
Y0752556D01*
X0552927Y0752349D01*
X0552646Y0752630D01*
X0551985Y0752904D01*
X0551269D01*
X0550607Y0752630D01*
X0550101Y0752124D01*
X0549827Y0751463D01*
Y0750747D01*
X0550101Y0750085D01*
X0550607Y0749579D01*
X0551269Y0749305D01*
X0551985D01*
X0552646Y0749579D01*
X0552927Y0749860D01*
X0553427Y0749653D01*
Y0746356D01*
X0552927Y0746149D01*
X0552646Y0746430D01*
X0551985Y0746704D01*
X0551269D01*
X0550607Y0746430D01*
X0550101Y0745924D01*
X0549827Y0745262D01*
Y0744547D01*
X0550101Y0743886D01*
X0550607Y0743379D01*
X0551269Y0743105D01*
X0551985D01*
X0552646Y0743379D01*
X0552927Y0743660D01*
X0553427Y0743453D01*
Y0740005D01*
X0552326D01*
Y0740662D01*
X0552052Y0741324D01*
X0551546Y0741830D01*
X0550884Y0742104D01*
X0550169D01*
X0549507Y0741830D01*
X0549001Y0741324D01*
X0548727Y0740662D01*
Y0740005D01*
X0535727D01*
Y0763030D01*
X0535846Y0763079D01*
X0536352Y0763586D01*
X0536626Y0764247D01*
Y0764962D01*
X0536352Y0765624D01*
X0535846Y0766130D01*
X0535727Y0766179D01*
Y0767071D01*
X0535746Y0767079D01*
X0536252Y0767586D01*
X0536526Y0768247D01*
Y0768962D01*
X0536252Y0769624D01*
X0535746Y0770130D01*
X0535727Y0770138D01*
Y0771071D01*
X0535746Y0771079D01*
X0536252Y0771586D01*
X0536526Y0772247D01*
Y0772963D01*
X0536252Y0773624D01*
X0535746Y0774130D01*
X0535727Y0774138D01*
Y0785005D01*
X0536085D01*
X0536746Y0785279D01*
X0537252Y0785785D01*
X0537526Y0786447D01*
Y0787105D01*
X0543727D01*
Y0786447D01*
X0544001Y0785785D01*
X0544507Y0785279D01*
X0545169Y0785005D01*
X0545885D01*
X0546546Y0785279D01*
X0547052Y0785785D01*
X0547326Y0786447D01*
Y0787105D01*
X0550927D01*
Y0786947D01*
X0551201Y0786285D01*
X0551707Y0785779D01*
X0552369Y0785505D01*
X0553085D01*
X0553746Y0785779D01*
X0554252Y0786285D01*
X0554485Y0786847D01*
X0560970D01*
X0561304Y0786347D01*
X0561227Y0786163D01*
Y0785447D01*
X0561501Y0784786D01*
X0562007Y0784279D01*
X0562669Y0784005D01*
X0563384D01*
X0564046Y0784279D01*
X0564552Y0784786D01*
X0564826Y0785447D01*
Y0786163D01*
X0564749Y0786347D01*
X0565084Y0786847D01*
X0572098D01*
X0572683Y0786963D01*
X0572895Y0787105D01*
X0575995D01*
Y0786770D01*
X0576269Y0786109D01*
X0576775Y0785603D01*
X0577192Y0785430D01*
Y0784889D01*
X0576775Y0784717D01*
X0576269Y0784210D01*
X0575995Y0783549D01*
Y0782833D01*
X0576269Y0782172D01*
X0576775Y0781666D01*
X0577192Y0781493D01*
Y0780952D01*
X0576775Y0780780D01*
X0576269Y0780273D01*
X0575995Y0779612D01*
Y0778896D01*
X0576269Y0778235D01*
X0576498Y0778006D01*
X0576739Y0777679D01*
X0576498Y0777353D01*
X0576269Y0777124D01*
X0575995Y0776463D01*
Y0775747D01*
X0576269Y0775085D01*
X0576775Y0774579D01*
X0577436Y0774305D01*
X0578152D01*
X0578814Y0774579D01*
X0579320Y0775085D01*
X0579594Y0775747D01*
Y0776463D01*
X0579320Y0777124D01*
X0579091Y0777353D01*
X0578850Y0777679D01*
X0579091Y0778006D01*
X0579320Y0778235D01*
X0579594Y0778896D01*
Y0779612D01*
X0579320Y0780273D01*
X0578814Y0780780D01*
X0578397Y0780952D01*
Y0781493D01*
X0578814Y0781666D01*
X0579320Y0782172D01*
X0579594Y0782833D01*
Y0783549D01*
X0579320Y0784210D01*
X0578814Y0784717D01*
X0578397Y0784889D01*
Y0785430D01*
X0578814Y0785603D01*
X0579320Y0786109D01*
X0579594Y0786770D01*
Y0787105D01*
X0581127D01*
X0581227Y0787205D01*
Y0792899D01*
X0581727Y0793185D01*
X0582161Y0793005D01*
X0582877D01*
X0583538Y0793279D01*
X0584044Y0793785D01*
X0584318Y0794447D01*
Y0795162D01*
X0584044Y0795824D01*
X0583538Y0796330D01*
X0582877Y0796604D01*
X0582161D01*
X0581727Y0796424D01*
X0581227Y0796710D01*
Y0797305D01*
X0575307D01*
X0574057Y0798555D01*
X0573531Y0798906D01*
X0572910Y0799029D01*
X0561017D01*
X0560397Y0798906D01*
X0559870Y0798555D01*
X0558942Y0797626D01*
X0558027D01*
Y0811660D01*
X0558152Y0811786D01*
X0558367Y0812305D01*
X0570827D01*
Y0806605D01*
D02*
G37*
G36*
X0478385Y0792314D02*
X0478606Y0791984D01*
X0478936Y0791763D01*
X0479327Y0791685D01*
X0480021D01*
X0480140Y0791709D01*
X0480490D01*
X0480607Y0791685D01*
Y0790668D01*
X0480499Y0790713D01*
X0480024D01*
X0479586Y0790532D01*
X0479250Y0790196D01*
X0479068Y0789758D01*
Y0789283D01*
X0479250Y0788845D01*
X0479586Y0788509D01*
X0480024Y0788328D01*
X0480499D01*
X0480607Y0788372D01*
Y0767505D01*
X0474721D01*
X0474380Y0767846D01*
X0474290Y0767883D01*
X0474027Y0768533D01*
X0474116Y0768750D01*
Y0769466D01*
X0473842Y0770127D01*
X0473662Y0770308D01*
X0473842Y0770489D01*
X0474116Y0771150D01*
Y0771866D01*
X0473854Y0772498D01*
X0474084Y0772652D01*
X0474155Y0772723D01*
X0474238Y0772778D01*
X0474294Y0772862D01*
X0474365Y0772933D01*
X0474403Y0773026D01*
X0474459Y0773109D01*
X0474479Y0773208D01*
X0474517Y0773300D01*
Y0773401D01*
X0474537Y0773499D01*
Y0786278D01*
X0474521Y0786359D01*
X0474523Y0786442D01*
X0474482Y0786553D01*
X0474459Y0786668D01*
X0474413Y0786737D01*
X0474384Y0786815D01*
X0474304Y0786901D01*
X0474238Y0786999D01*
X0474169Y0787045D01*
X0474113Y0787106D01*
X0473939Y0787231D01*
X0473830Y0787281D01*
X0473731Y0787347D01*
X0473623Y0787391D01*
Y0787823D01*
X0473517Y0788079D01*
Y0789048D01*
X0473634Y0789330D01*
Y0789773D01*
X0473757Y0789825D01*
X0473864Y0789898D01*
X0473980Y0789955D01*
X0474137Y0790075D01*
X0474182Y0790126D01*
X0474238Y0790164D01*
X0474312Y0790274D01*
X0474400Y0790374D01*
X0474422Y0790438D01*
X0474459Y0790495D01*
X0474485Y0790625D01*
X0474528Y0790751D01*
X0474523Y0790818D01*
X0474537Y0790885D01*
Y0791685D01*
X0475506D01*
X0475896Y0791763D01*
X0476227Y0791984D01*
X0476448Y0792314D01*
X0476466Y0792405D01*
X0478367D01*
X0478385Y0792314D01*
D02*
G37*
G36*
X0470767Y0754085D02*
X0473895D01*
X0474207Y0753705D01*
Y0751222D01*
X0473707Y0750987D01*
X0473184Y0751204D01*
X0472469D01*
X0471807Y0750930D01*
X0471477Y0750599D01*
X0471146Y0750930D01*
X0470484Y0751204D01*
X0469769D01*
X0469107Y0750930D01*
X0468601Y0750424D01*
X0468327Y0749762D01*
Y0749047D01*
X0468601Y0748385D01*
X0469107Y0747879D01*
X0469769Y0747605D01*
X0470484D01*
X0471146Y0747879D01*
X0471477Y0748210D01*
X0471807Y0747879D01*
X0472469Y0747605D01*
X0473184D01*
X0473707Y0747822D01*
X0474207Y0747587D01*
Y0745487D01*
X0473955Y0745225D01*
X0473905Y0745188D01*
X0473760Y0745131D01*
X0473585Y0745204D01*
X0472869D01*
X0472207Y0744930D01*
X0471701Y0744424D01*
X0471427Y0743762D01*
Y0743047D01*
X0471701Y0742385D01*
X0472207Y0741879D01*
X0472869Y0741605D01*
X0473004D01*
Y0741047D01*
X0473278Y0740385D01*
X0473784Y0739879D01*
X0474445Y0739605D01*
X0475161D01*
X0475822Y0739879D01*
X0476240Y0740297D01*
X0476309Y0740284D01*
X0476815Y0739778D01*
X0477477Y0739504D01*
X0478193D01*
X0478854Y0739778D01*
X0479360Y0740284D01*
X0479634Y0740945D01*
Y0741634D01*
X0479709Y0741701D01*
X0480077Y0741897D01*
X0480095Y0741879D01*
X0480724Y0741619D01*
X0480766Y0741585D01*
X0481011Y0741105D01*
X0480827Y0740662D01*
Y0739947D01*
X0481101Y0739286D01*
X0481607Y0738779D01*
X0482269Y0738505D01*
X0482984D01*
X0483646Y0738779D01*
X0483900Y0739034D01*
X0484227Y0739239D01*
X0484553Y0739034D01*
X0484808Y0738779D01*
X0485469Y0738505D01*
X0486185D01*
X0486846Y0738779D01*
X0487075Y0739008D01*
X0487402Y0739249D01*
X0487728Y0739008D01*
X0487957Y0738779D01*
X0488619Y0738505D01*
X0489334D01*
X0489996Y0738779D01*
X0490225Y0739008D01*
X0490551Y0739249D01*
X0490878Y0739008D01*
X0491107Y0738779D01*
X0491768Y0738505D01*
X0492484D01*
X0493145Y0738779D01*
X0493374Y0739008D01*
X0493701Y0739249D01*
X0494027Y0739008D01*
X0494256Y0738779D01*
X0494918Y0738505D01*
X0495634D01*
X0496295Y0738779D01*
X0496524Y0739008D01*
X0496850Y0739249D01*
X0497177Y0739008D01*
X0497406Y0738779D01*
X0498067Y0738505D01*
X0498783D01*
X0499444Y0738779D01*
X0499673Y0739008D01*
X0500000Y0739249D01*
X0500327Y0739008D01*
X0500556Y0738779D01*
X0501217Y0738505D01*
X0501933D01*
X0502594Y0738779D01*
X0502789Y0738975D01*
X0503116Y0739271D01*
X0503442Y0738975D01*
X0503638Y0738779D01*
X0504299Y0738505D01*
X0505015D01*
X0505676Y0738779D01*
X0506182Y0739286D01*
X0506456Y0739947D01*
Y0740185D01*
X0519312D01*
X0519527Y0739862D01*
Y0739147D01*
X0519797Y0738495D01*
Y0738114D01*
X0519527Y0737463D01*
Y0736747D01*
X0519669Y0736404D01*
X0519544Y0736216D01*
X0519292Y0736008D01*
X0518695Y0736127D01*
X0518695Y0736127D01*
X0472057D01*
X0471723Y0736627D01*
X0471855Y0736946D01*
Y0737662D01*
X0471581Y0738323D01*
X0471075Y0738829D01*
X0470414Y0739103D01*
X0469698D01*
X0469037Y0738829D01*
X0468531Y0738323D01*
X0468257Y0737662D01*
Y0736946D01*
X0468389Y0736627D01*
X0468055Y0736127D01*
X0429482D01*
X0428249Y0737360D01*
Y0753631D01*
X0428271Y0753715D01*
X0428537Y0754085D01*
X0467286D01*
X0467294Y0754086D01*
X0467501Y0753585D01*
X0468007Y0753079D01*
X0468669Y0752805D01*
X0469384D01*
X0470046Y0753079D01*
X0470552Y0753585D01*
X0470759Y0754086D01*
X0470767Y0754085D01*
D02*
G37*
G36*
X0534707Y0743924D02*
X0526327D01*
X0525936Y0743847D01*
X0525606Y0743626D01*
X0525385Y0743295D01*
X0525307Y0742905D01*
Y0734905D01*
X0525385Y0734515D01*
X0525606Y0734184D01*
X0525936Y0733963D01*
X0526327Y0733885D01*
X0548727D01*
Y0733847D01*
X0549001Y0733185D01*
X0549507Y0732679D01*
X0550169Y0732405D01*
X0550884D01*
X0551546Y0732679D01*
X0552052Y0733185D01*
X0552326Y0733847D01*
Y0733885D01*
X0571027D01*
X0571204Y0733920D01*
X0571301Y0733685D01*
X0571807Y0733179D01*
X0572469Y0732905D01*
X0573184D01*
X0573846Y0733179D01*
X0574352Y0733685D01*
X0574449Y0733920D01*
X0574626Y0733885D01*
X0581807D01*
Y0731805D01*
X0581885Y0731415D01*
X0582072Y0731134D01*
X0582014Y0730902D01*
X0581879Y0730634D01*
X0522856D01*
Y0736095D01*
X0523126Y0736747D01*
Y0737463D01*
X0522856Y0738114D01*
Y0738495D01*
X0523126Y0739147D01*
Y0739862D01*
X0522852Y0740524D01*
X0522767Y0740609D01*
X0522769Y0740759D01*
X0522916Y0741167D01*
X0523436Y0741383D01*
X0523943Y0741889D01*
X0524216Y0742550D01*
Y0743266D01*
X0523943Y0743927D01*
X0523436Y0744433D01*
X0522775Y0744707D01*
X0522059D01*
X0521398Y0744433D01*
X0520892Y0743927D01*
X0520618Y0743266D01*
Y0742550D01*
X0520892Y0741889D01*
X0520977Y0741804D01*
X0520974Y0741653D01*
X0520828Y0741246D01*
X0520729Y0741205D01*
X0506232D01*
X0506182Y0741324D01*
X0505676Y0741830D01*
X0505050Y0742089D01*
X0505004Y0742126D01*
X0504764Y0742604D01*
X0504947Y0743047D01*
Y0743762D01*
X0504673Y0744424D01*
X0504167Y0744930D01*
X0503506Y0745204D01*
X0502790D01*
X0502129Y0744930D01*
X0501900Y0744701D01*
X0501573Y0744460D01*
X0501246Y0744701D01*
X0501017Y0744930D01*
X0500356Y0745204D01*
X0499640D01*
X0498979Y0744930D01*
X0498750Y0744701D01*
X0498423Y0744460D01*
X0498097Y0744701D01*
X0497868Y0744930D01*
X0497206Y0745204D01*
X0496491D01*
X0495829Y0744930D01*
X0495601Y0744701D01*
X0495274Y0744460D01*
X0494947Y0744701D01*
X0494718Y0744930D01*
X0494057Y0745204D01*
X0493341D01*
X0492680Y0744930D01*
X0492451Y0744701D01*
X0492124Y0744460D01*
X0491798Y0744701D01*
X0491569Y0744930D01*
X0490907Y0745204D01*
X0490192D01*
X0489530Y0744930D01*
X0489301Y0744701D01*
X0488975Y0744460D01*
X0488648Y0744701D01*
X0488419Y0744930D01*
X0487758Y0745204D01*
X0487042D01*
X0486381Y0744930D01*
X0486152Y0744701D01*
X0485825Y0744460D01*
X0485498Y0744701D01*
X0485269Y0744930D01*
X0484608Y0745204D01*
X0483892D01*
X0483231Y0744930D01*
X0483009Y0744708D01*
X0482682Y0744457D01*
X0482356Y0744708D01*
X0482133Y0744930D01*
X0481472Y0745204D01*
X0480756D01*
X0480095Y0744930D01*
X0479589Y0744424D01*
X0479315Y0743762D01*
Y0743074D01*
X0479240Y0743007D01*
X0478872Y0742810D01*
X0478854Y0742828D01*
X0478193Y0743102D01*
X0478191D01*
Y0743762D01*
X0477917Y0744424D01*
X0477411Y0744930D01*
X0476750Y0745204D01*
X0476034D01*
X0475727Y0745077D01*
X0475227Y0745411D01*
Y0753705D01*
X0505851D01*
X0506059Y0753205D01*
X0505823Y0752636D01*
Y0751921D01*
X0505909Y0751715D01*
X0505943Y0751229D01*
X0505659Y0751111D01*
X0505282Y0750955D01*
X0504776Y0750449D01*
X0504502Y0749788D01*
Y0749072D01*
X0504776Y0748411D01*
X0505282Y0747905D01*
X0505943Y0747631D01*
X0506659D01*
X0507320Y0747905D01*
X0507549Y0748134D01*
X0507876Y0748374D01*
X0508202Y0748134D01*
X0508431Y0747905D01*
X0509093Y0747631D01*
X0509808D01*
X0510470Y0747905D01*
X0510976Y0748411D01*
X0511250Y0749072D01*
Y0749788D01*
X0511066Y0750231D01*
X0511347Y0750731D01*
X0511381D01*
X0512043Y0751005D01*
X0512549Y0751511D01*
X0512823Y0752172D01*
Y0752888D01*
X0512692Y0753205D01*
X0513026Y0753705D01*
X0534707D01*
Y0743924D01*
D02*
G37*
G36*
X0575168Y0745466D02*
X0575387Y0745246D01*
X0575506Y0744960D01*
Y0744650D01*
X0575387Y0744363D01*
X0575160Y0744136D01*
X0575126Y0744085D01*
X0575079Y0744044D01*
X0575016Y0743921D01*
X0574939Y0743805D01*
X0574927Y0743745D01*
X0574899Y0743689D01*
X0574813Y0743379D01*
X0574807Y0743301D01*
X0574782Y0743227D01*
X0574792Y0743105D01*
X0574782Y0742982D01*
X0574807Y0742908D01*
X0574813Y0742830D01*
X0574899Y0742520D01*
X0574927Y0742465D01*
X0574939Y0742404D01*
X0575016Y0742289D01*
X0575079Y0742165D01*
X0575126Y0742125D01*
X0575160Y0742073D01*
X0575387Y0741846D01*
X0575506Y0741560D01*
Y0741250D01*
X0575387Y0740963D01*
X0575032Y0740608D01*
X0575015Y0740596D01*
X0575015Y0740596D01*
X0575015Y0740596D01*
X0574960Y0740515D01*
X0574794Y0740266D01*
X0574794Y0740265D01*
X0574794Y0740265D01*
X0574763Y0740108D01*
X0574716Y0739875D01*
X0574716Y0739875D01*
X0574716Y0739875D01*
Y0739334D01*
D01*
X0574716Y0739334D01*
X0574773Y0739049D01*
X0574794Y0738944D01*
X0574794Y0738944D01*
X0574794Y0738944D01*
X0574927Y0738745D01*
X0575015Y0738613D01*
X0575015Y0738613D01*
X0575015Y0738613D01*
X0575032Y0738601D01*
X0575387Y0738246D01*
X0575506Y0737960D01*
Y0737650D01*
X0575387Y0737363D01*
X0575168Y0737144D01*
X0574882Y0737025D01*
X0574735D01*
X0574615Y0737001D01*
X0574492Y0736996D01*
X0574443Y0736973D01*
X0574440Y0736973D01*
X0574420Y0736962D01*
X0574345Y0736947D01*
X0574243Y0736879D01*
X0574131Y0736827D01*
X0574112Y0736812D01*
X0574100Y0736800D01*
X0574086Y0736793D01*
X0574048Y0736749D01*
X0574014Y0736726D01*
X0573964Y0736651D01*
X0573843Y0736519D01*
X0573838Y0736503D01*
X0573827Y0736491D01*
X0573554Y0736005D01*
X0573535Y0735947D01*
X0573500Y0735896D01*
X0573473Y0735759D01*
X0573430Y0735627D01*
X0573435Y0735566D01*
X0573423Y0735505D01*
X0573450Y0735369D01*
X0573460Y0735230D01*
X0573488Y0735176D01*
X0573500Y0735115D01*
X0573623Y0734818D01*
X0573675Y0734561D01*
X0573672Y0734558D01*
X0573601Y0734487D01*
X0573563Y0734394D01*
X0573507Y0734310D01*
X0573488Y0734263D01*
X0573268Y0734044D01*
X0572982Y0733925D01*
X0572672D01*
X0572385Y0734044D01*
X0572166Y0734263D01*
X0572146Y0734310D01*
X0572090Y0734394D01*
X0572052Y0734487D01*
X0571981Y0734558D01*
X0571979Y0734561D01*
X0572030Y0734818D01*
X0572127Y0735053D01*
X0572149Y0735161D01*
X0572189Y0735264D01*
X0572188Y0735303D01*
X0572194Y0735321D01*
X0572191Y0735372D01*
X0572205Y0735443D01*
X0572183Y0735551D01*
X0572181Y0735661D01*
X0572179Y0735671D01*
X0572169Y0735693D01*
X0572168Y0735718D01*
X0572139Y0735777D01*
X0572127Y0735834D01*
X0572072Y0735916D01*
X0572020Y0736035D01*
X0572002Y0736052D01*
X0571991Y0736074D01*
X0571644Y0736527D01*
X0571593Y0736571D01*
X0571556Y0736626D01*
X0571445Y0736701D01*
X0571344Y0736789D01*
X0571281Y0736810D01*
X0571226Y0736847D01*
X0571094Y0736873D01*
X0570968Y0736916D01*
X0570901Y0736912D01*
X0570835Y0736925D01*
X0570572D01*
X0570285Y0737044D01*
X0570066Y0737263D01*
X0569947Y0737550D01*
Y0737860D01*
X0570066Y0738146D01*
X0570328Y0738409D01*
X0570559Y0738563D01*
X0570780Y0738894D01*
X0570858Y0739284D01*
Y0739825D01*
X0570780Y0740215D01*
X0570559Y0740546D01*
X0570328Y0740700D01*
X0570066Y0740963D01*
X0569947Y0741250D01*
Y0741560D01*
X0570066Y0741846D01*
X0570276Y0742057D01*
X0570340Y0742153D01*
X0570419Y0742236D01*
X0570553Y0742450D01*
X0570562Y0742473D01*
X0570578Y0742492D01*
X0570633Y0742658D01*
X0570695Y0742822D01*
X0570694Y0742847D01*
X0570702Y0742870D01*
X0570689Y0743045D01*
X0570684Y0743220D01*
X0570674Y0743242D01*
X0570672Y0743267D01*
X0570554Y0743689D01*
X0570526Y0743745D01*
X0570514Y0743805D01*
X0570437Y0743921D01*
X0570374Y0744044D01*
X0570327Y0744085D01*
X0570293Y0744136D01*
X0570166Y0744263D01*
X0570047Y0744550D01*
Y0744860D01*
X0570166Y0745146D01*
X0570385Y0745366D01*
X0570672Y0745484D01*
X0570982D01*
X0571268Y0745366D01*
X0571488Y0745146D01*
X0571543Y0745012D01*
X0571764Y0744681D01*
X0572095Y0744460D01*
X0572485Y0744382D01*
X0573027D01*
X0573417Y0744460D01*
X0573747Y0744681D01*
X0573969Y0745012D01*
X0574066Y0745246D01*
X0574285Y0745466D01*
X0574572Y0745584D01*
X0574882D01*
X0575168Y0745466D01*
D02*
G37*
G36*
X0593327Y0764962D02*
Y0764247D01*
X0593601Y0763586D01*
X0594107Y0763079D01*
X0594769Y0762805D01*
X0595484D01*
X0596146Y0763079D01*
X0596427Y0763360D01*
X0596927Y0763153D01*
Y0761243D01*
X0596727Y0760763D01*
Y0760047D01*
X0596927Y0759566D01*
Y0756505D01*
X0588527Y0748105D01*
Y0748058D01*
X0588214Y0747590D01*
X0588097Y0747005D01*
Y0733538D01*
X0586364Y0731805D01*
X0582827D01*
Y0734905D01*
X0574626D01*
Y0735063D01*
X0574442Y0735505D01*
X0574715Y0735991D01*
X0574735Y0736005D01*
X0575084D01*
X0575746Y0736279D01*
X0576252Y0736786D01*
X0576526Y0737447D01*
Y0738163D01*
X0576252Y0738824D01*
X0575746Y0739330D01*
X0575736Y0739334D01*
Y0739875D01*
X0575746Y0739879D01*
X0576252Y0740385D01*
X0576526Y0741047D01*
Y0741762D01*
X0576252Y0742424D01*
X0575881Y0742794D01*
X0575795Y0743105D01*
X0575881Y0743415D01*
X0576252Y0743785D01*
X0576526Y0744447D01*
Y0745162D01*
X0576252Y0745824D01*
X0575746Y0746330D01*
X0575084Y0746604D01*
X0574369D01*
X0573707Y0746330D01*
X0573201Y0745824D01*
X0573027Y0745402D01*
X0572485D01*
X0572352Y0745724D01*
X0571846Y0746230D01*
X0571184Y0746504D01*
X0570469D01*
X0569807Y0746230D01*
X0569301Y0745724D01*
X0569027Y0745062D01*
Y0744347D01*
X0569301Y0743685D01*
X0569572Y0743415D01*
X0569690Y0742992D01*
X0569556Y0742778D01*
X0569201Y0742424D01*
X0568927Y0741762D01*
Y0741047D01*
X0569201Y0740385D01*
X0569707Y0739879D01*
X0569838Y0739825D01*
Y0739284D01*
X0569707Y0739230D01*
X0569201Y0738724D01*
X0568927Y0738062D01*
Y0737347D01*
X0569201Y0736686D01*
X0569707Y0736179D01*
X0570369Y0735905D01*
X0570835D01*
X0571183Y0735453D01*
X0571185Y0735443D01*
X0571027Y0735063D01*
Y0734905D01*
X0552184D01*
X0552052Y0735224D01*
X0551546Y0735730D01*
X0550884Y0736004D01*
X0550169D01*
X0549507Y0735730D01*
X0549001Y0735224D01*
X0548869Y0734905D01*
X0526327D01*
Y0742905D01*
X0534707D01*
Y0740005D01*
X0534785Y0739614D01*
X0535006Y0739284D01*
X0535336Y0739063D01*
X0535727Y0738985D01*
X0548727D01*
X0549118Y0739063D01*
X0549181Y0739105D01*
X0549507Y0738779D01*
X0550169Y0738505D01*
X0550884D01*
X0551546Y0738779D01*
X0551872Y0739105D01*
X0551936Y0739063D01*
X0552326Y0738985D01*
X0553427D01*
X0553817Y0739063D01*
X0554148Y0739284D01*
X0554369Y0739614D01*
X0554446Y0740005D01*
Y0743453D01*
X0554369Y0743843D01*
X0554148Y0744174D01*
X0553927Y0744322D01*
Y0745488D01*
X0554148Y0745635D01*
X0554369Y0745966D01*
X0554446Y0746356D01*
Y0749653D01*
X0554369Y0750043D01*
X0554148Y0750374D01*
X0553927Y0750522D01*
Y0751685D01*
X0579827D01*
X0580217Y0751763D01*
X0580548Y0751984D01*
X0580769Y0752315D01*
X0580846Y0752705D01*
Y0765385D01*
X0593502D01*
X0593327Y0764962D01*
D02*
G37*
%LPC*%
G36*
X0447473Y0862116D02*
X0446757D01*
X0446096Y0861842D01*
X0445965Y0861711D01*
X0445846Y0861830D01*
X0445185Y0862104D01*
X0444469D01*
X0443807Y0861830D01*
X0443677Y0861699D01*
X0443546Y0861830D01*
X0442884Y0862104D01*
X0442169D01*
X0441507Y0861830D01*
X0441377Y0861699D01*
X0441246Y0861830D01*
X0440585Y0862104D01*
X0439869D01*
X0439207Y0861830D01*
X0439077Y0861699D01*
X0438946Y0861830D01*
X0438284Y0862104D01*
X0437569D01*
X0436907Y0861830D01*
X0436777Y0861699D01*
X0436646Y0861830D01*
X0435985Y0862104D01*
X0435269D01*
X0434607Y0861830D01*
X0434477Y0861699D01*
X0434346Y0861830D01*
X0433684Y0862104D01*
X0432969D01*
X0432307Y0861830D01*
X0431801Y0861324D01*
X0431527Y0860662D01*
Y0859947D01*
X0431801Y0859286D01*
X0432307Y0858779D01*
X0432969Y0858505D01*
X0433684D01*
X0434346Y0858779D01*
X0434477Y0858910D01*
X0434607Y0858779D01*
X0435269Y0858505D01*
X0435985D01*
X0436646Y0858779D01*
X0436777Y0858910D01*
X0436907Y0858779D01*
X0437569Y0858505D01*
X0438284D01*
X0438946Y0858779D01*
X0439077Y0858910D01*
X0439207Y0858779D01*
X0439869Y0858505D01*
X0440585D01*
X0441246Y0858779D01*
X0441377Y0858910D01*
X0441507Y0858779D01*
X0442169Y0858505D01*
X0442884D01*
X0443546Y0858779D01*
X0443677Y0858910D01*
X0443807Y0858779D01*
X0444469Y0858505D01*
X0445185D01*
X0445846Y0858779D01*
X0445977Y0858910D01*
X0446096Y0858791D01*
X0446757Y0858517D01*
X0447473D01*
X0448134Y0858791D01*
X0448265Y0858922D01*
X0448407Y0858779D01*
X0449069Y0858505D01*
X0449785D01*
X0450446Y0858779D01*
X0450627Y0858960D01*
X0450807Y0858779D01*
X0451469Y0858505D01*
X0452184D01*
X0452846Y0858779D01*
X0453352Y0859286D01*
X0453626Y0859947D01*
Y0860662D01*
X0453352Y0861324D01*
X0452846Y0861830D01*
X0452184Y0862104D01*
X0451469D01*
X0450807Y0861830D01*
X0450627Y0861649D01*
X0450446Y0861830D01*
X0449785Y0862104D01*
X0449069D01*
X0448407Y0861830D01*
X0448277Y0861699D01*
X0448134Y0861842D01*
X0447473Y0862116D01*
D02*
G37*
G36*
X0540592Y0866804D02*
X0539877D01*
X0539215Y0866530D01*
X0538709Y0866024D01*
X0538435Y0865362D01*
Y0864647D01*
X0538709Y0863986D01*
X0539215Y0863479D01*
X0539877Y0863205D01*
X0540592D01*
X0541254Y0863479D01*
X0541704Y0863930D01*
X0541989Y0863812D01*
X0542464D01*
X0542902Y0863993D01*
X0543238Y0864329D01*
X0543420Y0864767D01*
Y0865242D01*
X0543238Y0865680D01*
X0542902Y0866016D01*
X0542464Y0866198D01*
X0541989D01*
X0541704Y0866079D01*
X0541254Y0866530D01*
X0540592Y0866804D01*
D02*
G37*
G36*
X0554367Y0859516D02*
X0553893D01*
X0553454Y0859335D01*
X0553119Y0858999D01*
X0552937Y0858560D01*
Y0858086D01*
X0553119Y0857648D01*
X0553454Y0857312D01*
X0553893Y0857130D01*
X0554367D01*
X0554806Y0857312D01*
X0555141Y0857648D01*
X0555323Y0858086D01*
Y0858560D01*
X0555141Y0858999D01*
X0554806Y0859335D01*
X0554367Y0859516D01*
D02*
G37*
G36*
X0572967Y0850816D02*
X0572493D01*
X0572054Y0850635D01*
X0571719Y0850299D01*
X0571537Y0849860D01*
Y0849386D01*
X0571719Y0848948D01*
X0571916Y0848750D01*
X0572037Y0848539D01*
X0571939Y0848119D01*
X0571819Y0847999D01*
X0571637Y0847561D01*
Y0847086D01*
X0571819Y0846647D01*
X0572155Y0846312D01*
X0572593Y0846130D01*
X0573068D01*
X0573506Y0846312D01*
X0573841Y0846647D01*
X0574023Y0847086D01*
Y0847561D01*
X0573841Y0847999D01*
X0573644Y0848197D01*
X0573523Y0848407D01*
X0573622Y0848828D01*
X0573741Y0848948D01*
X0573923Y0849386D01*
Y0849860D01*
X0573741Y0850299D01*
X0573406Y0850635D01*
X0572967Y0850816D01*
D02*
G37*
G36*
X0559867Y0847816D02*
X0559393D01*
X0558954Y0847635D01*
X0558619Y0847299D01*
X0558437Y0846861D01*
Y0846386D01*
X0558619Y0845947D01*
X0558954Y0845612D01*
X0559393Y0845430D01*
X0559867D01*
X0560306Y0845612D01*
X0560641Y0845947D01*
X0560823Y0846386D01*
Y0846861D01*
X0560641Y0847299D01*
X0560306Y0847635D01*
X0559867Y0847816D01*
D02*
G37*
G36*
X0481110Y0845342D02*
X0480395D01*
X0479733Y0845068D01*
X0479227Y0844562D01*
X0479203Y0844503D01*
X0478662D01*
X0478652Y0844527D01*
X0478146Y0845033D01*
X0477485Y0845307D01*
X0476769D01*
X0476108Y0845033D01*
X0475601Y0844527D01*
X0475327Y0843866D01*
Y0843150D01*
X0475601Y0842489D01*
X0476108Y0841982D01*
X0476769Y0841708D01*
X0477485D01*
X0478146Y0841982D01*
X0478652Y0842489D01*
X0478676Y0842547D01*
X0479217D01*
X0479227Y0842524D01*
X0479733Y0842018D01*
X0480395Y0841744D01*
X0481110D01*
X0481772Y0842018D01*
X0482278Y0842524D01*
X0482552Y0843185D01*
Y0843901D01*
X0482278Y0844562D01*
X0481772Y0845068D01*
X0481110Y0845342D01*
D02*
G37*
G36*
X0486875Y0845307D02*
X0486159D01*
X0485498Y0845033D01*
X0484992Y0844527D01*
X0484718Y0843866D01*
Y0843150D01*
X0484992Y0842489D01*
X0485498Y0841982D01*
X0486159Y0841708D01*
X0486875D01*
X0487536Y0841982D01*
X0488042Y0842489D01*
X0488316Y0843150D01*
Y0843866D01*
X0488042Y0844527D01*
X0487536Y0845033D01*
X0486875Y0845307D01*
D02*
G37*
G36*
X0500908Y0844580D02*
X0500192D01*
X0499531Y0844306D01*
X0499025Y0843800D01*
X0498751Y0843139D01*
Y0842423D01*
X0499025Y0841762D01*
X0499531Y0841256D01*
X0500192Y0840982D01*
X0500908D01*
X0501569Y0841256D01*
X0502075Y0841762D01*
X0502349Y0842423D01*
Y0843139D01*
X0502075Y0843800D01*
X0501569Y0844306D01*
X0500908Y0844580D01*
D02*
G37*
G36*
X0491234Y0844547D02*
X0490519D01*
X0489857Y0844273D01*
X0489351Y0843767D01*
X0489077Y0843106D01*
Y0842390D01*
X0489351Y0841729D01*
X0489857Y0841223D01*
X0490519Y0840949D01*
X0491234D01*
X0491896Y0841223D01*
X0492402Y0841729D01*
X0492676Y0842390D01*
Y0843106D01*
X0492402Y0843767D01*
X0491896Y0844273D01*
X0491234Y0844547D01*
D02*
G37*
G36*
X0511585Y0844504D02*
X0510869D01*
X0510207Y0844230D01*
X0509701Y0843724D01*
X0509427Y0843062D01*
Y0842347D01*
X0509701Y0841685D01*
X0510207Y0841179D01*
X0510869Y0840905D01*
X0511585D01*
X0512246Y0841179D01*
X0512752Y0841685D01*
X0513026Y0842347D01*
Y0843062D01*
X0512752Y0843724D01*
X0512246Y0844230D01*
X0511585Y0844504D01*
D02*
G37*
G36*
X0495870Y0844418D02*
X0495154D01*
X0494493Y0844144D01*
X0493987Y0843638D01*
X0493713Y0842977D01*
Y0842261D01*
X0493987Y0841600D01*
X0494493Y0841094D01*
X0495154Y0840820D01*
X0495870D01*
X0496531Y0841094D01*
X0497038Y0841600D01*
X0497311Y0842261D01*
Y0842977D01*
X0497038Y0843638D01*
X0496531Y0844144D01*
X0495870Y0844418D01*
D02*
G37*
G36*
X0480615Y0836346D02*
X0479899D01*
X0479261Y0836081D01*
X0478623Y0836346D01*
X0477907D01*
X0477246Y0836072D01*
X0476740Y0835565D01*
X0476466Y0834904D01*
Y0834188D01*
X0476740Y0833527D01*
X0477246Y0833021D01*
X0477907Y0832747D01*
X0478623D01*
X0479261Y0833012D01*
X0479899Y0832747D01*
X0480615D01*
X0481276Y0833021D01*
X0481782Y0833527D01*
X0482056Y0834188D01*
Y0834904D01*
X0481782Y0835565D01*
X0481276Y0836072D01*
X0480615Y0836346D01*
D02*
G37*
G36*
X0487695Y0838526D02*
X0486979D01*
X0486318Y0838252D01*
X0485812Y0837746D01*
X0485538Y0837085D01*
Y0836369D01*
X0485812Y0835707D01*
X0486318Y0835201D01*
X0486979Y0834927D01*
X0487695D01*
X0488356Y0835201D01*
X0488862Y0835707D01*
X0489136Y0836369D01*
Y0837085D01*
X0488862Y0837746D01*
X0488356Y0838252D01*
X0487695Y0838526D01*
D02*
G37*
G36*
X0614319Y0832020D02*
X0613603D01*
X0612942Y0831746D01*
X0612436Y0831240D01*
X0612162Y0830578D01*
Y0829862D01*
X0612436Y0829201D01*
X0612942Y0828695D01*
X0613603Y0828421D01*
X0614319D01*
X0614980Y0828695D01*
X0615487Y0829201D01*
X0615761Y0829862D01*
Y0830578D01*
X0615487Y0831240D01*
X0614980Y0831746D01*
X0614319Y0832020D01*
D02*
G37*
G36*
X0488399Y0828213D02*
X0487924D01*
X0487486Y0828032D01*
X0487150Y0827696D01*
X0486968Y0827258D01*
Y0826783D01*
X0487150Y0826345D01*
X0487486Y0826009D01*
X0487924Y0825827D01*
X0488399D01*
X0488837Y0826009D01*
X0489173Y0826345D01*
X0489354Y0826783D01*
Y0827258D01*
X0489173Y0827696D01*
X0488837Y0828032D01*
X0488399Y0828213D01*
D02*
G37*
G36*
X0492363Y0826193D02*
X0491889D01*
X0491450Y0826011D01*
X0491115Y0825676D01*
X0490933Y0825237D01*
Y0824763D01*
X0491115Y0824324D01*
X0491423Y0824016D01*
X0491115Y0823707D01*
X0490933Y0823269D01*
Y0822794D01*
X0491115Y0822356D01*
X0491423Y0822047D01*
X0491115Y0821739D01*
X0490933Y0821300D01*
Y0820826D01*
X0491115Y0820387D01*
X0491423Y0820079D01*
X0491341Y0819997D01*
X0491160Y0819559D01*
Y0819084D01*
X0491341Y0818645D01*
X0491677Y0818310D01*
X0492115Y0818128D01*
X0492590D01*
X0493028Y0818310D01*
X0493364Y0818645D01*
X0493546Y0819084D01*
Y0819559D01*
X0493364Y0819997D01*
X0493055Y0820305D01*
X0493137Y0820387D01*
X0493319Y0820826D01*
Y0821300D01*
X0493137Y0821739D01*
X0492829Y0822047D01*
X0493137Y0822356D01*
X0493319Y0822794D01*
Y0823269D01*
X0493137Y0823707D01*
X0492829Y0824016D01*
X0493137Y0824324D01*
X0493319Y0824763D01*
Y0825237D01*
X0493137Y0825676D01*
X0492802Y0826011D01*
X0492363Y0826193D01*
D02*
G37*
G36*
X0488426Y0822287D02*
X0487952D01*
X0487513Y0822106D01*
X0487178Y0821770D01*
X0486996Y0821332D01*
Y0820857D01*
X0487178Y0820419D01*
X0487502Y0820094D01*
X0487178Y0819770D01*
X0486996Y0819332D01*
Y0818857D01*
X0487178Y0818419D01*
X0487513Y0818083D01*
X0487952Y0817902D01*
X0488426D01*
X0488865Y0818083D01*
X0489200Y0818419D01*
X0489382Y0818857D01*
Y0819332D01*
X0489200Y0819770D01*
X0488876Y0820094D01*
X0489200Y0820419D01*
X0489382Y0820857D01*
Y0821332D01*
X0489200Y0821770D01*
X0488865Y0822106D01*
X0488426Y0822287D01*
D02*
G37*
G36*
X0476615Y0826193D02*
X0476141D01*
X0475702Y0826011D01*
X0475367Y0825676D01*
X0475185Y0825237D01*
Y0824763D01*
X0475367Y0824324D01*
X0475675Y0824016D01*
X0475367Y0823707D01*
X0475185Y0823269D01*
Y0822794D01*
X0475367Y0822356D01*
X0475675Y0822047D01*
X0475367Y0821739D01*
X0475185Y0821300D01*
Y0820826D01*
X0475367Y0820387D01*
X0475675Y0820079D01*
X0475367Y0819770D01*
X0475185Y0819332D01*
Y0818857D01*
X0475367Y0818419D01*
X0475702Y0818083D01*
X0476141Y0817902D01*
X0476615D01*
X0477054Y0818083D01*
X0477389Y0818419D01*
X0477571Y0818857D01*
Y0819332D01*
X0477389Y0819770D01*
X0477081Y0820079D01*
X0477389Y0820387D01*
X0477571Y0820826D01*
Y0821300D01*
X0477389Y0821739D01*
X0477081Y0822047D01*
X0477389Y0822356D01*
X0477571Y0822794D01*
Y0823269D01*
X0477389Y0823707D01*
X0477081Y0824016D01*
X0477389Y0824324D01*
X0477571Y0824763D01*
Y0825237D01*
X0477389Y0825676D01*
X0477054Y0826011D01*
X0476615Y0826193D01*
D02*
G37*
G36*
X0615775Y0810607D02*
X0615059D01*
X0614398Y0810333D01*
X0613892Y0809827D01*
X0613678Y0809311D01*
X0613156D01*
X0612943Y0809827D01*
X0612436Y0810333D01*
X0611775Y0810607D01*
X0611059D01*
X0610398Y0810333D01*
X0609892Y0809827D01*
X0609618Y0809166D01*
Y0808450D01*
X0609892Y0807789D01*
X0610398Y0807283D01*
X0611059Y0807009D01*
X0611775D01*
X0612436Y0807283D01*
X0612943Y0807789D01*
X0613156Y0808304D01*
X0613678D01*
X0613892Y0807789D01*
X0614398Y0807283D01*
X0615059Y0807009D01*
X0615775D01*
X0616436Y0807283D01*
X0616943Y0807789D01*
X0617216Y0808450D01*
Y0809166D01*
X0616943Y0809827D01*
X0616436Y0810333D01*
X0615775Y0810607D01*
D02*
G37*
G36*
X0494332Y0810445D02*
X0493857D01*
X0493419Y0810263D01*
X0493083Y0809928D01*
X0492902Y0809489D01*
Y0809015D01*
X0493083Y0808576D01*
X0493419Y0808241D01*
X0493857Y0808059D01*
X0494332D01*
X0494770Y0808241D01*
X0495106Y0808576D01*
X0495287Y0809015D01*
Y0809489D01*
X0495106Y0809928D01*
X0494770Y0810263D01*
X0494332Y0810445D01*
D02*
G37*
G36*
X0490395D02*
X0489920D01*
X0489482Y0810263D01*
X0489146Y0809928D01*
X0488965Y0809489D01*
Y0809015D01*
X0489146Y0808576D01*
X0489482Y0808241D01*
X0489920Y0808059D01*
X0490395D01*
X0490833Y0808241D01*
X0491169Y0808576D01*
X0491350Y0809015D01*
Y0809489D01*
X0491169Y0809928D01*
X0490833Y0810263D01*
X0490395Y0810445D01*
D02*
G37*
G36*
X0484489Y0812413D02*
X0484015D01*
X0483576Y0812232D01*
X0483241Y0811896D01*
X0483059Y0811458D01*
Y0810983D01*
X0483241Y0810545D01*
X0483549Y0810236D01*
X0483241Y0809928D01*
X0483059Y0809489D01*
Y0809015D01*
X0483241Y0808576D01*
X0483576Y0808241D01*
X0484015Y0808059D01*
X0484489D01*
X0484928Y0808241D01*
X0485263Y0808576D01*
X0485445Y0809015D01*
Y0809489D01*
X0485263Y0809928D01*
X0484955Y0810236D01*
X0485263Y0810545D01*
X0485445Y0810983D01*
Y0811458D01*
X0485263Y0811896D01*
X0484928Y0812232D01*
X0484489Y0812413D01*
D02*
G37*
G36*
X0494332Y0806508D02*
X0493857D01*
X0493419Y0806326D01*
X0493083Y0805991D01*
X0492902Y0805552D01*
Y0805078D01*
X0493083Y0804639D01*
X0493419Y0804304D01*
X0493857Y0804122D01*
X0494332D01*
X0494770Y0804304D01*
X0495106Y0804639D01*
X0495287Y0805078D01*
Y0805552D01*
X0495106Y0805991D01*
X0494770Y0806326D01*
X0494332Y0806508D01*
D02*
G37*
G36*
X0490395D02*
X0489920D01*
X0489482Y0806326D01*
X0489146Y0805991D01*
X0488965Y0805552D01*
Y0805078D01*
X0489146Y0804639D01*
X0489482Y0804304D01*
X0489920Y0804122D01*
X0490395D01*
X0490833Y0804304D01*
X0491169Y0804639D01*
X0491350Y0805078D01*
Y0805552D01*
X0491169Y0805991D01*
X0490833Y0806326D01*
X0490395Y0806508D01*
D02*
G37*
G36*
X0556254Y0837401D02*
X0555780D01*
X0555341Y0837219D01*
X0555006Y0836884D01*
X0554824Y0836445D01*
Y0835970D01*
X0555006Y0835532D01*
X0555341Y0835196D01*
X0555780Y0835015D01*
X0556254D01*
X0556693Y0835196D01*
X0557028Y0835532D01*
X0557210Y0835970D01*
Y0836445D01*
X0557028Y0836884D01*
X0556693Y0837219D01*
X0556254Y0837401D01*
D02*
G37*
G36*
X0560254Y0837101D02*
X0559780D01*
X0559341Y0836919D01*
X0559006Y0836584D01*
X0558824Y0836145D01*
Y0835670D01*
X0559006Y0835232D01*
X0559341Y0834896D01*
X0559780Y0834715D01*
X0560254D01*
X0560693Y0834896D01*
X0561028Y0835232D01*
X0561210Y0835670D01*
Y0836145D01*
X0561028Y0836584D01*
X0560693Y0836919D01*
X0560254Y0837101D01*
D02*
G37*
G36*
X0513354Y0833401D02*
X0512880D01*
X0512441Y0833219D01*
X0512106Y0832883D01*
X0511924Y0832445D01*
Y0831971D01*
X0512106Y0831532D01*
X0512441Y0831196D01*
X0512880Y0831015D01*
X0513354D01*
X0513793Y0831196D01*
X0514128Y0831532D01*
X0514310Y0831971D01*
Y0832445D01*
X0514128Y0832883D01*
X0513793Y0833219D01*
X0513354Y0833401D01*
D02*
G37*
G36*
X0594485Y0826604D02*
X0593769D01*
X0593107Y0826330D01*
X0592601Y0825824D01*
X0592388Y0825308D01*
X0591865D01*
X0591652Y0825824D01*
X0591146Y0826330D01*
X0590485Y0826604D01*
X0589769D01*
X0589107Y0826330D01*
X0588601Y0825824D01*
X0588327Y0825163D01*
Y0824447D01*
X0588552Y0823905D01*
X0588601Y0823785D01*
X0589107Y0823279D01*
X0589238Y0823225D01*
Y0822684D01*
X0589107Y0822630D01*
X0588601Y0822124D01*
X0588388Y0821608D01*
X0587865D01*
X0587652Y0822124D01*
X0587146Y0822630D01*
X0586484Y0822904D01*
X0585769D01*
X0585107Y0822630D01*
X0584601Y0822124D01*
X0584327Y0821463D01*
Y0820747D01*
X0584601Y0820086D01*
X0585107Y0819579D01*
X0585769Y0819305D01*
X0586484D01*
X0587146Y0819579D01*
X0587652Y0820086D01*
X0587865Y0820601D01*
X0588388D01*
X0588601Y0820086D01*
X0589107Y0819579D01*
X0589769Y0819305D01*
X0590485D01*
X0591146Y0819579D01*
X0591652Y0820086D01*
X0591865Y0820601D01*
X0592388D01*
X0592601Y0820086D01*
X0593107Y0819579D01*
X0593769Y0819305D01*
X0594485D01*
X0595146Y0819579D01*
X0595652Y0820086D01*
X0595926Y0820747D01*
Y0821463D01*
X0595652Y0822124D01*
X0595146Y0822630D01*
X0595015Y0822684D01*
Y0823225D01*
X0595146Y0823279D01*
X0595652Y0823785D01*
X0595701Y0823905D01*
X0595926Y0824447D01*
Y0825163D01*
X0595652Y0825824D01*
X0595146Y0826330D01*
X0594485Y0826604D01*
D02*
G37*
G36*
X0508111Y0828161D02*
X0507637D01*
X0507198Y0827980D01*
X0506863Y0827644D01*
X0506681Y0827206D01*
Y0826731D01*
X0506863Y0826293D01*
X0507171Y0825984D01*
X0506863Y0825676D01*
X0506681Y0825237D01*
Y0824763D01*
X0506863Y0824324D01*
X0507198Y0823989D01*
X0507637Y0823807D01*
X0508111D01*
X0508550Y0823989D01*
X0508885Y0824324D01*
X0509067Y0824763D01*
Y0825237D01*
X0508885Y0825676D01*
X0508577Y0825984D01*
X0508885Y0826293D01*
X0509067Y0826731D01*
Y0827206D01*
X0508885Y0827644D01*
X0508550Y0827980D01*
X0508111Y0828161D01*
D02*
G37*
G36*
X0586364Y0825998D02*
X0585889D01*
X0585451Y0825816D01*
X0585115Y0825480D01*
X0584934Y0825042D01*
Y0824567D01*
X0585001Y0824405D01*
X0584749Y0824005D01*
X0585240D01*
X0585451Y0823793D01*
X0585889Y0823612D01*
X0586364D01*
X0586802Y0823793D01*
X0587014Y0824005D01*
X0587504D01*
X0587252Y0824405D01*
X0587320Y0824567D01*
Y0825042D01*
X0587138Y0825480D01*
X0586802Y0825816D01*
X0586364Y0825998D01*
D02*
G37*
G36*
X0504174Y0826193D02*
X0503700D01*
X0503261Y0826011D01*
X0502926Y0825676D01*
X0502744Y0825237D01*
Y0824763D01*
X0502926Y0824324D01*
X0503234Y0824016D01*
X0502926Y0823707D01*
X0502744Y0823269D01*
Y0822794D01*
X0502926Y0822356D01*
X0503234Y0822047D01*
X0502926Y0821739D01*
X0502744Y0821300D01*
Y0820826D01*
X0502926Y0820387D01*
X0503261Y0820052D01*
X0503700Y0819870D01*
X0504174D01*
X0504613Y0820052D01*
X0504921Y0820360D01*
X0505230Y0820052D01*
X0505668Y0819870D01*
X0506143D01*
X0506581Y0820052D01*
X0506917Y0820387D01*
X0507098Y0820826D01*
Y0821300D01*
X0506917Y0821739D01*
X0506581Y0822074D01*
X0506143Y0822256D01*
X0505668D01*
X0505384Y0822138D01*
X0505012Y0822510D01*
X0505130Y0822794D01*
Y0823269D01*
X0504948Y0823707D01*
X0504640Y0824016D01*
X0504948Y0824324D01*
X0505130Y0824763D01*
Y0825237D01*
X0504948Y0825676D01*
X0504613Y0826011D01*
X0504174Y0826193D01*
D02*
G37*
G36*
X0500237D02*
X0499763D01*
X0499324Y0826011D01*
X0498989Y0825676D01*
X0498807Y0825237D01*
Y0824763D01*
X0498989Y0824324D01*
X0499297Y0824016D01*
X0498989Y0823707D01*
X0498807Y0823269D01*
Y0822794D01*
X0498989Y0822356D01*
X0499297Y0822047D01*
X0498989Y0821739D01*
X0498807Y0821300D01*
Y0820826D01*
X0498989Y0820387D01*
X0499297Y0820079D01*
X0498989Y0819770D01*
X0498807Y0819332D01*
Y0818857D01*
X0498989Y0818419D01*
X0499324Y0818083D01*
X0499763Y0817902D01*
X0500237D01*
X0500676Y0818083D01*
X0501011Y0818419D01*
X0501193Y0818857D01*
Y0819332D01*
X0501011Y0819770D01*
X0500703Y0820079D01*
X0501011Y0820387D01*
X0501193Y0820826D01*
Y0821300D01*
X0501011Y0821739D01*
X0500703Y0822047D01*
X0501011Y0822356D01*
X0501193Y0822794D01*
Y0823269D01*
X0501011Y0823707D01*
X0500703Y0824016D01*
X0501011Y0824324D01*
X0501193Y0824763D01*
Y0825237D01*
X0501011Y0825676D01*
X0500676Y0826011D01*
X0500237Y0826193D01*
D02*
G37*
G36*
X0506143Y0818319D02*
X0505668D01*
X0505230Y0818137D01*
X0504921Y0817829D01*
X0504613Y0818137D01*
X0504174Y0818319D01*
X0503700D01*
X0503261Y0818137D01*
X0502926Y0817802D01*
X0502744Y0817363D01*
Y0816889D01*
X0502926Y0816450D01*
X0503261Y0816115D01*
X0503700Y0815933D01*
X0504174D01*
X0504613Y0816115D01*
X0504921Y0816423D01*
X0505230Y0816115D01*
X0505668Y0815933D01*
X0506143D01*
X0506581Y0816115D01*
X0506917Y0816450D01*
X0507098Y0816889D01*
Y0817363D01*
X0506917Y0817802D01*
X0506581Y0818137D01*
X0506143Y0818319D01*
D02*
G37*
G36*
X0506143Y0814382D02*
X0505668D01*
X0505230Y0814200D01*
X0504921Y0813892D01*
X0504613Y0814200D01*
X0504174Y0814382D01*
X0503700D01*
X0503261Y0814200D01*
X0502953Y0813892D01*
X0502644Y0814200D01*
X0502206Y0814382D01*
X0501731D01*
X0501293Y0814200D01*
X0500957Y0813865D01*
X0500776Y0813426D01*
Y0812952D01*
X0500957Y0812513D01*
X0501293Y0812178D01*
X0501731Y0811996D01*
X0502206D01*
X0502644Y0812178D01*
X0502953Y0812486D01*
X0503261Y0812178D01*
X0503700Y0811996D01*
X0504174D01*
X0504613Y0812178D01*
X0504921Y0812486D01*
X0505230Y0812178D01*
X0505668Y0811996D01*
X0506143D01*
X0506581Y0812178D01*
X0506917Y0812513D01*
X0507098Y0812952D01*
Y0813426D01*
X0506917Y0813865D01*
X0506581Y0814200D01*
X0506143Y0814382D01*
D02*
G37*
G36*
X0508111Y0810445D02*
X0507637D01*
X0507198Y0810263D01*
X0506863Y0809928D01*
X0506681Y0809489D01*
Y0809015D01*
X0506863Y0808576D01*
X0507198Y0808241D01*
X0507637Y0808059D01*
X0508111D01*
X0508550Y0808241D01*
X0508885Y0808576D01*
X0509067Y0809015D01*
Y0809489D01*
X0508885Y0809928D01*
X0508550Y0810263D01*
X0508111Y0810445D01*
D02*
G37*
G36*
X0506143Y0806508D02*
X0505668D01*
X0505230Y0806326D01*
X0504894Y0805991D01*
X0504713Y0805552D01*
Y0805078D01*
X0504894Y0804639D01*
X0505230Y0804304D01*
X0505668Y0804122D01*
X0506143D01*
X0506581Y0804304D01*
X0506917Y0804639D01*
X0507098Y0805078D01*
Y0805552D01*
X0506917Y0805991D01*
X0506581Y0806326D01*
X0506143Y0806508D01*
D02*
G37*
G36*
X0484489Y0798634D02*
X0484015D01*
X0483576Y0798452D01*
X0483241Y0798117D01*
X0483059Y0797678D01*
Y0797204D01*
X0483241Y0796765D01*
X0483549Y0796457D01*
X0483241Y0796148D01*
X0483059Y0795710D01*
Y0795235D01*
X0483241Y0794797D01*
X0483576Y0794461D01*
X0484015Y0794279D01*
X0484489D01*
X0484928Y0794461D01*
X0485263Y0794797D01*
X0485445Y0795235D01*
Y0795710D01*
X0485263Y0796148D01*
X0484955Y0796457D01*
X0485263Y0796765D01*
X0485445Y0797204D01*
Y0797678D01*
X0485263Y0798117D01*
X0484928Y0798452D01*
X0484489Y0798634D01*
D02*
G37*
G36*
Y0788791D02*
X0484015D01*
X0483576Y0788610D01*
X0483241Y0788274D01*
X0483059Y0787836D01*
Y0787361D01*
X0483241Y0786923D01*
X0483576Y0786587D01*
X0484015Y0786406D01*
X0484489D01*
X0484928Y0786587D01*
X0485263Y0786923D01*
X0485445Y0787361D01*
Y0787836D01*
X0485263Y0788274D01*
X0484928Y0788610D01*
X0484489Y0788791D01*
D02*
G37*
G36*
X0506143Y0786823D02*
X0505668D01*
X0505230Y0786641D01*
X0504894Y0786306D01*
X0504713Y0785867D01*
Y0785393D01*
X0504894Y0784954D01*
X0505230Y0784619D01*
X0505668Y0784437D01*
X0506143D01*
X0506581Y0784619D01*
X0506917Y0784954D01*
X0507098Y0785393D01*
Y0785867D01*
X0506917Y0786306D01*
X0506581Y0786641D01*
X0506143Y0786823D01*
D02*
G37*
G36*
X0513654Y0785701D02*
X0513180D01*
X0512741Y0785519D01*
X0512406Y0785183D01*
X0512224Y0784745D01*
Y0784270D01*
X0512406Y0783832D01*
X0512741Y0783497D01*
X0513180Y0783315D01*
X0513654D01*
X0514093Y0783497D01*
X0514429Y0783832D01*
X0514610Y0784270D01*
Y0784745D01*
X0514429Y0785183D01*
X0514093Y0785519D01*
X0513654Y0785701D01*
D02*
G37*
G36*
X0508111Y0780917D02*
X0507637D01*
X0507198Y0780736D01*
X0506863Y0780400D01*
X0506681Y0779962D01*
Y0779487D01*
X0506863Y0779049D01*
X0507198Y0778713D01*
X0507637Y0778532D01*
X0508111D01*
X0508550Y0778713D01*
X0508885Y0779049D01*
X0509067Y0779487D01*
Y0779962D01*
X0508885Y0780400D01*
X0508550Y0780736D01*
X0508111Y0780917D01*
D02*
G37*
G36*
X0512654Y0775501D02*
X0512180D01*
X0511741Y0775319D01*
X0511406Y0774984D01*
X0511224Y0774545D01*
Y0774474D01*
X0511113Y0774368D01*
X0510724Y0774187D01*
X0510200Y0774404D01*
X0509485D01*
X0508823Y0774130D01*
X0508317Y0773624D01*
X0508043Y0772963D01*
Y0772247D01*
X0508317Y0771586D01*
X0508823Y0771079D01*
X0509485Y0770805D01*
X0510200D01*
X0510862Y0771079D01*
X0511368Y0771586D01*
X0511642Y0772247D01*
Y0772797D01*
X0511981Y0773098D01*
X0512104Y0773146D01*
X0512180Y0773115D01*
X0512654D01*
X0513093Y0773296D01*
X0513428Y0773632D01*
X0513610Y0774071D01*
Y0774545D01*
X0513428Y0774984D01*
X0513093Y0775319D01*
X0512654Y0775501D01*
D02*
G37*
G36*
X0502585Y0771604D02*
X0501869D01*
X0501207Y0771330D01*
X0500701Y0770824D01*
X0500427Y0770162D01*
Y0769447D01*
X0500701Y0768785D01*
X0501207Y0768279D01*
X0501869Y0768005D01*
X0502585D01*
X0503246Y0768279D01*
X0503752Y0768785D01*
X0504026Y0769447D01*
Y0770162D01*
X0503752Y0770824D01*
X0503246Y0771330D01*
X0502585Y0771604D01*
D02*
G37*
G36*
X0459598Y0833913D02*
X0459124D01*
X0458685Y0833732D01*
X0458350Y0833396D01*
X0458168Y0832958D01*
Y0832483D01*
X0458350Y0832045D01*
X0458685Y0831709D01*
X0459124Y0831527D01*
X0459598D01*
X0460037Y0831709D01*
X0460373Y0832045D01*
X0460554Y0832483D01*
Y0832958D01*
X0460373Y0833396D01*
X0460037Y0833732D01*
X0459598Y0833913D01*
D02*
G37*
G36*
X0456199Y0833213D02*
X0455724D01*
X0455286Y0833032D01*
X0454950Y0832696D01*
X0454768Y0832258D01*
Y0831783D01*
X0454950Y0831345D01*
X0455286Y0831009D01*
X0455724Y0830827D01*
X0456199D01*
X0456637Y0831009D01*
X0456973Y0831345D01*
X0457154Y0831783D01*
Y0832258D01*
X0456973Y0832696D01*
X0456637Y0833032D01*
X0456199Y0833213D01*
D02*
G37*
G36*
X0420830Y0832180D02*
X0420114D01*
X0419453Y0831906D01*
X0418947Y0831400D01*
X0418673Y0830739D01*
Y0830023D01*
X0418947Y0829361D01*
X0419453Y0828855D01*
X0420114Y0828581D01*
X0420830D01*
X0421491Y0828855D01*
X0421998Y0829361D01*
X0422271Y0830023D01*
Y0830739D01*
X0421998Y0831400D01*
X0421491Y0831906D01*
X0420830Y0832180D01*
D02*
G37*
G36*
X0404675Y0833907D02*
X0403959D01*
X0403298Y0833633D01*
X0402792Y0833127D01*
X0402518Y0832466D01*
Y0831750D01*
X0402792Y0831089D01*
X0403298Y0830583D01*
X0403671Y0830428D01*
X0403199Y0829956D01*
X0402925Y0829295D01*
Y0828579D01*
X0403137Y0828067D01*
X0402713Y0827784D01*
X0402594Y0827903D01*
X0401932Y0828177D01*
X0401217D01*
X0400556Y0827903D01*
X0400049Y0827397D01*
X0399775Y0826736D01*
Y0826020D01*
X0400049Y0825359D01*
X0400556Y0824853D01*
X0401217Y0824579D01*
X0401932D01*
X0402594Y0824853D01*
X0402734Y0824993D01*
X0403158Y0824710D01*
X0403046Y0824439D01*
Y0823723D01*
X0403320Y0823062D01*
X0403826Y0822556D01*
X0404487Y0822282D01*
X0405203D01*
X0405864Y0822556D01*
X0406370Y0823062D01*
X0406390Y0823063D01*
X0406904Y0823043D01*
X0407153Y0822794D01*
X0407178Y0822510D01*
X0407153Y0822226D01*
X0406863Y0821935D01*
X0406681Y0821497D01*
Y0821023D01*
X0406863Y0820584D01*
X0406684Y0820055D01*
X0406349Y0819720D01*
X0406075Y0819059D01*
Y0818343D01*
X0406349Y0817682D01*
X0406855Y0817175D01*
X0407516Y0816901D01*
X0408232D01*
X0408893Y0817175D01*
X0409122Y0817404D01*
X0409449Y0817645D01*
X0409775Y0817404D01*
X0410004Y0817175D01*
X0410666Y0816901D01*
X0411381D01*
X0412043Y0817175D01*
X0412549Y0817682D01*
X0412781Y0818242D01*
X0412869Y0818321D01*
X0412934Y0818379D01*
X0413323Y0818506D01*
X0413815Y0818302D01*
X0414531D01*
X0415192Y0818576D01*
X0415698Y0819082D01*
X0415972Y0819743D01*
Y0820459D01*
X0415698Y0821120D01*
X0415192Y0821626D01*
X0414531Y0821900D01*
X0413815D01*
X0413227Y0821657D01*
X0412692Y0821641D01*
X0412589Y0821889D01*
X0412118Y0822360D01*
X0412535Y0822777D01*
X0412809Y0823438D01*
Y0824154D01*
X0412535Y0824815D01*
X0412199Y0825151D01*
X0412549Y0825501D01*
X0412823Y0826162D01*
Y0826878D01*
X0412549Y0827539D01*
X0412338Y0827750D01*
X0412549Y0827961D01*
X0412733Y0828405D01*
X0413052Y0828622D01*
X0413322Y0828621D01*
X0413815Y0828417D01*
X0414531D01*
X0415192Y0828691D01*
X0415698Y0829197D01*
X0415972Y0829859D01*
Y0830574D01*
X0415698Y0831236D01*
X0415192Y0831742D01*
X0414531Y0832016D01*
X0413815D01*
X0413154Y0831742D01*
X0412648Y0831236D01*
X0412464Y0830792D01*
X0412144Y0830575D01*
X0411874Y0830576D01*
X0411381Y0830780D01*
X0410666D01*
X0410004Y0830506D01*
X0409498Y0830000D01*
X0409224Y0829338D01*
Y0828623D01*
X0409470Y0828029D01*
X0409070Y0827737D01*
X0409051Y0827745D01*
X0408893Y0827903D01*
X0408232Y0828177D01*
X0407516D01*
X0406855Y0827903D01*
X0406735Y0827784D01*
X0406311Y0828067D01*
X0406524Y0828579D01*
Y0829295D01*
X0406250Y0829956D01*
X0405743Y0830462D01*
X0405371Y0830617D01*
X0405842Y0831089D01*
X0406116Y0831750D01*
Y0832466D01*
X0405842Y0833127D01*
X0405336Y0833633D01*
X0404675Y0833907D01*
D02*
G37*
G36*
X0430279Y0830780D02*
X0429563D01*
X0428902Y0830506D01*
X0428396Y0830000D01*
X0428122Y0829338D01*
Y0828623D01*
X0428396Y0827961D01*
X0428902Y0827455D01*
X0429563Y0827181D01*
X0430279D01*
X0430940Y0827455D01*
X0431446Y0827961D01*
X0431720Y0828623D01*
Y0829338D01*
X0431446Y0830000D01*
X0430940Y0830506D01*
X0430279Y0830780D01*
D02*
G37*
G36*
X0460898Y0828113D02*
X0460424D01*
X0459985Y0827932D01*
X0459650Y0827596D01*
X0459468Y0827158D01*
Y0826683D01*
X0459650Y0826245D01*
X0459924Y0825970D01*
X0459650Y0825696D01*
X0459468Y0825258D01*
Y0824783D01*
X0459650Y0824345D01*
X0459985Y0824009D01*
X0460424Y0823827D01*
X0460898D01*
X0461337Y0824009D01*
X0461673Y0824345D01*
X0461854Y0824783D01*
Y0825258D01*
X0461673Y0825696D01*
X0461398Y0825970D01*
X0461673Y0826245D01*
X0461854Y0826683D01*
Y0827158D01*
X0461673Y0827596D01*
X0461337Y0827932D01*
X0460898Y0828113D01*
D02*
G37*
G36*
X0433319Y0824896D02*
X0432604D01*
X0431942Y0824622D01*
X0431436Y0824116D01*
X0431162Y0823455D01*
Y0822739D01*
X0431436Y0822078D01*
X0431942Y0821572D01*
X0432604Y0821298D01*
X0433319D01*
X0433981Y0821572D01*
X0434487Y0822078D01*
X0434761Y0822739D01*
Y0823455D01*
X0434487Y0824116D01*
X0433981Y0824622D01*
X0433319Y0824896D01*
D02*
G37*
G36*
X0423980Y0825618D02*
X0423264D01*
X0422603Y0825344D01*
X0422097Y0824838D01*
X0421823Y0824177D01*
Y0823461D01*
X0422097Y0822800D01*
X0422603Y0822293D01*
X0423264Y0822020D01*
X0423980D01*
X0424641Y0822293D01*
X0425147Y0822800D01*
X0425254Y0823058D01*
X0425512Y0823101D01*
X0425810Y0823093D01*
X0426096Y0822808D01*
Y0822271D01*
X0425760Y0821935D01*
X0425579Y0821497D01*
Y0821023D01*
X0425760Y0820584D01*
X0426096Y0820249D01*
X0426534Y0820067D01*
X0427009D01*
X0427447Y0820249D01*
X0427783Y0820584D01*
X0427964Y0821023D01*
Y0821497D01*
X0427783Y0821935D01*
X0427447Y0822271D01*
Y0822808D01*
X0427783Y0823143D01*
X0427964Y0823582D01*
Y0824056D01*
X0427783Y0824494D01*
X0427447Y0824830D01*
X0427009Y0825012D01*
X0426534D01*
X0426096Y0824830D01*
X0425810Y0824544D01*
X0425512Y0824536D01*
X0425254Y0824580D01*
X0425147Y0824838D01*
X0424641Y0825344D01*
X0423980Y0825618D01*
D02*
G37*
G36*
X0468741Y0826193D02*
X0468267D01*
X0467828Y0826011D01*
X0467493Y0825676D01*
X0467311Y0825237D01*
Y0824763D01*
X0467493Y0824324D01*
X0467801Y0824016D01*
X0467493Y0823707D01*
X0467311Y0823269D01*
Y0822794D01*
X0467493Y0822356D01*
X0467801Y0822047D01*
X0467493Y0821739D01*
X0467311Y0821300D01*
Y0820826D01*
X0467493Y0820387D01*
X0467828Y0820052D01*
X0468267Y0819870D01*
X0468741D01*
X0469180Y0820052D01*
X0469515Y0820387D01*
X0469697Y0820826D01*
Y0821300D01*
X0469515Y0821739D01*
X0469207Y0822047D01*
X0469515Y0822356D01*
X0469697Y0822794D01*
Y0823269D01*
X0469515Y0823707D01*
X0469207Y0824016D01*
X0469515Y0824324D01*
X0469697Y0824763D01*
Y0825237D01*
X0469515Y0825676D01*
X0469180Y0826011D01*
X0468741Y0826193D01*
D02*
G37*
G36*
X0464804D02*
X0464330D01*
X0463891Y0826011D01*
X0463556Y0825676D01*
X0463374Y0825237D01*
Y0824763D01*
X0463556Y0824324D01*
X0463864Y0824016D01*
X0463556Y0823707D01*
X0463374Y0823269D01*
Y0822794D01*
X0463556Y0822356D01*
X0463864Y0822047D01*
X0463556Y0821739D01*
X0463374Y0821300D01*
Y0820826D01*
X0463556Y0820387D01*
X0463891Y0820052D01*
X0464330Y0819870D01*
X0464804D01*
X0465243Y0820052D01*
X0465578Y0820387D01*
X0465760Y0820826D01*
Y0821300D01*
X0465578Y0821739D01*
X0465270Y0822047D01*
X0465578Y0822356D01*
X0465760Y0822794D01*
Y0823269D01*
X0465578Y0823707D01*
X0465270Y0824016D01*
X0465578Y0824324D01*
X0465760Y0824763D01*
Y0825237D01*
X0465578Y0825676D01*
X0465243Y0826011D01*
X0464804Y0826193D01*
D02*
G37*
G36*
X0460898Y0822213D02*
X0460424D01*
X0459985Y0822032D01*
X0459650Y0821696D01*
X0459468Y0821258D01*
Y0820783D01*
X0459650Y0820345D01*
X0459985Y0820009D01*
X0460424Y0819827D01*
X0460898D01*
X0461337Y0820009D01*
X0461673Y0820345D01*
X0461854Y0820783D01*
Y0821258D01*
X0461673Y0821696D01*
X0461337Y0822032D01*
X0460898Y0822213D01*
D02*
G37*
G36*
X0401919Y0822620D02*
X0401203D01*
X0400542Y0822346D01*
X0400036Y0821840D01*
X0399762Y0821178D01*
Y0820463D01*
X0400036Y0819801D01*
X0400542Y0819295D01*
X0401203Y0819021D01*
X0401919D01*
X0402580Y0819295D01*
X0403087Y0819801D01*
X0403361Y0820463D01*
Y0821178D01*
X0403087Y0821840D01*
X0402580Y0822346D01*
X0401919Y0822620D01*
D02*
G37*
G36*
X0568584Y0820104D02*
X0567869D01*
X0567207Y0819830D01*
X0566701Y0819324D01*
X0566527Y0818902D01*
X0565985D01*
X0565852Y0819224D01*
X0565346Y0819730D01*
X0564684Y0820004D01*
X0563969D01*
X0563307Y0819730D01*
X0562801Y0819224D01*
X0562527Y0818563D01*
Y0817847D01*
X0562801Y0817185D01*
X0563307Y0816679D01*
X0563969Y0816405D01*
X0564684D01*
X0565346Y0816679D01*
X0565852Y0817185D01*
X0566027Y0817607D01*
X0566568D01*
X0566701Y0817286D01*
X0567207Y0816779D01*
X0567869Y0816505D01*
X0568584D01*
X0569246Y0816779D01*
X0569752Y0817286D01*
X0570026Y0817947D01*
Y0818662D01*
X0569752Y0819324D01*
X0569246Y0819830D01*
X0568584Y0820104D01*
D02*
G37*
G36*
X0420759Y0821779D02*
X0420043D01*
X0419382Y0821506D01*
X0418876Y0820999D01*
X0418602Y0820338D01*
Y0819622D01*
X0418876Y0818961D01*
X0419382Y0818455D01*
X0420043Y0818181D01*
X0420759D01*
X0421420Y0818455D01*
X0421926Y0818961D01*
X0422200Y0819622D01*
Y0820338D01*
X0421926Y0820999D01*
X0421420Y0821506D01*
X0420759Y0821779D01*
D02*
G37*
G36*
X0531256Y0821332D02*
X0530541D01*
X0529879Y0821058D01*
X0529373Y0820552D01*
X0529099Y0819891D01*
Y0819175D01*
X0529373Y0818514D01*
X0529879Y0818007D01*
X0530541Y0817733D01*
X0531256D01*
X0531918Y0818007D01*
X0532424Y0818514D01*
X0532698Y0819175D01*
Y0819891D01*
X0532424Y0820552D01*
X0531918Y0821058D01*
X0531256Y0821332D01*
D02*
G37*
G36*
X0462836Y0818319D02*
X0462361D01*
X0461923Y0818137D01*
X0461587Y0817802D01*
X0461552Y0817717D01*
X0461237Y0818032D01*
X0460799Y0818213D01*
X0460324D01*
X0459886Y0818032D01*
X0459550Y0817696D01*
X0459368Y0817258D01*
Y0816783D01*
X0459550Y0816345D01*
X0459886Y0816009D01*
X0460324Y0815827D01*
X0460799D01*
X0461237Y0816009D01*
X0461573Y0816345D01*
X0461608Y0816430D01*
X0461923Y0816115D01*
X0462361Y0815933D01*
X0462836D01*
X0463274Y0816115D01*
X0463610Y0816450D01*
X0463791Y0816889D01*
Y0817363D01*
X0463610Y0817802D01*
X0463274Y0818137D01*
X0462836Y0818319D01*
D02*
G37*
G36*
X0466773D02*
X0466298D01*
X0465860Y0818137D01*
X0465524Y0817802D01*
X0465343Y0817363D01*
Y0816889D01*
X0465524Y0816450D01*
X0465860Y0816115D01*
X0466298Y0815933D01*
X0466773D01*
X0467211Y0816115D01*
X0467547Y0816450D01*
X0467728Y0816889D01*
Y0817363D01*
X0467547Y0817802D01*
X0467211Y0818137D01*
X0466773Y0818319D01*
D02*
G37*
G36*
X0553085Y0819404D02*
X0552369D01*
X0551707Y0819130D01*
X0551201Y0818624D01*
X0550927Y0817962D01*
Y0817247D01*
X0551201Y0816586D01*
X0551707Y0816079D01*
X0552369Y0815805D01*
X0553085D01*
X0553746Y0816079D01*
X0554252Y0816586D01*
X0554526Y0817247D01*
Y0817962D01*
X0554252Y0818624D01*
X0553746Y0819130D01*
X0553085Y0819404D01*
D02*
G37*
G36*
X0468699Y0814513D02*
X0468224D01*
X0467786Y0814332D01*
X0467709Y0814287D01*
X0467211Y0814200D01*
X0467063Y0814262D01*
X0467063Y0814262D01*
X0466920Y0814321D01*
X0466773Y0814382D01*
X0466298D01*
X0465860Y0814200D01*
X0465524Y0813865D01*
X0465343Y0813426D01*
Y0812952D01*
X0465524Y0812513D01*
X0465860Y0812178D01*
X0466298Y0811996D01*
X0466773D01*
X0467211Y0812178D01*
X0467287Y0812222D01*
X0467786Y0812309D01*
X0467934Y0812247D01*
X0467934Y0812247D01*
X0468076Y0812189D01*
X0468224Y0812127D01*
X0468699D01*
X0469137Y0812309D01*
X0469473Y0812645D01*
X0469654Y0813083D01*
Y0813558D01*
X0469473Y0813996D01*
X0469137Y0814332D01*
X0468699Y0814513D01*
D02*
G37*
G36*
X0449619Y0819520D02*
X0448903D01*
X0448242Y0819246D01*
X0447736Y0818740D01*
X0447462Y0818078D01*
Y0817362D01*
X0447736Y0816701D01*
X0448242Y0816195D01*
X0448903Y0815921D01*
X0449619D01*
X0449984Y0816072D01*
X0450486Y0816168D01*
X0450821Y0815833D01*
X0450561Y0815440D01*
X0450560Y0815439D01*
X0450379Y0815001D01*
Y0814526D01*
X0450560Y0814088D01*
X0450896Y0813752D01*
X0451334Y0813570D01*
X0451809D01*
X0452247Y0813752D01*
X0452583Y0814088D01*
X0452764Y0814526D01*
Y0815001D01*
X0452583Y0815439D01*
X0452247Y0815775D01*
X0452507Y0816168D01*
X0452508Y0816168D01*
X0452690Y0816607D01*
Y0817082D01*
X0452508Y0817520D01*
X0452173Y0817855D01*
X0451734Y0818037D01*
X0451260D01*
X0451060Y0817955D01*
Y0818078D01*
X0450787Y0818740D01*
X0450280Y0819246D01*
X0449619Y0819520D01*
D02*
G37*
G36*
X0436851Y0821800D02*
X0436135D01*
X0435474Y0821526D01*
X0434968Y0821020D01*
X0434694Y0820359D01*
Y0819643D01*
X0434968Y0818982D01*
X0435399Y0818551D01*
X0435148Y0818300D01*
X0434874Y0817638D01*
Y0816923D01*
X0435148Y0816261D01*
X0435513Y0815896D01*
X0435136Y0815519D01*
X0434862Y0814858D01*
Y0814142D01*
X0435136Y0813481D01*
X0435642Y0812975D01*
X0436303Y0812701D01*
X0437019D01*
X0437680Y0812975D01*
X0438187Y0813481D01*
X0438460Y0814142D01*
Y0814858D01*
X0438187Y0815519D01*
X0437821Y0815884D01*
X0438199Y0816261D01*
X0438472Y0816923D01*
Y0817638D01*
X0438199Y0818300D01*
X0437768Y0818731D01*
X0438019Y0818982D01*
X0438293Y0819643D01*
Y0820359D01*
X0438019Y0821020D01*
X0437513Y0821526D01*
X0436851Y0821800D01*
D02*
G37*
G36*
X0460898Y0814413D02*
X0460424D01*
X0459985Y0814232D01*
X0459650Y0813896D01*
X0459468Y0813458D01*
Y0812983D01*
X0459650Y0812545D01*
X0459985Y0812209D01*
X0460424Y0812027D01*
X0460898D01*
X0461337Y0812209D01*
X0461614Y0812486D01*
X0461923Y0812178D01*
X0462361Y0811996D01*
X0462836D01*
X0463274Y0812178D01*
X0463610Y0812513D01*
X0463791Y0812952D01*
Y0813426D01*
X0463610Y0813865D01*
X0463274Y0814200D01*
X0462836Y0814382D01*
X0462361D01*
X0461923Y0814200D01*
X0461646Y0813923D01*
X0461337Y0814232D01*
X0460898Y0814413D01*
D02*
G37*
G36*
X0424370Y0817900D02*
X0423654D01*
X0422993Y0817626D01*
X0422486Y0817120D01*
X0422213Y0816459D01*
Y0815743D01*
X0422486Y0815082D01*
X0422529Y0815040D01*
X0422595Y0814906D01*
X0422089Y0814400D01*
X0421815Y0813739D01*
Y0813023D01*
X0422089Y0812361D01*
X0422434Y0812017D01*
X0422097Y0811679D01*
X0422006Y0811462D01*
X0421491Y0811269D01*
X0420830Y0811543D01*
X0420114D01*
X0419453Y0811269D01*
X0418947Y0810763D01*
X0418673Y0810102D01*
Y0809386D01*
X0418947Y0808725D01*
X0419453Y0808219D01*
X0420114Y0807945D01*
X0420830D01*
X0421321Y0808148D01*
X0421611Y0808133D01*
X0421904Y0807924D01*
X0422095Y0807461D01*
X0422177Y0807380D01*
X0421958Y0806851D01*
Y0806135D01*
X0422232Y0805474D01*
X0422738Y0804968D01*
X0423399Y0804694D01*
X0424115D01*
X0424776Y0804968D01*
X0425282Y0805474D01*
X0425556Y0806135D01*
Y0806851D01*
X0425282Y0807512D01*
X0425201Y0807594D01*
X0425420Y0808123D01*
Y0808838D01*
X0425146Y0809499D01*
X0425076Y0809570D01*
X0425147Y0809641D01*
X0425421Y0810302D01*
Y0811018D01*
X0425147Y0811679D01*
X0424802Y0812024D01*
X0425140Y0812361D01*
X0425414Y0813023D01*
Y0813739D01*
X0425140Y0814400D01*
X0425097Y0814442D01*
X0425031Y0814576D01*
X0425537Y0815082D01*
X0425811Y0815743D01*
Y0816459D01*
X0425537Y0817120D01*
X0425031Y0817626D01*
X0424370Y0817900D01*
D02*
G37*
G36*
X0525284Y0817104D02*
X0524569D01*
X0523907Y0816830D01*
X0523401Y0816324D01*
X0523127Y0815662D01*
Y0814947D01*
X0523401Y0814285D01*
X0523907Y0813779D01*
X0524569Y0813505D01*
X0525284D01*
X0525599Y0813636D01*
X0525788Y0813516D01*
X0526027Y0813272D01*
Y0812647D01*
X0526301Y0811985D01*
X0526807Y0811479D01*
X0527469Y0811205D01*
X0528185D01*
X0528846Y0811479D01*
X0529352Y0811985D01*
X0529626Y0812647D01*
Y0813363D01*
X0529352Y0814024D01*
X0528846Y0814530D01*
X0528185Y0814804D01*
X0527469D01*
X0527154Y0814673D01*
X0526966Y0814794D01*
X0526726Y0815037D01*
Y0815662D01*
X0526452Y0816324D01*
X0525946Y0816830D01*
X0525284Y0817104D01*
D02*
G37*
G36*
X0453919Y0810869D02*
X0453203D01*
X0452542Y0810595D01*
X0452036Y0810089D01*
X0452009Y0810025D01*
X0451599Y0810196D01*
X0451124D01*
X0450686Y0810014D01*
X0450350Y0809678D01*
X0450168Y0809240D01*
Y0808765D01*
X0450350Y0808327D01*
X0450670Y0808007D01*
X0450350Y0807686D01*
X0450168Y0807248D01*
Y0806773D01*
X0450350Y0806335D01*
X0450686Y0805999D01*
X0451019Y0805861D01*
X0450920Y0805361D01*
X0450846D01*
X0450185Y0805087D01*
X0449679Y0804581D01*
X0449405Y0803920D01*
Y0803204D01*
X0449679Y0802542D01*
X0450185Y0802036D01*
X0450846Y0801762D01*
X0451562D01*
X0452223Y0802036D01*
X0452729Y0802542D01*
X0453003Y0803204D01*
Y0803920D01*
X0452729Y0804581D01*
X0452223Y0805087D01*
X0451632Y0805332D01*
X0451609Y0805673D01*
X0451632Y0805832D01*
X0452037Y0805999D01*
X0452373Y0806335D01*
X0452554Y0806773D01*
Y0806999D01*
X0453007Y0807346D01*
X0453016Y0807348D01*
X0453203Y0807271D01*
X0453919D01*
X0454580Y0807545D01*
X0455087Y0808051D01*
X0455361Y0808712D01*
Y0809428D01*
X0455087Y0810089D01*
X0454580Y0810595D01*
X0453919Y0810869D01*
D02*
G37*
G36*
X0466773Y0810445D02*
X0466298D01*
X0465860Y0810263D01*
X0465551Y0809955D01*
X0465243Y0810263D01*
X0464804Y0810445D01*
X0464330D01*
X0463891Y0810263D01*
X0463583Y0809955D01*
X0463274Y0810263D01*
X0462836Y0810445D01*
X0462361D01*
X0461923Y0810263D01*
X0461614Y0809955D01*
X0461337Y0810232D01*
X0460898Y0810413D01*
X0460424D01*
X0459985Y0810232D01*
X0459650Y0809896D01*
X0459468Y0809458D01*
Y0808983D01*
X0459650Y0808545D01*
X0459985Y0808209D01*
X0460424Y0808027D01*
X0460898D01*
X0461337Y0808209D01*
X0461646Y0808518D01*
X0461923Y0808241D01*
X0462361Y0808059D01*
X0462836D01*
X0463274Y0808241D01*
X0463583Y0808549D01*
X0463891Y0808241D01*
X0464330Y0808059D01*
X0464804D01*
X0465243Y0808241D01*
X0465551Y0808549D01*
X0465860Y0808241D01*
X0466298Y0808059D01*
X0466773D01*
X0467211Y0808241D01*
X0467520Y0808549D01*
X0467828Y0808241D01*
X0468267Y0808059D01*
X0468741D01*
X0469180Y0808241D01*
X0469515Y0808576D01*
X0469697Y0809015D01*
Y0809489D01*
X0469515Y0809928D01*
X0469180Y0810263D01*
X0468741Y0810445D01*
X0468267D01*
X0467828Y0810263D01*
X0467520Y0809955D01*
X0467211Y0810263D01*
X0466773Y0810445D01*
D02*
G37*
G36*
X0398119Y0811620D02*
X0397403D01*
X0396742Y0811346D01*
X0396236Y0810839D01*
X0395962Y0810178D01*
Y0809463D01*
X0396236Y0808801D01*
X0396742Y0808295D01*
X0397403Y0808021D01*
X0398119D01*
X0398780Y0808295D01*
X0399287Y0808801D01*
X0399560Y0809463D01*
Y0810178D01*
X0399287Y0810839D01*
X0398780Y0811346D01*
X0398119Y0811620D01*
D02*
G37*
G36*
X0430275Y0815259D02*
X0429559D01*
X0428898Y0814985D01*
X0428392Y0814479D01*
X0428118Y0813818D01*
Y0813102D01*
X0428392Y0812441D01*
X0428599Y0812234D01*
X0428392Y0812027D01*
X0428118Y0811366D01*
Y0810650D01*
X0428392Y0809989D01*
X0428416Y0809964D01*
X0428296Y0809844D01*
X0428022Y0809183D01*
Y0808467D01*
X0428296Y0807806D01*
X0428802Y0807300D01*
X0429463Y0807026D01*
X0430179D01*
X0430840Y0807300D01*
X0431024Y0807484D01*
X0431545Y0807532D01*
X0432052Y0807026D01*
X0432713Y0806752D01*
X0433429D01*
X0434090Y0807026D01*
X0434596Y0807532D01*
X0434848Y0808142D01*
X0435084Y0808251D01*
X0435370Y0808327D01*
X0435542Y0808155D01*
X0436203Y0807881D01*
X0436919D01*
X0437580Y0808155D01*
X0438087Y0808661D01*
X0438361Y0809323D01*
Y0810038D01*
X0438087Y0810700D01*
X0437580Y0811206D01*
X0436919Y0811480D01*
X0436203D01*
X0435542Y0811206D01*
X0435425Y0811089D01*
X0434925Y0811296D01*
Y0811437D01*
X0434652Y0812098D01*
X0434145Y0812604D01*
X0433484Y0812878D01*
X0432768D01*
X0432107Y0812604D01*
X0432012Y0812509D01*
X0431588Y0812792D01*
X0431716Y0813102D01*
Y0813818D01*
X0431442Y0814479D01*
X0430936Y0814985D01*
X0430275Y0815259D01*
D02*
G37*
G36*
X0414410Y0809653D02*
X0413936D01*
X0413497Y0809471D01*
X0413162Y0809136D01*
X0412980Y0808697D01*
Y0808223D01*
X0413162Y0807784D01*
X0413497Y0807449D01*
X0413936Y0807267D01*
X0414410D01*
X0414849Y0807449D01*
X0415184Y0807784D01*
X0415366Y0808223D01*
Y0808697D01*
X0415184Y0809136D01*
X0414849Y0809471D01*
X0414410Y0809653D01*
D02*
G37*
G36*
X0398319Y0819020D02*
X0397603D01*
X0396942Y0818746D01*
X0396436Y0818239D01*
X0396162Y0817578D01*
Y0816862D01*
X0396436Y0816201D01*
X0396614Y0816023D01*
X0396433Y0815843D01*
X0396159Y0815181D01*
Y0814465D01*
X0396433Y0813804D01*
X0396939Y0813298D01*
X0397600Y0813024D01*
X0398316D01*
X0398977Y0813298D01*
X0399275Y0813596D01*
X0399775Y0813389D01*
Y0813225D01*
X0400049Y0812563D01*
X0400556Y0812057D01*
X0401217Y0811783D01*
X0401932D01*
X0402594Y0812057D01*
X0402713Y0812177D01*
X0403137Y0811893D01*
X0402925Y0811381D01*
Y0810666D01*
X0403199Y0810004D01*
X0403459Y0809744D01*
X0403199Y0809484D01*
X0402925Y0808822D01*
Y0808107D01*
X0403199Y0807445D01*
X0403459Y0807185D01*
X0403199Y0806925D01*
X0402925Y0806263D01*
Y0805548D01*
X0403199Y0804886D01*
X0403705Y0804380D01*
X0404366Y0804106D01*
X0405082D01*
X0405743Y0804380D01*
X0406250Y0804886D01*
X0406524Y0805548D01*
Y0806263D01*
X0406250Y0806925D01*
X0406243Y0806931D01*
X0406334Y0807092D01*
X0406930Y0807131D01*
X0407591Y0806857D01*
X0408307D01*
X0408968Y0807131D01*
X0409427Y0807590D01*
X0409716Y0807598D01*
X0409982Y0807556D01*
X0410012Y0807484D01*
X0410348Y0807149D01*
X0410786Y0806967D01*
X0411261D01*
X0411699Y0807149D01*
X0412035Y0807484D01*
X0412216Y0807923D01*
Y0808397D01*
X0412035Y0808836D01*
X0411951Y0808919D01*
X0412043Y0809498D01*
X0412549Y0810004D01*
X0412823Y0810666D01*
Y0811381D01*
X0412549Y0812043D01*
X0412288Y0812303D01*
X0412549Y0812563D01*
X0412823Y0813225D01*
Y0813941D01*
X0412549Y0814602D01*
X0412043Y0815108D01*
X0411381Y0815382D01*
X0410666D01*
X0410004Y0815108D01*
X0409775Y0814879D01*
X0409449Y0814638D01*
X0409122Y0814879D01*
X0408893Y0815108D01*
X0408232Y0815382D01*
X0407516D01*
X0406855Y0815108D01*
X0406349Y0814602D01*
X0405911Y0814818D01*
X0405743Y0814985D01*
X0405082Y0815259D01*
X0404366D01*
X0403705Y0814985D01*
X0403670Y0814950D01*
X0403156Y0815103D01*
X0403119Y0815169D01*
X0403374Y0815784D01*
Y0816500D01*
X0403100Y0817161D01*
X0402594Y0817667D01*
X0401932Y0817941D01*
X0401217D01*
X0400556Y0817667D01*
X0400260Y0817372D01*
X0399761Y0817578D01*
X0399487Y0818239D01*
X0398980Y0818746D01*
X0398319Y0819020D01*
D02*
G37*
G36*
X0460799Y0806513D02*
X0460324D01*
X0459886Y0806332D01*
X0459550Y0805996D01*
X0459368Y0805558D01*
Y0805083D01*
X0459550Y0804645D01*
X0459886Y0804309D01*
X0460324Y0804128D01*
X0460799D01*
X0461237Y0804309D01*
X0461573Y0804645D01*
X0461754Y0805083D01*
Y0805558D01*
X0461573Y0805996D01*
X0461237Y0806332D01*
X0460799Y0806513D01*
D02*
G37*
G36*
X0466773Y0806508D02*
X0466298D01*
X0465860Y0806326D01*
X0465524Y0805991D01*
X0465343Y0805552D01*
Y0805078D01*
X0465524Y0804639D01*
X0465860Y0804304D01*
X0466298Y0804122D01*
X0466773D01*
X0467211Y0804304D01*
X0467547Y0804639D01*
X0467728Y0805078D01*
Y0805552D01*
X0467547Y0805991D01*
X0467211Y0806326D01*
X0466773Y0806508D01*
D02*
G37*
G36*
X0553085Y0809504D02*
X0552369D01*
X0551707Y0809230D01*
X0551201Y0808724D01*
X0550927Y0808062D01*
Y0807347D01*
X0551187Y0806720D01*
X0550803D01*
X0550142Y0806446D01*
X0549636Y0805939D01*
X0549362Y0805278D01*
Y0804562D01*
X0549636Y0803901D01*
X0550142Y0803395D01*
X0550803Y0803121D01*
X0551519D01*
X0552180Y0803395D01*
X0552687Y0803901D01*
X0552960Y0804562D01*
Y0805278D01*
X0552701Y0805905D01*
X0553085D01*
X0553746Y0806179D01*
X0554252Y0806686D01*
X0554526Y0807347D01*
Y0808062D01*
X0554252Y0808724D01*
X0553746Y0809230D01*
X0553085Y0809504D01*
D02*
G37*
G36*
X0454608Y0802006D02*
X0453893D01*
X0453231Y0801732D01*
X0452725Y0801226D01*
X0452500Y0800683D01*
X0452224Y0800959D01*
X0451786Y0801140D01*
X0451311D01*
X0450873Y0800959D01*
X0450537Y0800623D01*
X0450356Y0800185D01*
Y0799710D01*
X0450537Y0799272D01*
X0450618Y0799191D01*
X0450845Y0798892D01*
X0450618Y0798537D01*
X0450565Y0798484D01*
X0450383Y0798045D01*
Y0797571D01*
X0450565Y0797132D01*
X0450901Y0796797D01*
X0451339Y0796615D01*
X0451814D01*
X0452252Y0796797D01*
X0452588Y0797132D01*
X0452769Y0797571D01*
Y0798045D01*
X0452588Y0798484D01*
X0452547Y0798525D01*
X0452604Y0798729D01*
X0453093Y0798819D01*
X0453231Y0798681D01*
X0453893Y0798407D01*
X0454608D01*
X0455270Y0798681D01*
X0455776Y0799187D01*
X0456050Y0799849D01*
Y0800564D01*
X0455776Y0801226D01*
X0455270Y0801732D01*
X0454608Y0802006D01*
D02*
G37*
G36*
X0460898Y0802613D02*
X0460424D01*
X0459985Y0802432D01*
X0459650Y0802096D01*
X0459468Y0801658D01*
Y0801183D01*
X0459650Y0800745D01*
X0459985Y0800409D01*
X0460424Y0800228D01*
X0460898D01*
X0461337Y0800409D01*
X0461609Y0800681D01*
X0461923Y0800367D01*
X0462361Y0800185D01*
X0462836D01*
X0463274Y0800367D01*
X0463583Y0800675D01*
X0463891Y0800367D01*
X0464330Y0800185D01*
X0464804D01*
X0465243Y0800367D01*
X0465551Y0800675D01*
X0465860Y0800367D01*
X0466298Y0800185D01*
X0466773D01*
X0467211Y0800367D01*
X0467493Y0800649D01*
X0467759Y0800384D01*
X0468197Y0800202D01*
X0468672D01*
X0469110Y0800384D01*
X0469446Y0800719D01*
X0469628Y0801158D01*
Y0801632D01*
X0469446Y0802071D01*
X0469110Y0802406D01*
X0468672Y0802588D01*
X0468197D01*
X0467759Y0802406D01*
X0467477Y0802124D01*
X0467211Y0802389D01*
X0466773Y0802571D01*
X0466298D01*
X0465860Y0802389D01*
X0465551Y0802081D01*
X0465243Y0802389D01*
X0464804Y0802571D01*
X0464330D01*
X0463891Y0802389D01*
X0463583Y0802081D01*
X0463274Y0802389D01*
X0462836Y0802571D01*
X0462361D01*
X0461923Y0802389D01*
X0461651Y0802118D01*
X0461337Y0802432D01*
X0460898Y0802613D01*
D02*
G37*
G36*
X0423980Y0802559D02*
X0423264D01*
X0422603Y0802285D01*
X0422097Y0801779D01*
X0421823Y0801118D01*
Y0800402D01*
X0422016Y0799936D01*
X0421592Y0799653D01*
X0421491Y0799754D01*
X0420830Y0800027D01*
X0420114D01*
X0419453Y0799754D01*
X0418947Y0799247D01*
X0418673Y0798586D01*
Y0797870D01*
X0418947Y0797209D01*
X0419207Y0796949D01*
X0418947Y0796688D01*
X0418673Y0796027D01*
Y0795311D01*
X0418947Y0794650D01*
X0419453Y0794144D01*
X0420114Y0793870D01*
X0420830D01*
X0421491Y0794144D01*
X0421561Y0794214D01*
X0421985Y0793930D01*
X0421823Y0793539D01*
Y0792823D01*
X0422097Y0792161D01*
X0422438Y0791820D01*
X0422097Y0791479D01*
X0421823Y0790818D01*
Y0790102D01*
X0422097Y0789441D01*
X0422603Y0788935D01*
X0423264Y0788661D01*
X0423980D01*
X0424641Y0788935D01*
X0425147Y0789441D01*
X0425421Y0790102D01*
Y0790818D01*
X0425147Y0791479D01*
X0424806Y0791820D01*
X0425147Y0792161D01*
X0425421Y0792823D01*
Y0793539D01*
X0425147Y0794200D01*
X0424856Y0794491D01*
X0425010Y0794645D01*
X0425284Y0795306D01*
Y0796022D01*
X0425010Y0796683D01*
X0424973Y0796720D01*
X0425094Y0796841D01*
X0425368Y0797502D01*
Y0798218D01*
X0425094Y0798879D01*
X0424690Y0799284D01*
X0425147Y0799741D01*
X0425421Y0800402D01*
Y0801118D01*
X0425147Y0801779D01*
X0424641Y0802285D01*
X0423980Y0802559D01*
D02*
G37*
G36*
X0405082Y0800027D02*
X0404366D01*
X0403705Y0799754D01*
X0403476Y0799525D01*
X0403149Y0799284D01*
X0402823Y0799525D01*
X0402594Y0799754D01*
X0401932Y0800027D01*
X0401217D01*
X0400556Y0799754D01*
X0400049Y0799247D01*
X0399775Y0798586D01*
Y0797870D01*
X0400049Y0797209D01*
X0400556Y0796703D01*
X0401217Y0796429D01*
X0401932D01*
X0402594Y0796703D01*
X0402713Y0796822D01*
X0403137Y0796539D01*
X0402925Y0796027D01*
Y0795311D01*
X0403199Y0794650D01*
X0403459Y0794390D01*
X0403199Y0794129D01*
X0402925Y0793468D01*
Y0792752D01*
X0403154Y0792200D01*
X0402730Y0791917D01*
X0402594Y0792053D01*
X0401932Y0792327D01*
X0401217D01*
X0400556Y0792053D01*
X0400360Y0791858D01*
X0399861Y0792065D01*
Y0792078D01*
X0399587Y0792739D01*
X0399080Y0793246D01*
X0398419Y0793520D01*
X0397703D01*
X0397042Y0793246D01*
X0396536Y0792739D01*
X0396262Y0792078D01*
Y0791362D01*
X0396536Y0790701D01*
X0397042Y0790195D01*
X0397243Y0790112D01*
Y0789571D01*
X0396942Y0789446D01*
X0396436Y0788940D01*
X0396162Y0788278D01*
Y0787563D01*
X0396436Y0786901D01*
X0396942Y0786395D01*
X0397603Y0786121D01*
X0398319D01*
X0398980Y0786395D01*
X0399402Y0786817D01*
X0399798Y0786797D01*
X0399962Y0786742D01*
X0400079Y0786482D01*
X0400049Y0786452D01*
X0399775Y0785791D01*
Y0785075D01*
X0400049Y0784414D01*
X0400556Y0783908D01*
X0401217Y0783634D01*
X0401932D01*
X0402594Y0783908D01*
X0403100Y0784414D01*
X0403374Y0785075D01*
Y0785791D01*
X0403100Y0786452D01*
X0402840Y0786713D01*
X0403100Y0786973D01*
X0403374Y0787634D01*
Y0788350D01*
X0403100Y0789011D01*
X0402851Y0789260D01*
X0403100Y0789508D01*
X0403374Y0790169D01*
Y0790885D01*
X0403145Y0791438D01*
X0403569Y0791721D01*
X0403705Y0791585D01*
X0404366Y0791311D01*
X0405082D01*
X0405743Y0791585D01*
X0405972Y0791814D01*
X0406299Y0792055D01*
X0406626Y0791814D01*
X0406855Y0791585D01*
X0407516Y0791311D01*
X0408232D01*
X0408893Y0791585D01*
X0409157Y0791849D01*
X0409413Y0792083D01*
X0409810Y0791849D01*
X0410004Y0791655D01*
X0410666Y0791381D01*
X0411381D01*
X0412043Y0791655D01*
X0412549Y0792161D01*
X0412823Y0792823D01*
Y0793539D01*
X0412549Y0794200D01*
X0412324Y0794425D01*
X0412549Y0794650D01*
X0412823Y0795311D01*
Y0796027D01*
X0412549Y0796688D01*
X0412213Y0797024D01*
X0412035Y0797552D01*
X0412216Y0797991D01*
Y0798465D01*
X0412035Y0798904D01*
X0411699Y0799240D01*
X0411261Y0799421D01*
X0410786D01*
X0410348Y0799240D01*
X0410042Y0798934D01*
X0409826Y0798922D01*
X0409492Y0798955D01*
X0409399Y0799179D01*
X0408893Y0799685D01*
X0408232Y0799959D01*
X0407516D01*
X0406855Y0799685D01*
X0406660Y0799490D01*
X0406264Y0799256D01*
X0406006Y0799490D01*
X0405743Y0799754D01*
X0405082Y0800027D01*
D02*
G37*
G36*
X0433429D02*
X0432713D01*
X0432052Y0799754D01*
X0431545Y0799247D01*
X0431119Y0799474D01*
X0430940Y0799652D01*
X0430279Y0799926D01*
X0429563D01*
X0428902Y0799652D01*
X0428396Y0799146D01*
X0428122Y0798485D01*
Y0797769D01*
X0428396Y0797108D01*
X0428606Y0796898D01*
X0428396Y0796688D01*
X0428122Y0796027D01*
Y0795311D01*
X0428396Y0794650D01*
X0428621Y0794425D01*
X0428396Y0794200D01*
X0428122Y0793539D01*
Y0792823D01*
X0428396Y0792161D01*
X0428902Y0791655D01*
X0429563Y0791381D01*
X0430279D01*
X0430940Y0791655D01*
X0431446Y0792161D01*
X0431720Y0792823D01*
Y0793539D01*
X0431558Y0793930D01*
X0431982Y0794214D01*
X0432052Y0794144D01*
X0432713Y0793870D01*
X0433429D01*
X0434090Y0794144D01*
X0434596Y0794650D01*
X0434870Y0795311D01*
Y0796027D01*
X0434612Y0796649D01*
X0434651Y0796792D01*
X0434668Y0796825D01*
X0435220Y0796800D01*
X0435236Y0796761D01*
X0435742Y0796255D01*
X0436403Y0795981D01*
X0437119D01*
X0437780Y0796255D01*
X0438287Y0796761D01*
X0438560Y0797423D01*
Y0798139D01*
X0438287Y0798800D01*
X0437780Y0799306D01*
X0437119Y0799580D01*
X0436403D01*
X0435742Y0799306D01*
X0435297Y0798861D01*
X0434963Y0798857D01*
X0434738Y0798904D01*
X0434596Y0799247D01*
X0434090Y0799754D01*
X0433429Y0800027D01*
D02*
G37*
G36*
X0464804Y0798634D02*
X0464330D01*
X0463891Y0798452D01*
X0463583Y0798144D01*
X0463274Y0798452D01*
X0462836Y0798634D01*
X0462361D01*
X0461923Y0798452D01*
X0461620Y0798149D01*
X0461337Y0798432D01*
X0460898Y0798613D01*
X0460424D01*
X0459985Y0798432D01*
X0459650Y0798096D01*
X0459468Y0797658D01*
Y0797183D01*
X0459650Y0796745D01*
X0459985Y0796409D01*
X0460424Y0796228D01*
X0460898D01*
X0461337Y0796409D01*
X0461640Y0796712D01*
X0461923Y0796430D01*
X0462361Y0796248D01*
X0462836D01*
X0463274Y0796430D01*
X0463583Y0796738D01*
X0463891Y0796430D01*
X0464330Y0796248D01*
X0464804D01*
X0465243Y0796430D01*
X0465578Y0796765D01*
X0465760Y0797204D01*
Y0797678D01*
X0465578Y0798117D01*
X0465243Y0798452D01*
X0464804Y0798634D01*
D02*
G37*
G36*
X0414410Y0799473D02*
X0413936D01*
X0413497Y0799292D01*
X0413162Y0798956D01*
X0412980Y0798518D01*
Y0798043D01*
X0413162Y0797605D01*
X0413497Y0797269D01*
X0413936Y0797088D01*
X0414410D01*
X0414849Y0797269D01*
X0415184Y0797605D01*
X0415366Y0798043D01*
Y0798518D01*
X0415184Y0798956D01*
X0414849Y0799292D01*
X0414410Y0799473D01*
D02*
G37*
G36*
X0468741Y0798634D02*
X0468267D01*
X0467828Y0798452D01*
X0467493Y0798117D01*
X0467311Y0797678D01*
Y0797204D01*
X0467493Y0796765D01*
X0467828Y0796430D01*
X0468267Y0796248D01*
X0468741D01*
X0469180Y0796430D01*
X0469515Y0796765D01*
X0469697Y0797204D01*
Y0797678D01*
X0469515Y0798117D01*
X0469180Y0798452D01*
X0468741Y0798634D01*
D02*
G37*
G36*
X0460898Y0794813D02*
X0460424D01*
X0459985Y0794632D01*
X0459650Y0794296D01*
X0459468Y0793858D01*
Y0793383D01*
X0459650Y0792945D01*
X0459985Y0792609D01*
X0460424Y0792427D01*
X0460898D01*
X0461337Y0792609D01*
X0461923Y0792493D01*
X0462361Y0792311D01*
X0462836D01*
X0463274Y0792493D01*
X0463583Y0792801D01*
X0463891Y0792493D01*
X0464330Y0792311D01*
X0464804D01*
X0465243Y0792493D01*
X0465551Y0792801D01*
X0465860Y0792493D01*
X0466298Y0792311D01*
X0466773D01*
X0467211Y0792493D01*
X0467547Y0792828D01*
X0467728Y0793267D01*
Y0793741D01*
X0467547Y0794180D01*
X0467211Y0794515D01*
X0466773Y0794697D01*
X0466298D01*
X0465860Y0794515D01*
X0465551Y0794207D01*
X0465243Y0794515D01*
X0464804Y0794697D01*
X0464330D01*
X0463891Y0794515D01*
X0463583Y0794207D01*
X0463274Y0794515D01*
X0462836Y0794697D01*
X0462361D01*
X0461923Y0794515D01*
X0461337Y0794632D01*
X0460898Y0794813D01*
D02*
G37*
G36*
X0451698Y0793434D02*
X0451224D01*
X0450785Y0793253D01*
X0450450Y0792917D01*
X0450268Y0792479D01*
Y0792004D01*
X0450425Y0791625D01*
X0450427Y0791569D01*
X0450405Y0791546D01*
X0450306Y0791467D01*
X0450106Y0791414D01*
X0449814Y0791469D01*
X0449736Y0791547D01*
X0449075Y0791821D01*
X0448359D01*
X0447698Y0791547D01*
X0447192Y0791041D01*
X0446918Y0790379D01*
Y0789664D01*
X0447192Y0789002D01*
X0447698Y0788496D01*
X0448359Y0788222D01*
X0449075D01*
X0449736Y0788496D01*
X0450243Y0789002D01*
X0450470Y0789553D01*
X0450785Y0789238D01*
X0451224Y0789056D01*
X0451698D01*
X0452137Y0789238D01*
X0452473Y0789573D01*
X0452654Y0790012D01*
Y0790486D01*
X0452473Y0790925D01*
X0452152Y0791245D01*
X0452473Y0791566D01*
X0452654Y0792004D01*
Y0792479D01*
X0452473Y0792917D01*
X0452137Y0793253D01*
X0451698Y0793434D01*
D02*
G37*
G36*
X0463693Y0790760D02*
X0463218D01*
X0462780Y0790578D01*
X0462444Y0790243D01*
X0462316Y0789934D01*
X0461815Y0789888D01*
X0461799Y0789892D01*
X0461673Y0790196D01*
X0461337Y0790532D01*
X0460898Y0790713D01*
X0460424D01*
X0459985Y0790532D01*
X0459650Y0790196D01*
X0459468Y0789758D01*
Y0789283D01*
X0459650Y0788845D01*
X0459985Y0788509D01*
X0460424Y0788328D01*
X0460898D01*
X0461337Y0788509D01*
X0461673Y0788845D01*
X0461800Y0789153D01*
X0462301Y0789199D01*
X0462318Y0789196D01*
X0462444Y0788891D01*
X0462780Y0788556D01*
X0463218Y0788374D01*
X0463693D01*
X0464131Y0788556D01*
X0464467Y0788891D01*
X0464648Y0789330D01*
Y0789804D01*
X0464467Y0790243D01*
X0464131Y0790578D01*
X0463693Y0790760D01*
D02*
G37*
G36*
X0464804Y0786823D02*
X0464330D01*
X0463891Y0786641D01*
X0463583Y0786333D01*
X0463274Y0786641D01*
X0462836Y0786823D01*
X0462361D01*
X0461923Y0786641D01*
X0461587Y0786306D01*
X0461406Y0785867D01*
X0460906Y0785814D01*
X0460898Y0785817D01*
X0460424D01*
X0459985Y0785635D01*
X0459650Y0785300D01*
X0459468Y0784861D01*
Y0784387D01*
X0459650Y0783948D01*
X0459985Y0783613D01*
X0460424Y0783431D01*
X0460898D01*
X0461337Y0783613D01*
X0461673Y0783948D01*
X0461854Y0784387D01*
X0462354Y0784440D01*
X0462361Y0784437D01*
X0462836D01*
X0463120Y0784555D01*
X0463492Y0784183D01*
X0463374Y0783899D01*
Y0783424D01*
X0463556Y0782986D01*
X0463864Y0782677D01*
X0463556Y0782369D01*
X0463374Y0781930D01*
Y0781456D01*
X0463556Y0781017D01*
X0463891Y0780682D01*
X0464330Y0780500D01*
X0464804D01*
X0465243Y0780682D01*
X0465578Y0781017D01*
X0465760Y0781456D01*
Y0781930D01*
X0465578Y0782369D01*
X0465270Y0782677D01*
X0465578Y0782986D01*
X0465760Y0783424D01*
Y0783899D01*
X0465578Y0784337D01*
X0465270Y0784646D01*
X0465578Y0784954D01*
X0465760Y0785393D01*
Y0785867D01*
X0465578Y0786306D01*
X0465243Y0786641D01*
X0464804Y0786823D01*
D02*
G37*
G36*
X0411381Y0789791D02*
X0410666D01*
X0410004Y0789517D01*
X0409498Y0789011D01*
X0409224Y0788350D01*
Y0787634D01*
X0409498Y0786973D01*
X0409734Y0786737D01*
X0409498Y0786502D01*
X0409381Y0786219D01*
X0409163Y0786170D01*
X0408821Y0786173D01*
X0408550Y0786444D01*
X0408111Y0786626D01*
X0407637D01*
X0407198Y0786444D01*
X0406863Y0786109D01*
X0406681Y0785670D01*
Y0785196D01*
X0406863Y0784757D01*
X0407198Y0784422D01*
Y0783885D01*
X0406863Y0783550D01*
X0406681Y0783111D01*
Y0782637D01*
X0406863Y0782198D01*
X0406684Y0781670D01*
X0406626Y0781611D01*
X0406299Y0781370D01*
X0405972Y0781611D01*
X0405743Y0781840D01*
X0405082Y0782114D01*
X0404366D01*
X0403705Y0781840D01*
X0403199Y0781334D01*
X0402925Y0780673D01*
Y0779957D01*
X0403199Y0779296D01*
X0403459Y0779035D01*
X0403199Y0778775D01*
X0402925Y0778114D01*
Y0777398D01*
X0403199Y0776737D01*
X0403566Y0776370D01*
X0403236Y0776040D01*
X0402962Y0775378D01*
Y0774662D01*
X0403236Y0774001D01*
X0403742Y0773495D01*
X0404403Y0773221D01*
X0405119D01*
X0405780Y0773495D01*
X0406287Y0774001D01*
X0406561Y0774662D01*
Y0775378D01*
X0406287Y0776040D01*
X0405920Y0776407D01*
X0406250Y0776737D01*
X0406524Y0777398D01*
Y0778114D01*
X0406311Y0778626D01*
X0406735Y0778909D01*
X0406855Y0778790D01*
X0407516Y0778516D01*
X0408232D01*
X0408893Y0778790D01*
X0409013Y0778909D01*
X0409436Y0778626D01*
X0409224Y0778114D01*
Y0777398D01*
X0409498Y0776737D01*
X0410004Y0776230D01*
X0410666Y0775957D01*
X0411381D01*
X0412043Y0776230D01*
X0412362Y0776550D01*
X0412862Y0776343D01*
Y0776062D01*
X0413136Y0775401D01*
X0413642Y0774895D01*
X0414303Y0774621D01*
X0415019D01*
X0415680Y0774895D01*
X0416187Y0775401D01*
X0416461Y0776062D01*
Y0776778D01*
X0416187Y0777439D01*
X0415680Y0777946D01*
X0415019Y0778220D01*
X0414303D01*
X0413642Y0777946D01*
X0413323Y0777626D01*
X0412823Y0777833D01*
Y0778114D01*
X0412549Y0778775D01*
X0412429Y0778895D01*
X0412549Y0779015D01*
X0412823Y0779676D01*
Y0780392D01*
X0412549Y0781053D01*
X0412206Y0781396D01*
X0412549Y0781739D01*
X0412823Y0782400D01*
Y0783116D01*
X0412549Y0783777D01*
X0412206Y0784120D01*
X0412549Y0784463D01*
X0412746Y0784941D01*
X0413061Y0785139D01*
X0413323Y0785155D01*
X0413841Y0784940D01*
X0414557D01*
X0415218Y0785215D01*
X0415724Y0785721D01*
X0415998Y0786382D01*
Y0787098D01*
X0415724Y0787759D01*
X0415218Y0788265D01*
X0414557Y0788539D01*
X0413841D01*
X0413323Y0788324D01*
X0413064Y0788338D01*
X0412745Y0788537D01*
X0412549Y0789011D01*
X0412043Y0789517D01*
X0411381Y0789791D01*
D02*
G37*
G36*
X0437220Y0793980D02*
X0436504D01*
X0435843Y0793706D01*
X0435337Y0793200D01*
X0435063Y0792538D01*
Y0791823D01*
X0435337Y0791161D01*
X0435748Y0790750D01*
X0435441Y0790442D01*
X0435167Y0789781D01*
Y0789065D01*
X0435441Y0788404D01*
X0435749Y0788096D01*
X0435659Y0788058D01*
X0435152Y0787552D01*
X0434878Y0786891D01*
Y0786175D01*
X0435152Y0785514D01*
X0435659Y0785008D01*
X0436320Y0784734D01*
X0437036D01*
X0437697Y0785008D01*
X0438203Y0785514D01*
X0438477Y0786175D01*
Y0786891D01*
X0438203Y0787552D01*
X0437895Y0787860D01*
X0437986Y0787898D01*
X0438492Y0788404D01*
X0438766Y0789065D01*
Y0789781D01*
X0438492Y0790442D01*
X0438080Y0790854D01*
X0438387Y0791161D01*
X0438661Y0791823D01*
Y0792538D01*
X0438387Y0793200D01*
X0437881Y0793706D01*
X0437220Y0793980D01*
D02*
G37*
G36*
X0420830Y0788259D02*
X0420114D01*
X0419453Y0787985D01*
X0418947Y0787479D01*
X0418673Y0786818D01*
Y0786102D01*
X0418947Y0785441D01*
X0419453Y0784935D01*
X0420114Y0784661D01*
X0420830D01*
X0421491Y0784935D01*
X0421998Y0785441D01*
X0422271Y0786102D01*
Y0786818D01*
X0421998Y0787479D01*
X0421491Y0787985D01*
X0420830Y0788259D01*
D02*
G37*
G36*
X0450640Y0784403D02*
X0449924D01*
X0449263Y0784129D01*
X0448880Y0783746D01*
X0448801Y0783825D01*
X0448139Y0784099D01*
X0447424D01*
X0446762Y0783825D01*
X0446256Y0783319D01*
X0445982Y0782658D01*
Y0781942D01*
X0446256Y0781281D01*
X0446762Y0780775D01*
X0447424Y0780501D01*
X0448139D01*
X0448801Y0780775D01*
X0449184Y0781158D01*
X0449263Y0781078D01*
X0449924Y0780804D01*
X0450124D01*
X0450132Y0780799D01*
X0450417Y0780304D01*
X0450330Y0780096D01*
Y0779621D01*
X0450512Y0779183D01*
X0450587Y0779107D01*
X0450750Y0778702D01*
X0450586Y0778456D01*
X0450438Y0778308D01*
X0450341Y0778073D01*
X0449775Y0778307D01*
X0449059D01*
X0448398Y0778033D01*
X0447892Y0777527D01*
X0447412Y0777674D01*
X0446819Y0777920D01*
X0446103D01*
X0445442Y0777646D01*
X0444936Y0777140D01*
X0444662Y0776478D01*
Y0775763D01*
X0444936Y0775101D01*
X0445442Y0774595D01*
X0446103Y0774321D01*
X0446819D01*
X0447480Y0774595D01*
X0447987Y0775101D01*
X0448467Y0774954D01*
X0449059Y0774709D01*
X0449775D01*
X0450436Y0774983D01*
X0450943Y0775489D01*
X0451216Y0776150D01*
X0451666Y0776407D01*
X0451716Y0776409D01*
X0452062Y0776053D01*
Y0775663D01*
X0452336Y0775001D01*
X0452842Y0774495D01*
X0453332Y0774292D01*
X0453340Y0774228D01*
X0453238Y0774099D01*
X0452889Y0773820D01*
X0452303D01*
X0451642Y0773546D01*
X0451136Y0773039D01*
X0450862Y0772378D01*
Y0771663D01*
X0451136Y0771001D01*
X0451642Y0770495D01*
X0452303Y0770221D01*
X0453019D01*
X0453227Y0770307D01*
X0453878Y0770040D01*
X0453936Y0769901D01*
X0454442Y0769395D01*
X0454969Y0769177D01*
X0455205Y0768805D01*
X0455356D01*
X0455262Y0768578D01*
Y0767863D01*
X0455536Y0767201D01*
X0456042Y0766695D01*
X0456703Y0766421D01*
X0457419D01*
X0458080Y0766695D01*
X0458587Y0767201D01*
X0458860Y0767863D01*
Y0768578D01*
X0458767Y0768805D01*
X0458760Y0768821D01*
X0459219D01*
X0459880Y0769095D01*
X0460387Y0769601D01*
X0460661Y0770262D01*
Y0770978D01*
X0460387Y0771639D01*
X0459880Y0772146D01*
X0459219Y0772420D01*
X0458503D01*
X0457842Y0772146D01*
X0457754Y0772058D01*
X0457184Y0772163D01*
X0457090Y0772393D01*
X0457098Y0772429D01*
X0457361Y0773063D01*
Y0773778D01*
X0457087Y0774439D01*
X0456580Y0774946D01*
X0455919Y0775220D01*
X0455477D01*
X0455660Y0775663D01*
Y0776378D01*
X0455387Y0777039D01*
X0454880Y0777546D01*
X0454219Y0777820D01*
X0453503D01*
X0453142Y0777670D01*
X0452854Y0777785D01*
X0452604Y0777961D01*
X0452461Y0778308D01*
X0452385Y0778383D01*
X0452222Y0778789D01*
X0452387Y0779035D01*
X0452534Y0779183D01*
X0452716Y0779621D01*
Y0779698D01*
X0453103Y0780079D01*
X0453819D01*
X0454480Y0780352D01*
X0454987Y0780859D01*
X0455261Y0781520D01*
Y0782236D01*
X0454987Y0782897D01*
X0454480Y0783403D01*
X0453819Y0783677D01*
X0453103D01*
X0452442Y0783403D01*
X0452058Y0783019D01*
X0451808Y0783623D01*
X0451301Y0784129D01*
X0450640Y0784403D01*
D02*
G37*
G36*
X0427009Y0786673D02*
X0426534D01*
X0426096Y0786492D01*
X0425760Y0786156D01*
X0425579Y0785718D01*
Y0785243D01*
X0425760Y0784805D01*
X0426096Y0784469D01*
X0426285Y0784391D01*
Y0783850D01*
X0426096Y0783771D01*
X0425844Y0783520D01*
X0425455Y0783527D01*
X0425278Y0783579D01*
X0425142Y0783908D01*
X0424636Y0784414D01*
X0423975Y0784688D01*
X0423259D01*
X0422598Y0784414D01*
X0422092Y0783908D01*
X0421818Y0783247D01*
Y0782531D01*
X0422092Y0781870D01*
X0422598Y0781363D01*
X0423259Y0781090D01*
X0423975D01*
X0424636Y0781363D01*
X0425142Y0781870D01*
X0425225Y0782069D01*
X0425760Y0782084D01*
X0426096Y0781749D01*
X0426534Y0781567D01*
X0427009D01*
X0427447Y0781749D01*
X0427783Y0782084D01*
X0427964Y0782523D01*
Y0782997D01*
X0427783Y0783436D01*
X0427447Y0783771D01*
X0427258Y0783850D01*
Y0784391D01*
X0427447Y0784469D01*
X0427783Y0784805D01*
X0427964Y0785243D01*
Y0785718D01*
X0427783Y0786156D01*
X0427447Y0786492D01*
X0427009Y0786673D01*
D02*
G37*
G36*
X0433433Y0784858D02*
X0432718D01*
X0432057Y0784584D01*
X0431550Y0784078D01*
X0431276Y0783417D01*
Y0782701D01*
X0431550Y0782040D01*
X0432057Y0781533D01*
X0432718Y0781259D01*
X0433433D01*
X0434095Y0781533D01*
X0434601Y0782040D01*
X0434875Y0782701D01*
Y0783417D01*
X0434601Y0784078D01*
X0434095Y0784584D01*
X0433433Y0784858D01*
D02*
G37*
G36*
X0468741Y0786823D02*
X0468267D01*
X0467828Y0786641D01*
X0467493Y0786306D01*
X0467311Y0785867D01*
Y0785393D01*
X0467493Y0784954D01*
X0467801Y0784646D01*
X0467493Y0784337D01*
X0467311Y0783899D01*
Y0783424D01*
X0467493Y0782986D01*
X0467801Y0782677D01*
X0467493Y0782369D01*
X0467311Y0781930D01*
Y0781456D01*
X0467493Y0781017D01*
X0467828Y0780682D01*
X0468267Y0780500D01*
X0468741D01*
X0469180Y0780682D01*
X0469515Y0781017D01*
X0469697Y0781456D01*
Y0781930D01*
X0469515Y0782369D01*
X0469207Y0782677D01*
X0469515Y0782986D01*
X0469697Y0783424D01*
Y0783899D01*
X0469515Y0784337D01*
X0469207Y0784646D01*
X0469515Y0784954D01*
X0469697Y0785393D01*
Y0785867D01*
X0469515Y0786306D01*
X0469180Y0786641D01*
X0468741Y0786823D01*
D02*
G37*
G36*
X0398219Y0783420D02*
X0397503D01*
X0396842Y0783146D01*
X0396336Y0782640D01*
X0396062Y0781978D01*
Y0781262D01*
X0396336Y0780601D01*
X0396842Y0780095D01*
X0397503Y0779821D01*
X0398219D01*
X0398880Y0780095D01*
X0399387Y0780601D01*
X0399660Y0781262D01*
Y0781978D01*
X0399387Y0782640D01*
X0398880Y0783146D01*
X0398219Y0783420D01*
D02*
G37*
G36*
X0460867Y0782886D02*
X0460393D01*
X0459954Y0782704D01*
X0459619Y0782369D01*
X0459437Y0781930D01*
Y0781456D01*
X0459619Y0781017D01*
X0459927Y0780709D01*
X0459619Y0780400D01*
X0459437Y0779962D01*
Y0779487D01*
X0459619Y0779049D01*
X0459954Y0778713D01*
X0460393Y0778532D01*
X0460867D01*
X0461306Y0778713D01*
X0461641Y0779049D01*
X0461823Y0779487D01*
Y0779962D01*
X0461641Y0780400D01*
X0461333Y0780709D01*
X0461641Y0781017D01*
X0461823Y0781456D01*
Y0781930D01*
X0461641Y0782369D01*
X0461306Y0782704D01*
X0460867Y0782886D01*
D02*
G37*
G36*
X0430219Y0779620D02*
X0429503D01*
X0428842Y0779346D01*
X0428336Y0778839D01*
X0428062Y0778178D01*
Y0777462D01*
X0428336Y0776801D01*
X0428842Y0776295D01*
X0429503Y0776021D01*
X0430219D01*
X0430880Y0776295D01*
X0431387Y0776801D01*
X0431661Y0777462D01*
Y0778178D01*
X0431387Y0778839D01*
X0430880Y0779346D01*
X0430219Y0779620D01*
D02*
G37*
G36*
X0420419Y0777820D02*
X0419703D01*
X0419042Y0777546D01*
X0418536Y0777039D01*
X0418262Y0776378D01*
Y0775663D01*
X0418536Y0775001D01*
X0419042Y0774495D01*
X0419703Y0774221D01*
X0420419D01*
X0421080Y0774495D01*
X0421587Y0775001D01*
X0421861Y0775663D01*
Y0776378D01*
X0421587Y0777039D01*
X0421080Y0777546D01*
X0420419Y0777820D01*
D02*
G37*
G36*
X0527975Y0764507D02*
X0527259D01*
X0526598Y0764233D01*
X0526092Y0763727D01*
X0525818Y0763066D01*
Y0762350D01*
X0526092Y0761689D01*
X0526446Y0761334D01*
X0526581Y0761120D01*
X0526462Y0760697D01*
X0526192Y0760427D01*
X0525918Y0759766D01*
Y0759050D01*
X0526192Y0758389D01*
X0526698Y0757882D01*
X0527359Y0757609D01*
X0528075D01*
X0528736Y0757882D01*
X0529243Y0758389D01*
X0529516Y0759050D01*
Y0759766D01*
X0529243Y0760427D01*
X0528888Y0760781D01*
X0528754Y0760995D01*
X0528872Y0761418D01*
X0529143Y0761689D01*
X0529416Y0762350D01*
Y0763066D01*
X0529143Y0763727D01*
X0528636Y0764233D01*
X0527975Y0764507D01*
D02*
G37*
G36*
X0473719Y0759520D02*
X0473003D01*
X0472342Y0759246D01*
X0471836Y0758740D01*
X0471562Y0758078D01*
Y0757363D01*
X0471836Y0756701D01*
X0472342Y0756195D01*
X0473003Y0755921D01*
X0473719D01*
X0474380Y0756195D01*
X0474887Y0756701D01*
X0475161Y0757363D01*
Y0758078D01*
X0474887Y0758740D01*
X0474380Y0759246D01*
X0473719Y0759520D01*
D02*
G37*
G36*
X0553875Y0793207D02*
X0553159D01*
X0552498Y0792933D01*
X0551992Y0792427D01*
X0551718Y0791766D01*
Y0791050D01*
X0551992Y0790389D01*
X0552498Y0789883D01*
X0553159Y0789609D01*
X0553875D01*
X0554536Y0789883D01*
X0555043Y0790389D01*
X0555316Y0791050D01*
Y0791766D01*
X0555043Y0792427D01*
X0554536Y0792933D01*
X0553875Y0793207D01*
D02*
G37*
G36*
X0599375Y0804407D02*
X0598659D01*
X0597998Y0804133D01*
X0597492Y0803627D01*
X0597218Y0802966D01*
Y0802250D01*
X0597492Y0801589D01*
X0597998Y0801083D01*
X0598659Y0800809D01*
X0599375D01*
X0600036Y0801083D01*
X0600542Y0801589D01*
X0600816Y0802250D01*
Y0802966D01*
X0600542Y0803627D01*
X0600036Y0804133D01*
X0599375Y0804407D01*
D02*
G37*
G36*
X0591084Y0796904D02*
X0590369D01*
X0589707Y0796630D01*
X0589201Y0796124D01*
X0588956Y0795531D01*
X0588715Y0795471D01*
X0588435Y0795481D01*
X0588252Y0795924D01*
X0587746Y0796430D01*
X0587084Y0796704D01*
X0586369D01*
X0585707Y0796430D01*
X0585201Y0795924D01*
X0584927Y0795262D01*
Y0794547D01*
X0585201Y0793886D01*
X0585707Y0793379D01*
X0586369Y0793105D01*
X0587084D01*
X0587746Y0793379D01*
X0588252Y0793886D01*
X0588497Y0794478D01*
X0588739Y0794539D01*
X0589018Y0794528D01*
X0589201Y0794086D01*
X0589707Y0793579D01*
X0590369Y0793305D01*
X0591084D01*
X0591746Y0793579D01*
X0592252Y0794086D01*
X0592526Y0794747D01*
Y0795463D01*
X0592252Y0796124D01*
X0591746Y0796630D01*
X0591084Y0796904D01*
D02*
G37*
G36*
X0600385Y0797304D02*
X0599669D01*
X0599007Y0797030D01*
X0598501Y0796524D01*
X0598227Y0795862D01*
Y0795147D01*
X0598501Y0794486D01*
X0599007Y0793979D01*
X0599669Y0793705D01*
X0600385D01*
X0601046Y0793979D01*
X0601552Y0794486D01*
X0601826Y0795147D01*
Y0795862D01*
X0601552Y0796524D01*
X0601046Y0797030D01*
X0600385Y0797304D01*
D02*
G37*
G36*
X0596884Y0794404D02*
X0596169D01*
X0595507Y0794130D01*
X0595001Y0793624D01*
X0594727Y0792963D01*
Y0792247D01*
X0595001Y0791585D01*
X0595132Y0791455D01*
X0595001Y0791324D01*
X0594727Y0790662D01*
Y0789947D01*
X0595001Y0789286D01*
X0595132Y0789155D01*
X0595001Y0789024D01*
X0594727Y0788363D01*
Y0787647D01*
X0595001Y0786985D01*
X0595232Y0786755D01*
X0595101Y0786624D01*
X0594827Y0785962D01*
Y0785247D01*
X0595101Y0784586D01*
X0595607Y0784079D01*
X0596269Y0783805D01*
X0596984D01*
X0597646Y0784079D01*
X0598152Y0784586D01*
X0598426Y0785247D01*
Y0785962D01*
X0598152Y0786624D01*
X0597921Y0786855D01*
X0598052Y0786985D01*
X0598326Y0787647D01*
Y0788363D01*
X0598052Y0789024D01*
X0597921Y0789155D01*
X0598052Y0789286D01*
X0598326Y0789947D01*
Y0790662D01*
X0598052Y0791324D01*
X0597921Y0791455D01*
X0598052Y0791585D01*
X0598326Y0792247D01*
Y0792963D01*
X0598052Y0793624D01*
X0597546Y0794130D01*
X0596884Y0794404D01*
D02*
G37*
G36*
X0563884Y0782704D02*
X0563169D01*
X0562507Y0782430D01*
X0562001Y0781924D01*
X0561727Y0781262D01*
Y0780547D01*
X0562001Y0779885D01*
X0562507Y0779379D01*
X0563169Y0779105D01*
X0563884D01*
X0564546Y0779379D01*
X0565052Y0779885D01*
X0565326Y0780547D01*
Y0781262D01*
X0565052Y0781924D01*
X0564546Y0782430D01*
X0563884Y0782704D01*
D02*
G37*
G36*
X0573284Y0785778D02*
X0572569D01*
X0571907Y0785504D01*
X0571401Y0784998D01*
X0571127Y0784337D01*
Y0783621D01*
X0571401Y0782960D01*
X0571630Y0782730D01*
X0571871Y0782404D01*
X0571630Y0782077D01*
X0571401Y0781848D01*
X0571127Y0781187D01*
Y0780471D01*
X0571401Y0779810D01*
X0571907Y0779304D01*
X0572569Y0779030D01*
X0573284D01*
X0573946Y0779304D01*
X0574452Y0779810D01*
X0574726Y0780471D01*
Y0781187D01*
X0574452Y0781848D01*
X0574223Y0782077D01*
X0573982Y0782404D01*
X0574223Y0782730D01*
X0574452Y0782960D01*
X0574726Y0783621D01*
Y0784337D01*
X0574452Y0784998D01*
X0573946Y0785504D01*
X0573284Y0785778D01*
D02*
G37*
G36*
X0544585Y0782404D02*
X0543869D01*
X0543207Y0782130D01*
X0542701Y0781624D01*
X0542427Y0780963D01*
Y0780247D01*
X0542701Y0779586D01*
X0543207Y0779079D01*
X0543869Y0778805D01*
X0544585D01*
X0545246Y0779079D01*
X0545752Y0779586D01*
X0546026Y0780247D01*
Y0780963D01*
X0545752Y0781624D01*
X0545246Y0782130D01*
X0544585Y0782404D01*
D02*
G37*
G36*
X0548784Y0781804D02*
X0548069D01*
X0547407Y0781530D01*
X0546901Y0781024D01*
X0546627Y0780363D01*
Y0779647D01*
X0546901Y0778986D01*
X0547407Y0778479D01*
X0548069Y0778205D01*
X0548784D01*
X0549446Y0778479D01*
X0549952Y0778986D01*
X0550226Y0779647D01*
Y0780363D01*
X0549952Y0781024D01*
X0549446Y0781530D01*
X0548784Y0781804D01*
D02*
G37*
G36*
X0596685Y0782628D02*
X0595969D01*
X0595307Y0782354D01*
X0594801Y0781848D01*
X0594527Y0781187D01*
Y0780471D01*
X0594801Y0779810D01*
X0595307Y0779304D01*
X0595879Y0779067D01*
X0595882Y0779054D01*
Y0778580D01*
X0595879Y0778567D01*
X0595307Y0778330D01*
X0594801Y0777824D01*
X0594527Y0777163D01*
Y0776447D01*
X0594801Y0775785D01*
X0595307Y0775279D01*
X0595969Y0775005D01*
X0596685D01*
X0597346Y0775279D01*
X0597852Y0775785D01*
X0598126Y0776447D01*
Y0777163D01*
X0597852Y0777824D01*
X0597346Y0778330D01*
X0596774Y0778567D01*
X0596771Y0778580D01*
Y0779054D01*
X0596774Y0779067D01*
X0597346Y0779304D01*
X0597852Y0779810D01*
X0598126Y0780471D01*
Y0781187D01*
X0597852Y0781848D01*
X0597346Y0782354D01*
X0596685Y0782628D01*
D02*
G37*
G36*
X0592325Y0792404D02*
X0591610D01*
X0590948Y0792130D01*
X0590442Y0791624D01*
X0590168Y0790963D01*
Y0790247D01*
X0590442Y0789585D01*
X0590867Y0789161D01*
X0590914Y0788866D01*
X0590867Y0788572D01*
X0590442Y0788147D01*
X0590168Y0787486D01*
Y0786770D01*
X0590442Y0786109D01*
X0590948Y0785603D01*
X0591365Y0785430D01*
Y0784889D01*
X0590948Y0784717D01*
X0590442Y0784210D01*
X0590168Y0783549D01*
Y0782833D01*
X0590442Y0782172D01*
X0590948Y0781666D01*
X0591365Y0781493D01*
Y0780952D01*
X0590948Y0780780D01*
X0590442Y0780273D01*
X0590168Y0779612D01*
Y0778896D01*
X0590442Y0778235D01*
X0590671Y0778006D01*
X0590912Y0777679D01*
X0590671Y0777353D01*
X0590442Y0777124D01*
X0590168Y0776463D01*
Y0775747D01*
X0590442Y0775085D01*
X0590948Y0774579D01*
X0591610Y0774305D01*
X0592325D01*
X0592987Y0774579D01*
X0593493Y0775085D01*
X0593767Y0775747D01*
Y0776463D01*
X0593493Y0777124D01*
X0593264Y0777353D01*
X0593023Y0777679D01*
X0593264Y0778006D01*
X0593493Y0778235D01*
X0593767Y0778896D01*
Y0779612D01*
X0593493Y0780273D01*
X0592987Y0780780D01*
X0592570Y0780952D01*
Y0781493D01*
X0592987Y0781666D01*
X0593493Y0782172D01*
X0593767Y0782833D01*
Y0783549D01*
X0593493Y0784210D01*
X0592987Y0784717D01*
X0592570Y0784889D01*
Y0785430D01*
X0592987Y0785603D01*
X0593493Y0786109D01*
X0593767Y0786770D01*
Y0787486D01*
X0593493Y0788147D01*
X0593068Y0788572D01*
X0593021Y0788866D01*
X0593068Y0789161D01*
X0593493Y0789585D01*
X0593767Y0790247D01*
Y0790963D01*
X0593493Y0791624D01*
X0592987Y0792130D01*
X0592325Y0792404D01*
D02*
G37*
G36*
X0585239Y0792077D02*
X0584523D01*
X0583862Y0791803D01*
X0583356Y0791297D01*
X0583082Y0790636D01*
Y0789920D01*
X0583356Y0789259D01*
X0583585Y0789030D01*
X0583825Y0788703D01*
X0583585Y0788376D01*
X0583356Y0788147D01*
X0583082Y0787486D01*
Y0786770D01*
X0583356Y0786109D01*
X0583862Y0785603D01*
X0584278Y0785430D01*
Y0784889D01*
X0583862Y0784717D01*
X0583356Y0784210D01*
X0583082Y0783549D01*
Y0782833D01*
X0583356Y0782172D01*
X0583862Y0781666D01*
X0584278Y0781493D01*
Y0780952D01*
X0583862Y0780780D01*
X0583356Y0780273D01*
X0583082Y0779612D01*
Y0778896D01*
X0583356Y0778235D01*
X0583585Y0778006D01*
X0583825Y0777679D01*
X0583585Y0777353D01*
X0583356Y0777124D01*
X0583082Y0776463D01*
Y0775747D01*
X0583356Y0775085D01*
X0583862Y0774579D01*
X0584523Y0774305D01*
X0585239D01*
X0585900Y0774579D01*
X0586406Y0775085D01*
X0586680Y0775747D01*
Y0776463D01*
X0586406Y0777124D01*
X0586177Y0777353D01*
X0585937Y0777679D01*
X0586177Y0778006D01*
X0586406Y0778235D01*
X0586680Y0778896D01*
Y0779612D01*
X0586406Y0780273D01*
X0585900Y0780780D01*
X0585483Y0780952D01*
Y0781493D01*
X0585900Y0781666D01*
X0586406Y0782172D01*
X0586680Y0782833D01*
Y0783549D01*
X0586406Y0784210D01*
X0585900Y0784717D01*
X0585483Y0784889D01*
Y0785430D01*
X0585900Y0785603D01*
X0586406Y0786109D01*
X0586680Y0786770D01*
Y0787486D01*
X0586406Y0788147D01*
X0586177Y0788376D01*
X0585937Y0788703D01*
X0586177Y0789030D01*
X0586406Y0789259D01*
X0586680Y0789920D01*
Y0790636D01*
X0586406Y0791297D01*
X0585900Y0791803D01*
X0585239Y0792077D01*
D02*
G37*
G36*
X0573284Y0777904D02*
X0572569D01*
X0571907Y0777630D01*
X0571401Y0777124D01*
X0571127Y0776463D01*
Y0775747D01*
X0571401Y0775085D01*
X0571907Y0774579D01*
X0572569Y0774305D01*
X0573284D01*
X0573946Y0774579D01*
X0574452Y0775085D01*
X0574726Y0775747D01*
Y0776463D01*
X0574452Y0777124D01*
X0573946Y0777630D01*
X0573284Y0777904D01*
D02*
G37*
G36*
X0548884Y0776704D02*
X0548169D01*
X0547507Y0776430D01*
X0547001Y0775924D01*
X0546727Y0775262D01*
Y0774547D01*
X0547001Y0773885D01*
X0547507Y0773379D01*
X0548169Y0773105D01*
X0548884D01*
X0549546Y0773379D01*
X0550052Y0773885D01*
X0550326Y0774547D01*
Y0775262D01*
X0550052Y0775924D01*
X0549546Y0776430D01*
X0548884Y0776704D01*
D02*
G37*
G36*
X0563884Y0777304D02*
X0563169D01*
X0562507Y0777030D01*
X0562001Y0776524D01*
X0561727Y0775863D01*
Y0775147D01*
X0562001Y0774485D01*
X0562507Y0773979D01*
X0563169Y0773705D01*
X0563884D01*
X0564525Y0773971D01*
X0564601Y0773785D01*
X0565107Y0773279D01*
X0565769Y0773005D01*
X0566484D01*
X0567146Y0773279D01*
X0567652Y0773785D01*
X0567926Y0774447D01*
Y0775163D01*
X0567652Y0775824D01*
X0567146Y0776330D01*
X0566484Y0776604D01*
X0565769D01*
X0565129Y0776339D01*
X0565052Y0776524D01*
X0564546Y0777030D01*
X0563884Y0777304D01*
D02*
G37*
G36*
X0596485Y0773704D02*
X0595769D01*
X0595107Y0773430D01*
X0594803Y0773126D01*
X0594580Y0772933D01*
X0594150Y0773126D01*
X0593946Y0773330D01*
X0593285Y0773604D01*
X0592569D01*
X0591907Y0773330D01*
X0591401Y0772824D01*
X0591127Y0772162D01*
Y0771447D01*
X0591401Y0770786D01*
X0591907Y0770279D01*
X0592569Y0770005D01*
X0593285D01*
X0593946Y0770279D01*
X0594250Y0770583D01*
X0594474Y0770776D01*
X0594903Y0770583D01*
X0595107Y0770379D01*
X0595769Y0770105D01*
X0596485D01*
X0597146Y0770379D01*
X0597652Y0770886D01*
X0597926Y0771547D01*
Y0772262D01*
X0597652Y0772924D01*
X0597146Y0773430D01*
X0596485Y0773704D01*
D02*
G37*
G36*
X0588984Y0773504D02*
X0588269D01*
X0587607Y0773230D01*
X0587101Y0772724D01*
X0586997Y0772472D01*
X0586456D01*
X0586352Y0772724D01*
X0585846Y0773230D01*
X0585184Y0773504D01*
X0584469D01*
X0583807Y0773230D01*
X0583503Y0772926D01*
X0583280Y0772733D01*
X0582850Y0772926D01*
X0582646Y0773130D01*
X0581985Y0773404D01*
X0581269D01*
X0580607Y0773130D01*
X0580101Y0772624D01*
X0579947Y0772252D01*
X0579406D01*
X0579252Y0772624D01*
X0578746Y0773130D01*
X0578085Y0773404D01*
X0577369D01*
X0576707Y0773130D01*
X0576453Y0772876D01*
X0576127Y0772671D01*
X0575800Y0772876D01*
X0575546Y0773130D01*
X0574885Y0773404D01*
X0574169D01*
X0573507Y0773130D01*
X0573001Y0772624D01*
X0572727Y0771962D01*
Y0771247D01*
X0573001Y0770585D01*
X0573507Y0770079D01*
X0574169Y0769805D01*
X0574885D01*
X0575546Y0770079D01*
X0575800Y0770333D01*
X0576127Y0770539D01*
X0576453Y0770333D01*
X0576707Y0770079D01*
X0577369Y0769805D01*
X0578085D01*
X0578746Y0770079D01*
X0579252Y0770585D01*
X0579406Y0770958D01*
X0579947D01*
X0580101Y0770585D01*
X0580607Y0770079D01*
X0581269Y0769805D01*
X0581985D01*
X0582646Y0770079D01*
X0582950Y0770384D01*
X0583174Y0770576D01*
X0583603Y0770384D01*
X0583807Y0770179D01*
X0584469Y0769905D01*
X0585184D01*
X0585846Y0770179D01*
X0586352Y0770685D01*
X0586456Y0770937D01*
X0586997D01*
X0587101Y0770685D01*
X0587607Y0770179D01*
X0588269Y0769905D01*
X0588984D01*
X0589646Y0770179D01*
X0590152Y0770685D01*
X0590426Y0771347D01*
Y0772062D01*
X0590152Y0772724D01*
X0589646Y0773230D01*
X0588984Y0773504D01*
D02*
G37*
G36*
X0544384Y0778304D02*
X0543669D01*
X0543007Y0778030D01*
X0542501Y0777524D01*
X0542227Y0776862D01*
Y0776147D01*
X0542501Y0775486D01*
X0543007Y0774979D01*
X0543379Y0774825D01*
Y0774284D01*
X0543007Y0774130D01*
X0542501Y0773624D01*
X0542227Y0772963D01*
Y0772247D01*
X0542501Y0771586D01*
X0543007Y0771079D01*
X0543669Y0770805D01*
X0544384D01*
X0545046Y0771079D01*
X0545552Y0771586D01*
X0545826Y0772247D01*
Y0772963D01*
X0545552Y0773624D01*
X0545046Y0774130D01*
X0544674Y0774284D01*
Y0774825D01*
X0545046Y0774979D01*
X0545552Y0775486D01*
X0545826Y0776147D01*
Y0776862D01*
X0545552Y0777524D01*
X0545046Y0778030D01*
X0544384Y0778304D01*
D02*
G37*
G36*
X0548884Y0772204D02*
X0548169D01*
X0547507Y0771930D01*
X0547001Y0771424D01*
X0546727Y0770762D01*
Y0770047D01*
X0547001Y0769385D01*
X0547507Y0768879D01*
X0548169Y0768605D01*
X0548884D01*
X0549546Y0768879D01*
X0550052Y0769385D01*
X0550326Y0770047D01*
Y0770762D01*
X0550052Y0771424D01*
X0549546Y0771930D01*
X0548884Y0772204D01*
D02*
G37*
G36*
X0566185Y0771904D02*
X0565469D01*
X0564807Y0771630D01*
X0564301Y0771124D01*
X0564027Y0770463D01*
Y0769747D01*
X0564301Y0769086D01*
X0564807Y0768579D01*
X0565469Y0768305D01*
X0566185D01*
X0566846Y0768579D01*
X0567352Y0769086D01*
X0567626Y0769747D01*
Y0770463D01*
X0567352Y0771124D01*
X0566846Y0771630D01*
X0566185Y0771904D01*
D02*
G37*
G36*
X0544384Y0770304D02*
X0543669D01*
X0543007Y0770030D01*
X0542501Y0769524D01*
X0542227Y0768862D01*
Y0768147D01*
X0542501Y0767486D01*
X0543007Y0766979D01*
X0543379Y0766825D01*
Y0766284D01*
X0543007Y0766130D01*
X0542501Y0765624D01*
X0542227Y0764962D01*
Y0764247D01*
X0542501Y0763586D01*
X0543007Y0763079D01*
X0543669Y0762805D01*
X0544384D01*
X0545046Y0763079D01*
X0545552Y0763586D01*
X0545826Y0764247D01*
Y0764962D01*
X0545552Y0765624D01*
X0545046Y0766130D01*
X0544674Y0766284D01*
Y0766825D01*
X0545046Y0766979D01*
X0545552Y0767486D01*
X0545826Y0768147D01*
Y0768862D01*
X0545552Y0769524D01*
X0545046Y0770030D01*
X0544384Y0770304D01*
D02*
G37*
G36*
X0550485Y0766104D02*
X0549769D01*
X0549107Y0765830D01*
X0548601Y0765324D01*
X0548327Y0764663D01*
Y0763947D01*
X0548601Y0763285D01*
X0549107Y0762779D01*
X0549769Y0762505D01*
X0550485D01*
X0551146Y0762779D01*
X0551652Y0763285D01*
X0551926Y0763947D01*
Y0764663D01*
X0551652Y0765324D01*
X0551146Y0765830D01*
X0550485Y0766104D01*
D02*
G37*
G36*
X0551685Y0761704D02*
X0550969D01*
X0550307Y0761430D01*
X0549801Y0760924D01*
X0549527Y0760262D01*
Y0759547D01*
X0549801Y0758885D01*
X0550307Y0758379D01*
X0550730Y0758205D01*
Y0757663D01*
X0550407Y0757530D01*
X0549901Y0757024D01*
X0549627Y0756362D01*
Y0755647D01*
X0549901Y0754986D01*
X0550407Y0754479D01*
X0551069Y0754205D01*
X0551785D01*
X0552446Y0754479D01*
X0552952Y0754986D01*
X0553226Y0755647D01*
Y0756362D01*
X0552952Y0757024D01*
X0552446Y0757530D01*
X0552024Y0757705D01*
Y0758246D01*
X0552346Y0758379D01*
X0552852Y0758885D01*
X0553126Y0759547D01*
Y0760262D01*
X0552852Y0760924D01*
X0552346Y0761430D01*
X0551685Y0761704D01*
D02*
G37*
G36*
X0539275Y0757907D02*
X0538559D01*
X0537898Y0757633D01*
X0537392Y0757127D01*
X0537118Y0756466D01*
Y0755750D01*
X0537392Y0755089D01*
X0537898Y0754583D01*
X0538559Y0754309D01*
X0539275D01*
X0539936Y0754583D01*
X0540070Y0754716D01*
X0540507Y0754279D01*
X0541169Y0754005D01*
X0541885D01*
X0542546Y0754279D01*
X0543052Y0754785D01*
X0543326Y0755447D01*
Y0756163D01*
X0543052Y0756824D01*
X0542546Y0757330D01*
X0541885Y0757604D01*
X0541169D01*
X0540507Y0757330D01*
X0540373Y0757196D01*
X0539936Y0757633D01*
X0539275Y0757907D01*
D02*
G37*
G36*
X0541885Y0753204D02*
X0541169D01*
X0540507Y0752930D01*
X0540001Y0752424D01*
X0539926Y0752243D01*
X0539436Y0752733D01*
X0538775Y0753007D01*
X0538059D01*
X0537398Y0752733D01*
X0536892Y0752227D01*
X0536618Y0751566D01*
Y0750850D01*
X0536892Y0750189D01*
X0537398Y0749683D01*
X0538059Y0749409D01*
X0538775D01*
X0539436Y0749683D01*
X0539943Y0750189D01*
X0540017Y0750369D01*
X0540507Y0749879D01*
X0541169Y0749605D01*
X0541885D01*
X0542546Y0749879D01*
X0543052Y0750386D01*
X0543326Y0751047D01*
Y0751762D01*
X0543052Y0752424D01*
X0542546Y0752930D01*
X0541885Y0753204D01*
D02*
G37*
G36*
X0546984Y0753304D02*
X0546269D01*
X0545607Y0753030D01*
X0545101Y0752524D01*
X0544827Y0751862D01*
Y0751147D01*
X0545101Y0750486D01*
X0545607Y0749979D01*
X0546269Y0749705D01*
X0546984D01*
X0547646Y0749979D01*
X0548152Y0750486D01*
X0548426Y0751147D01*
Y0751862D01*
X0548152Y0752524D01*
X0547646Y0753030D01*
X0546984Y0753304D01*
D02*
G37*
G36*
X0548084Y0749104D02*
X0547369D01*
X0546707Y0748830D01*
X0546201Y0748324D01*
X0545927Y0747662D01*
Y0746947D01*
X0546201Y0746285D01*
X0546707Y0745779D01*
X0547369Y0745505D01*
X0548084D01*
X0548746Y0745779D01*
X0549252Y0746285D01*
X0549526Y0746947D01*
Y0747662D01*
X0549252Y0748324D01*
X0548746Y0748830D01*
X0548084Y0749104D01*
D02*
G37*
G36*
X0464976Y0751236D02*
X0464261D01*
X0463599Y0750962D01*
X0463093Y0750456D01*
X0462819Y0749794D01*
Y0749079D01*
X0463003Y0748635D01*
X0463089Y0748412D01*
X0462766Y0748037D01*
X0462507Y0747930D01*
X0462001Y0747424D01*
X0461727Y0746763D01*
Y0746047D01*
X0462001Y0745386D01*
X0462507Y0744879D01*
X0463169Y0744605D01*
X0463884D01*
X0464546Y0744879D01*
X0465052Y0745386D01*
X0465326Y0746047D01*
Y0746763D01*
X0465142Y0747206D01*
X0465056Y0747429D01*
X0465379Y0747804D01*
X0465638Y0747911D01*
X0466144Y0748417D01*
X0466418Y0749079D01*
Y0749794D01*
X0466144Y0750456D01*
X0465638Y0750962D01*
X0464976Y0751236D01*
D02*
G37*
G36*
X0468885Y0745204D02*
X0468169D01*
X0467507Y0744930D01*
X0467001Y0744424D01*
X0466727Y0743762D01*
Y0743047D01*
X0467001Y0742385D01*
X0467507Y0741879D01*
X0468169Y0741605D01*
X0468885D01*
X0469546Y0741879D01*
X0470052Y0742385D01*
X0470326Y0743047D01*
Y0743762D01*
X0470052Y0744424D01*
X0469546Y0744930D01*
X0468885Y0745204D01*
D02*
G37*
G36*
X0508175Y0745307D02*
X0507459D01*
X0506798Y0745033D01*
X0506292Y0744527D01*
X0506018Y0743866D01*
Y0743150D01*
X0506292Y0742489D01*
X0506798Y0741983D01*
X0507459Y0741709D01*
X0508175D01*
X0508836Y0741983D01*
X0509342Y0742489D01*
X0509616Y0743150D01*
Y0743866D01*
X0509342Y0744527D01*
X0508836Y0745033D01*
X0508175Y0745307D01*
D02*
G37*
%LPD*%
D31*
X0518471Y0729408D02*
Y0729414D01*
X0518695Y0734305D02*
X0519617Y0733382D01*
X0518471Y0729414D02*
X0519617Y0730561D01*
Y0733382D01*
X0560517Y0865508D02*
X0561930Y0864095D01*
Y0860323D02*
Y0864095D01*
X0555120Y0865508D02*
X0560517D01*
X0549717Y0860105D02*
X0555120Y0865508D01*
X0464327Y0860105D02*
X0549717D01*
X0460027Y0855805D02*
X0464327Y0860105D01*
X0562017Y0853564D02*
X0568001Y0859547D01*
X0391827Y0761305D02*
Y0832105D01*
Y0845905D01*
X0393830Y0847908D01*
X0419930D02*
X0423127Y0851105D01*
X0393830Y0847908D02*
X0419930D01*
X0425417Y0870708D02*
X0566717D01*
X0568001Y0869424D01*
X0423127Y0868417D02*
X0425417Y0870708D01*
X0568001Y0859547D02*
Y0869424D01*
X0423127Y0851105D02*
Y0868417D01*
X0488194Y0791531D02*
X0491300D01*
X0495233Y0787598D01*
X0488189Y0791535D02*
X0488194Y0791531D01*
X0394261Y0829320D02*
Y0841439D01*
X0397427Y0844605D01*
X0495233Y0787598D02*
X0500000D01*
X0501964Y0789562D01*
X0568001Y0859547D02*
X0585934D01*
X0588861Y0856620D01*
X0391827Y0761305D02*
X0395627Y0757505D01*
X0441727Y0855805D02*
X0460027D01*
X0439027Y0853105D02*
X0441727Y0855805D01*
X0439027Y0846305D02*
Y0853105D01*
X0437327Y0844605D02*
X0439027Y0846305D01*
X0397427Y0844605D02*
X0437327D01*
X0426427Y0736605D02*
X0428727Y0734305D01*
X0518695D01*
X0426427Y0736605D02*
Y0755505D01*
X0395627Y0757505D02*
X0424427D01*
X0426427Y0755505D01*
X0507807Y0792427D02*
Y0794482D01*
X0506885Y0791505D02*
X0507807Y0792427D01*
X0502949Y0791505D02*
X0506885D01*
X0502895Y0795405D02*
X0506885D01*
X0507807Y0794482D01*
X0502027Y0790582D02*
X0502949Y0791505D01*
X0501927Y0789705D02*
X0502027Y0789805D01*
Y0790582D01*
X0501973Y0796327D02*
Y0797436D01*
Y0796327D02*
X0502895Y0795405D01*
X0501968Y0797441D02*
X0501973Y0797436D01*
X0498032Y0801378D02*
X0498036Y0801373D01*
D59*
X0477117Y0791208D02*
Y0791308D01*
X0476417Y0814457D02*
X0477003Y0815043D01*
X0478232D01*
X0476417Y0792008D02*
Y0814457D01*
Y0792008D02*
X0477117Y0791308D01*
X0478232Y0815043D02*
X0478346Y0815158D01*
X0483345Y0815080D02*
X0488112D01*
X0481217Y0817208D02*
X0483345Y0815080D01*
X0479103Y0817208D02*
X0481217D01*
X0478325Y0815216D02*
Y0816430D01*
X0478317Y0815208D02*
X0478325Y0815216D01*
Y0816430D02*
X0479103Y0817208D01*
X0488112Y0815080D02*
X0488189Y0815158D01*
X0552621Y0789805D02*
X0554049Y0788376D01*
X0572098D02*
X0578727Y0795005D01*
X0554049Y0788376D02*
X0572098D01*
X0538727Y0789805D02*
X0552621D01*
X0497927Y0809195D02*
Y0809305D01*
Y0809195D02*
X0499370Y0807751D01*
X0496063Y0791535D02*
X0499370Y0794842D01*
Y0807751D01*
X0521327Y0729690D02*
X0521912Y0729105D01*
X0585827D01*
X0589627Y0732905D01*
X0521327Y0729690D02*
Y0737105D01*
Y0739505D01*
X0589627Y0732905D02*
Y0747005D01*
X0598527Y0755905D01*
Y0760405D02*
Y0760505D01*
Y0755905D02*
Y0760405D01*
D61*
X0529727Y0796005D02*
X0559614D01*
X0561017Y0797408D01*
X0572910D01*
X0575414Y0794905D01*
X0575527D01*
D71*
X0485709Y0863208D02*
D03*
X0618291Y0860833D02*
D03*
X0616091Y0857433D02*
D03*
X0600591Y0878533D02*
D03*
X0596791Y0876133D02*
D03*
X0518471Y0729408D02*
D03*
X0523512Y0727264D02*
D03*
X0515638D02*
D03*
X0561930Y0860323D02*
D03*
X0558030Y0858323D02*
D03*
X0565730Y0865423D02*
D03*
X0562430Y0853923D02*
D03*
X0429838Y0800848D02*
D03*
X0429849Y0806525D02*
D03*
X0436561Y0806960D02*
D03*
X0436561Y0812401D02*
D03*
X0550217Y0876508D02*
D03*
X0583317Y0877008D02*
D03*
X0577517Y0876608D02*
D03*
X0572317Y0877008D02*
D03*
X0566417D02*
D03*
X0560717Y0876808D02*
D03*
X0555117Y0876708D02*
D03*
X0546117Y0876008D02*
D03*
X0587117Y0873608D02*
D03*
X0580617D02*
D03*
X0574817Y0873808D02*
D03*
X0569317Y0873508D02*
D03*
X0563917Y0873308D02*
D03*
X0558617Y0873508D02*
D03*
X0552517Y0873408D02*
D03*
X0545417Y0873008D02*
D03*
X0542117Y0875208D02*
D03*
X0538017Y0875308D02*
D03*
X0543417Y0877608D02*
D03*
X0540017Y0877508D02*
D03*
X0536217Y0877308D02*
D03*
X0532617D02*
D03*
X0528617Y0877408D02*
D03*
X0514317Y0878008D02*
D03*
X0498617Y0877708D02*
D03*
X0511017Y0876408D02*
D03*
X0507717Y0877808D02*
D03*
X0467717Y0875608D02*
D03*
X0515917Y0737508D02*
D03*
X0469017Y0740608D02*
D03*
X0475717Y0739208D02*
D03*
X0477417Y0730708D02*
D03*
X0482117Y0729708D02*
D03*
X0615617Y0748808D02*
D03*
X0618517Y0742408D02*
D03*
X0603317Y0728108D02*
D03*
X0597417Y0731108D02*
D03*
X0404717Y0727508D02*
D03*
X0410917Y0729708D02*
D03*
X0389117Y0744608D02*
D03*
X0391817Y0749408D02*
D03*
X0405717Y0879108D02*
D03*
X0410917Y0876208D02*
D03*
X0389217Y0860708D02*
D03*
X0391817Y0856108D02*
D03*
X0405117Y0840508D02*
D03*
X0430917Y0850608D02*
D03*
X0429017Y0852908D02*
D03*
X0488189Y0813189D02*
D03*
X0414243Y0822957D02*
D03*
X0572027Y0822705D02*
D03*
X0599217Y0846908D02*
D03*
X0523512Y0880020D02*
D03*
X0515638D02*
D03*
X0507764D02*
D03*
X0503827D02*
D03*
X0484142D02*
D03*
X0468394D02*
D03*
X0472331D02*
D03*
X0488079D02*
D03*
X0476268D02*
D03*
X0480205D02*
D03*
X0602253Y0854823D02*
D03*
X0613670Y0853248D02*
D03*
X0618001Y0849705D02*
D03*
X0607764Y0854035D02*
D03*
X0597528Y0856398D02*
D03*
X0594379Y0861122D02*
D03*
X0593985Y0866634D02*
D03*
X0593591Y0872933D02*
D03*
X0590442Y0877657D02*
D03*
X0617213Y0755610D02*
D03*
X0611308Y0752460D02*
D03*
X0604221Y0752854D02*
D03*
X0598316Y0750886D02*
D03*
X0594772Y0746555D02*
D03*
X0593985Y0740354D02*
D03*
X0593591Y0734350D02*
D03*
X0590835Y0730020D02*
D03*
X0419182Y0728445D02*
D03*
X0414457Y0733563D02*
D03*
X0414064Y0739075D02*
D03*
X0413670Y0745374D02*
D03*
X0410127Y0750886D02*
D03*
X0403827Y0752854D02*
D03*
X0397528D02*
D03*
X0392804Y0754429D02*
D03*
X0389654Y0758366D02*
D03*
X0418788Y0878445D02*
D03*
X0415245Y0874508D02*
D03*
X0414064Y0868996D02*
D03*
Y0863484D02*
D03*
X0412489Y0857972D02*
D03*
X0407371Y0854429D02*
D03*
X0401072Y0854035D02*
D03*
X0395166Y0853642D02*
D03*
X0391229Y0850886D02*
D03*
X0388867Y0846949D02*
D03*
X0511701Y0880020D02*
D03*
X0527449D02*
D03*
X0519575D02*
D03*
X0539260D02*
D03*
X0535323D02*
D03*
X0531387D02*
D03*
X0551072D02*
D03*
X0547134D02*
D03*
X0543197D02*
D03*
X0562883D02*
D03*
X0558946D02*
D03*
X0555009D02*
D03*
X0574693D02*
D03*
X0570756D02*
D03*
X0566819D02*
D03*
X0586505D02*
D03*
X0582568D02*
D03*
X0578631D02*
D03*
X0425087D02*
D03*
X0429024D02*
D03*
X0432961D02*
D03*
X0444772D02*
D03*
X0440835D02*
D03*
X0436898D02*
D03*
X0456583D02*
D03*
X0452646D02*
D03*
X0448709D02*
D03*
X0464457D02*
D03*
X0460520D02*
D03*
X0492016D02*
D03*
X0499890D02*
D03*
X0495953D02*
D03*
X0619969Y0844586D02*
D03*
Y0840650D02*
D03*
Y0836712D02*
D03*
Y0824901D02*
D03*
Y0828839D02*
D03*
Y0832775D02*
D03*
Y0813090D02*
D03*
Y0817027D02*
D03*
Y0820965D02*
D03*
Y0805216D02*
D03*
Y0809153D02*
D03*
Y0777657D02*
D03*
Y0781594D02*
D03*
Y0785531D02*
D03*
Y0765846D02*
D03*
Y0769783D02*
D03*
Y0773720D02*
D03*
X0586505Y0727264D02*
D03*
X0582568D02*
D03*
X0578631D02*
D03*
X0566819D02*
D03*
X0570756D02*
D03*
X0574693D02*
D03*
X0555009D02*
D03*
X0558946D02*
D03*
X0562883D02*
D03*
X0543197D02*
D03*
X0547134D02*
D03*
X0551072D02*
D03*
X0531387D02*
D03*
X0539260D02*
D03*
X0519575D02*
D03*
X0527449D02*
D03*
X0507764D02*
D03*
X0511701D02*
D03*
X0503827D02*
D03*
X0499890D02*
D03*
X0495953D02*
D03*
X0484142D02*
D03*
X0488079D02*
D03*
X0492016D02*
D03*
X0472331D02*
D03*
X0476268D02*
D03*
X0480205D02*
D03*
X0460520D02*
D03*
X0464457D02*
D03*
X0468394D02*
D03*
X0448709D02*
D03*
X0452646D02*
D03*
X0456583D02*
D03*
X0436898D02*
D03*
X0440835D02*
D03*
X0444772D02*
D03*
X0425087D02*
D03*
X0429024D02*
D03*
X0432961D02*
D03*
X0388473Y0834744D02*
D03*
Y0838681D02*
D03*
Y0842618D02*
D03*
Y0822933D02*
D03*
Y0826870D02*
D03*
Y0830807D02*
D03*
Y0811122D02*
D03*
Y0815059D02*
D03*
Y0818996D02*
D03*
Y0799311D02*
D03*
Y0803248D02*
D03*
Y0807185D02*
D03*
Y0787500D02*
D03*
Y0791437D02*
D03*
Y0795374D02*
D03*
Y0775689D02*
D03*
Y0779626D02*
D03*
Y0783563D02*
D03*
Y0771752D02*
D03*
Y0767815D02*
D03*
Y0763878D02*
D03*
X0436761Y0794981D02*
D03*
X0429921Y0790460D02*
D03*
X0436535Y0799760D02*
D03*
X0420472Y0789281D02*
D03*
X0407874Y0805860D02*
D03*
Y0800881D02*
D03*
X0436461Y0822801D02*
D03*
X0414173Y0827657D02*
D03*
Y0817981D02*
D03*
Y0813583D02*
D03*
X0420472Y0827657D02*
D03*
X0404724Y0816181D02*
D03*
X0420401Y0822539D02*
D03*
X0407988Y0828823D02*
D03*
X0429920Y0816181D02*
D03*
X0436629Y0783560D02*
D03*
X0420482Y0793223D02*
D03*
X0414173Y0784019D02*
D03*
X0414173Y0789460D02*
D03*
X0414987Y0793213D02*
D03*
X0420472Y0812060D02*
D03*
X0420401Y0817421D02*
D03*
X0426771Y0828981D02*
D03*
X0420472Y0784154D02*
D03*
X0407874Y0777756D02*
D03*
X0427261Y0777879D02*
D03*
X0476122Y0752805D02*
D03*
X0496261Y0797420D02*
D03*
X0496161Y0805320D02*
D03*
X0496063Y0801378D02*
D03*
Y0809252D02*
D03*
X0488189Y0791535D02*
D03*
X0472441Y0793504D02*
D03*
X0529046Y0789720D02*
D03*
Y0791605D02*
D03*
X0401590Y0824254D02*
D03*
X0394261Y0829120D02*
D03*
X0420472Y0779035D02*
D03*
X0414173D02*
D03*
X0397861Y0784120D02*
D03*
X0404724Y0787992D02*
D03*
X0398061Y0794420D02*
D03*
X0398161Y0799420D02*
D03*
X0397761Y0807320D02*
D03*
Y0812320D02*
D03*
X0488189Y0815158D02*
D03*
X0588861Y0856620D02*
D03*
X0529727Y0796005D02*
D03*
X0588927Y0759905D02*
D03*
X0578927Y0760505D02*
D03*
X0578827Y0762805D02*
D03*
X0391827Y0832105D02*
D03*
X0478346Y0813189D02*
D03*
X0478327Y0768805D02*
D03*
X0496063Y0793541D02*
D03*
X0527527Y0752005D02*
D03*
Y0749605D02*
D03*
X0530427D02*
D03*
Y0752005D02*
D03*
X0521327Y0739505D02*
D03*
X0561727Y0733105D02*
D03*
X0586127Y0736605D02*
D03*
Y0733305D02*
D03*
X0568227Y0808005D02*
D03*
X0566327Y0800005D02*
D03*
X0564427Y0801705D02*
D03*
X0556927Y0733105D02*
D03*
X0544727Y0741205D02*
D03*
X0541727Y0741105D02*
D03*
X0532627Y0740705D02*
D03*
X0527427D02*
D03*
X0521327Y0737105D02*
D03*
X0530127Y0740905D02*
D03*
X0539027Y0741005D02*
D03*
X0574827Y0822705D02*
D03*
X0588427Y0804905D02*
D03*
X0586127Y0805005D02*
D03*
X0588427Y0802405D02*
D03*
X0586127D02*
D03*
X0607627Y0822505D02*
D03*
X0604627D02*
D03*
X0615327Y0798705D02*
D03*
X0617227Y0777805D02*
D03*
Y0780705D02*
D03*
X0603927Y0779805D02*
D03*
Y0781805D02*
D03*
X0572827Y0734705D02*
D03*
X0574727Y0737805D02*
D03*
X0570727Y0737705D02*
D03*
X0574727Y0741405D02*
D03*
X0570727D02*
D03*
X0574727Y0744805D02*
D03*
X0570827Y0744705D02*
D03*
X0616527Y0760005D02*
D03*
X0613327D02*
D03*
X0616527Y0762405D02*
D03*
X0613327Y0762505D02*
D03*
X0593327Y0759905D02*
D03*
X0591027D02*
D03*
X0576627Y0760505D02*
D03*
X0576827Y0762805D02*
D03*
X0598527Y0760405D02*
D03*
X0578727Y0795005D02*
D03*
X0575527Y0794905D02*
D03*
X0480315Y0797441D02*
D03*
X0484252Y0805315D02*
D03*
X0484152Y0801678D02*
D03*
X0480315Y0801378D02*
D03*
Y0805315D02*
D03*
Y0793504D02*
D03*
Y0813189D02*
D03*
X0488189Y0805315D02*
D03*
Y0801378D02*
D03*
Y0797441D02*
D03*
Y0793504D02*
D03*
X0498032Y0809252D02*
D03*
Y0801378D02*
D03*
X0472441Y0813189D02*
D03*
Y0809252D02*
D03*
Y0805315D02*
D03*
Y0801378D02*
D03*
Y0797441D02*
D03*
X0470472Y0813189D02*
D03*
Y0809252D02*
D03*
Y0805315D02*
D03*
Y0801378D02*
D03*
Y0797441D02*
D03*
Y0793504D02*
D03*
X0478346Y0815158D02*
D03*
X0496063Y0791535D02*
D03*
X0480315D02*
D03*
X0472441D02*
D03*
X0501968Y0789567D02*
D03*
Y0797441D02*
D03*
M02*
