G04*
G04 #@! TF.GenerationSoftware,Altium Limited,Altium Designer,22.8.2 (66)*
G04*
G04 Layer_Color=2752767*
%FSAX25Y25*%
%MOIN*%
G70*
G04*
G04 #@! TF.SameCoordinates,F4A2C5FB-41C3-4025-BEE9-57CBDAA8531C*
G04*
G04*
G04 #@! TF.FilePolarity,Positive*
G04*
G01*
G75*
%ADD11C,0.00600*%
%ADD59C,0.01000*%
%ADD92C,0.00200*%
D11*
X0495285Y0711159D02*
X0493285Y0710159D01*
X0491286Y0708160D01*
Y0706160D01*
X0492285Y0705161D01*
X0494285D01*
X0495285Y0706160D01*
Y0707160D01*
X0494285Y0708160D01*
X0491286D01*
X0497284Y0710159D02*
X0498283Y0711159D01*
X0500283D01*
X0501283Y0710159D01*
Y0706160D01*
X0500283Y0705161D01*
X0498283D01*
X0497284Y0706160D01*
Y0710159D01*
X0503282Y0705161D02*
Y0709159D01*
X0504282D01*
X0505281Y0708160D01*
Y0705161D01*
Y0708160D01*
X0506281Y0709159D01*
X0507281Y0708160D01*
Y0705161D01*
X0509280D02*
Y0709159D01*
X0510280D01*
X0511279Y0708160D01*
Y0705161D01*
Y0708160D01*
X0512279Y0709159D01*
X0513279Y0708160D01*
Y0705161D01*
X0369741Y0785252D02*
X0363743D01*
X0366742Y0782253D01*
Y0786251D01*
X0364742Y0788251D02*
X0363743Y0789251D01*
Y0791250D01*
X0364742Y0792249D01*
X0368741D01*
X0369741Y0791250D01*
Y0789251D01*
X0368741Y0788251D01*
X0364742D01*
X0369741Y0794249D02*
X0368741D01*
Y0795249D01*
X0369741D01*
Y0794249D01*
X0364742Y0799247D02*
X0363743Y0800247D01*
Y0802246D01*
X0364742Y0803246D01*
X0368741D01*
X0369741Y0802246D01*
Y0800247D01*
X0368741Y0799247D01*
X0364742D01*
Y0805245D02*
X0363743Y0806245D01*
Y0808244D01*
X0364742Y0809244D01*
X0368741D01*
X0369741Y0808244D01*
Y0806245D01*
X0368741Y0805245D01*
X0364742D01*
X0369741Y0811243D02*
X0365742D01*
Y0812243D01*
X0366742Y0813243D01*
X0369741D01*
X0366742D01*
X0365742Y0814242D01*
X0366742Y0815242D01*
X0369741D01*
Y0817241D02*
X0365742D01*
Y0818241D01*
X0366742Y0819241D01*
X0369741D01*
X0366742D01*
X0365742Y0820240D01*
X0366742Y0821240D01*
X0369741D01*
D59*
X0385717Y0708760D02*
X0391717Y0710760D01*
X0385717Y0708760D02*
X0391717Y0706760D01*
X0616047D02*
X0622047Y0708760D01*
X0616047Y0710760D02*
X0622047Y0708760D01*
X0385717D02*
X0489686D01*
X0514879D02*
X0622047D01*
X0385717Y0707760D02*
Y0724508D01*
X0622047Y0707760D02*
Y0743291D01*
X0364142Y0730606D02*
X0366142Y0724606D01*
X0368142Y0730606D01*
X0366142Y0882087D02*
X0368142Y0876087D01*
X0364142D02*
X0366142Y0882087D01*
Y0724606D02*
Y0780653D01*
Y0822840D02*
Y0882087D01*
X0365142Y0724606D02*
X0385827D01*
X0365142Y0882087D02*
X0381890D01*
D92*
X0606299Y0739554D02*
X0605499Y0741154D01*
X0607099D01*
X0606299Y0739554D01*
Y0865539D02*
X0605499Y0867139D01*
X0607099D01*
X0606299Y0865539D01*
X0401575Y0739554D02*
X0400775Y0741154D01*
X0402375D01*
X0401575Y0739554D01*
Y0865539D02*
X0400775Y0867139D01*
X0402375D01*
X0401575Y0865539D01*
X0484909Y0862408D02*
Y0864008D01*
X0486509D01*
Y0862408D01*
X0484909D01*
X0483452Y0822231D02*
Y0823831D01*
X0485052D01*
Y0822231D01*
X0483452D01*
X0483452Y0824200D02*
Y0825800D01*
X0485052D01*
Y0824200D01*
X0483452D01*
X0484017Y0854908D02*
Y0856508D01*
X0485617D01*
Y0854908D01*
X0484017D01*
X0486317D02*
Y0856508D01*
X0487917D01*
Y0854908D01*
X0486317D01*
X0482277Y0856105D02*
Y0857705D01*
X0483877D01*
Y0856105D01*
X0482277D01*
X0487927D02*
Y0857705D01*
X0489527D01*
Y0856105D01*
X0487927D01*
X0490227D02*
Y0857705D01*
X0491827D01*
Y0856105D01*
X0490227D01*
X0479977D02*
Y0857705D01*
X0481577D01*
Y0856105D01*
X0479977D01*
X0479952Y0842743D02*
Y0844343D01*
X0481553D01*
Y0842743D01*
X0479952D01*
X0486537Y0835927D02*
Y0837527D01*
X0488137D01*
Y0835927D01*
X0486537D01*
X0490077Y0841948D02*
Y0843548D01*
X0491677D01*
Y0841948D01*
X0490077D01*
X0475578Y0824200D02*
Y0825800D01*
X0477178D01*
Y0824200D01*
X0475578D01*
X0478927Y0867205D02*
Y0868805D01*
X0480527D01*
Y0867205D01*
X0478927D01*
X0475578Y0822231D02*
Y0823831D01*
X0477178D01*
Y0822231D01*
X0475578D01*
X0476327Y0842708D02*
Y0844308D01*
X0477927D01*
Y0842708D01*
X0476327D01*
X0487361Y0826220D02*
Y0827820D01*
X0488961D01*
Y0826220D01*
X0487361D01*
X0617491Y0860033D02*
Y0861633D01*
X0619091D01*
Y0860033D01*
X0617491D01*
X0615291Y0856633D02*
Y0858233D01*
X0616891D01*
Y0856633D01*
X0615291D01*
X0599791Y0877733D02*
Y0879333D01*
X0601391D01*
Y0877733D01*
X0599791D01*
X0595991Y0875333D02*
Y0876933D01*
X0597591D01*
Y0875333D01*
X0595991D01*
X0516367Y0730308D02*
Y0731908D01*
X0517967D01*
Y0730308D01*
X0516367D01*
X0517671Y0728608D02*
Y0730208D01*
X0519271D01*
Y0728608D01*
X0517671D01*
X0522712Y0726464D02*
Y0728064D01*
X0524312D01*
Y0726464D01*
X0522712D01*
X0514838Y0728708D02*
Y0730308D01*
X0516438D01*
Y0728708D01*
X0514838D01*
X0514838Y0726464D02*
Y0728064D01*
X0516438D01*
Y0726464D01*
X0514838D01*
X0513217Y0730308D02*
Y0731908D01*
X0514817D01*
Y0730308D01*
X0513217D01*
X0506823Y0751479D02*
Y0753079D01*
X0508423D01*
Y0751479D01*
X0506823D01*
X0508117Y0755408D02*
Y0757008D01*
X0509717D01*
Y0755408D01*
X0508117D01*
X0510392D02*
Y0757008D01*
X0511992D01*
Y0755408D01*
X0510392D01*
X0512667D02*
Y0757008D01*
X0514267D01*
Y0755408D01*
X0512667D01*
X0507017Y0742708D02*
Y0744308D01*
X0508617D01*
Y0742708D01*
X0507017D01*
X0503857Y0739505D02*
Y0741105D01*
X0505457D01*
Y0739505D01*
X0503857D01*
X0517217Y0755408D02*
Y0757008D01*
X0518817D01*
Y0755408D01*
X0517217D01*
X0514942D02*
Y0757008D01*
X0516542D01*
Y0755408D01*
X0514942D01*
X0505105Y0784830D02*
Y0786430D01*
X0506706D01*
Y0784830D01*
X0505105D01*
X0511617Y0773508D02*
Y0775108D01*
X0513217D01*
Y0773508D01*
X0511617D01*
X0512617Y0783708D02*
Y0785308D01*
X0514217D01*
Y0783708D01*
X0512617D01*
X0516453Y0780760D02*
Y0782360D01*
X0518053D01*
Y0780760D01*
X0516453D01*
X0515017Y0777308D02*
Y0778908D01*
X0516617D01*
Y0777308D01*
X0515017D01*
X0505105Y0788767D02*
Y0790367D01*
X0506706D01*
Y0788767D01*
X0505105D01*
X0503137D02*
Y0790367D01*
X0504737D01*
Y0788767D01*
X0503137D01*
X0477465Y0833746D02*
Y0835346D01*
X0479065D01*
Y0833746D01*
X0477465D01*
X0479457D02*
Y0835346D01*
X0481057D01*
Y0833746D01*
X0479457D01*
X0455161Y0831220D02*
Y0832820D01*
X0456761D01*
Y0831220D01*
X0455161D01*
X0458561Y0831920D02*
Y0833520D01*
X0460161D01*
Y0831920D01*
X0458561D01*
X0452161Y0833520D02*
Y0835120D01*
X0453761D01*
Y0833520D01*
X0452161D01*
X0450700Y0830693D02*
Y0832293D01*
X0452300D01*
Y0830693D01*
X0450700D01*
X0453451Y0799407D02*
Y0801007D01*
X0455051D01*
Y0799407D01*
X0453451D01*
X0452661Y0781078D02*
Y0782678D01*
X0454261D01*
Y0781078D01*
X0452661D01*
X0447917Y0789221D02*
Y0790822D01*
X0449517D01*
Y0789221D01*
X0447917D01*
X0498043Y0867900D02*
Y0869500D01*
X0499643D01*
Y0867900D01*
X0498043D01*
X0475592Y0742605D02*
Y0744205D01*
X0477192D01*
Y0742605D01*
X0475592D01*
X0480314D02*
Y0744205D01*
X0481914D01*
Y0742605D01*
X0480314D01*
X0477035Y0740503D02*
Y0742103D01*
X0478635D01*
Y0740503D01*
X0477035D01*
X0489727Y0875005D02*
Y0876605D01*
X0491327D01*
Y0875005D01*
X0489727D01*
X0552217Y0823008D02*
Y0824608D01*
X0553817D01*
Y0823008D01*
X0552217D01*
X0524127Y0814505D02*
Y0816105D01*
X0525727D01*
Y0814505D01*
X0524127D01*
X0527027Y0812205D02*
Y0813805D01*
X0528627D01*
Y0812205D01*
X0527027D01*
X0555230Y0861523D02*
Y0863123D01*
X0556830D01*
Y0861523D01*
X0555230D01*
X0553330Y0857523D02*
Y0859123D01*
X0554930D01*
Y0857523D01*
X0553330D01*
X0561130Y0859523D02*
Y0861123D01*
X0562730D01*
Y0859523D01*
X0561130D01*
X0557230Y0857523D02*
Y0859123D01*
X0558830D01*
Y0857523D01*
X0557230D01*
X0564930Y0864623D02*
Y0866223D01*
X0566530D01*
Y0864623D01*
X0564930D01*
X0572030Y0846523D02*
Y0848123D01*
X0573630D01*
Y0846523D01*
X0572030D01*
X0571930Y0848823D02*
Y0850423D01*
X0573530D01*
Y0848823D01*
X0571930D01*
X0564130Y0852623D02*
Y0854223D01*
X0565730D01*
Y0852623D01*
X0564130D01*
X0561630Y0853123D02*
Y0854723D01*
X0563230D01*
Y0853123D01*
X0561630D01*
X0558830Y0845823D02*
Y0847423D01*
X0560430D01*
Y0845823D01*
X0558830D01*
X0553230Y0839823D02*
Y0841423D01*
X0554830D01*
Y0839823D01*
X0553230D01*
X0561230D02*
Y0841423D01*
X0562830D01*
Y0839823D01*
X0561230D01*
X0559217Y0835108D02*
Y0836708D01*
X0560817D01*
Y0835108D01*
X0559217D01*
X0555217Y0835408D02*
Y0837008D01*
X0556817D01*
Y0835408D01*
X0555217D01*
X0551927Y0816805D02*
Y0818405D01*
X0553527D01*
Y0816805D01*
X0551927D01*
X0429038Y0800047D02*
Y0801647D01*
X0430638D01*
Y0800047D01*
X0429038D01*
X0429121Y0797327D02*
Y0798927D01*
X0430721D01*
Y0797327D01*
X0429121D01*
X0422822Y0799960D02*
Y0801560D01*
X0424422D01*
Y0799960D01*
X0422822D01*
X0422769Y0797060D02*
Y0798660D01*
X0424369D01*
Y0797060D01*
X0422769D01*
X0429049Y0805725D02*
Y0807325D01*
X0430649D01*
Y0805725D01*
X0429049D01*
X0429021Y0808025D02*
Y0809625D01*
X0430621D01*
Y0808025D01*
X0429021D01*
X0429117Y0810208D02*
Y0811808D01*
X0430717D01*
Y0810208D01*
X0429117D01*
X0432271Y0807751D02*
Y0809352D01*
X0433871D01*
Y0807751D01*
X0432271D01*
X0435761Y0808881D02*
Y0810481D01*
X0437361D01*
Y0808881D01*
X0435761D01*
X0435761Y0806160D02*
Y0807760D01*
X0437361D01*
Y0806160D01*
X0435761D01*
X0435761Y0811601D02*
Y0813201D01*
X0437361D01*
Y0811601D01*
X0435761D01*
X0422821Y0807680D02*
Y0809280D01*
X0424421D01*
Y0807680D01*
X0422821D01*
X0422957Y0805693D02*
Y0807293D01*
X0424557D01*
Y0805693D01*
X0422957D01*
X0521394Y0874505D02*
Y0876105D01*
X0522994D01*
Y0874505D01*
X0521394D01*
X0403517Y0831308D02*
Y0832908D01*
X0405117D01*
Y0831308D01*
X0403517D01*
X0549417Y0875708D02*
Y0877308D01*
X0551017D01*
Y0875708D01*
X0549417D01*
X0582517Y0876208D02*
Y0877808D01*
X0584117D01*
Y0876208D01*
X0582517D01*
X0576717Y0875808D02*
Y0877408D01*
X0578317D01*
Y0875808D01*
X0576717D01*
X0571517Y0876208D02*
Y0877808D01*
X0573117D01*
Y0876208D01*
X0571517D01*
X0565617D02*
Y0877808D01*
X0567217D01*
Y0876208D01*
X0565617D01*
X0559917Y0876008D02*
Y0877608D01*
X0561517D01*
Y0876008D01*
X0559917D01*
X0554317Y0875908D02*
Y0877508D01*
X0555917D01*
Y0875908D01*
X0554317D01*
X0545317Y0875208D02*
Y0876808D01*
X0546917D01*
Y0875208D01*
X0545317D01*
X0586317Y0872808D02*
Y0874408D01*
X0587917D01*
Y0872808D01*
X0586317D01*
X0579817D02*
Y0874408D01*
X0581417D01*
Y0872808D01*
X0579817D01*
X0574017Y0873008D02*
Y0874608D01*
X0575617D01*
Y0873008D01*
X0574017D01*
X0568517Y0872708D02*
Y0874308D01*
X0570117D01*
Y0872708D01*
X0568517D01*
X0563117Y0872508D02*
Y0874108D01*
X0564717D01*
Y0872508D01*
X0563117D01*
X0557817Y0872708D02*
Y0874308D01*
X0559417D01*
Y0872708D01*
X0557817D01*
X0551717Y0872608D02*
Y0874208D01*
X0553317D01*
Y0872608D01*
X0551717D01*
X0544617Y0872208D02*
Y0873808D01*
X0546217D01*
Y0872208D01*
X0544617D01*
X0541317Y0874408D02*
Y0876008D01*
X0542917D01*
Y0874408D01*
X0541317D01*
X0537217Y0874508D02*
Y0876108D01*
X0538817D01*
Y0874508D01*
X0537217D01*
X0542617Y0876808D02*
Y0878408D01*
X0544217D01*
Y0876808D01*
X0542617D01*
X0539217Y0876708D02*
Y0878308D01*
X0540817D01*
Y0876708D01*
X0539217D01*
X0535417Y0876508D02*
Y0878108D01*
X0537017D01*
Y0876508D01*
X0535417D01*
X0531817D02*
Y0878108D01*
X0533417D01*
Y0876508D01*
X0531817D01*
X0527817Y0876608D02*
Y0878208D01*
X0529417D01*
Y0876608D01*
X0527817D01*
X0513517Y0877208D02*
Y0878808D01*
X0515117D01*
Y0877208D01*
X0513517D01*
X0497817Y0876908D02*
Y0878508D01*
X0499417D01*
Y0876908D01*
X0497817D01*
X0510217Y0875608D02*
Y0877208D01*
X0511817D01*
Y0875608D01*
X0510217D01*
X0506917Y0877008D02*
Y0878608D01*
X0508517D01*
Y0877008D01*
X0506917D01*
X0466917Y0874808D02*
Y0876408D01*
X0468517D01*
Y0874808D01*
X0466917D01*
X0521617Y0742108D02*
Y0743708D01*
X0523217D01*
Y0742108D01*
X0521617D01*
X0537617Y0750408D02*
Y0752008D01*
X0539217D01*
Y0750408D01*
X0537617D01*
X0515117Y0736708D02*
Y0738308D01*
X0516717D01*
Y0736708D01*
X0515117D01*
X0468217Y0739808D02*
Y0741408D01*
X0469817D01*
Y0739808D01*
X0468217D01*
X0474917Y0738408D02*
Y0740008D01*
X0476517D01*
Y0738408D01*
X0474917D01*
X0476617Y0729908D02*
Y0731508D01*
X0478217D01*
Y0729908D01*
X0476617D01*
X0481317Y0728908D02*
Y0730508D01*
X0482917D01*
Y0728908D01*
X0481317D01*
X0614817Y0748008D02*
Y0749608D01*
X0616417D01*
Y0748008D01*
X0614817D01*
X0617717Y0741608D02*
Y0743208D01*
X0619317D01*
Y0741608D01*
X0617717D01*
X0602517Y0727308D02*
Y0728908D01*
X0604117D01*
Y0727308D01*
X0602517D01*
X0596617Y0730308D02*
Y0731908D01*
X0598217D01*
Y0730308D01*
X0596617D01*
X0403917Y0726708D02*
Y0728308D01*
X0405517D01*
Y0726708D01*
X0403917D01*
X0410117Y0728908D02*
Y0730508D01*
X0411717D01*
Y0728908D01*
X0410117D01*
X0388317Y0743808D02*
Y0745408D01*
X0389917D01*
Y0743808D01*
X0388317D01*
X0391017Y0748608D02*
Y0750208D01*
X0392617D01*
Y0748608D01*
X0391017D01*
X0404917Y0878308D02*
Y0879908D01*
X0406517D01*
Y0878308D01*
X0404917D01*
X0410117Y0875408D02*
Y0877008D01*
X0411717D01*
Y0875408D01*
X0410117D01*
X0388417Y0859908D02*
Y0861508D01*
X0390017D01*
Y0859908D01*
X0388417D01*
X0391017Y0855308D02*
Y0856908D01*
X0392617D01*
Y0855308D01*
X0391017D01*
X0485717Y0842708D02*
Y0844308D01*
X0487317D01*
Y0842708D01*
X0485717D01*
X0404317Y0839708D02*
Y0841308D01*
X0405917D01*
Y0839708D01*
X0404317D01*
X0430117Y0849808D02*
Y0851408D01*
X0431717D01*
Y0849808D01*
X0430117D01*
X0428217Y0852108D02*
Y0853708D01*
X0429817D01*
Y0852108D01*
X0428217D01*
X0512317Y0831408D02*
Y0833008D01*
X0513917D01*
Y0831408D01*
X0512317D01*
X0487389Y0812389D02*
Y0813989D01*
X0488989D01*
Y0812389D01*
X0487389D01*
X0413443Y0822157D02*
Y0823757D01*
X0415043D01*
Y0822157D01*
X0413443D01*
X0410264Y0820070D02*
Y0821670D01*
X0411864D01*
Y0820070D01*
X0410264D01*
X0403924Y0810223D02*
Y0811823D01*
X0405524D01*
Y0810223D01*
X0403924D01*
X0481827Y0739505D02*
Y0741105D01*
X0483427D01*
Y0739505D01*
X0481827D01*
X0610617Y0808008D02*
Y0809608D01*
X0612217D01*
Y0808008D01*
X0610617D01*
X0614617D02*
Y0809608D01*
X0616217D01*
Y0808008D01*
X0614617D01*
X0571227Y0821905D02*
Y0823505D01*
X0572827D01*
Y0821905D01*
X0571227D01*
X0450561Y0808203D02*
Y0809803D01*
X0452161D01*
Y0808203D01*
X0450561D01*
X0450749Y0799148D02*
Y0800747D01*
X0452349D01*
Y0799148D01*
X0450749D01*
X0450561Y0806211D02*
Y0807810D01*
X0452161D01*
Y0806211D01*
X0450561D01*
X0450404Y0802762D02*
Y0804362D01*
X0452004D01*
Y0802762D01*
X0450404D01*
X0471517Y0770708D02*
Y0772308D01*
X0473117D01*
Y0770708D01*
X0471517D01*
Y0768308D02*
Y0769908D01*
X0473117D01*
Y0768308D01*
X0471517D01*
X0471630Y0786786D02*
Y0788386D01*
X0473230D01*
Y0786786D01*
X0471630D01*
X0448617Y0775708D02*
Y0777308D01*
X0450217D01*
Y0775708D01*
X0448617D01*
X0452761Y0808270D02*
Y0809870D01*
X0454361D01*
Y0808270D01*
X0452761D01*
X0449482Y0781804D02*
Y0783404D01*
X0451082D01*
Y0781804D01*
X0449482D01*
X0450723Y0779059D02*
Y0780658D01*
X0452323D01*
Y0779059D01*
X0450723D01*
X0425972Y0784681D02*
Y0786281D01*
X0427571D01*
Y0784681D01*
X0425972D01*
Y0781960D02*
Y0783560D01*
X0427571D01*
Y0781960D01*
X0425972D01*
X0568917Y0794408D02*
Y0796008D01*
X0570517D01*
Y0794408D01*
X0568917D01*
X0562227Y0785005D02*
Y0786605D01*
X0563827D01*
Y0785005D01*
X0562227D01*
X0561017Y0793608D02*
Y0795208D01*
X0562617D01*
Y0793608D01*
X0561017D01*
X0564708Y0789269D02*
Y0790869D01*
X0566307D01*
Y0789269D01*
X0564708D01*
X0552717Y0790608D02*
Y0792208D01*
X0554317D01*
Y0790608D01*
X0552717D01*
X0526817Y0761908D02*
Y0763508D01*
X0528417D01*
Y0761908D01*
X0526817D01*
X0526917Y0758608D02*
Y0760208D01*
X0528517D01*
Y0758608D01*
X0526917D01*
X0598417Y0846108D02*
Y0847708D01*
X0600017D01*
Y0846108D01*
X0598417D01*
X0598217Y0801808D02*
Y0803408D01*
X0599817D01*
Y0801808D01*
X0598217D01*
X0547627Y0779205D02*
Y0780805D01*
X0549227D01*
Y0779205D01*
X0547627D01*
X0551927Y0786505D02*
Y0788105D01*
X0553527D01*
Y0786505D01*
X0551927D01*
X0538117Y0755308D02*
Y0756908D01*
X0539717D01*
Y0755308D01*
X0538117D01*
X0500427Y0867927D02*
Y0869527D01*
X0502027D01*
Y0867927D01*
X0500427D01*
X0516308Y0876505D02*
Y0878105D01*
X0517908D01*
Y0876505D01*
X0516308D01*
X0504127D02*
Y0878105D01*
X0505727D01*
Y0876505D01*
X0504127D01*
X0502135D02*
Y0878105D01*
X0503734D01*
Y0876505D01*
X0502135D01*
X0518300D02*
Y0878105D01*
X0519900D01*
Y0876505D01*
X0518300D01*
X0522607D02*
Y0878105D01*
X0524207D01*
Y0876505D01*
X0522607D01*
X0524599D02*
Y0878105D01*
X0526199D01*
Y0876505D01*
X0524599D01*
X0522712Y0879220D02*
Y0880820D01*
X0524312D01*
Y0879220D01*
X0522712D01*
X0514838D02*
Y0880820D01*
X0516438D01*
Y0879220D01*
X0514838D01*
X0506964D02*
Y0880820D01*
X0508564D01*
Y0879220D01*
X0506964D01*
X0503027D02*
Y0880820D01*
X0504627D01*
Y0879220D01*
X0503027D01*
X0483342D02*
Y0880820D01*
X0484942D01*
Y0879220D01*
X0483342D01*
X0467594D02*
Y0880820D01*
X0469194D01*
Y0879220D01*
X0467594D01*
X0471531D02*
Y0880820D01*
X0473131D01*
Y0879220D01*
X0471531D01*
X0487279D02*
Y0880820D01*
X0488879D01*
Y0879220D01*
X0487279D01*
X0475468D02*
Y0880820D01*
X0477068D01*
Y0879220D01*
X0475468D01*
X0479405D02*
Y0880820D01*
X0481005D01*
Y0879220D01*
X0479405D01*
X0534027Y0763805D02*
Y0765405D01*
X0535627D01*
Y0763805D01*
X0534027D01*
X0533927Y0767805D02*
Y0769405D01*
X0535527D01*
Y0767805D01*
X0533927D01*
X0503137Y0822231D02*
Y0823831D01*
X0504737D01*
Y0822231D01*
X0503137D01*
X0451261Y0826120D02*
Y0827720D01*
X0452861D01*
Y0826120D01*
X0451261D01*
X0601453Y0854023D02*
Y0855623D01*
X0603053D01*
Y0854023D01*
X0601453D01*
X0612870Y0852448D02*
Y0854048D01*
X0614470D01*
Y0852448D01*
X0612870D01*
X0617201Y0848905D02*
Y0850505D01*
X0618801D01*
Y0848905D01*
X0617201D01*
X0606964Y0853235D02*
Y0854835D01*
X0608564D01*
Y0853235D01*
X0606964D01*
X0596728Y0855597D02*
Y0857197D01*
X0598328D01*
Y0855597D01*
X0596728D01*
X0593579Y0860322D02*
Y0861922D01*
X0595179D01*
Y0860322D01*
X0593579D01*
X0593185Y0865834D02*
Y0867434D01*
X0594785D01*
Y0865834D01*
X0593185D01*
X0592791Y0872133D02*
Y0873733D01*
X0594391D01*
Y0872133D01*
X0592791D01*
X0589642Y0876857D02*
Y0878457D01*
X0591242D01*
Y0876857D01*
X0589642D01*
X0616413Y0754810D02*
Y0756410D01*
X0618013D01*
Y0754810D01*
X0616413D01*
X0610508Y0751660D02*
Y0753261D01*
X0612108D01*
Y0751660D01*
X0610508D01*
X0603421Y0752054D02*
Y0753654D01*
X0605021D01*
Y0752054D01*
X0603421D01*
X0597516Y0750086D02*
Y0751686D01*
X0599116D01*
Y0750086D01*
X0597516D01*
X0593972Y0745755D02*
Y0747355D01*
X0595572D01*
Y0745755D01*
X0593972D01*
X0593185Y0739554D02*
Y0741154D01*
X0594785D01*
Y0739554D01*
X0593185D01*
X0592791Y0733550D02*
Y0735150D01*
X0594391D01*
Y0733550D01*
X0592791D01*
X0590035Y0729220D02*
Y0730820D01*
X0591635D01*
Y0729220D01*
X0590035D01*
X0418382Y0727645D02*
Y0729245D01*
X0419982D01*
Y0727645D01*
X0418382D01*
X0413657Y0732763D02*
Y0734363D01*
X0415257D01*
Y0732763D01*
X0413657D01*
X0413264Y0738275D02*
Y0739875D01*
X0414864D01*
Y0738275D01*
X0413264D01*
X0412870Y0744574D02*
Y0746174D01*
X0414470D01*
Y0744574D01*
X0412870D01*
X0409327Y0750086D02*
Y0751686D01*
X0410927D01*
Y0750086D01*
X0409327D01*
X0403027Y0752054D02*
Y0753654D01*
X0404627D01*
Y0752054D01*
X0403027D01*
X0396728D02*
Y0753654D01*
X0398328D01*
Y0752054D01*
X0396728D01*
X0392004Y0753629D02*
Y0755229D01*
X0393604D01*
Y0753629D01*
X0392004D01*
X0388854Y0757566D02*
Y0759166D01*
X0390454D01*
Y0757566D01*
X0388854D01*
X0417988Y0877645D02*
Y0879245D01*
X0419588D01*
Y0877645D01*
X0417988D01*
X0414445Y0873708D02*
Y0875308D01*
X0416045D01*
Y0873708D01*
X0414445D01*
X0413264Y0868196D02*
Y0869796D01*
X0414864D01*
Y0868196D01*
X0413264D01*
Y0862684D02*
Y0864284D01*
X0414864D01*
Y0862684D01*
X0413264D01*
X0411689Y0857172D02*
Y0858772D01*
X0413289D01*
Y0857172D01*
X0411689D01*
X0406571Y0853629D02*
Y0855229D01*
X0408171D01*
Y0853629D01*
X0406571D01*
X0400272Y0853235D02*
Y0854835D01*
X0401871D01*
Y0853235D01*
X0400272D01*
X0394366Y0852842D02*
Y0854442D01*
X0395966D01*
Y0852842D01*
X0394366D01*
X0390429Y0850086D02*
Y0851686D01*
X0392029D01*
Y0850086D01*
X0390429D01*
X0388067Y0846149D02*
Y0847749D01*
X0389667D01*
Y0846149D01*
X0388067D01*
X0510901Y0879220D02*
Y0880820D01*
X0512501D01*
Y0879220D01*
X0510901D01*
X0526649D02*
Y0880820D01*
X0528249D01*
Y0879220D01*
X0526649D01*
X0518775D02*
Y0880820D01*
X0520375D01*
Y0879220D01*
X0518775D01*
X0538460D02*
Y0880820D01*
X0540061D01*
Y0879220D01*
X0538460D01*
X0534523D02*
Y0880820D01*
X0536124D01*
Y0879220D01*
X0534523D01*
X0530586D02*
Y0880820D01*
X0532187D01*
Y0879220D01*
X0530586D01*
X0550272D02*
Y0880820D01*
X0551871D01*
Y0879220D01*
X0550272D01*
X0546335D02*
Y0880820D01*
X0547934D01*
Y0879220D01*
X0546335D01*
X0542397D02*
Y0880820D01*
X0543997D01*
Y0879220D01*
X0542397D01*
X0562082D02*
Y0880820D01*
X0563683D01*
Y0879220D01*
X0562082D01*
X0558146D02*
Y0880820D01*
X0559746D01*
Y0879220D01*
X0558146D01*
X0554209D02*
Y0880820D01*
X0555808D01*
Y0879220D01*
X0554209D01*
X0573893D02*
Y0880820D01*
X0575493D01*
Y0879220D01*
X0573893D01*
X0569956D02*
Y0880820D01*
X0571557D01*
Y0879220D01*
X0569956D01*
X0566019D02*
Y0880820D01*
X0567620D01*
Y0879220D01*
X0566019D01*
X0585705D02*
Y0880820D01*
X0587305D01*
Y0879220D01*
X0585705D01*
X0581768D02*
Y0880820D01*
X0583368D01*
Y0879220D01*
X0581768D01*
X0577831D02*
Y0880820D01*
X0579431D01*
Y0879220D01*
X0577831D01*
X0424287D02*
Y0880820D01*
X0425887D01*
Y0879220D01*
X0424287D01*
X0428224D02*
Y0880820D01*
X0429824D01*
Y0879220D01*
X0428224D01*
X0432161D02*
Y0880820D01*
X0433761D01*
Y0879220D01*
X0432161D01*
X0443972D02*
Y0880820D01*
X0445572D01*
Y0879220D01*
X0443972D01*
X0440035D02*
Y0880820D01*
X0441635D01*
Y0879220D01*
X0440035D01*
X0436098D02*
Y0880820D01*
X0437698D01*
Y0879220D01*
X0436098D01*
X0455783D02*
Y0880820D01*
X0457383D01*
Y0879220D01*
X0455783D01*
X0451846D02*
Y0880820D01*
X0453446D01*
Y0879220D01*
X0451846D01*
X0447909D02*
Y0880820D01*
X0449509D01*
Y0879220D01*
X0447909D01*
X0463657D02*
Y0880820D01*
X0465257D01*
Y0879220D01*
X0463657D01*
X0459720D02*
Y0880820D01*
X0461320D01*
Y0879220D01*
X0459720D01*
X0491216D02*
Y0880820D01*
X0492816D01*
Y0879220D01*
X0491216D01*
X0499090D02*
Y0880820D01*
X0500690D01*
Y0879220D01*
X0499090D01*
X0495153D02*
Y0880820D01*
X0496753D01*
Y0879220D01*
X0495153D01*
X0619169Y0843787D02*
Y0845387D01*
X0620769D01*
Y0843787D01*
X0619169D01*
Y0839849D02*
Y0841450D01*
X0620769D01*
Y0839849D01*
X0619169D01*
Y0835913D02*
Y0837512D01*
X0620769D01*
Y0835913D01*
X0619169D01*
Y0824102D02*
Y0825702D01*
X0620769D01*
Y0824102D01*
X0619169D01*
Y0828039D02*
Y0829638D01*
X0620769D01*
Y0828039D01*
X0619169D01*
Y0831975D02*
Y0833576D01*
X0620769D01*
Y0831975D01*
X0619169D01*
Y0812290D02*
Y0813890D01*
X0620769D01*
Y0812290D01*
X0619169D01*
Y0816227D02*
Y0817827D01*
X0620769D01*
Y0816227D01*
X0619169D01*
Y0820164D02*
Y0821764D01*
X0620769D01*
Y0820164D01*
X0619169D01*
Y0804416D02*
Y0806016D01*
X0620769D01*
Y0804416D01*
X0619169D01*
Y0808353D02*
Y0809953D01*
X0620769D01*
Y0808353D01*
X0619169D01*
Y0776857D02*
Y0778457D01*
X0620769D01*
Y0776857D01*
X0619169D01*
Y0780794D02*
Y0782394D01*
X0620769D01*
Y0780794D01*
X0619169D01*
Y0784731D02*
Y0786331D01*
X0620769D01*
Y0784731D01*
X0619169D01*
Y0765046D02*
Y0766646D01*
X0620769D01*
Y0765046D01*
X0619169D01*
Y0768983D02*
Y0770583D01*
X0620769D01*
Y0768983D01*
X0619169D01*
Y0772920D02*
Y0774520D01*
X0620769D01*
Y0772920D01*
X0619169D01*
X0585705Y0726464D02*
Y0728064D01*
X0587305D01*
Y0726464D01*
X0585705D01*
X0581768D02*
Y0728064D01*
X0583368D01*
Y0726464D01*
X0581768D01*
X0577831D02*
Y0728064D01*
X0579431D01*
Y0726464D01*
X0577831D01*
X0566019D02*
Y0728064D01*
X0567620D01*
Y0726464D01*
X0566019D01*
X0569956D02*
Y0728064D01*
X0571557D01*
Y0726464D01*
X0569956D01*
X0573893D02*
Y0728064D01*
X0575493D01*
Y0726464D01*
X0573893D01*
X0554209D02*
Y0728064D01*
X0555808D01*
Y0726464D01*
X0554209D01*
X0558146D02*
Y0728064D01*
X0559746D01*
Y0726464D01*
X0558146D01*
X0562082D02*
Y0728064D01*
X0563683D01*
Y0726464D01*
X0562082D01*
X0542397D02*
Y0728064D01*
X0543997D01*
Y0726464D01*
X0542397D01*
X0546335D02*
Y0728064D01*
X0547934D01*
Y0726464D01*
X0546335D01*
X0550272D02*
Y0728064D01*
X0551871D01*
Y0726464D01*
X0550272D01*
X0530586D02*
Y0728064D01*
X0532187D01*
Y0726464D01*
X0530586D01*
X0538460D02*
Y0728064D01*
X0540061D01*
Y0726464D01*
X0538460D01*
X0518775D02*
Y0728064D01*
X0520375D01*
Y0726464D01*
X0518775D01*
X0526649D02*
Y0728064D01*
X0528249D01*
Y0726464D01*
X0526649D01*
X0506964D02*
Y0728064D01*
X0508564D01*
Y0726464D01*
X0506964D01*
X0510901D02*
Y0728064D01*
X0512501D01*
Y0726464D01*
X0510901D01*
X0503027D02*
Y0728064D01*
X0504627D01*
Y0726464D01*
X0503027D01*
X0499090D02*
Y0728064D01*
X0500690D01*
Y0726464D01*
X0499090D01*
X0495153D02*
Y0728064D01*
X0496753D01*
Y0726464D01*
X0495153D01*
X0483342D02*
Y0728064D01*
X0484942D01*
Y0726464D01*
X0483342D01*
X0487279D02*
Y0728064D01*
X0488879D01*
Y0726464D01*
X0487279D01*
X0491216D02*
Y0728064D01*
X0492816D01*
Y0726464D01*
X0491216D01*
X0471531D02*
Y0728064D01*
X0473131D01*
Y0726464D01*
X0471531D01*
X0475468D02*
Y0728064D01*
X0477068D01*
Y0726464D01*
X0475468D01*
X0479405D02*
Y0728064D01*
X0481005D01*
Y0726464D01*
X0479405D01*
X0459720D02*
Y0728064D01*
X0461320D01*
Y0726464D01*
X0459720D01*
X0463657D02*
Y0728064D01*
X0465257D01*
Y0726464D01*
X0463657D01*
X0467594D02*
Y0728064D01*
X0469194D01*
Y0726464D01*
X0467594D01*
X0447909D02*
Y0728064D01*
X0449509D01*
Y0726464D01*
X0447909D01*
X0451846D02*
Y0728064D01*
X0453446D01*
Y0726464D01*
X0451846D01*
X0455783D02*
Y0728064D01*
X0457383D01*
Y0726464D01*
X0455783D01*
X0436098D02*
Y0728064D01*
X0437698D01*
Y0726464D01*
X0436098D01*
X0440035D02*
Y0728064D01*
X0441635D01*
Y0726464D01*
X0440035D01*
X0443972D02*
Y0728064D01*
X0445572D01*
Y0726464D01*
X0443972D01*
X0424287D02*
Y0728064D01*
X0425887D01*
Y0726464D01*
X0424287D01*
X0428224D02*
Y0728064D01*
X0429824D01*
Y0726464D01*
X0428224D01*
X0432161D02*
Y0728064D01*
X0433761D01*
Y0726464D01*
X0432161D01*
X0387673Y0833944D02*
Y0835544D01*
X0389273D01*
Y0833944D01*
X0387673D01*
Y0837881D02*
Y0839481D01*
X0389273D01*
Y0837881D01*
X0387673D01*
Y0841818D02*
Y0843418D01*
X0389273D01*
Y0841818D01*
X0387673D01*
Y0822133D02*
Y0823733D01*
X0389273D01*
Y0822133D01*
X0387673D01*
Y0826070D02*
Y0827670D01*
X0389273D01*
Y0826070D01*
X0387673D01*
Y0830007D02*
Y0831607D01*
X0389273D01*
Y0830007D01*
X0387673D01*
Y0810322D02*
Y0811922D01*
X0389273D01*
Y0810322D01*
X0387673D01*
Y0814259D02*
Y0815859D01*
X0389273D01*
Y0814259D01*
X0387673D01*
Y0818196D02*
Y0819796D01*
X0389273D01*
Y0818196D01*
X0387673D01*
Y0798511D02*
Y0800111D01*
X0389273D01*
Y0798511D01*
X0387673D01*
Y0802448D02*
Y0804048D01*
X0389273D01*
Y0802448D01*
X0387673D01*
Y0806385D02*
Y0807985D01*
X0389273D01*
Y0806385D01*
X0387673D01*
Y0786700D02*
Y0788300D01*
X0389273D01*
Y0786700D01*
X0387673D01*
Y0790637D02*
Y0792237D01*
X0389273D01*
Y0790637D01*
X0387673D01*
Y0794574D02*
Y0796174D01*
X0389273D01*
Y0794574D01*
X0387673D01*
Y0774889D02*
Y0776489D01*
X0389273D01*
Y0774889D01*
X0387673D01*
Y0778826D02*
Y0780426D01*
X0389273D01*
Y0778826D01*
X0387673D01*
Y0782763D02*
Y0784363D01*
X0389273D01*
Y0782763D01*
X0387673D01*
Y0770952D02*
Y0772552D01*
X0389273D01*
Y0770952D01*
X0387673D01*
Y0767015D02*
Y0768615D01*
X0389273D01*
Y0767015D01*
X0387673D01*
Y0763078D02*
Y0764678D01*
X0389273D01*
Y0763078D01*
X0387673D01*
X0525525Y0863105D02*
Y0864705D01*
X0527125D01*
Y0863105D01*
X0525525D01*
X0527517D02*
Y0864705D01*
X0529117D01*
Y0863105D01*
X0527517D01*
X0450697Y0816044D02*
Y0817644D01*
X0452297D01*
Y0816044D01*
X0450697D01*
X0425972Y0823019D02*
Y0824619D01*
X0427571D01*
Y0823019D01*
X0425972D01*
X0450772Y0813963D02*
Y0815563D01*
X0452372D01*
Y0813963D01*
X0450772D01*
X0425972Y0820460D02*
Y0822060D01*
X0427571D01*
Y0820460D01*
X0425972D01*
X0450661Y0789449D02*
Y0791049D01*
X0452261D01*
Y0789449D01*
X0450661D01*
Y0791441D02*
Y0793041D01*
X0452261D01*
Y0791441D01*
X0450661D01*
X0436062Y0791381D02*
Y0792981D01*
X0437662D01*
Y0791381D01*
X0436062D01*
X0435961Y0794181D02*
Y0795781D01*
X0437561D01*
Y0794181D01*
X0435961D01*
X0461798Y0800578D02*
Y0802178D01*
X0463398D01*
Y0800578D01*
X0461798D01*
X0429121Y0792381D02*
Y0793981D01*
X0430721D01*
Y0792381D01*
X0429121D01*
X0436166Y0788623D02*
Y0790223D01*
X0437766D01*
Y0788623D01*
X0436166D01*
X0435878Y0785733D02*
Y0787333D01*
X0437478D01*
Y0785733D01*
X0435878D01*
X0429121Y0789660D02*
Y0791260D01*
X0430721D01*
Y0789660D01*
X0429121D01*
X0462655Y0788767D02*
Y0790367D01*
X0464255D01*
Y0788767D01*
X0462655D01*
X0422822Y0792381D02*
Y0793981D01*
X0424422D01*
Y0792381D01*
X0422822D01*
Y0789660D02*
Y0791260D01*
X0424422D01*
Y0789660D01*
X0422822D01*
X0435961Y0796981D02*
Y0798581D01*
X0437561D01*
Y0796981D01*
X0435961D01*
X0435735Y0798960D02*
Y0800560D01*
X0437335D01*
Y0798960D01*
X0435735D01*
X0413373Y0797481D02*
Y0799081D01*
X0414973D01*
Y0797481D01*
X0413373D01*
X0459861Y0783824D02*
Y0785424D01*
X0461461D01*
Y0783824D01*
X0459861D01*
X0422817Y0782089D02*
Y0783689D01*
X0424417D01*
Y0782089D01*
X0422817D01*
X0419672Y0785660D02*
Y0787260D01*
X0421272D01*
Y0785660D01*
X0419672D01*
X0419672Y0788481D02*
Y0790081D01*
X0421272D01*
Y0788481D01*
X0419672D01*
X0410223Y0792381D02*
Y0793981D01*
X0411823D01*
Y0792381D01*
X0410223D01*
X0461798Y0796641D02*
Y0798241D01*
X0463398D01*
Y0796641D01*
X0461798D01*
X0463767D02*
Y0798241D01*
X0465367D01*
Y0796641D01*
X0463767D01*
X0403924Y0805105D02*
Y0806705D01*
X0405524D01*
Y0805105D01*
X0403924D01*
X0407074Y0805060D02*
Y0806660D01*
X0408674D01*
Y0805060D01*
X0407074D01*
X0407149Y0807856D02*
Y0809456D01*
X0408749D01*
Y0807856D01*
X0407149D01*
X0459861Y0800620D02*
Y0802220D01*
X0461461D01*
Y0800620D01*
X0459861D01*
X0407074Y0797360D02*
Y0798960D01*
X0408674D01*
Y0797360D01*
X0407074D01*
Y0800081D02*
Y0801681D01*
X0408674D01*
Y0800081D01*
X0407074D01*
X0446981Y0781500D02*
Y0783100D01*
X0448582D01*
Y0781500D01*
X0446981D01*
X0444961Y0826220D02*
Y0827820D01*
X0446561D01*
Y0826220D01*
X0444961D01*
X0435693Y0819201D02*
Y0820801D01*
X0437293D01*
Y0819201D01*
X0435693D01*
X0435873Y0816481D02*
Y0818081D01*
X0437473D01*
Y0816481D01*
X0435873D01*
X0435861Y0813700D02*
Y0815300D01*
X0437461D01*
Y0813700D01*
X0435861D01*
X0435661Y0822001D02*
Y0823601D01*
X0437261D01*
Y0822001D01*
X0435661D01*
X0432161Y0822297D02*
Y0823897D01*
X0433761D01*
Y0822297D01*
X0432161D01*
X0410210Y0822996D02*
Y0824596D01*
X0411810D01*
Y0822996D01*
X0410210D01*
X0413373Y0826857D02*
Y0828457D01*
X0414973D01*
Y0826857D01*
X0413373D01*
Y0829416D02*
Y0831017D01*
X0414973D01*
Y0829416D01*
X0413373D01*
X0447561Y0826420D02*
Y0828020D01*
X0449161D01*
Y0826420D01*
X0447561D01*
X0413373Y0819301D02*
Y0820901D01*
X0414973D01*
Y0819301D01*
X0413373D01*
Y0817181D02*
Y0818781D01*
X0414973D01*
Y0817181D01*
X0413373D01*
Y0812783D02*
Y0814383D01*
X0414973D01*
Y0812783D01*
X0413373D01*
X0419601Y0819180D02*
Y0820780D01*
X0421201D01*
Y0819180D01*
X0419601D01*
X0419672Y0826857D02*
Y0828457D01*
X0421272D01*
Y0826857D01*
X0419672D01*
Y0829581D02*
Y0831181D01*
X0421272D01*
Y0829581D01*
X0419672D01*
X0403924Y0815381D02*
Y0816981D01*
X0405524D01*
Y0815381D01*
X0403924D01*
Y0812660D02*
Y0814260D01*
X0405524D01*
Y0812660D01*
X0403924D01*
X0419601Y0821739D02*
Y0823339D01*
X0421201D01*
Y0821739D01*
X0419601D01*
X0407188Y0828023D02*
Y0829623D01*
X0408788D01*
Y0828023D01*
X0407188D01*
X0407074Y0825578D02*
Y0827178D01*
X0408674D01*
Y0825578D01*
X0407074D01*
X0455187Y0835114D02*
Y0836714D01*
X0456787D01*
Y0835114D01*
X0455187D01*
X0410223Y0828181D02*
Y0829781D01*
X0411823D01*
Y0828181D01*
X0410223D01*
X0410223Y0825720D02*
Y0827320D01*
X0411824D01*
Y0825720D01*
X0410223D01*
X0450772Y0828260D02*
Y0829860D01*
X0452372D01*
Y0828260D01*
X0450772D01*
X0407074Y0822960D02*
Y0824560D01*
X0408674D01*
Y0822960D01*
X0407074D01*
X0465735Y0808452D02*
Y0810052D01*
X0467335D01*
Y0808452D01*
X0465735D01*
X0429120Y0815381D02*
Y0816981D01*
X0430720D01*
Y0815381D01*
X0429120D01*
X0407074Y0810223D02*
Y0811823D01*
X0408674D01*
Y0810223D01*
X0407074D01*
X0410223Y0807360D02*
Y0808960D01*
X0411823D01*
Y0807360D01*
X0410223D01*
X0413373Y0807660D02*
Y0809260D01*
X0414973D01*
Y0807660D01*
X0413373D01*
X0432326Y0810279D02*
Y0811879D01*
X0433926D01*
Y0810279D01*
X0432326D01*
X0410223Y0797428D02*
Y0799028D01*
X0411823D01*
Y0797428D01*
X0410223D01*
X0448461Y0816920D02*
Y0818520D01*
X0450061D01*
Y0816920D01*
X0448461D01*
X0435829Y0782760D02*
Y0784360D01*
X0437429D01*
Y0782760D01*
X0435829D01*
X0459761Y0804520D02*
Y0806120D01*
X0461361D01*
Y0804520D01*
X0459761D01*
X0459861Y0796620D02*
Y0798220D01*
X0461461D01*
Y0796620D01*
X0459861D01*
Y0792820D02*
Y0794420D01*
X0461461D01*
Y0792820D01*
X0459861D01*
Y0788720D02*
Y0790320D01*
X0461461D01*
Y0788720D01*
X0459861D01*
X0419682Y0792423D02*
Y0794023D01*
X0421282D01*
Y0792423D01*
X0419682D01*
X0413399Y0785940D02*
Y0787540D01*
X0414999D01*
Y0785940D01*
X0413399D01*
X0413373Y0783219D02*
Y0784819D01*
X0414973D01*
Y0783219D01*
X0413373D01*
X0413373Y0788660D02*
Y0790260D01*
X0414973D01*
Y0788660D01*
X0413373D01*
X0407074Y0792310D02*
Y0793910D01*
X0408674D01*
Y0792310D01*
X0407074D01*
X0414187Y0792413D02*
Y0794013D01*
X0415787D01*
Y0792413D01*
X0414187D01*
X0432276Y0782259D02*
Y0783859D01*
X0433876D01*
Y0782259D01*
X0432276D01*
X0465735Y0804515D02*
Y0806115D01*
X0467335D01*
Y0804515D01*
X0465735D01*
X0429117Y0812660D02*
Y0814260D01*
X0430717D01*
Y0812660D01*
X0429117D01*
X0459861Y0808420D02*
Y0810020D01*
X0461461D01*
Y0808420D01*
X0459861D01*
Y0812420D02*
Y0814020D01*
X0461461D01*
Y0812420D01*
X0459861D01*
X0459761Y0816220D02*
Y0817820D01*
X0461361D01*
Y0816220D01*
X0459761D01*
X0422822Y0809860D02*
Y0811460D01*
X0424422D01*
Y0809860D01*
X0422822D01*
X0422814Y0812581D02*
Y0814181D01*
X0424414D01*
Y0812581D01*
X0422814D01*
X0423212Y0815301D02*
Y0816901D01*
X0424812D01*
Y0815301D01*
X0423212D01*
X0419672Y0811260D02*
Y0812860D01*
X0421272D01*
Y0811260D01*
X0419672D01*
X0419601Y0816621D02*
Y0818221D01*
X0421201D01*
Y0816621D01*
X0419601D01*
X0459861Y0820220D02*
Y0821820D01*
X0461461D01*
Y0820220D01*
X0459861D01*
X0410223Y0812783D02*
Y0814383D01*
X0411823D01*
Y0812783D01*
X0410223D01*
X0429121Y0828181D02*
Y0829781D01*
X0430721D01*
Y0828181D01*
X0429121D01*
X0425972D02*
Y0829781D01*
X0427571D01*
Y0828181D01*
X0425972D01*
X0459861Y0824220D02*
Y0825820D01*
X0461461D01*
Y0824220D01*
X0459861D01*
Y0826120D02*
Y0827720D01*
X0461461D01*
Y0826120D01*
X0459861D01*
X0450649Y0776832D02*
Y0778432D01*
X0452249D01*
Y0776832D01*
X0450649D01*
X0410223Y0787192D02*
Y0788792D01*
X0411823D01*
Y0787192D01*
X0410223D01*
X0419672Y0783354D02*
Y0784953D01*
X0421272D01*
Y0783354D01*
X0419672D01*
X0429061Y0777020D02*
Y0778620D01*
X0430661D01*
Y0777020D01*
X0429061D01*
X0410223Y0779234D02*
Y0780834D01*
X0411823D01*
Y0779234D01*
X0410223D01*
Y0781958D02*
Y0783558D01*
X0411823D01*
Y0781958D01*
X0410223D01*
Y0776956D02*
Y0778556D01*
X0411823D01*
Y0776956D01*
X0410223D01*
X0407074D02*
Y0778556D01*
X0408674D01*
Y0776956D01*
X0407074D01*
X0403924D02*
Y0778556D01*
X0405524D01*
Y0776956D01*
X0403924D01*
X0453061Y0775220D02*
Y0776820D01*
X0454661D01*
Y0775220D01*
X0453061D01*
X0451861Y0771220D02*
Y0772820D01*
X0453461D01*
Y0771220D01*
X0451861D01*
X0454761Y0772620D02*
Y0774220D01*
X0456361D01*
Y0772620D01*
X0454761D01*
X0454661Y0770120D02*
Y0771720D01*
X0456261D01*
Y0770120D01*
X0454661D01*
X0456261Y0767420D02*
Y0769020D01*
X0457861D01*
Y0767420D01*
X0456261D01*
X0450776Y0797008D02*
Y0798608D01*
X0452376D01*
Y0797008D01*
X0450776D01*
X0458061Y0769820D02*
Y0771420D01*
X0459661D01*
Y0769820D01*
X0458061D01*
X0445661Y0775320D02*
Y0776920D01*
X0447261D01*
Y0775320D01*
X0445661D01*
X0455161Y0839120D02*
Y0840720D01*
X0456761D01*
Y0839120D01*
X0455161D01*
X0452161Y0836620D02*
Y0838220D01*
X0453761D01*
Y0836620D01*
X0452161D01*
X0445661Y0831620D02*
Y0833220D01*
X0447261D01*
Y0831620D01*
X0445661D01*
X0419261Y0775220D02*
Y0776820D01*
X0420861D01*
Y0775220D01*
X0419261D01*
X0448361Y0831520D02*
Y0833120D01*
X0449961D01*
Y0831520D01*
X0448361D01*
X0407074Y0784633D02*
Y0786233D01*
X0408674D01*
Y0784633D01*
X0407074D01*
Y0782074D02*
Y0783674D01*
X0408674D01*
Y0782074D01*
X0407074D01*
Y0820460D02*
Y0822060D01*
X0408674D01*
Y0820460D01*
X0407074D01*
X0426461Y0777079D02*
Y0778679D01*
X0428061D01*
Y0777079D01*
X0426461D01*
X0410223Y0784683D02*
Y0786283D01*
X0411823D01*
Y0784683D01*
X0410223D01*
X0422684Y0794864D02*
Y0796464D01*
X0424285D01*
Y0794864D01*
X0422684D01*
X0419672Y0808944D02*
Y0810544D01*
X0421272D01*
Y0808944D01*
X0419672D01*
X0468227Y0753805D02*
Y0755405D01*
X0469827D01*
Y0753805D01*
X0468227D01*
X0475321Y0752005D02*
Y0753605D01*
X0476922D01*
Y0752005D01*
X0475321D01*
X0472561Y0756920D02*
Y0758520D01*
X0474161D01*
Y0756920D01*
X0472561D01*
X0469161Y0760292D02*
Y0761892D01*
X0470761D01*
Y0760292D01*
X0469161D01*
X0472583Y0762420D02*
Y0764020D01*
X0474183D01*
Y0762420D01*
X0472583D01*
X0472561Y0765520D02*
Y0767120D01*
X0474161D01*
Y0765520D01*
X0472561D01*
X0467635Y0800595D02*
Y0802195D01*
X0469235D01*
Y0800595D01*
X0467635D01*
X0507061Y0800520D02*
Y0802120D01*
X0508661D01*
Y0800520D01*
X0507061D01*
X0505105Y0800578D02*
Y0802178D01*
X0506706D01*
Y0800578D01*
X0505105D01*
X0507074Y0824200D02*
Y0825800D01*
X0508674D01*
Y0824200D01*
X0507074D01*
X0495461Y0796620D02*
Y0798220D01*
X0497061D01*
Y0796620D01*
X0495461D01*
X0495361Y0804520D02*
Y0806120D01*
X0496961D01*
Y0804520D01*
X0495361D01*
X0495263Y0800578D02*
Y0802178D01*
X0496863D01*
Y0800578D01*
X0495263D01*
X0499161Y0792720D02*
Y0794320D01*
X0500761D01*
Y0792720D01*
X0499161D01*
X0491553Y0818521D02*
Y0820121D01*
X0493153D01*
Y0818521D01*
X0491553D01*
X0495161Y0816220D02*
Y0817820D01*
X0496761D01*
Y0816220D01*
X0495161D01*
X0495263Y0808452D02*
Y0810052D01*
X0496863D01*
Y0808452D01*
X0495263D01*
X0489358D02*
Y0810052D01*
X0490957D01*
Y0808452D01*
X0489358D01*
X0493294D02*
Y0810052D01*
X0494895D01*
Y0808452D01*
X0493294D01*
Y0804515D02*
Y0806115D01*
X0494895D01*
Y0804515D01*
X0493294D01*
X0487389Y0790735D02*
Y0792335D01*
X0488989D01*
Y0790735D01*
X0487389D01*
X0483461Y0816320D02*
Y0817920D01*
X0485061D01*
Y0816320D01*
X0483461D01*
X0483452Y0808452D02*
Y0810052D01*
X0485052D01*
Y0808452D01*
X0483452D01*
X0465735Y0812389D02*
Y0813989D01*
X0467335D01*
Y0812389D01*
X0465735D01*
X0467661Y0812520D02*
Y0814120D01*
X0469261D01*
Y0812520D01*
X0467661D01*
X0467704Y0796641D02*
Y0798241D01*
X0469304D01*
Y0796641D01*
X0467704D01*
X0471641Y0792704D02*
Y0794304D01*
X0473241D01*
Y0792704D01*
X0471641D01*
X0471641Y0816326D02*
Y0817926D01*
X0473241D01*
Y0816326D01*
X0471641D01*
X0467704Y0808452D02*
Y0810052D01*
X0469304D01*
Y0808452D01*
X0467704D01*
X0487411Y0786777D02*
Y0788377D01*
X0489011D01*
Y0786777D01*
X0487411D01*
X0487561Y0788720D02*
Y0790320D01*
X0489161D01*
Y0788720D01*
X0487561D01*
X0479461D02*
Y0790320D01*
X0481061D01*
Y0788720D01*
X0479461D01*
X0528246Y0788920D02*
Y0790520D01*
X0529846D01*
Y0788920D01*
X0528246D01*
Y0790805D02*
Y0792405D01*
X0529846D01*
Y0790805D01*
X0528246D01*
X0487389Y0780893D02*
Y0782493D01*
X0488989D01*
Y0780893D01*
X0487389D01*
X0400775Y0789727D02*
Y0791327D01*
X0402375D01*
Y0789727D01*
X0400775D01*
X0397158Y0814023D02*
Y0815623D01*
X0398758D01*
Y0814023D01*
X0397158D01*
X0404045Y0823281D02*
Y0824881D01*
X0405645D01*
Y0823281D01*
X0404045D01*
X0400790Y0823454D02*
Y0825054D01*
X0402390D01*
Y0823454D01*
X0400790D01*
X0400761Y0820020D02*
Y0821620D01*
X0402361D01*
Y0820020D01*
X0400761D01*
X0400775Y0825578D02*
Y0827178D01*
X0402375D01*
Y0825578D01*
X0400775D01*
X0393461Y0828320D02*
Y0829920D01*
X0395061D01*
Y0828320D01*
X0393461D01*
X0400775Y0787192D02*
Y0788792D01*
X0402375D01*
Y0787192D01*
X0400775D01*
X0397161Y0787120D02*
Y0788720D01*
X0398761D01*
Y0787120D01*
X0397161D01*
X0410223Y0794869D02*
Y0796469D01*
X0411823D01*
Y0794869D01*
X0410223D01*
X0419672Y0778235D02*
Y0779835D01*
X0421272D01*
Y0778235D01*
X0419672D01*
X0432271Y0797428D02*
Y0799028D01*
X0433871D01*
Y0797428D01*
X0432271D01*
Y0794869D02*
Y0796469D01*
X0433871D01*
Y0794869D01*
X0432271D01*
X0429121D02*
Y0796469D01*
X0430721D01*
Y0794869D01*
X0429121D01*
X0419672D02*
Y0796469D01*
X0421272D01*
Y0794869D01*
X0419672D01*
Y0797428D02*
Y0799028D01*
X0421272D01*
Y0797428D01*
X0419672D01*
X0403961Y0774220D02*
Y0775820D01*
X0405561D01*
Y0774220D01*
X0403961D01*
X0413861Y0775620D02*
Y0777220D01*
X0415461D01*
Y0775620D01*
X0413861D01*
X0413373Y0778235D02*
Y0779835D01*
X0414973D01*
Y0778235D01*
X0413373D01*
X0407074Y0779515D02*
Y0781115D01*
X0408674D01*
Y0779515D01*
X0407074D01*
X0403924D02*
Y0781115D01*
X0405524D01*
Y0779515D01*
X0403924D01*
X0397061Y0780820D02*
Y0782420D01*
X0398661D01*
Y0780820D01*
X0397061D01*
Y0783320D02*
Y0784920D01*
X0398661D01*
Y0783320D01*
X0397061D01*
X0400775Y0784633D02*
Y0786233D01*
X0402375D01*
Y0784633D01*
X0400775D01*
X0403924Y0787192D02*
Y0788792D01*
X0405524D01*
Y0787192D01*
X0403924D01*
Y0792310D02*
Y0793910D01*
X0405524D01*
Y0792310D01*
X0403924D01*
X0397261Y0790920D02*
Y0792520D01*
X0398861D01*
Y0790920D01*
X0397261D01*
Y0793620D02*
Y0795220D01*
X0398861D01*
Y0793620D01*
X0397261D01*
X0403924Y0794869D02*
Y0796469D01*
X0405524D01*
Y0794869D01*
X0403924D01*
X0407074D02*
Y0796469D01*
X0408674D01*
Y0794869D01*
X0407074D01*
X0403924Y0797428D02*
Y0799028D01*
X0405524D01*
Y0797428D01*
X0403924D01*
X0400775D02*
Y0799028D01*
X0402375D01*
Y0797428D01*
X0400775D01*
X0397361Y0798620D02*
Y0800220D01*
X0398961D01*
Y0798620D01*
X0397361D01*
X0422822Y0823019D02*
Y0824619D01*
X0424422D01*
Y0823019D01*
X0422822D01*
X0407074Y0817901D02*
Y0819501D01*
X0408674D01*
Y0817901D01*
X0407074D01*
X0400775Y0815342D02*
Y0816942D01*
X0402375D01*
Y0815342D01*
X0400775D01*
Y0812783D02*
Y0814383D01*
X0402375D01*
Y0812783D01*
X0400775D01*
X0410223Y0810223D02*
Y0811823D01*
X0411823D01*
Y0810223D01*
X0410223D01*
X0407074Y0812783D02*
Y0814383D01*
X0408674D01*
Y0812783D01*
X0407074D01*
X0403924Y0807664D02*
Y0809264D01*
X0405524D01*
Y0807664D01*
X0403924D01*
X0396961Y0806520D02*
Y0808120D01*
X0398561D01*
Y0806520D01*
X0396961D01*
Y0809020D02*
Y0810620D01*
X0398561D01*
Y0809020D01*
X0396961D01*
Y0811520D02*
Y0813120D01*
X0398561D01*
Y0811520D01*
X0396961D01*
X0410223Y0817901D02*
Y0819501D01*
X0411823D01*
Y0817901D01*
X0410223D01*
X0397161Y0816420D02*
Y0818020D01*
X0398761D01*
Y0816420D01*
X0397161D01*
X0403924Y0828137D02*
Y0829737D01*
X0405524D01*
Y0828137D01*
X0403924D01*
Y0825578D02*
Y0827178D01*
X0405524D01*
Y0825578D01*
X0403924D01*
X0507074Y0808452D02*
Y0810052D01*
X0508674D01*
Y0808452D01*
X0507074D01*
X0489358Y0814357D02*
Y0815958D01*
X0490957D01*
Y0814357D01*
X0489358D01*
X0487389D02*
Y0815958D01*
X0488989D01*
Y0814357D01*
X0487389D01*
X0479515D02*
Y0815958D01*
X0481115D01*
Y0814357D01*
X0479515D01*
X0503163Y0800552D02*
Y0802152D01*
X0504763D01*
Y0800552D01*
X0503163D01*
X0471641Y0788767D02*
Y0790367D01*
X0473241D01*
Y0788767D01*
X0471641D01*
X0479515Y0818295D02*
Y0819895D01*
X0481115D01*
Y0818295D01*
X0479515D01*
X0495263Y0788767D02*
Y0790367D01*
X0496863D01*
Y0788767D01*
X0495263D01*
X0461798Y0816326D02*
Y0817926D01*
X0463398D01*
Y0816326D01*
X0461798D01*
X0465735D02*
Y0817926D01*
X0467335D01*
Y0816326D01*
X0465735D01*
X0613161Y0829420D02*
Y0831020D01*
X0614761D01*
Y0829420D01*
X0613161D01*
X0588061Y0855820D02*
Y0857420D01*
X0589661D01*
Y0855820D01*
X0588061D01*
X0605627Y0826405D02*
Y0828005D01*
X0607227D01*
Y0826405D01*
X0605627D01*
X0532627Y0775805D02*
Y0777405D01*
X0534227D01*
Y0775805D01*
X0532627D01*
X0544727Y0786005D02*
Y0787605D01*
X0546327D01*
Y0786005D01*
X0544727D01*
X0534927D02*
Y0787605D01*
X0536527D01*
Y0786005D01*
X0534927D01*
X0530027Y0797405D02*
Y0799005D01*
X0531627D01*
Y0797405D01*
X0530027D01*
X0528927Y0795205D02*
Y0796805D01*
X0530527D01*
Y0795205D01*
X0528927D01*
X0510222Y0730479D02*
Y0732079D01*
X0511822D01*
Y0730479D01*
X0510222D01*
X0508674Y0728505D02*
Y0730105D01*
X0510274D01*
Y0728505D01*
X0508674D01*
X0507072Y0730479D02*
Y0732079D01*
X0508672D01*
Y0730479D01*
X0507072D01*
X0505524Y0728505D02*
Y0730105D01*
X0507124D01*
Y0728505D01*
X0505524D01*
X0503923Y0730479D02*
Y0732079D01*
X0505523D01*
Y0730479D01*
X0503923D01*
X0502375Y0728505D02*
Y0730105D01*
X0503975D01*
Y0728505D01*
X0502375D01*
X0500773Y0730479D02*
Y0732079D01*
X0502373D01*
Y0730479D01*
X0500773D01*
X0499225Y0728505D02*
Y0730105D01*
X0500825D01*
Y0728505D01*
X0499225D01*
X0510224Y0751730D02*
Y0753330D01*
X0511824D01*
Y0751730D01*
X0510224D01*
X0508651Y0748630D02*
Y0750230D01*
X0510251D01*
Y0748630D01*
X0508651D01*
X0505501D02*
Y0750230D01*
X0507101D01*
Y0748630D01*
X0505501D01*
X0533927Y0771805D02*
Y0773405D01*
X0535527D01*
Y0771805D01*
X0533927D01*
X0497623Y0730479D02*
Y0732079D01*
X0499223D01*
Y0730479D01*
X0497623D01*
X0496075Y0728505D02*
Y0730105D01*
X0497675D01*
Y0728505D01*
X0496075D01*
X0502348Y0742605D02*
Y0744205D01*
X0503948D01*
Y0742605D01*
X0502348D01*
X0494474Y0730479D02*
Y0732079D01*
X0496074D01*
Y0730479D01*
X0494474D01*
X0497625Y0739505D02*
Y0741105D01*
X0499225D01*
Y0739505D01*
X0497625D01*
X0499198Y0742605D02*
Y0744205D01*
X0500798D01*
Y0742605D01*
X0499198D01*
X0492926Y0728505D02*
Y0730105D01*
X0494526D01*
Y0728505D01*
X0492926D01*
X0491324Y0730479D02*
Y0732079D01*
X0492924D01*
Y0730479D01*
X0491324D01*
X0494476Y0739505D02*
Y0741105D01*
X0496076D01*
Y0739505D01*
X0494476D01*
X0489776Y0728505D02*
Y0730105D01*
X0491376D01*
Y0728505D01*
X0489776D01*
X0491326Y0739505D02*
Y0741105D01*
X0492926D01*
Y0739505D01*
X0491326D01*
X0489749Y0742605D02*
Y0744205D01*
X0491349D01*
Y0742605D01*
X0489749D01*
X0488175Y0730479D02*
Y0732079D01*
X0489775D01*
Y0730479D01*
X0488175D01*
X0485027Y0739505D02*
Y0741105D01*
X0486627D01*
Y0739505D01*
X0485027D01*
X0486627Y0728505D02*
Y0730105D01*
X0488227D01*
Y0728505D01*
X0486627D01*
X0486600Y0742605D02*
Y0744205D01*
X0488200D01*
Y0742605D01*
X0486600D01*
X0485025Y0730479D02*
Y0732079D01*
X0486625D01*
Y0730479D01*
X0485025D01*
X0509043Y0771805D02*
Y0773405D01*
X0510642D01*
Y0771805D01*
X0509043D01*
X0501427Y0769005D02*
Y0770605D01*
X0503027D01*
Y0769005D01*
X0501427D01*
X0500775Y0739505D02*
Y0741105D01*
X0502375D01*
Y0739505D01*
X0500775D01*
X0496049Y0742605D02*
Y0744205D01*
X0497649D01*
Y0742605D01*
X0496049D01*
X0492899D02*
Y0744205D01*
X0494499D01*
Y0742605D01*
X0492899D01*
X0488176Y0739505D02*
Y0741105D01*
X0489776D01*
Y0739505D01*
X0488176D01*
X0483450Y0742605D02*
Y0744205D01*
X0485050D01*
Y0742605D01*
X0483450D01*
X0472027Y0748605D02*
Y0750205D01*
X0473627D01*
Y0748605D01*
X0472027D01*
X0472427Y0742605D02*
Y0744205D01*
X0474027D01*
Y0742605D01*
X0472427D01*
X0472428Y0728479D02*
Y0730079D01*
X0474028D01*
Y0728479D01*
X0472428D01*
X0474003Y0740605D02*
Y0742205D01*
X0475603D01*
Y0740605D01*
X0474003D01*
X0467727Y0742605D02*
Y0744205D01*
X0469327D01*
Y0742605D01*
X0467727D01*
X0474026Y0730479D02*
Y0732079D01*
X0475626D01*
Y0730479D01*
X0474026D01*
X0470876D02*
Y0732079D01*
X0472476D01*
Y0730479D01*
X0470876D01*
X0469256Y0736504D02*
Y0738104D01*
X0470856D01*
Y0736504D01*
X0469256D01*
X0463819Y0748636D02*
Y0750236D01*
X0465418D01*
Y0748636D01*
X0463819D01*
X0467727Y0730479D02*
Y0732079D01*
X0469327D01*
Y0730479D01*
X0467727D01*
X0462727Y0745605D02*
Y0747205D01*
X0464327D01*
Y0745605D01*
X0462727D01*
X0469327Y0748605D02*
Y0750205D01*
X0470927D01*
Y0748605D01*
X0469327D01*
X0532727Y0826405D02*
Y0828005D01*
X0534327D01*
Y0826405D01*
X0532727D01*
X0534527Y0828005D02*
Y0829605D01*
X0536127D01*
Y0828005D01*
X0534527D01*
X0536427Y0829805D02*
Y0831405D01*
X0538027D01*
Y0829805D01*
X0536427D01*
X0538327Y0831605D02*
Y0833205D01*
X0539927D01*
Y0831605D01*
X0538327D01*
X0530827Y0824805D02*
Y0826405D01*
X0532427D01*
Y0824805D01*
X0530827D01*
X0530098Y0818733D02*
Y0820333D01*
X0531699D01*
Y0818733D01*
X0530098D01*
X0551927Y0806905D02*
Y0808505D01*
X0553527D01*
Y0806905D01*
X0551927D01*
X0550361Y0799820D02*
Y0801420D01*
X0551961D01*
Y0799820D01*
X0550361D01*
X0503137Y0816326D02*
Y0817926D01*
X0504737D01*
Y0816326D01*
X0503137D01*
X0539434Y0864205D02*
Y0865805D01*
X0541035D01*
Y0864205D01*
X0539434D01*
X0541427D02*
Y0865805D01*
X0543027D01*
Y0864205D01*
X0541427D01*
X0515100Y0874505D02*
Y0876105D01*
X0516700D01*
Y0874505D01*
X0515100D01*
X0524782Y0856305D02*
Y0857905D01*
X0526382D01*
Y0856305D01*
X0524782D01*
X0522527D02*
Y0857905D01*
X0524127D01*
Y0856305D01*
X0522527D01*
X0519400Y0874505D02*
Y0876105D01*
X0521000D01*
Y0874505D01*
X0519400D01*
X0513100D02*
Y0876105D01*
X0514700D01*
Y0874505D01*
X0513100D01*
X0505105Y0820263D02*
Y0821863D01*
X0506706D01*
Y0820263D01*
X0505105D01*
X0510823Y0865005D02*
Y0866605D01*
X0512423D01*
Y0865005D01*
X0510823D01*
X0516127Y0863005D02*
Y0864605D01*
X0517727D01*
Y0863005D01*
X0516127D01*
X0494827Y0867205D02*
Y0868805D01*
X0496427D01*
Y0867205D01*
X0494827D01*
X0492527D02*
Y0868805D01*
X0494127D01*
Y0867205D01*
X0492527D01*
X0498827Y0864905D02*
Y0866505D01*
X0500427D01*
Y0864905D01*
X0498827D01*
X0501127D02*
Y0866505D01*
X0502727D01*
Y0864905D01*
X0501127D01*
X0497927Y0862905D02*
Y0864505D01*
X0499527D01*
Y0862905D01*
X0497927D01*
X0495627D02*
Y0864505D01*
X0497227D01*
Y0862905D01*
X0495627D01*
X0508527Y0865005D02*
Y0866605D01*
X0510127D01*
Y0865005D01*
X0508527D01*
X0505027Y0863005D02*
Y0864605D01*
X0506627D01*
Y0863005D01*
X0505027D01*
X0507327D02*
Y0864605D01*
X0508927D01*
Y0863005D01*
X0507327D01*
X0505227Y0874505D02*
Y0876105D01*
X0506827D01*
Y0874505D01*
X0505227D01*
X0507227D02*
Y0876105D01*
X0508827D01*
Y0874505D01*
X0507227D01*
X0500927D02*
Y0876105D01*
X0502527D01*
Y0874505D01*
X0500927D01*
X0498927D02*
Y0876105D01*
X0500527D01*
Y0874505D01*
X0498927D01*
X0503137Y0824200D02*
Y0825800D01*
X0504737D01*
Y0824200D01*
X0503137D01*
X0518427Y0863005D02*
Y0864605D01*
X0520027D01*
Y0863005D01*
X0518427D01*
X0519327Y0865105D02*
Y0866705D01*
X0520927D01*
Y0865105D01*
X0519327D01*
X0521627D02*
Y0866705D01*
X0523227D01*
Y0865105D01*
X0521627D01*
X0513027Y0856405D02*
Y0858005D01*
X0514627D01*
Y0856405D01*
X0513027D01*
X0515327D02*
Y0858005D01*
X0516927D01*
Y0856405D01*
X0515327D01*
X0499200Y0822231D02*
Y0823831D01*
X0500800D01*
Y0822231D01*
X0499200D01*
Y0824200D02*
Y0825800D01*
X0500800D01*
Y0824200D01*
X0499200D01*
Y0820263D02*
Y0821863D01*
X0500800D01*
Y0820263D01*
X0499200D01*
X0494712Y0841819D02*
Y0843419D01*
X0496312D01*
Y0841819D01*
X0494712D01*
X0499750Y0841981D02*
Y0843581D01*
X0501350D01*
Y0841981D01*
X0499750D01*
X0495263Y0824200D02*
Y0825800D01*
X0496863D01*
Y0824200D01*
X0495263D01*
Y0822231D02*
Y0823831D01*
X0496863D01*
Y0822231D01*
X0495263D01*
X0491326D02*
Y0823831D01*
X0492926D01*
Y0822231D01*
X0491326D01*
Y0824200D02*
Y0825800D01*
X0492926D01*
Y0824200D01*
X0491326D01*
X0504327Y0856405D02*
Y0858005D01*
X0505927D01*
Y0856405D01*
X0504327D01*
X0502027D02*
Y0858005D01*
X0503627D01*
Y0856405D01*
X0502027D01*
X0486927Y0874905D02*
Y0876505D01*
X0488527D01*
Y0874905D01*
X0486927D01*
X0492927Y0856005D02*
Y0857605D01*
X0494527D01*
Y0856005D01*
X0492927D01*
X0510427Y0841905D02*
Y0843505D01*
X0512027D01*
Y0841905D01*
X0510427D01*
X0487389Y0820294D02*
Y0821894D01*
X0488989D01*
Y0820294D01*
X0487389D01*
X0488627Y0867305D02*
Y0868905D01*
X0490227D01*
Y0867305D01*
X0488627D01*
X0486327D02*
Y0868905D01*
X0487927D01*
Y0867305D01*
X0486327D01*
X0483927D02*
Y0868905D01*
X0485527D01*
Y0867305D01*
X0483927D01*
X0503137Y0820263D02*
Y0821863D01*
X0504737D01*
Y0820263D01*
X0503137D01*
X0588127Y0759105D02*
Y0760705D01*
X0589727D01*
Y0759105D01*
X0588127D01*
X0578127Y0759705D02*
Y0761305D01*
X0579727D01*
Y0759705D01*
X0578127D01*
X0578027Y0762005D02*
Y0763605D01*
X0579627D01*
Y0762005D01*
X0578027D01*
X0391027Y0831305D02*
Y0832905D01*
X0392627D01*
Y0831305D01*
X0391027D01*
X0453227Y0851105D02*
Y0852705D01*
X0454827D01*
Y0851105D01*
X0453227D01*
X0455527D02*
Y0852705D01*
X0457127D01*
Y0851105D01*
X0455527D01*
X0451027Y0859505D02*
Y0861105D01*
X0452627D01*
Y0859505D01*
X0451027D01*
X0550361Y0804120D02*
Y0805720D01*
X0551961D01*
Y0804120D01*
X0550361D01*
X0479515Y0820263D02*
Y0821863D01*
X0481115D01*
Y0820263D01*
X0479515D01*
X0477547Y0812389D02*
Y0813989D01*
X0479146D01*
Y0812389D01*
X0477547D01*
X0477527Y0768005D02*
Y0769605D01*
X0479127D01*
Y0768005D01*
X0477527D01*
X0495263Y0792741D02*
Y0794341D01*
X0496863D01*
Y0792741D01*
X0495263D01*
X0526727Y0751205D02*
Y0752805D01*
X0528327D01*
Y0751205D01*
X0526727D01*
Y0748805D02*
Y0750405D01*
X0528327D01*
Y0748805D01*
X0526727D01*
X0529627D02*
Y0750405D01*
X0531227D01*
Y0748805D01*
X0529627D01*
X0540727Y0750605D02*
Y0752205D01*
X0542327D01*
Y0750605D01*
X0540727D01*
X0529627Y0751205D02*
Y0752805D01*
X0531227D01*
Y0751205D01*
X0529627D01*
X0520527Y0738705D02*
Y0740305D01*
X0522127D01*
Y0738705D01*
X0520527D01*
X0560927Y0732305D02*
Y0733905D01*
X0562527D01*
Y0732305D01*
X0560927D01*
X0585327Y0735805D02*
Y0737405D01*
X0586927D01*
Y0735805D01*
X0585327D01*
Y0732505D02*
Y0734105D01*
X0586927D01*
Y0732505D01*
X0585327D01*
X0567427Y0807205D02*
Y0808805D01*
X0569027D01*
Y0807205D01*
X0567427D01*
X0565527Y0799205D02*
Y0800805D01*
X0567127D01*
Y0799205D01*
X0565527D01*
X0563627Y0800905D02*
Y0802505D01*
X0565227D01*
Y0800905D01*
X0563627D01*
X0549727Y0739505D02*
Y0741105D01*
X0551327D01*
Y0739505D01*
X0549727D01*
Y0733405D02*
Y0735005D01*
X0551327D01*
Y0733405D01*
X0549727D01*
X0556127Y0732305D02*
Y0733905D01*
X0557727D01*
Y0732305D01*
X0556127D01*
X0543927Y0740405D02*
Y0742005D01*
X0545527D01*
Y0740405D01*
X0543927D01*
X0540927Y0740305D02*
Y0741905D01*
X0542527D01*
Y0740305D01*
X0540927D01*
X0531827Y0739905D02*
Y0741505D01*
X0533427D01*
Y0739905D01*
X0531827D01*
X0526627D02*
Y0741505D01*
X0528227D01*
Y0739905D01*
X0526627D01*
X0520527Y0736305D02*
Y0737905D01*
X0522127D01*
Y0736305D01*
X0520527D01*
X0529327Y0740105D02*
Y0741705D01*
X0530927D01*
Y0740105D01*
X0529327D01*
X0538227Y0740205D02*
Y0741805D01*
X0539827D01*
Y0740205D01*
X0538227D01*
X0589927Y0794305D02*
Y0795905D01*
X0591527D01*
Y0794305D01*
X0589927D01*
X0585927Y0794105D02*
Y0795705D01*
X0587527D01*
Y0794105D01*
X0585927D01*
X0581719Y0794005D02*
Y0795605D01*
X0583319D01*
Y0794005D01*
X0581719D01*
X0573727Y0770805D02*
Y0772405D01*
X0575327D01*
Y0770805D01*
X0573727D01*
X0595327Y0771105D02*
Y0772705D01*
X0596927D01*
Y0771105D01*
X0595327D01*
X0595527Y0780029D02*
Y0781629D01*
X0597127D01*
Y0780029D01*
X0595527D01*
Y0776005D02*
Y0777605D01*
X0597127D01*
Y0776005D01*
X0595527D01*
X0592127Y0771005D02*
Y0772605D01*
X0593727D01*
Y0771005D01*
X0592127D01*
X0587827Y0770905D02*
Y0772505D01*
X0589427D01*
Y0770905D01*
X0587827D01*
X0584027D02*
Y0772505D01*
X0585627D01*
Y0770905D01*
X0584027D01*
X0580827Y0770805D02*
Y0772405D01*
X0582427D01*
Y0770805D01*
X0580827D01*
X0576927D02*
Y0772405D01*
X0578527D01*
Y0770805D01*
X0576927D01*
X0591167Y0786328D02*
Y0787928D01*
X0592767D01*
Y0786328D01*
X0591167D01*
Y0778454D02*
Y0780054D01*
X0592767D01*
Y0778454D01*
X0591167D01*
X0584081D02*
Y0780054D01*
X0585681D01*
Y0778454D01*
X0584081D01*
Y0786328D02*
Y0787928D01*
X0585681D01*
Y0786328D01*
X0584081D01*
X0576994Y0778454D02*
Y0780054D01*
X0578594D01*
Y0778454D01*
X0576994D01*
Y0786328D02*
Y0787928D01*
X0578594D01*
Y0786328D01*
X0576994D01*
X0584081Y0789478D02*
Y0791078D01*
X0585681D01*
Y0789478D01*
X0584081D01*
Y0775305D02*
Y0776905D01*
X0585681D01*
Y0775305D01*
X0584081D01*
X0576994Y0782391D02*
Y0783991D01*
X0578594D01*
Y0782391D01*
X0576994D01*
X0591167D02*
Y0783991D01*
X0592767D01*
Y0782391D01*
X0591167D01*
Y0775305D02*
Y0776905D01*
X0592767D01*
Y0775305D01*
X0591167D01*
X0576994D02*
Y0776905D01*
X0578594D01*
Y0775305D01*
X0576994D01*
X0591167Y0789805D02*
Y0791405D01*
X0592767D01*
Y0789805D01*
X0591167D01*
X0584081Y0782391D02*
Y0783991D01*
X0585681D01*
Y0782391D01*
X0584081D01*
X0559927Y0814505D02*
Y0816105D01*
X0561527D01*
Y0814505D01*
X0559927D01*
X0555827Y0812005D02*
Y0813605D01*
X0557427D01*
Y0812005D01*
X0555827D01*
X0557527Y0817005D02*
Y0818605D01*
X0559127D01*
Y0817005D01*
X0557527D01*
X0546927Y0746505D02*
Y0748105D01*
X0548527D01*
Y0746505D01*
X0546927D01*
X0550827Y0744105D02*
Y0745705D01*
X0552427D01*
Y0744105D01*
X0550827D01*
X0545827Y0750705D02*
Y0752305D01*
X0547427D01*
Y0750705D01*
X0545827D01*
X0550827Y0750305D02*
Y0751905D01*
X0552427D01*
Y0750305D01*
X0550827D01*
X0540727Y0755005D02*
Y0756605D01*
X0542327D01*
Y0755005D01*
X0540727D01*
X0550627Y0755205D02*
Y0756805D01*
X0552227D01*
Y0755205D01*
X0550627D01*
X0549327Y0763505D02*
Y0765105D01*
X0550927D01*
Y0763505D01*
X0549327D01*
X0547727Y0769605D02*
Y0771205D01*
X0549327D01*
Y0769605D01*
X0547727D01*
Y0774105D02*
Y0775705D01*
X0549327D01*
Y0774105D01*
X0547727D01*
X0552127Y0797605D02*
Y0799205D01*
X0553727D01*
Y0797605D01*
X0552127D01*
X0567427Y0817505D02*
Y0819105D01*
X0569027D01*
Y0817505D01*
X0567427D01*
X0563527Y0817405D02*
Y0819005D01*
X0565127D01*
Y0817405D01*
X0563527D01*
X0574027Y0821905D02*
Y0823505D01*
X0575627D01*
Y0821905D01*
X0574027D01*
X0589327Y0820305D02*
Y0821905D01*
X0590927D01*
Y0820305D01*
X0589327D01*
Y0824005D02*
Y0825605D01*
X0590927D01*
Y0824005D01*
X0589327D01*
X0593327D02*
Y0825605D01*
X0594927D01*
Y0824005D01*
X0593327D01*
X0585327D02*
Y0825605D01*
X0586927D01*
Y0824005D01*
X0585327D01*
X0593327Y0820305D02*
Y0821905D01*
X0594927D01*
Y0820305D01*
X0593327D01*
X0585327D02*
Y0821905D01*
X0586927D01*
Y0820305D01*
X0585327D01*
X0587627Y0804105D02*
Y0805705D01*
X0589227D01*
Y0804105D01*
X0587627D01*
X0585327Y0804205D02*
Y0805805D01*
X0586927D01*
Y0804205D01*
X0585327D01*
X0587627Y0801605D02*
Y0803205D01*
X0589227D01*
Y0801605D01*
X0587627D01*
X0585327D02*
Y0803205D01*
X0586927D01*
Y0801605D01*
X0585327D01*
X0606827Y0821705D02*
Y0823305D01*
X0608427D01*
Y0821705D01*
X0606827D01*
X0603827D02*
Y0823305D01*
X0605427D01*
Y0821705D01*
X0603827D01*
X0614527Y0797905D02*
Y0799505D01*
X0616127D01*
Y0797905D01*
X0614527D01*
X0616427Y0777005D02*
Y0778605D01*
X0618027D01*
Y0777005D01*
X0616427D01*
Y0779905D02*
Y0781505D01*
X0618027D01*
Y0779905D01*
X0616427D01*
X0603127Y0779005D02*
Y0780605D01*
X0604727D01*
Y0779005D01*
X0603127D01*
Y0781005D02*
Y0782605D01*
X0604727D01*
Y0781005D01*
X0603127D01*
X0572027Y0733905D02*
Y0735505D01*
X0573627D01*
Y0733905D01*
X0572027D01*
X0573927Y0737005D02*
Y0738605D01*
X0575527D01*
Y0737005D01*
X0573927D01*
X0569927Y0736905D02*
Y0738505D01*
X0571527D01*
Y0736905D01*
X0569927D01*
X0573927Y0740605D02*
Y0742205D01*
X0575527D01*
Y0740605D01*
X0573927D01*
X0569927D02*
Y0742205D01*
X0571527D01*
Y0740605D01*
X0569927D01*
X0573927Y0744005D02*
Y0745605D01*
X0575527D01*
Y0744005D01*
X0573927D01*
X0570027Y0743905D02*
Y0745505D01*
X0571627D01*
Y0743905D01*
X0570027D01*
X0615727Y0759205D02*
Y0760805D01*
X0617327D01*
Y0759205D01*
X0615727D01*
X0612527D02*
Y0760805D01*
X0614127D01*
Y0759205D01*
X0612527D01*
X0615727Y0761605D02*
Y0763205D01*
X0617327D01*
Y0761605D01*
X0615727D01*
X0612527Y0761705D02*
Y0763305D01*
X0614127D01*
Y0761705D01*
X0612527D01*
X0592527Y0759105D02*
Y0760705D01*
X0594127D01*
Y0759105D01*
X0592527D01*
X0590227D02*
Y0760705D01*
X0591827D01*
Y0759105D01*
X0590227D01*
X0575827Y0759705D02*
Y0761305D01*
X0577427D01*
Y0759705D01*
X0575827D01*
X0576027Y0762005D02*
Y0763605D01*
X0577627D01*
Y0762005D01*
X0576027D01*
X0597727Y0759605D02*
Y0761205D01*
X0599327D01*
Y0759605D01*
X0597727D01*
X0594327Y0763805D02*
Y0765405D01*
X0595927D01*
Y0763805D01*
X0594327D01*
X0543427Y0779805D02*
Y0781405D01*
X0545027D01*
Y0779805D01*
X0543427D01*
X0543227Y0775705D02*
Y0777305D01*
X0544827D01*
Y0775705D01*
X0543227D01*
X0562727Y0774705D02*
Y0776305D01*
X0564327D01*
Y0774705D01*
X0562727D01*
X0572127Y0783179D02*
Y0784779D01*
X0573727D01*
Y0783179D01*
X0572127D01*
Y0780029D02*
Y0781629D01*
X0573727D01*
Y0780029D01*
X0572127D01*
X0543227Y0771805D02*
Y0773405D01*
X0544827D01*
Y0771805D01*
X0543227D01*
X0572127Y0775305D02*
Y0776905D01*
X0573727D01*
Y0775305D01*
X0572127D01*
X0565327Y0774005D02*
Y0775605D01*
X0566927D01*
Y0774005D01*
X0565327D01*
X0565027Y0769305D02*
Y0770905D01*
X0566627D01*
Y0769305D01*
X0565027D01*
X0550527Y0759105D02*
Y0760705D01*
X0552127D01*
Y0759105D01*
X0550527D01*
X0543227Y0767705D02*
Y0769305D01*
X0544827D01*
Y0767705D01*
X0543227D01*
Y0763805D02*
Y0765405D01*
X0544827D01*
Y0763805D01*
X0543227D01*
X0599227Y0794705D02*
Y0796305D01*
X0600827D01*
Y0794705D01*
X0599227D01*
X0595727Y0791805D02*
Y0793405D01*
X0597327D01*
Y0791805D01*
X0595727D01*
Y0789505D02*
Y0791105D01*
X0597327D01*
Y0789505D01*
X0595727D01*
Y0787205D02*
Y0788805D01*
X0597327D01*
Y0787205D01*
X0595727D01*
X0595827Y0784805D02*
Y0786405D01*
X0597427D01*
Y0784805D01*
X0595827D01*
X0599427Y0763805D02*
Y0765405D01*
X0601027D01*
Y0763805D01*
X0599427D01*
X0562727Y0780105D02*
Y0781705D01*
X0564327D01*
Y0780105D01*
X0562727D01*
X0577927Y0794205D02*
Y0795805D01*
X0579527D01*
Y0794205D01*
X0577927D01*
X0574727Y0794105D02*
Y0795705D01*
X0576327D01*
Y0794105D01*
X0574727D01*
X0481227Y0867205D02*
Y0868805D01*
X0482827D01*
Y0867205D01*
X0481227D01*
X0448627Y0859505D02*
Y0861105D01*
X0450227D01*
Y0859505D01*
X0448627D01*
X0437127D02*
Y0861105D01*
X0438727D01*
Y0859505D01*
X0437127D01*
X0439427D02*
Y0861105D01*
X0441027D01*
Y0859505D01*
X0439427D01*
X0434827D02*
Y0861105D01*
X0436427D01*
Y0859505D01*
X0434827D01*
X0441727D02*
Y0861105D01*
X0443327D01*
Y0859505D01*
X0441727D01*
X0444027D02*
Y0861105D01*
X0445627D01*
Y0859505D01*
X0444027D01*
X0432527D02*
Y0861105D01*
X0434127D01*
Y0859505D01*
X0432527D01*
X0446315Y0859517D02*
Y0861117D01*
X0447915D01*
Y0859517D01*
X0446315D01*
X0471621Y0824200D02*
Y0825800D01*
X0473221D01*
Y0824200D01*
X0471621D01*
Y0822231D02*
Y0823831D01*
X0473221D01*
Y0822231D01*
X0471621D01*
Y0820263D02*
Y0821863D01*
X0473221D01*
Y0820263D01*
X0471621D01*
Y0818295D02*
Y0819895D01*
X0473221D01*
Y0818295D01*
X0471621D01*
X0463767Y0824200D02*
Y0825800D01*
X0465367D01*
Y0824200D01*
X0463767D01*
X0473927Y0851105D02*
Y0852705D01*
X0475527D01*
Y0851105D01*
X0473927D01*
X0462427D02*
Y0852705D01*
X0464027D01*
Y0851105D01*
X0462427D01*
X0471627D02*
Y0852705D01*
X0473227D01*
Y0851105D01*
X0471627D01*
X0457827D02*
Y0852705D01*
X0459427D01*
Y0851105D01*
X0457827D01*
X0476227D02*
Y0852705D01*
X0477827D01*
Y0851105D01*
X0476227D01*
X0464727D02*
Y0852705D01*
X0466327D01*
Y0851105D01*
X0464727D01*
X0467027D02*
Y0852705D01*
X0468627D01*
Y0851105D01*
X0467027D01*
X0460127D02*
Y0852705D01*
X0461727D01*
Y0851105D01*
X0460127D01*
X0469327D02*
Y0852705D01*
X0470927D01*
Y0851105D01*
X0469327D01*
X0483452Y0786798D02*
Y0788398D01*
X0485052D01*
Y0786798D01*
X0483452D01*
X0467704Y0822231D02*
Y0823831D01*
X0469304D01*
Y0822231D01*
X0467704D01*
Y0824200D02*
Y0825800D01*
X0469304D01*
Y0824200D01*
X0467704D01*
X0461798Y0784830D02*
Y0786430D01*
X0463398D01*
Y0784830D01*
X0461798D01*
X0505105Y0816326D02*
Y0817926D01*
X0506706D01*
Y0816326D01*
X0505105D01*
X0499200Y0818295D02*
Y0819895D01*
X0500800D01*
Y0818295D01*
X0499200D01*
X0477547Y0796641D02*
Y0798241D01*
X0479146D01*
Y0796641D01*
X0477547D01*
X0479515D02*
Y0798241D01*
X0481115D01*
Y0796641D01*
X0479515D01*
X0483452Y0804515D02*
Y0806115D01*
X0485052D01*
Y0804515D01*
X0483452D01*
Y0802547D02*
Y0804146D01*
X0485052D01*
Y0802547D01*
X0483452D01*
X0483352Y0800878D02*
Y0802478D01*
X0484952D01*
Y0800878D01*
X0483352D01*
X0479515Y0800578D02*
Y0802178D01*
X0481115D01*
Y0800578D01*
X0479515D01*
Y0804515D02*
Y0806115D01*
X0481115D01*
Y0804515D01*
X0479515D01*
X0483452Y0810421D02*
Y0812020D01*
X0485052D01*
Y0810421D01*
X0483452D01*
Y0796641D02*
Y0798241D01*
X0485052D01*
Y0796641D01*
X0483452D01*
Y0794672D02*
Y0796272D01*
X0485052D01*
Y0794672D01*
X0483452D01*
X0479515Y0792704D02*
Y0794304D01*
X0481115D01*
Y0792704D01*
X0479515D01*
X0473609Y0796641D02*
Y0798241D01*
X0475210D01*
Y0796641D01*
X0473609D01*
Y0804515D02*
Y0806115D01*
X0475210D01*
Y0804515D01*
X0473609D01*
X0479515Y0812389D02*
Y0813989D01*
X0481115D01*
Y0812389D01*
X0479515D01*
X0487389Y0804515D02*
Y0806115D01*
X0488989D01*
Y0804515D01*
X0487389D01*
Y0800578D02*
Y0802178D01*
X0488989D01*
Y0800578D01*
X0487389D01*
Y0796641D02*
Y0798241D01*
X0488989D01*
Y0796641D01*
X0487389D01*
Y0792704D02*
Y0794304D01*
X0488989D01*
Y0792704D01*
X0487389D01*
X0489358Y0804515D02*
Y0806115D01*
X0490957D01*
Y0804515D01*
X0489358D01*
Y0792704D02*
Y0794304D01*
X0490957D01*
Y0792704D01*
X0489358D01*
X0497231Y0808452D02*
Y0810052D01*
X0498832D01*
Y0808452D01*
X0497231D01*
Y0800578D02*
Y0802178D01*
X0498832D01*
Y0800578D01*
X0497231D01*
X0471641Y0812389D02*
Y0813989D01*
X0473241D01*
Y0812389D01*
X0471641D01*
Y0808452D02*
Y0810052D01*
X0473241D01*
Y0808452D01*
X0471641D01*
Y0804515D02*
Y0806115D01*
X0473241D01*
Y0804515D01*
X0471641D01*
Y0800578D02*
Y0802178D01*
X0473241D01*
Y0800578D01*
X0471641D01*
Y0796641D02*
Y0798241D01*
X0473241D01*
Y0796641D01*
X0471641D01*
X0469672Y0812389D02*
Y0813989D01*
X0471272D01*
Y0812389D01*
X0469672D01*
Y0808452D02*
Y0810052D01*
X0471272D01*
Y0808452D01*
X0469672D01*
Y0804515D02*
Y0806115D01*
X0471272D01*
Y0804515D01*
X0469672D01*
Y0800578D02*
Y0802178D01*
X0471272D01*
Y0800578D01*
X0469672D01*
Y0796641D02*
Y0798241D01*
X0471272D01*
Y0796641D01*
X0469672D01*
Y0792704D02*
Y0794304D01*
X0471272D01*
Y0792704D01*
X0469672D01*
X0471641Y0814357D02*
Y0815958D01*
X0473241D01*
Y0814357D01*
X0471641D01*
X0477547D02*
Y0815958D01*
X0479146D01*
Y0814357D01*
X0477547D01*
X0495263Y0813373D02*
Y0814973D01*
X0496863D01*
Y0813373D01*
X0495263D01*
Y0790735D02*
Y0792335D01*
X0496863D01*
Y0790735D01*
X0495263D01*
X0479515D02*
Y0792335D01*
X0481115D01*
Y0790735D01*
X0479515D01*
X0471641D02*
Y0792335D01*
X0473241D01*
Y0790735D01*
X0471641D01*
X0495263Y0818295D02*
Y0819895D01*
X0496863D01*
Y0818295D01*
X0495263D01*
X0487389D02*
Y0819895D01*
X0488989D01*
Y0818295D01*
X0487389D01*
X0483452D02*
Y0819895D01*
X0485052D01*
Y0818295D01*
X0483452D01*
X0475578D02*
Y0819895D01*
X0477178D01*
Y0818295D01*
X0475578D01*
X0461798Y0808452D02*
Y0810052D01*
X0463398D01*
Y0808452D01*
X0461798D01*
X0463767D02*
Y0810052D01*
X0465367D01*
Y0808452D01*
X0463767D01*
Y0800578D02*
Y0802178D01*
X0465367D01*
Y0800578D01*
X0463767D01*
X0465735D02*
Y0802178D01*
X0467335D01*
Y0800578D01*
X0465735D01*
X0461798Y0812389D02*
Y0813989D01*
X0463398D01*
Y0812389D01*
X0461798D01*
Y0792704D02*
Y0794304D01*
X0463398D01*
Y0792704D01*
X0461798D01*
X0463767D02*
Y0794304D01*
X0465367D01*
Y0792704D01*
X0463767D01*
X0465735D02*
Y0794304D01*
X0467335D01*
Y0792704D01*
X0465735D01*
X0507074Y0778924D02*
Y0780524D01*
X0508674D01*
Y0778924D01*
X0507074D01*
X0491326Y0786798D02*
Y0788398D01*
X0492926D01*
Y0786798D01*
X0491326D01*
X0459830Y0780893D02*
Y0782493D01*
X0461430D01*
Y0780893D01*
X0459830D01*
Y0778924D02*
Y0780524D01*
X0461430D01*
Y0778924D01*
X0459830D01*
X0501168Y0788767D02*
Y0790367D01*
X0502769D01*
Y0788767D01*
X0501168D01*
X0505105Y0792704D02*
Y0794304D01*
X0506706D01*
Y0792704D01*
X0505105D01*
X0503137D02*
Y0794304D01*
X0504737D01*
Y0792704D01*
X0503137D01*
X0501168D02*
Y0794304D01*
X0502769D01*
Y0792704D01*
X0501168D01*
Y0812389D02*
Y0813989D01*
X0502769D01*
Y0812389D01*
X0501168D01*
X0503137D02*
Y0813989D01*
X0504737D01*
Y0812389D01*
X0503137D01*
X0505105D02*
Y0813989D01*
X0506706D01*
Y0812389D01*
X0505105D01*
X0501168Y0796641D02*
Y0798241D01*
X0502769D01*
Y0796641D01*
X0501168D01*
X0503137D02*
Y0798241D01*
X0504737D01*
Y0796641D01*
X0503137D01*
X0505105D02*
Y0798241D01*
X0506706D01*
Y0796641D01*
X0505105D01*
X0501168Y0800578D02*
Y0802178D01*
X0502769D01*
Y0800578D01*
X0501168D01*
X0505105Y0804515D02*
Y0806115D01*
X0506706D01*
Y0804515D01*
X0505105D01*
X0491326Y0784830D02*
Y0786430D01*
X0492926D01*
Y0784830D01*
X0491326D01*
Y0782861D02*
Y0784461D01*
X0492926D01*
Y0782861D01*
X0491326D01*
Y0780893D02*
Y0782493D01*
X0492926D01*
Y0780893D01*
X0491326D01*
X0487389Y0784830D02*
Y0786430D01*
X0488989D01*
Y0784830D01*
X0487389D01*
Y0782861D02*
Y0784461D01*
X0488989D01*
Y0782861D01*
X0487389D01*
X0467704Y0784830D02*
Y0786430D01*
X0469304D01*
Y0784830D01*
X0467704D01*
Y0782861D02*
Y0784461D01*
X0469304D01*
Y0782861D01*
X0467704D01*
Y0780893D02*
Y0782493D01*
X0469304D01*
Y0780893D01*
X0467704D01*
X0463767D02*
Y0782493D01*
X0465367D01*
Y0780893D01*
X0463767D01*
Y0782861D02*
Y0784461D01*
X0465367D01*
Y0782861D01*
X0463767D01*
Y0784830D02*
Y0786430D01*
X0465367D01*
Y0784830D01*
X0463767D01*
Y0822231D02*
Y0823831D01*
X0465367D01*
Y0822231D01*
X0463767D01*
Y0820263D02*
Y0821863D01*
X0465367D01*
Y0820263D01*
X0463767D01*
X0467704D02*
Y0821863D01*
X0469304D01*
Y0820263D01*
X0467704D01*
X0475578D02*
Y0821863D01*
X0477178D01*
Y0820263D01*
X0475578D01*
X0495263D02*
Y0821863D01*
X0496863D01*
Y0820263D01*
X0495263D01*
X0507074Y0826169D02*
Y0827769D01*
X0508674D01*
Y0826169D01*
X0507074D01*
X0483452Y0820263D02*
Y0821863D01*
X0485052D01*
Y0820263D01*
X0483452D01*
X0491326D02*
Y0821863D01*
X0492926D01*
Y0820263D01*
X0491326D01*
M02*
