G04*
G04 #@! TF.GenerationSoftware,Altium Limited,Altium Designer,25.1.2 (22)*
G04*
G04 Layer_Color=8388736*
%FSAX25Y25*%
%MOIN*%
G70*
G04*
G04 #@! TF.SameCoordinates,C8C0AD5F-FC7A-4EF2-B1F4-1BF668D8B3FE*
G04*
G04*
G04 #@! TF.FilePolarity,Negative*
G04*
G01*
G75*
G04:AMPARAMS|DCode=35|XSize=23.62mil|YSize=9.84mil|CornerRadius=1.97mil|HoleSize=0mil|Usage=FLASHONLY|Rotation=0.000|XOffset=0mil|YOffset=0mil|HoleType=Round|Shape=RoundedRectangle|*
%AMROUNDEDRECTD35*
21,1,0.02362,0.00591,0,0,0.0*
21,1,0.01968,0.00984,0,0,0.0*
1,1,0.00394,0.00984,-0.00295*
1,1,0.00394,-0.00984,-0.00295*
1,1,0.00394,-0.00984,0.00295*
1,1,0.00394,0.00984,0.00295*
%
%ADD35ROUNDEDRECTD35*%
G04:AMPARAMS|DCode=36|XSize=9.84mil|YSize=23.62mil|CornerRadius=1.97mil|HoleSize=0mil|Usage=FLASHONLY|Rotation=0.000|XOffset=0mil|YOffset=0mil|HoleType=Round|Shape=RoundedRectangle|*
%AMROUNDEDRECTD36*
21,1,0.00984,0.01968,0,0,0.0*
21,1,0.00591,0.02362,0,0,0.0*
1,1,0.00394,0.00295,-0.00984*
1,1,0.00394,-0.00295,-0.00984*
1,1,0.00394,-0.00295,0.00984*
1,1,0.00394,0.00295,0.00984*
%
%ADD36ROUNDEDRECTD36*%
%ADD51R,0.02362X0.01378*%
G04:AMPARAMS|DCode=57|XSize=29.53mil|YSize=9.84mil|CornerRadius=4.92mil|HoleSize=0mil|Usage=FLASHONLY|Rotation=0.000|XOffset=0mil|YOffset=0mil|HoleType=Round|Shape=RoundedRectangle|*
%AMROUNDEDRECTD57*
21,1,0.02953,0.00000,0,0,0.0*
21,1,0.01968,0.00984,0,0,0.0*
1,1,0.00984,0.00984,0.00000*
1,1,0.00984,-0.00984,0.00000*
1,1,0.00984,-0.00984,0.00000*
1,1,0.00984,0.00984,0.00000*
%
%ADD57ROUNDEDRECTD57*%
G04:AMPARAMS|DCode=58|XSize=9.84mil|YSize=29.53mil|CornerRadius=4.92mil|HoleSize=0mil|Usage=FLASHONLY|Rotation=0.000|XOffset=0mil|YOffset=0mil|HoleType=Round|Shape=RoundedRectangle|*
%AMROUNDEDRECTD58*
21,1,0.00984,0.01968,0,0,0.0*
21,1,0.00000,0.02953,0,0,0.0*
1,1,0.00984,0.00000,-0.00984*
1,1,0.00984,0.00000,-0.00984*
1,1,0.00984,0.00000,0.00984*
1,1,0.00984,0.00000,0.00984*
%
%ADD58ROUNDEDRECTD58*%
%ADD59R,0.17520X0.17520*%
%ADD72C,0.03937*%
%ADD73C,0.02368*%
%ADD74R,0.02559X0.03150*%
%ADD75R,0.06299X0.03150*%
G04:AMPARAMS|DCode=76|XSize=47.31mil|YSize=43.37mil|CornerRadius=5.94mil|HoleSize=0mil|Usage=FLASHONLY|Rotation=0.000|XOffset=0mil|YOffset=0mil|HoleType=Round|Shape=RoundedRectangle|*
%AMROUNDEDRECTD76*
21,1,0.04731,0.03150,0,0,0.0*
21,1,0.03543,0.04337,0,0,0.0*
1,1,0.01187,0.01772,-0.01575*
1,1,0.01187,-0.01772,-0.01575*
1,1,0.01187,-0.01772,0.01575*
1,1,0.01187,0.01772,0.01575*
%
%ADD76ROUNDEDRECTD76*%
G04:AMPARAMS|DCode=77|XSize=24mil|YSize=24mil|CornerRadius=4mil|HoleSize=0mil|Usage=FLASHONLY|Rotation=180.000|XOffset=0mil|YOffset=0mil|HoleType=Round|Shape=RoundedRectangle|*
%AMROUNDEDRECTD77*
21,1,0.02400,0.01600,0,0,180.0*
21,1,0.01600,0.02400,0,0,180.0*
1,1,0.00800,-0.00800,0.00800*
1,1,0.00800,0.00800,0.00800*
1,1,0.00800,0.00800,-0.00800*
1,1,0.00800,-0.00800,-0.00800*
%
%ADD77ROUNDEDRECTD77*%
G04:AMPARAMS|DCode=78|XSize=90.61mil|YSize=45.34mil|CornerRadius=6.13mil|HoleSize=0mil|Usage=FLASHONLY|Rotation=270.000|XOffset=0mil|YOffset=0mil|HoleType=Round|Shape=RoundedRectangle|*
%AMROUNDEDRECTD78*
21,1,0.09061,0.03307,0,0,270.0*
21,1,0.07835,0.04534,0,0,270.0*
1,1,0.01227,-0.01654,-0.03917*
1,1,0.01227,-0.01654,0.03917*
1,1,0.01227,0.01654,0.03917*
1,1,0.01227,0.01654,-0.03917*
%
%ADD78ROUNDEDRECTD78*%
G04:AMPARAMS|DCode=79|XSize=45.34mil|YSize=45.34mil|CornerRadius=6.13mil|HoleSize=0mil|Usage=FLASHONLY|Rotation=180.000|XOffset=0mil|YOffset=0mil|HoleType=Round|Shape=RoundedRectangle|*
%AMROUNDEDRECTD79*
21,1,0.04534,0.03307,0,0,180.0*
21,1,0.03307,0.04534,0,0,180.0*
1,1,0.01227,-0.01654,0.01654*
1,1,0.01227,0.01654,0.01654*
1,1,0.01227,0.01654,-0.01654*
1,1,0.01227,-0.01654,-0.01654*
%
%ADD79ROUNDEDRECTD79*%
%ADD80R,0.03353X0.02762*%
G04:AMPARAMS|DCode=81|XSize=28.41mil|YSize=59.12mil|CornerRadius=4.44mil|HoleSize=0mil|Usage=FLASHONLY|Rotation=0.000|XOffset=0mil|YOffset=0mil|HoleType=Round|Shape=RoundedRectangle|*
%AMROUNDEDRECTD81*
21,1,0.02841,0.05024,0,0,0.0*
21,1,0.01953,0.05912,0,0,0.0*
1,1,0.00888,0.00976,-0.02512*
1,1,0.00888,-0.00976,-0.02512*
1,1,0.00888,-0.00976,0.02512*
1,1,0.00888,0.00976,0.02512*
%
%ADD81ROUNDEDRECTD81*%
%ADD82R,0.04731X0.09849*%
G04:AMPARAMS|DCode=83|XSize=33.53mil|YSize=13.84mil|CornerRadius=2.98mil|HoleSize=0mil|Usage=FLASHONLY|Rotation=270.000|XOffset=0mil|YOffset=0mil|HoleType=Round|Shape=RoundedRectangle|*
%AMROUNDEDRECTD83*
21,1,0.03353,0.00787,0,0,270.0*
21,1,0.02756,0.01384,0,0,270.0*
1,1,0.00597,-0.00394,-0.01378*
1,1,0.00597,-0.00394,0.01378*
1,1,0.00597,0.00394,0.01378*
1,1,0.00597,0.00394,-0.01378*
%
%ADD83ROUNDEDRECTD83*%
G04:AMPARAMS|DCode=84|XSize=41.4mil|YSize=37.47mil|CornerRadius=5.35mil|HoleSize=0mil|Usage=FLASHONLY|Rotation=270.000|XOffset=0mil|YOffset=0mil|HoleType=Round|Shape=RoundedRectangle|*
%AMROUNDEDRECTD84*
21,1,0.04140,0.02677,0,0,270.0*
21,1,0.03071,0.03747,0,0,270.0*
1,1,0.01069,-0.01339,-0.01535*
1,1,0.01069,-0.01339,0.01535*
1,1,0.01069,0.01339,0.01535*
1,1,0.01069,0.01339,-0.01535*
%
%ADD84ROUNDEDRECTD84*%
G04:AMPARAMS|DCode=85|XSize=35.5mil|YSize=35.5mil|CornerRadius=5.94mil|HoleSize=0mil|Usage=FLASHONLY|Rotation=180.000|XOffset=0mil|YOffset=0mil|HoleType=Round|Shape=RoundedRectangle|*
%AMROUNDEDRECTD85*
21,1,0.03550,0.02362,0,0,180.0*
21,1,0.02362,0.03550,0,0,180.0*
1,1,0.01187,-0.01181,0.01181*
1,1,0.01187,0.01181,0.01181*
1,1,0.01187,0.01181,-0.01181*
1,1,0.01187,-0.01181,-0.01181*
%
%ADD85ROUNDEDRECTD85*%
%ADD86R,0.02861X0.03668*%
G04:AMPARAMS|DCode=87|XSize=18.01mil|YSize=18.01mil|CornerRadius=4.2mil|HoleSize=0mil|Usage=FLASHONLY|Rotation=180.000|XOffset=0mil|YOffset=0mil|HoleType=Round|Shape=RoundedRectangle|*
%AMROUNDEDRECTD87*
21,1,0.01801,0.00961,0,0,180.0*
21,1,0.00961,0.01801,0,0,180.0*
1,1,0.00840,-0.00480,0.00480*
1,1,0.00840,0.00480,0.00480*
1,1,0.00840,0.00480,-0.00480*
1,1,0.00840,-0.00480,-0.00480*
%
%ADD87ROUNDEDRECTD87*%
G04:AMPARAMS|DCode=88|XSize=18.01mil|YSize=18.01mil|CornerRadius=4.2mil|HoleSize=0mil|Usage=FLASHONLY|Rotation=270.000|XOffset=0mil|YOffset=0mil|HoleType=Round|Shape=RoundedRectangle|*
%AMROUNDEDRECTD88*
21,1,0.01801,0.00961,0,0,270.0*
21,1,0.00961,0.01801,0,0,270.0*
1,1,0.00840,-0.00480,-0.00480*
1,1,0.00840,-0.00480,0.00480*
1,1,0.00840,0.00480,0.00480*
1,1,0.00840,0.00480,-0.00480*
%
%ADD88ROUNDEDRECTD88*%
G04:AMPARAMS|DCode=89|XSize=17.78mil|YSize=17.78mil|CornerRadius=3.38mil|HoleSize=0mil|Usage=FLASHONLY|Rotation=180.000|XOffset=0mil|YOffset=0mil|HoleType=Round|Shape=RoundedRectangle|*
%AMROUNDEDRECTD89*
21,1,0.01778,0.01102,0,0,180.0*
21,1,0.01102,0.01778,0,0,180.0*
1,1,0.00676,-0.00551,0.00551*
1,1,0.00676,0.00551,0.00551*
1,1,0.00676,0.00551,-0.00551*
1,1,0.00676,-0.00551,-0.00551*
%
%ADD89ROUNDEDRECTD89*%
G04:AMPARAMS|DCode=90|XSize=37.9mil|YSize=11.58mil|CornerRadius=2.76mil|HoleSize=0mil|Usage=FLASHONLY|Rotation=0.000|XOffset=0mil|YOffset=0mil|HoleType=Round|Shape=RoundedRectangle|*
%AMROUNDEDRECTD90*
21,1,0.03790,0.00606,0,0,0.0*
21,1,0.03239,0.01158,0,0,0.0*
1,1,0.00552,0.01619,-0.00303*
1,1,0.00552,-0.01619,-0.00303*
1,1,0.00552,-0.01619,0.00303*
1,1,0.00552,0.01619,0.00303*
%
%ADD90ROUNDEDRECTD90*%
G04:AMPARAMS|DCode=91|XSize=11.58mil|YSize=37.9mil|CornerRadius=2.76mil|HoleSize=0mil|Usage=FLASHONLY|Rotation=0.000|XOffset=0mil|YOffset=0mil|HoleType=Round|Shape=RoundedRectangle|*
%AMROUNDEDRECTD91*
21,1,0.01158,0.03239,0,0,0.0*
21,1,0.00606,0.03790,0,0,0.0*
1,1,0.00552,0.00303,-0.01619*
1,1,0.00552,-0.00303,-0.01619*
1,1,0.00552,-0.00303,0.01619*
1,1,0.00552,0.00303,0.01619*
%
%ADD91ROUNDEDRECTD91*%
%ADD92C,0.01384*%
G04:AMPARAMS|DCode=93|XSize=39.37mil|YSize=118.11mil|CornerRadius=1.97mil|HoleSize=0mil|Usage=FLASHONLY|Rotation=0.000|XOffset=0mil|YOffset=0mil|HoleType=Round|Shape=RoundedRectangle|*
%AMROUNDEDRECTD93*
21,1,0.03937,0.11417,0,0,0.0*
21,1,0.03543,0.11811,0,0,0.0*
1,1,0.00394,0.01772,-0.05709*
1,1,0.00394,-0.01772,-0.05709*
1,1,0.00394,-0.01772,0.05709*
1,1,0.00394,0.01772,0.05709*
%
%ADD93ROUNDEDRECTD93*%
%ADD94R,0.02368X0.01975*%
%ADD95R,0.02920X0.02762*%
%ADD96R,0.01975X0.02368*%
G04:AMPARAMS|DCode=97|XSize=23.68mil|YSize=22.7mil|CornerRadius=3.87mil|HoleSize=0mil|Usage=FLASHONLY|Rotation=0.000|XOffset=0mil|YOffset=0mil|HoleType=Round|Shape=RoundedRectangle|*
%AMROUNDEDRECTD97*
21,1,0.02368,0.01496,0,0,0.0*
21,1,0.01595,0.02270,0,0,0.0*
1,1,0.00774,0.00797,-0.00748*
1,1,0.00774,-0.00797,-0.00748*
1,1,0.00774,-0.00797,0.00748*
1,1,0.00774,0.00797,0.00748*
%
%ADD97ROUNDEDRECTD97*%
G04:AMPARAMS|DCode=98|XSize=22.7mil|YSize=13.84mil|CornerRadius=2.98mil|HoleSize=0mil|Usage=FLASHONLY|Rotation=0.000|XOffset=0mil|YOffset=0mil|HoleType=Round|Shape=RoundedRectangle|*
%AMROUNDEDRECTD98*
21,1,0.02270,0.00787,0,0,0.0*
21,1,0.01673,0.01384,0,0,0.0*
1,1,0.00597,0.00837,-0.00394*
1,1,0.00597,-0.00837,-0.00394*
1,1,0.00597,-0.00837,0.00394*
1,1,0.00597,0.00837,0.00394*
%
%ADD98ROUNDEDRECTD98*%
G04:AMPARAMS|DCode=99|XSize=22.7mil|YSize=13.84mil|CornerRadius=2.98mil|HoleSize=0mil|Usage=FLASHONLY|Rotation=270.000|XOffset=0mil|YOffset=0mil|HoleType=Round|Shape=RoundedRectangle|*
%AMROUNDEDRECTD99*
21,1,0.02270,0.00787,0,0,270.0*
21,1,0.01673,0.01384,0,0,270.0*
1,1,0.00597,-0.00394,-0.00837*
1,1,0.00597,-0.00394,0.00837*
1,1,0.00597,0.00394,0.00837*
1,1,0.00597,0.00394,-0.00837*
%
%ADD99ROUNDEDRECTD99*%
%ADD100R,0.03550X0.03550*%
G04:AMPARAMS|DCode=101|XSize=27.62mil|YSize=27.62mil|CornerRadius=4.36mil|HoleSize=0mil|Usage=FLASHONLY|Rotation=270.000|XOffset=0mil|YOffset=0mil|HoleType=Round|Shape=RoundedRectangle|*
%AMROUNDEDRECTD101*
21,1,0.02762,0.01890,0,0,270.0*
21,1,0.01890,0.02762,0,0,270.0*
1,1,0.00872,-0.00945,-0.00945*
1,1,0.00872,-0.00945,0.00945*
1,1,0.00872,0.00945,0.00945*
1,1,0.00872,0.00945,-0.00945*
%
%ADD101ROUNDEDRECTD101*%
%ADD102O,0.01975X0.05715*%
%ADD103R,0.07880X0.07487*%
G04:AMPARAMS|DCode=104|XSize=66.99mil|YSize=59.12mil|CornerRadius=15.78mil|HoleSize=0mil|Usage=FLASHONLY|Rotation=180.000|XOffset=0mil|YOffset=0mil|HoleType=Round|Shape=RoundedRectangle|*
%AMROUNDEDRECTD104*
21,1,0.06699,0.02756,0,0,180.0*
21,1,0.03543,0.05912,0,0,180.0*
1,1,0.03156,-0.01772,0.01378*
1,1,0.03156,0.01772,0.01378*
1,1,0.03156,0.01772,-0.01378*
1,1,0.03156,-0.01772,-0.01378*
%
%ADD104ROUNDEDRECTD104*%
G04:AMPARAMS|DCode=105|XSize=47.31mil|YSize=43.37mil|CornerRadius=5.94mil|HoleSize=0mil|Usage=FLASHONLY|Rotation=90.000|XOffset=0mil|YOffset=0mil|HoleType=Round|Shape=RoundedRectangle|*
%AMROUNDEDRECTD105*
21,1,0.04731,0.03150,0,0,90.0*
21,1,0.03543,0.04337,0,0,90.0*
1,1,0.01187,0.01575,0.01772*
1,1,0.01187,0.01575,-0.01772*
1,1,0.01187,-0.01575,-0.01772*
1,1,0.01187,-0.01575,0.01772*
%
%ADD105ROUNDEDRECTD105*%
G04:AMPARAMS|DCode=106|XSize=61.09mil|YSize=33.53mil|CornerRadius=4.95mil|HoleSize=0mil|Usage=FLASHONLY|Rotation=180.000|XOffset=0mil|YOffset=0mil|HoleType=Round|Shape=RoundedRectangle|*
%AMROUNDEDRECTD106*
21,1,0.06109,0.02362,0,0,180.0*
21,1,0.05118,0.03353,0,0,180.0*
1,1,0.00991,-0.02559,0.01181*
1,1,0.00991,0.02559,0.01181*
1,1,0.00991,0.02559,-0.01181*
1,1,0.00991,-0.02559,-0.01181*
%
%ADD106ROUNDEDRECTD106*%
G04:AMPARAMS|DCode=107|XSize=24mil|YSize=24mil|CornerRadius=4mil|HoleSize=0mil|Usage=FLASHONLY|Rotation=270.000|XOffset=0mil|YOffset=0mil|HoleType=Round|Shape=RoundedRectangle|*
%AMROUNDEDRECTD107*
21,1,0.02400,0.01600,0,0,270.0*
21,1,0.01600,0.02400,0,0,270.0*
1,1,0.00800,-0.00800,-0.00800*
1,1,0.00800,-0.00800,0.00800*
1,1,0.00800,0.00800,0.00800*
1,1,0.00800,0.00800,-0.00800*
%
%ADD107ROUNDEDRECTD107*%
G04:AMPARAMS|DCode=108|XSize=15.81mil|YSize=24.87mil|CornerRadius=3.18mil|HoleSize=0mil|Usage=FLASHONLY|Rotation=90.000|XOffset=0mil|YOffset=0mil|HoleType=Round|Shape=RoundedRectangle|*
%AMROUNDEDRECTD108*
21,1,0.01581,0.01850,0,0,90.0*
21,1,0.00945,0.02487,0,0,90.0*
1,1,0.00636,0.00925,0.00472*
1,1,0.00636,0.00925,-0.00472*
1,1,0.00636,-0.00925,-0.00472*
1,1,0.00636,-0.00925,0.00472*
%
%ADD108ROUNDEDRECTD108*%
G04:AMPARAMS|DCode=109|XSize=74.87mil|YSize=35.5mil|CornerRadius=5.15mil|HoleSize=0mil|Usage=FLASHONLY|Rotation=90.000|XOffset=0mil|YOffset=0mil|HoleType=Round|Shape=RoundedRectangle|*
%AMROUNDEDRECTD109*
21,1,0.07487,0.02520,0,0,90.0*
21,1,0.06457,0.03550,0,0,90.0*
1,1,0.01030,0.01260,0.03228*
1,1,0.01030,0.01260,-0.03228*
1,1,0.01030,-0.01260,-0.03228*
1,1,0.01030,-0.01260,0.03228*
%
%ADD109ROUNDEDRECTD109*%
%ADD110O,0.05715X0.01975*%
%ADD111R,0.07487X0.07880*%
G04:AMPARAMS|DCode=112|XSize=66.99mil|YSize=59.12mil|CornerRadius=15.78mil|HoleSize=0mil|Usage=FLASHONLY|Rotation=270.000|XOffset=0mil|YOffset=0mil|HoleType=Round|Shape=RoundedRectangle|*
%AMROUNDEDRECTD112*
21,1,0.06699,0.02756,0,0,270.0*
21,1,0.03543,0.05912,0,0,270.0*
1,1,0.03156,-0.01378,-0.01772*
1,1,0.03156,-0.01378,0.01772*
1,1,0.03156,0.01378,0.01772*
1,1,0.03156,0.01378,-0.01772*
%
%ADD112ROUNDEDRECTD112*%
G04:AMPARAMS|DCode=113|XSize=41.4mil|YSize=37.47mil|CornerRadius=5.35mil|HoleSize=0mil|Usage=FLASHONLY|Rotation=180.000|XOffset=0mil|YOffset=0mil|HoleType=Round|Shape=RoundedRectangle|*
%AMROUNDEDRECTD113*
21,1,0.04140,0.02677,0,0,180.0*
21,1,0.03071,0.03747,0,0,180.0*
1,1,0.01069,-0.01535,0.01339*
1,1,0.01069,0.01535,0.01339*
1,1,0.01069,0.01535,-0.01339*
1,1,0.01069,-0.01535,-0.01339*
%
%ADD113ROUNDEDRECTD113*%
G04:AMPARAMS|DCode=114|XSize=15.75mil|YSize=59.06mil|CornerRadius=3.15mil|HoleSize=0mil|Usage=FLASHONLY|Rotation=180.000|XOffset=0mil|YOffset=0mil|HoleType=Round|Shape=RoundedRectangle|*
%AMROUNDEDRECTD114*
21,1,0.01575,0.05276,0,0,180.0*
21,1,0.00945,0.05906,0,0,180.0*
1,1,0.00630,-0.00472,0.02638*
1,1,0.00630,0.00472,0.02638*
1,1,0.00630,0.00472,-0.02638*
1,1,0.00630,-0.00472,-0.02638*
%
%ADD114ROUNDEDRECTD114*%
%ADD115C,0.01400*%
%ADD116C,0.01550*%
%ADD117C,0.01542*%
G04:AMPARAMS|DCode=118|XSize=39.43mil|YSize=11.87mil|CornerRadius=2.79mil|HoleSize=0mil|Usage=FLASHONLY|Rotation=0.000|XOffset=0mil|YOffset=0mil|HoleType=Round|Shape=RoundedRectangle|*
%AMROUNDEDRECTD118*
21,1,0.03943,0.00630,0,0,0.0*
21,1,0.03386,0.01187,0,0,0.0*
1,1,0.00558,0.01693,-0.00315*
1,1,0.00558,-0.01693,-0.00315*
1,1,0.00558,-0.01693,0.00315*
1,1,0.00558,0.01693,0.00315*
%
%ADD118ROUNDEDRECTD118*%
G04:AMPARAMS|DCode=119|XSize=39.43mil|YSize=11.87mil|CornerRadius=2.79mil|HoleSize=0mil|Usage=FLASHONLY|Rotation=90.000|XOffset=0mil|YOffset=0mil|HoleType=Round|Shape=RoundedRectangle|*
%AMROUNDEDRECTD119*
21,1,0.03943,0.00630,0,0,90.0*
21,1,0.03386,0.01187,0,0,90.0*
1,1,0.00558,0.00315,0.01693*
1,1,0.00558,0.00315,-0.01693*
1,1,0.00558,-0.00315,-0.01693*
1,1,0.00558,-0.00315,0.01693*
%
%ADD119ROUNDEDRECTD119*%
%ADD120R,0.19298X0.19298*%
G04:AMPARAMS|DCode=121|XSize=58.72mil|YSize=43.37mil|CornerRadius=5.94mil|HoleSize=0mil|Usage=FLASHONLY|Rotation=0.000|XOffset=0mil|YOffset=0mil|HoleType=Round|Shape=RoundedRectangle|*
%AMROUNDEDRECTD121*
21,1,0.05872,0.03150,0,0,0.0*
21,1,0.04685,0.04337,0,0,0.0*
1,1,0.01187,0.02343,-0.01575*
1,1,0.01187,-0.02343,-0.01575*
1,1,0.01187,-0.02343,0.01575*
1,1,0.01187,0.02343,0.01575*
%
%ADD121ROUNDEDRECTD121*%
G04:AMPARAMS|DCode=122|XSize=58.72mil|YSize=43.37mil|CornerRadius=5.94mil|HoleSize=0mil|Usage=FLASHONLY|Rotation=90.000|XOffset=0mil|YOffset=0mil|HoleType=Round|Shape=RoundedRectangle|*
%AMROUNDEDRECTD122*
21,1,0.05872,0.03150,0,0,90.0*
21,1,0.04685,0.04337,0,0,90.0*
1,1,0.01187,0.01575,0.02343*
1,1,0.01187,0.01575,-0.02343*
1,1,0.01187,-0.01575,-0.02343*
1,1,0.01187,-0.01575,0.02343*
%
%ADD122ROUNDEDRECTD122*%
G04:AMPARAMS|DCode=123|XSize=47.31mil|YSize=78.8mil|CornerRadius=6.33mil|HoleSize=0mil|Usage=FLASHONLY|Rotation=270.000|XOffset=0mil|YOffset=0mil|HoleType=Round|Shape=RoundedRectangle|*
%AMROUNDEDRECTD123*
21,1,0.04731,0.06614,0,0,270.0*
21,1,0.03465,0.07880,0,0,270.0*
1,1,0.01266,-0.03307,-0.01732*
1,1,0.01266,-0.03307,0.01732*
1,1,0.01266,0.03307,0.01732*
1,1,0.01266,0.03307,-0.01732*
%
%ADD123ROUNDEDRECTD123*%
G04:AMPARAMS|DCode=124|XSize=27.62mil|YSize=22.5mil|CornerRadius=3.85mil|HoleSize=0mil|Usage=FLASHONLY|Rotation=90.000|XOffset=0mil|YOffset=0mil|HoleType=Round|Shape=RoundedRectangle|*
%AMROUNDEDRECTD124*
21,1,0.02762,0.01480,0,0,90.0*
21,1,0.01992,0.02250,0,0,90.0*
1,1,0.00770,0.00740,0.00996*
1,1,0.00770,0.00740,-0.00996*
1,1,0.00770,-0.00740,-0.00996*
1,1,0.00770,-0.00740,0.00996*
%
%ADD124ROUNDEDRECTD124*%
%ADD125C,0.04140*%
%ADD126O,0.03943X0.06699*%
%ADD127O,0.07684X0.04140*%
%ADD128C,0.20085*%
%ADD129O,0.06699X0.03943*%
%ADD130C,0.06699*%
%ADD131C,0.02198*%
%ADD132C,0.01968*%
%ADD133C,0.02568*%
G36*
X0346347Y0665453D02*
X0382961D01*
X0373512Y0674901D01*
Y0687500D01*
X0367607Y0693405D01*
X0356190D01*
X0348316Y0701279D01*
X0346347D01*
Y0665453D01*
D02*
G37*
G36*
X0346347Y0921358D02*
Y0884744D01*
X0355796Y0894193D01*
X0368394D01*
X0374300Y0900098D01*
Y0911516D01*
X0382174Y0919390D01*
Y0921358D01*
X0346347D01*
D02*
G37*
G36*
X0417213Y0901083D02*
X0414457D01*
Y0906201D01*
X0419969D01*
Y0908957D01*
X0425678D01*
Y0899114D01*
X0417213D01*
Y0901083D01*
D02*
G37*
G36*
X0469772Y0908957D02*
X0475481D01*
Y0906201D01*
X0480993D01*
Y0901083D01*
X0478237D01*
Y0899114D01*
X0469772D01*
Y0908957D01*
D02*
G37*
G36*
X0492016Y0901083D02*
X0489260D01*
Y0906201D01*
X0494772D01*
Y0908957D01*
X0500481D01*
Y0899114D01*
X0492016D01*
Y0901083D01*
D02*
G37*
G36*
X0544575Y0908957D02*
X0550284D01*
Y0906201D01*
X0555796D01*
Y0901083D01*
X0553040D01*
Y0899114D01*
X0544575D01*
Y0908957D01*
D02*
G37*
G36*
X0700678Y0665453D02*
Y0702067D01*
X0691229Y0692618D01*
X0678631D01*
X0672725Y0686713D01*
Y0675295D01*
X0664851Y0667421D01*
Y0665453D01*
X0700678D01*
D02*
G37*
G36*
X0673694Y0759665D02*
X0673701Y0759783D01*
X0673717Y0759902D01*
X0673741Y0760020D01*
X0673768Y0760134D01*
X0673800Y0760248D01*
X0673839Y0760358D01*
X0673886Y0760468D01*
X0673938Y0760575D01*
X0673993Y0760677D01*
X0674056Y0760779D01*
X0674123Y0760878D01*
X0674193Y0760972D01*
X0674272Y0761063D01*
X0674351Y0761150D01*
X0674438Y0761228D01*
X0674528Y0761307D01*
X0674623Y0761378D01*
X0674721Y0761445D01*
X0674824Y0761508D01*
X0674926Y0761563D01*
X0675032Y0761614D01*
X0675142Y0761661D01*
X0675253Y0761701D01*
X0675367Y0761732D01*
X0675481Y0761760D01*
X0675599Y0761783D01*
X0675717Y0761799D01*
X0675835Y0761807D01*
X0675953Y0761811D01*
X0675993D01*
X0676028Y0761815D01*
X0676068Y0761819D01*
X0676103Y0761827D01*
X0676142Y0761834D01*
X0676178Y0761846D01*
X0676213Y0761858D01*
X0676249Y0761874D01*
X0676284Y0761890D01*
X0676316Y0761909D01*
X0676351Y0761929D01*
X0676382Y0761949D01*
X0676410Y0761972D01*
X0676442Y0762000D01*
X0676469Y0762023D01*
X0676493Y0762051D01*
X0676520Y0762083D01*
X0676544Y0762110D01*
X0676564Y0762142D01*
X0676583Y0762173D01*
X0676603Y0762209D01*
X0676619Y0762244D01*
X0676635Y0762279D01*
X0676646Y0762315D01*
X0676658Y0762350D01*
X0676666Y0762390D01*
X0676674Y0762425D01*
X0676678Y0762465D01*
X0676682Y0762500D01*
Y0762657D01*
X0676686Y0762748D01*
X0676690Y0762839D01*
X0676701Y0762929D01*
X0676721Y0763016D01*
X0676741Y0763106D01*
X0676768Y0763193D01*
X0676796Y0763279D01*
X0676831Y0763362D01*
X0676871Y0763445D01*
X0676914Y0763523D01*
X0676961Y0763602D01*
X0677012Y0763677D01*
X0677068Y0763748D01*
X0677127Y0763815D01*
X0677190Y0763882D01*
X0677256Y0763945D01*
X0677323Y0764004D01*
X0677394Y0764059D01*
X0677469Y0764110D01*
X0677548Y0764157D01*
X0677627Y0764201D01*
X0677709Y0764240D01*
X0677792Y0764276D01*
X0677879Y0764303D01*
X0677965Y0764331D01*
X0678056Y0764350D01*
X0678142Y0764370D01*
X0678233Y0764382D01*
X0678324Y0764386D01*
X0678414Y0764390D01*
X0678528Y0764386D01*
X0678638Y0764378D01*
X0678753Y0764362D01*
X0678863Y0764342D01*
X0678973Y0764315D01*
X0679083Y0764283D01*
X0679190Y0764244D01*
X0679296Y0764201D01*
X0679398Y0764153D01*
X0679497Y0764098D01*
X0679595Y0764039D01*
X0679686Y0763976D01*
X0679776Y0763905D01*
X0679863Y0763834D01*
X0679946Y0763756D01*
X0680024Y0763673D01*
X0680095Y0763587D01*
X0680166Y0763496D01*
X0680229Y0763405D01*
X0680288Y0763307D01*
X0680343Y0763208D01*
X0680390Y0763106D01*
X0680434Y0763000D01*
X0680473Y0762894D01*
X0680505Y0762783D01*
X0680532Y0762673D01*
X0680552Y0762563D01*
X0680568Y0762449D01*
X0680575Y0762338D01*
X0680579Y0762224D01*
Y0759449D01*
X0680575Y0759335D01*
X0680568Y0759224D01*
X0680552Y0759110D01*
X0680532Y0759000D01*
X0680505Y0758890D01*
X0680473Y0758779D01*
X0680434Y0758673D01*
X0680390Y0758567D01*
X0680343Y0758464D01*
X0680288Y0758366D01*
X0680229Y0758268D01*
X0680166Y0758177D01*
X0680095Y0758086D01*
X0680024Y0758000D01*
X0679946Y0757917D01*
X0679863Y0757838D01*
X0679776Y0757768D01*
X0679686Y0757697D01*
X0679595Y0757634D01*
X0679497Y0757575D01*
X0679398Y0757520D01*
X0679296Y0757472D01*
X0679190Y0757429D01*
X0679083Y0757390D01*
X0678973Y0757358D01*
X0678863Y0757331D01*
X0678753Y0757311D01*
X0678638Y0757295D01*
X0678528Y0757287D01*
X0678414Y0757283D01*
X0675953D01*
X0675835Y0757287D01*
X0675717Y0757295D01*
X0675599Y0757311D01*
X0675481Y0757335D01*
X0675367Y0757362D01*
X0675253Y0757394D01*
X0675142Y0757433D01*
X0675032Y0757480D01*
X0674926Y0757531D01*
X0674824Y0757586D01*
X0674721Y0757650D01*
X0674623Y0757716D01*
X0674528Y0757787D01*
X0674438Y0757866D01*
X0674351Y0757945D01*
X0674272Y0758031D01*
X0674193Y0758122D01*
X0674123Y0758216D01*
X0674056Y0758315D01*
X0673993Y0758417D01*
X0673938Y0758520D01*
X0673886Y0758626D01*
X0673839Y0758736D01*
X0673800Y0758846D01*
X0673768Y0758960D01*
X0673741Y0759075D01*
X0673717Y0759193D01*
X0673701Y0759311D01*
X0673694Y0759429D01*
X0673690Y0759547D01*
X0673694Y0759665D01*
D02*
G37*
G36*
Y0795098D02*
X0673701Y0795216D01*
X0673717Y0795334D01*
X0673741Y0795453D01*
X0673768Y0795567D01*
X0673800Y0795681D01*
X0673839Y0795791D01*
X0673886Y0795901D01*
X0673938Y0796008D01*
X0673993Y0796110D01*
X0674056Y0796212D01*
X0674123Y0796311D01*
X0674193Y0796405D01*
X0674272Y0796496D01*
X0674351Y0796583D01*
X0674438Y0796661D01*
X0674528Y0796740D01*
X0674623Y0796811D01*
X0674721Y0796878D01*
X0674824Y0796941D01*
X0674926Y0796996D01*
X0675032Y0797047D01*
X0675142Y0797094D01*
X0675253Y0797134D01*
X0675367Y0797165D01*
X0675481Y0797193D01*
X0675599Y0797216D01*
X0675717Y0797232D01*
X0675835Y0797240D01*
X0675953Y0797244D01*
X0678414D01*
X0678528Y0797240D01*
X0678638Y0797232D01*
X0678753Y0797216D01*
X0678863Y0797197D01*
X0678973Y0797169D01*
X0679083Y0797138D01*
X0679190Y0797098D01*
X0679296Y0797055D01*
X0679398Y0797008D01*
X0679497Y0796953D01*
X0679595Y0796894D01*
X0679686Y0796831D01*
X0679776Y0796760D01*
X0679863Y0796689D01*
X0679946Y0796610D01*
X0680024Y0796527D01*
X0680095Y0796441D01*
X0680166Y0796350D01*
X0680229Y0796260D01*
X0680288Y0796161D01*
X0680343Y0796063D01*
X0680390Y0795961D01*
X0680434Y0795854D01*
X0680473Y0795748D01*
X0680505Y0795638D01*
X0680532Y0795527D01*
X0680552Y0795417D01*
X0680568Y0795303D01*
X0680575Y0795193D01*
X0680579Y0795079D01*
Y0792303D01*
X0680575Y0792189D01*
X0680568Y0792079D01*
X0680552Y0791964D01*
X0680532Y0791854D01*
X0680505Y0791744D01*
X0680473Y0791634D01*
X0680434Y0791527D01*
X0680390Y0791421D01*
X0680343Y0791319D01*
X0680288Y0791220D01*
X0680229Y0791122D01*
X0680166Y0791031D01*
X0680095Y0790941D01*
X0680024Y0790854D01*
X0679946Y0790771D01*
X0679863Y0790693D01*
X0679776Y0790622D01*
X0679686Y0790551D01*
X0679595Y0790488D01*
X0679497Y0790429D01*
X0679398Y0790374D01*
X0679296Y0790327D01*
X0679190Y0790283D01*
X0679083Y0790244D01*
X0678973Y0790212D01*
X0678863Y0790185D01*
X0678753Y0790165D01*
X0678638Y0790149D01*
X0678528Y0790142D01*
X0678414Y0790138D01*
X0678324Y0790142D01*
X0678233Y0790146D01*
X0678142Y0790157D01*
X0678056Y0790177D01*
X0677965Y0790197D01*
X0677879Y0790224D01*
X0677792Y0790252D01*
X0677709Y0790287D01*
X0677627Y0790327D01*
X0677548Y0790370D01*
X0677469Y0790417D01*
X0677394Y0790468D01*
X0677323Y0790523D01*
X0677256Y0790583D01*
X0677190Y0790646D01*
X0677127Y0790712D01*
X0677068Y0790779D01*
X0677012Y0790850D01*
X0676961Y0790925D01*
X0676914Y0791004D01*
X0676871Y0791083D01*
X0676831Y0791165D01*
X0676796Y0791248D01*
X0676768Y0791334D01*
X0676741Y0791421D01*
X0676721Y0791512D01*
X0676701Y0791598D01*
X0676690Y0791689D01*
X0676686Y0791779D01*
X0676682Y0791870D01*
Y0792027D01*
X0676678Y0792063D01*
X0676674Y0792102D01*
X0676666Y0792138D01*
X0676658Y0792177D01*
X0676646Y0792212D01*
X0676635Y0792248D01*
X0676619Y0792283D01*
X0676603Y0792319D01*
X0676583Y0792354D01*
X0676564Y0792386D01*
X0676544Y0792417D01*
X0676520Y0792445D01*
X0676493Y0792476D01*
X0676469Y0792504D01*
X0676442Y0792527D01*
X0676410Y0792555D01*
X0676382Y0792579D01*
X0676351Y0792598D01*
X0676316Y0792618D01*
X0676284Y0792638D01*
X0676249Y0792653D01*
X0676213Y0792669D01*
X0676178Y0792681D01*
X0676142Y0792693D01*
X0676103Y0792701D01*
X0676068Y0792708D01*
X0676028Y0792712D01*
X0675993Y0792716D01*
X0675953D01*
X0675835Y0792720D01*
X0675717Y0792728D01*
X0675599Y0792744D01*
X0675481Y0792768D01*
X0675367Y0792795D01*
X0675253Y0792827D01*
X0675142Y0792866D01*
X0675032Y0792913D01*
X0674926Y0792965D01*
X0674824Y0793020D01*
X0674721Y0793083D01*
X0674623Y0793150D01*
X0674528Y0793220D01*
X0674438Y0793299D01*
X0674351Y0793378D01*
X0674272Y0793465D01*
X0674193Y0793555D01*
X0674123Y0793649D01*
X0674056Y0793748D01*
X0673993Y0793850D01*
X0673938Y0793953D01*
X0673886Y0794059D01*
X0673839Y0794169D01*
X0673800Y0794279D01*
X0673768Y0794394D01*
X0673741Y0794508D01*
X0673717Y0794626D01*
X0673701Y0794744D01*
X0673694Y0794862D01*
X0673690Y0794980D01*
X0673694Y0795098D01*
D02*
G37*
G36*
Y0824232D02*
X0673701Y0824350D01*
X0673717Y0824468D01*
X0673741Y0824586D01*
X0673768Y0824701D01*
X0673800Y0824815D01*
X0673839Y0824925D01*
X0673886Y0825035D01*
X0673938Y0825142D01*
X0673993Y0825244D01*
X0674056Y0825346D01*
X0674123Y0825445D01*
X0674193Y0825539D01*
X0674272Y0825630D01*
X0674351Y0825716D01*
X0674438Y0825795D01*
X0674528Y0825874D01*
X0674623Y0825945D01*
X0674721Y0826012D01*
X0674824Y0826075D01*
X0674926Y0826130D01*
X0675032Y0826181D01*
X0675142Y0826228D01*
X0675253Y0826268D01*
X0675367Y0826299D01*
X0675481Y0826327D01*
X0675599Y0826350D01*
X0675717Y0826366D01*
X0675835Y0826374D01*
X0675953Y0826378D01*
X0675993D01*
X0676028Y0826382D01*
X0676068Y0826386D01*
X0676103Y0826394D01*
X0676142Y0826402D01*
X0676178Y0826413D01*
X0676213Y0826425D01*
X0676249Y0826441D01*
X0676284Y0826457D01*
X0676316Y0826476D01*
X0676351Y0826496D01*
X0676382Y0826516D01*
X0676410Y0826539D01*
X0676442Y0826567D01*
X0676469Y0826590D01*
X0676493Y0826618D01*
X0676520Y0826649D01*
X0676544Y0826677D01*
X0676564Y0826709D01*
X0676583Y0826740D01*
X0676603Y0826775D01*
X0676619Y0826811D01*
X0676635Y0826846D01*
X0676646Y0826882D01*
X0676658Y0826917D01*
X0676666Y0826957D01*
X0676674Y0826992D01*
X0676678Y0827031D01*
X0676682Y0827067D01*
Y0827224D01*
X0676686Y0827315D01*
X0676690Y0827405D01*
X0676701Y0827496D01*
X0676721Y0827583D01*
X0676741Y0827673D01*
X0676768Y0827760D01*
X0676796Y0827846D01*
X0676831Y0827929D01*
X0676871Y0828012D01*
X0676914Y0828090D01*
X0676961Y0828169D01*
X0677012Y0828244D01*
X0677068Y0828315D01*
X0677127Y0828382D01*
X0677190Y0828449D01*
X0677256Y0828512D01*
X0677323Y0828571D01*
X0677394Y0828626D01*
X0677469Y0828677D01*
X0677548Y0828724D01*
X0677627Y0828768D01*
X0677709Y0828807D01*
X0677792Y0828842D01*
X0677879Y0828870D01*
X0677965Y0828897D01*
X0678056Y0828917D01*
X0678142Y0828937D01*
X0678233Y0828949D01*
X0678324Y0828953D01*
X0678414Y0828957D01*
X0678528Y0828953D01*
X0678638Y0828945D01*
X0678753Y0828929D01*
X0678863Y0828909D01*
X0678973Y0828882D01*
X0679083Y0828850D01*
X0679190Y0828811D01*
X0679296Y0828768D01*
X0679398Y0828720D01*
X0679497Y0828665D01*
X0679595Y0828606D01*
X0679686Y0828543D01*
X0679776Y0828472D01*
X0679863Y0828401D01*
X0679946Y0828323D01*
X0680024Y0828240D01*
X0680095Y0828153D01*
X0680166Y0828063D01*
X0680229Y0827972D01*
X0680288Y0827874D01*
X0680343Y0827775D01*
X0680390Y0827673D01*
X0680434Y0827567D01*
X0680473Y0827460D01*
X0680505Y0827350D01*
X0680532Y0827240D01*
X0680552Y0827130D01*
X0680568Y0827016D01*
X0680575Y0826905D01*
X0680579Y0826791D01*
Y0824016D01*
X0680575Y0823901D01*
X0680568Y0823791D01*
X0680552Y0823677D01*
X0680532Y0823567D01*
X0680505Y0823457D01*
X0680473Y0823346D01*
X0680434Y0823240D01*
X0680390Y0823134D01*
X0680343Y0823031D01*
X0680288Y0822933D01*
X0680229Y0822834D01*
X0680166Y0822744D01*
X0680095Y0822653D01*
X0680024Y0822567D01*
X0679946Y0822484D01*
X0679863Y0822405D01*
X0679776Y0822334D01*
X0679686Y0822264D01*
X0679595Y0822201D01*
X0679497Y0822142D01*
X0679398Y0822087D01*
X0679296Y0822039D01*
X0679190Y0821996D01*
X0679083Y0821957D01*
X0678973Y0821925D01*
X0678863Y0821898D01*
X0678753Y0821878D01*
X0678638Y0821862D01*
X0678528Y0821854D01*
X0678414Y0821850D01*
X0675953D01*
X0675835Y0821854D01*
X0675717Y0821862D01*
X0675599Y0821878D01*
X0675481Y0821902D01*
X0675367Y0821929D01*
X0675253Y0821961D01*
X0675142Y0822000D01*
X0675032Y0822047D01*
X0674926Y0822098D01*
X0674824Y0822153D01*
X0674721Y0822216D01*
X0674623Y0822283D01*
X0674528Y0822354D01*
X0674438Y0822433D01*
X0674351Y0822512D01*
X0674272Y0822598D01*
X0674193Y0822689D01*
X0674123Y0822783D01*
X0674056Y0822882D01*
X0673993Y0822984D01*
X0673938Y0823086D01*
X0673886Y0823193D01*
X0673839Y0823303D01*
X0673800Y0823413D01*
X0673768Y0823527D01*
X0673741Y0823642D01*
X0673717Y0823760D01*
X0673701Y0823878D01*
X0673694Y0823996D01*
X0673690Y0824114D01*
X0673694Y0824232D01*
D02*
G37*
G36*
Y0859665D02*
X0673701Y0859783D01*
X0673717Y0859902D01*
X0673741Y0860020D01*
X0673768Y0860134D01*
X0673800Y0860248D01*
X0673839Y0860358D01*
X0673886Y0860468D01*
X0673938Y0860575D01*
X0673993Y0860677D01*
X0674056Y0860779D01*
X0674123Y0860878D01*
X0674193Y0860972D01*
X0674272Y0861063D01*
X0674351Y0861150D01*
X0674438Y0861228D01*
X0674528Y0861307D01*
X0674623Y0861378D01*
X0674721Y0861445D01*
X0674824Y0861508D01*
X0674926Y0861563D01*
X0675032Y0861614D01*
X0675142Y0861661D01*
X0675253Y0861701D01*
X0675367Y0861732D01*
X0675481Y0861760D01*
X0675599Y0861783D01*
X0675717Y0861799D01*
X0675835Y0861807D01*
X0675953Y0861811D01*
X0678414D01*
X0678528Y0861807D01*
X0678638Y0861799D01*
X0678753Y0861783D01*
X0678863Y0861764D01*
X0678973Y0861736D01*
X0679083Y0861705D01*
X0679190Y0861665D01*
X0679296Y0861622D01*
X0679398Y0861575D01*
X0679497Y0861520D01*
X0679595Y0861460D01*
X0679686Y0861397D01*
X0679776Y0861327D01*
X0679863Y0861256D01*
X0679946Y0861177D01*
X0680024Y0861094D01*
X0680095Y0861008D01*
X0680166Y0860917D01*
X0680229Y0860827D01*
X0680288Y0860728D01*
X0680343Y0860630D01*
X0680390Y0860527D01*
X0680434Y0860421D01*
X0680473Y0860315D01*
X0680505Y0860205D01*
X0680532Y0860094D01*
X0680552Y0859984D01*
X0680568Y0859870D01*
X0680575Y0859760D01*
X0680579Y0859646D01*
Y0856870D01*
X0680575Y0856756D01*
X0680568Y0856646D01*
X0680552Y0856531D01*
X0680532Y0856421D01*
X0680505Y0856311D01*
X0680473Y0856201D01*
X0680434Y0856094D01*
X0680390Y0855988D01*
X0680343Y0855886D01*
X0680288Y0855787D01*
X0680229Y0855689D01*
X0680166Y0855598D01*
X0680095Y0855508D01*
X0680024Y0855421D01*
X0679946Y0855338D01*
X0679863Y0855260D01*
X0679776Y0855189D01*
X0679686Y0855118D01*
X0679595Y0855055D01*
X0679497Y0854996D01*
X0679398Y0854941D01*
X0679296Y0854894D01*
X0679190Y0854850D01*
X0679083Y0854811D01*
X0678973Y0854779D01*
X0678863Y0854752D01*
X0678753Y0854732D01*
X0678638Y0854716D01*
X0678528Y0854708D01*
X0678414Y0854705D01*
X0678324Y0854708D01*
X0678233Y0854712D01*
X0678142Y0854724D01*
X0678056Y0854744D01*
X0677965Y0854764D01*
X0677879Y0854791D01*
X0677792Y0854819D01*
X0677709Y0854854D01*
X0677627Y0854894D01*
X0677548Y0854937D01*
X0677469Y0854984D01*
X0677394Y0855035D01*
X0677323Y0855090D01*
X0677256Y0855149D01*
X0677190Y0855212D01*
X0677127Y0855279D01*
X0677068Y0855346D01*
X0677012Y0855417D01*
X0676961Y0855492D01*
X0676914Y0855571D01*
X0676871Y0855649D01*
X0676831Y0855732D01*
X0676796Y0855815D01*
X0676768Y0855902D01*
X0676741Y0855988D01*
X0676721Y0856079D01*
X0676701Y0856165D01*
X0676690Y0856256D01*
X0676686Y0856346D01*
X0676682Y0856437D01*
Y0856594D01*
X0676678Y0856630D01*
X0676674Y0856669D01*
X0676666Y0856705D01*
X0676658Y0856744D01*
X0676646Y0856779D01*
X0676635Y0856815D01*
X0676619Y0856850D01*
X0676603Y0856886D01*
X0676583Y0856921D01*
X0676564Y0856953D01*
X0676544Y0856984D01*
X0676520Y0857012D01*
X0676493Y0857043D01*
X0676469Y0857071D01*
X0676442Y0857094D01*
X0676410Y0857122D01*
X0676382Y0857146D01*
X0676351Y0857165D01*
X0676316Y0857185D01*
X0676284Y0857205D01*
X0676249Y0857220D01*
X0676213Y0857236D01*
X0676178Y0857248D01*
X0676142Y0857260D01*
X0676103Y0857268D01*
X0676068Y0857275D01*
X0676028Y0857279D01*
X0675993Y0857283D01*
X0675953D01*
X0675835Y0857287D01*
X0675717Y0857295D01*
X0675599Y0857311D01*
X0675481Y0857335D01*
X0675367Y0857362D01*
X0675253Y0857394D01*
X0675142Y0857433D01*
X0675032Y0857480D01*
X0674926Y0857531D01*
X0674824Y0857586D01*
X0674721Y0857650D01*
X0674623Y0857716D01*
X0674528Y0857787D01*
X0674438Y0857866D01*
X0674351Y0857945D01*
X0674272Y0858031D01*
X0674193Y0858122D01*
X0674123Y0858216D01*
X0674056Y0858315D01*
X0673993Y0858417D01*
X0673938Y0858520D01*
X0673886Y0858626D01*
X0673839Y0858736D01*
X0673800Y0858846D01*
X0673768Y0858961D01*
X0673741Y0859075D01*
X0673717Y0859193D01*
X0673701Y0859311D01*
X0673694Y0859429D01*
X0673690Y0859547D01*
X0673694Y0859665D01*
D02*
G37*
G36*
X0700678Y0921358D02*
X0664064D01*
X0673512Y0911909D01*
Y0899311D01*
X0679418Y0893405D01*
X0690835D01*
X0698709Y0885531D01*
X0700678D01*
Y0921358D01*
D02*
G37*
D35*
X0640638Y0848720D02*
D03*
Y0846752D02*
D03*
Y0844783D02*
D03*
Y0842815D02*
D03*
Y0840846D02*
D03*
Y0838878D02*
D03*
Y0836909D02*
D03*
Y0834941D02*
D03*
X0649694D02*
D03*
Y0836909D02*
D03*
Y0838878D02*
D03*
Y0840846D02*
D03*
Y0842815D02*
D03*
Y0844783D02*
D03*
Y0846752D02*
D03*
Y0848720D02*
D03*
Y0783366D02*
D03*
Y0781397D02*
D03*
Y0779429D02*
D03*
Y0777460D02*
D03*
Y0775492D02*
D03*
Y0773524D02*
D03*
Y0771555D02*
D03*
Y0769587D02*
D03*
X0640638D02*
D03*
Y0771555D02*
D03*
Y0773524D02*
D03*
Y0775492D02*
D03*
Y0777460D02*
D03*
Y0779429D02*
D03*
Y0781397D02*
D03*
Y0783366D02*
D03*
D36*
X0644182Y0833366D02*
D03*
X0646150D02*
D03*
Y0850295D02*
D03*
X0644182D02*
D03*
Y0784941D02*
D03*
X0646150D02*
D03*
Y0768012D02*
D03*
X0644182D02*
D03*
D51*
X0672331Y0721260D02*
D03*
Y0723819D02*
D03*
Y0718701D02*
D03*
Y0716142D02*
D03*
X0426682Y0736319D02*
D03*
Y0733760D02*
D03*
X0459490D02*
D03*
Y0736319D02*
D03*
X0466052Y0733760D02*
D03*
Y0736319D02*
D03*
X0433243Y0733760D02*
D03*
Y0736319D02*
D03*
X0439805Y0733760D02*
D03*
Y0736319D02*
D03*
X0446367Y0733760D02*
D03*
Y0736319D02*
D03*
X0452928Y0733760D02*
D03*
Y0736319D02*
D03*
D57*
X0615453Y0715552D02*
D03*
Y0713583D02*
D03*
Y0711615D02*
D03*
Y0709646D02*
D03*
Y0707678D02*
D03*
Y0705709D02*
D03*
Y0703741D02*
D03*
Y0701772D02*
D03*
Y0699804D02*
D03*
Y0697835D02*
D03*
Y0695867D02*
D03*
Y0693898D02*
D03*
Y0691930D02*
D03*
Y0689961D02*
D03*
Y0687993D02*
D03*
Y0686024D02*
D03*
X0651477D02*
D03*
Y0687993D02*
D03*
Y0689961D02*
D03*
Y0691930D02*
D03*
Y0693898D02*
D03*
Y0695867D02*
D03*
Y0697835D02*
D03*
Y0699804D02*
D03*
Y0701772D02*
D03*
Y0703741D02*
D03*
Y0705709D02*
D03*
Y0707678D02*
D03*
Y0709646D02*
D03*
Y0711615D02*
D03*
Y0713583D02*
D03*
Y0715552D02*
D03*
D58*
X0618702Y0682776D02*
D03*
X0620670D02*
D03*
X0622639D02*
D03*
X0624607D02*
D03*
X0626576D02*
D03*
X0628544D02*
D03*
X0630513D02*
D03*
X0632481D02*
D03*
X0634449D02*
D03*
X0636418D02*
D03*
X0638386D02*
D03*
X0640355D02*
D03*
X0642323D02*
D03*
X0644292D02*
D03*
X0646260D02*
D03*
X0648229D02*
D03*
Y0718800D02*
D03*
X0646260D02*
D03*
X0644292D02*
D03*
X0642323D02*
D03*
X0640355D02*
D03*
X0638386D02*
D03*
X0636418D02*
D03*
X0634449D02*
D03*
X0632481D02*
D03*
X0630513D02*
D03*
X0628544D02*
D03*
X0626576D02*
D03*
X0624607D02*
D03*
X0622639D02*
D03*
X0620670D02*
D03*
X0618702D02*
D03*
D59*
X0633465Y0700788D02*
D03*
D72*
X0346347Y0665453D02*
Y0921358D01*
X0700678Y0665453D02*
Y0921358D01*
X0346347D02*
X0700678D01*
X0346347Y0665453D02*
X0700678D01*
D73*
X0464567Y0834744D02*
D03*
X0468504Y0838583D02*
D03*
X0457075Y0847834D02*
D03*
X0386811Y0849311D02*
D03*
X0376662Y0777657D02*
D03*
X0577843Y0903642D02*
D03*
X0468504Y0834744D02*
D03*
X0634536Y0737894D02*
D03*
X0445461Y0807320D02*
D03*
X0445561Y0799720D02*
D03*
X0549317Y0821908D02*
D03*
X0562817Y0821608D02*
D03*
X0534227Y0798205D02*
D03*
X0523527Y0797105D02*
D03*
Y0803905D02*
D03*
D74*
X0355402Y0767028D02*
D03*
X0359142D02*
D03*
D75*
X0357272Y0779626D02*
D03*
D76*
X0505347Y0879685D02*
D03*
Y0886220D02*
D03*
X0498747Y0886220D02*
D03*
Y0879685D02*
D03*
X0430993Y0886085D02*
D03*
Y0892620D02*
D03*
X0423147Y0885885D02*
D03*
Y0892420D02*
D03*
X0483749Y0891555D02*
D03*
Y0885020D02*
D03*
D77*
X0502646Y0673977D02*
D03*
Y0670197D02*
D03*
X0516819Y0673977D02*
D03*
Y0670197D02*
D03*
X0525678Y0718863D02*
D03*
Y0722642D02*
D03*
X0515047Y0688760D02*
D03*
Y0692539D02*
D03*
X0522647Y0718863D02*
D03*
Y0722642D02*
D03*
X0494547Y0704163D02*
D03*
Y0707942D02*
D03*
X0646347Y0674193D02*
D03*
Y0677972D02*
D03*
X0596347Y0702087D02*
D03*
Y0698308D02*
D03*
X0601465Y0702087D02*
D03*
Y0698308D02*
D03*
X0601565Y0705689D02*
D03*
Y0709468D02*
D03*
X0596447Y0705689D02*
D03*
Y0709468D02*
D03*
X0624693Y0678366D02*
D03*
Y0674586D02*
D03*
X0634536Y0723012D02*
D03*
Y0726791D02*
D03*
X0646347Y0723012D02*
D03*
Y0726791D02*
D03*
X0618788Y0723012D02*
D03*
Y0726791D02*
D03*
X0564327Y0815094D02*
D03*
Y0811315D02*
D03*
X0568327Y0811415D02*
D03*
Y0815194D02*
D03*
D78*
X0508453Y0686713D02*
D03*
X0496839D02*
D03*
D79*
X0502646Y0680709D02*
D03*
D80*
X0507469Y0673642D02*
D03*
X0511997D02*
D03*
X0645166Y0828051D02*
D03*
X0640638D02*
D03*
X0645068Y0761909D02*
D03*
X0640540D02*
D03*
D81*
X0463690Y0726909D02*
D03*
X0459359D02*
D03*
X0455028D02*
D03*
X0450698D02*
D03*
X0446367D02*
D03*
X0442036D02*
D03*
X0437705D02*
D03*
X0433375D02*
D03*
X0429044D02*
D03*
D82*
X0423611Y0683602D02*
D03*
Y0719035D02*
D03*
X0487193D02*
D03*
Y0683602D02*
D03*
D83*
X0546741Y0886712D02*
D03*
X0544772D02*
D03*
X0542804D02*
D03*
X0540835D02*
D03*
X0538867D02*
D03*
Y0890650D02*
D03*
X0540835D02*
D03*
X0542804D02*
D03*
X0544772D02*
D03*
X0546741D02*
D03*
X0534930Y0886712D02*
D03*
X0532961D02*
D03*
X0530993D02*
D03*
X0529024D02*
D03*
X0527056D02*
D03*
Y0890650D02*
D03*
X0529024D02*
D03*
X0530993D02*
D03*
X0532961D02*
D03*
X0534930D02*
D03*
X0515245Y0890719D02*
D03*
X0517213D02*
D03*
X0519182D02*
D03*
X0521150D02*
D03*
X0523119D02*
D03*
Y0886782D02*
D03*
X0521150D02*
D03*
X0519182D02*
D03*
X0517213D02*
D03*
X0515245D02*
D03*
X0472331Y0886712D02*
D03*
X0470363D02*
D03*
X0468394D02*
D03*
X0466426D02*
D03*
X0464457D02*
D03*
Y0890650D02*
D03*
X0466426D02*
D03*
X0468394D02*
D03*
X0470363D02*
D03*
X0472331D02*
D03*
X0460520Y0886712D02*
D03*
X0458552D02*
D03*
X0456583D02*
D03*
X0454615D02*
D03*
X0452646D02*
D03*
Y0890650D02*
D03*
X0454615D02*
D03*
X0456583D02*
D03*
X0458552D02*
D03*
X0460520D02*
D03*
X0440835Y0890719D02*
D03*
X0442804D02*
D03*
X0444772D02*
D03*
X0446741D02*
D03*
X0448709D02*
D03*
Y0886782D02*
D03*
X0446741D02*
D03*
X0444772D02*
D03*
X0442804D02*
D03*
X0440835D02*
D03*
D84*
X0388473Y0766240D02*
D03*
X0394772D02*
D03*
X0362398Y0885853D02*
D03*
X0368697D02*
D03*
X0613876Y0783705D02*
D03*
X0607577D02*
D03*
X0606076Y0818405D02*
D03*
X0599777D02*
D03*
X0574277Y0818405D02*
D03*
X0580576D02*
D03*
X0585276Y0741505D02*
D03*
X0578977D02*
D03*
X0560077Y0741805D02*
D03*
X0566376D02*
D03*
X0607477Y0777705D02*
D03*
X0613776D02*
D03*
X0561476Y0802805D02*
D03*
X0555177D02*
D03*
X0491721Y0891555D02*
D03*
X0498020D02*
D03*
D85*
X0382961Y0766240D02*
D03*
X0376662D02*
D03*
X0611576Y0840805D02*
D03*
X0605277D02*
D03*
D86*
X0410327Y0692553D02*
D03*
X0401567D02*
D03*
D87*
X0386811Y0861358D02*
D03*
Y0858760D02*
D03*
X0390048Y0861358D02*
D03*
Y0858760D02*
D03*
X0551527Y0779905D02*
D03*
Y0782504D02*
D03*
Y0772605D02*
D03*
Y0775204D02*
D03*
D88*
X0400166Y0868111D02*
D03*
X0402764D02*
D03*
X0557027Y0794505D02*
D03*
X0559626D02*
D03*
Y0791605D02*
D03*
X0557027D02*
D03*
D89*
X0387292Y0882972D02*
D03*
Y0885728D02*
D03*
X0384449Y0882972D02*
D03*
Y0885728D02*
D03*
D90*
X0383168Y0875985D02*
D03*
Y0874410D02*
D03*
Y0872835D02*
D03*
Y0871260D02*
D03*
Y0869686D02*
D03*
Y0868111D02*
D03*
X0395180D02*
D03*
Y0869686D02*
D03*
Y0871260D02*
D03*
Y0872835D02*
D03*
Y0874410D02*
D03*
Y0875985D02*
D03*
D91*
X0385237Y0866042D02*
D03*
X0386811D02*
D03*
X0388386D02*
D03*
X0389961D02*
D03*
X0391536D02*
D03*
X0393111D02*
D03*
Y0878054D02*
D03*
X0391536D02*
D03*
X0389961D02*
D03*
X0388386D02*
D03*
X0386811D02*
D03*
X0385237D02*
D03*
D92*
X0672331Y0842618D02*
D03*
Y0841043D02*
D03*
X0670756Y0841831D02*
D03*
X0669182Y0842618D02*
D03*
Y0841043D02*
D03*
X0670756Y0853051D02*
D03*
Y0851476D02*
D03*
Y0849901D02*
D03*
Y0848327D02*
D03*
X0669182Y0852264D02*
D03*
Y0849114D02*
D03*
X0667607Y0853051D02*
D03*
Y0851476D02*
D03*
Y0849901D02*
D03*
Y0848327D02*
D03*
Y0830610D02*
D03*
Y0832185D02*
D03*
Y0833760D02*
D03*
Y0835334D02*
D03*
X0669182Y0831398D02*
D03*
Y0834547D02*
D03*
X0670756Y0830610D02*
D03*
Y0832185D02*
D03*
Y0833760D02*
D03*
Y0835334D02*
D03*
X0666819Y0776673D02*
D03*
Y0778248D02*
D03*
X0668394Y0777460D02*
D03*
X0669969Y0776673D02*
D03*
Y0778248D02*
D03*
Y0788484D02*
D03*
Y0786909D02*
D03*
Y0785334D02*
D03*
Y0783760D02*
D03*
X0668394Y0787697D02*
D03*
Y0784547D02*
D03*
X0666819Y0788484D02*
D03*
Y0786909D02*
D03*
Y0785334D02*
D03*
Y0783760D02*
D03*
D93*
X0645166Y0841831D02*
D03*
Y0776476D02*
D03*
D94*
X0634747Y0843527D02*
D03*
Y0840378D02*
D03*
X0634142Y0778838D02*
D03*
Y0775689D02*
D03*
D95*
X0630447Y0843685D02*
D03*
Y0840220D02*
D03*
X0629812Y0779193D02*
D03*
Y0775728D02*
D03*
D96*
X0658258Y0771796D02*
D03*
X0655108D02*
D03*
X0658258Y0776127D02*
D03*
X0655108D02*
D03*
X0658158Y0780413D02*
D03*
X0655009D02*
D03*
X0658158Y0784350D02*
D03*
X0655009D02*
D03*
D97*
X0520363Y0713535D02*
D03*
Y0677606D02*
D03*
X0552646D02*
D03*
Y0713535D02*
D03*
D98*
X0520363Y0710334D02*
D03*
Y0708366D02*
D03*
Y0706397D02*
D03*
Y0704429D02*
D03*
Y0702460D02*
D03*
Y0700492D02*
D03*
Y0698524D02*
D03*
Y0696555D02*
D03*
Y0694587D02*
D03*
Y0692618D02*
D03*
Y0690650D02*
D03*
Y0688681D02*
D03*
Y0686713D02*
D03*
Y0684744D02*
D03*
Y0682775D02*
D03*
Y0680807D02*
D03*
X0552646D02*
D03*
Y0682775D02*
D03*
Y0684744D02*
D03*
Y0686713D02*
D03*
Y0688681D02*
D03*
Y0690650D02*
D03*
Y0692618D02*
D03*
Y0694587D02*
D03*
Y0696555D02*
D03*
Y0698524D02*
D03*
Y0700492D02*
D03*
Y0702460D02*
D03*
Y0704429D02*
D03*
Y0706397D02*
D03*
Y0708366D02*
D03*
Y0710334D02*
D03*
D99*
X0523709Y0677606D02*
D03*
X0525678D02*
D03*
X0527646D02*
D03*
X0529615D02*
D03*
X0531583D02*
D03*
X0533552D02*
D03*
X0535520D02*
D03*
X0537489D02*
D03*
X0539457D02*
D03*
X0541426D02*
D03*
X0543394D02*
D03*
X0545363D02*
D03*
X0547331D02*
D03*
X0549300D02*
D03*
Y0713535D02*
D03*
X0547331D02*
D03*
X0545363D02*
D03*
X0543394D02*
D03*
X0541426D02*
D03*
X0539457D02*
D03*
X0537489D02*
D03*
X0535520D02*
D03*
X0533552D02*
D03*
X0531583D02*
D03*
X0529615D02*
D03*
X0527646D02*
D03*
X0525678D02*
D03*
X0523709D02*
D03*
D100*
X0526268Y0708366D02*
D03*
Y0703248D02*
D03*
Y0698130D02*
D03*
Y0693012D02*
D03*
Y0687894D02*
D03*
Y0682775D02*
D03*
X0531387D02*
D03*
X0536505D02*
D03*
X0541623D02*
D03*
X0546741D02*
D03*
Y0687894D02*
D03*
Y0693012D02*
D03*
Y0698130D02*
D03*
Y0703248D02*
D03*
Y0708366D02*
D03*
X0541623D02*
D03*
X0536505D02*
D03*
X0531387D02*
D03*
Y0703248D02*
D03*
Y0698130D02*
D03*
Y0693012D02*
D03*
Y0687894D02*
D03*
X0536505D02*
D03*
X0541623D02*
D03*
Y0693012D02*
D03*
Y0698130D02*
D03*
Y0703248D02*
D03*
X0536505D02*
D03*
Y0698130D02*
D03*
Y0693012D02*
D03*
D101*
X0561583Y0696555D02*
D03*
X0558040D02*
D03*
X0598119Y0911909D02*
D03*
X0594575D02*
D03*
X0598119Y0906929D02*
D03*
X0594575D02*
D03*
X0647725Y0912303D02*
D03*
X0644182D02*
D03*
X0647725Y0906929D02*
D03*
X0644182D02*
D03*
X0610717Y0689862D02*
D03*
X0607174D02*
D03*
X0537655Y0776605D02*
D03*
X0541198D02*
D03*
X0537655Y0780605D02*
D03*
X0541198D02*
D03*
X0541198Y0768605D02*
D03*
X0537655D02*
D03*
X0541198Y0764605D02*
D03*
X0537655D02*
D03*
X0541198Y0772605D02*
D03*
X0537655D02*
D03*
X0595455Y0840805D02*
D03*
X0598998D02*
D03*
D102*
X0398906Y0683169D02*
D03*
X0401465D02*
D03*
X0391229D02*
D03*
X0393788D02*
D03*
X0396347D02*
D03*
D103*
X0391623Y0672638D02*
D03*
X0401072D02*
D03*
D104*
X0383749Y0682283D02*
D03*
X0408946D02*
D03*
D105*
X0566150Y0903642D02*
D03*
X0559615D02*
D03*
X0584418Y0709468D02*
D03*
X0590953D02*
D03*
X0584418Y0698308D02*
D03*
X0590953D02*
D03*
D106*
X0604713Y0896929D02*
D03*
Y0901929D02*
D03*
Y0906929D02*
D03*
Y0911929D02*
D03*
X0636012D02*
D03*
Y0906929D02*
D03*
Y0901929D02*
D03*
Y0896929D02*
D03*
D107*
X0660442Y0703741D02*
D03*
X0656662D02*
D03*
X0654447Y0841153D02*
D03*
X0658227D02*
D03*
X0654512Y0846652D02*
D03*
X0658292D02*
D03*
X0654512Y0849605D02*
D03*
X0658292D02*
D03*
X0654447Y0838200D02*
D03*
X0658227D02*
D03*
X0607056Y0693799D02*
D03*
X0610835D02*
D03*
X0559812Y0683957D02*
D03*
X0563591D02*
D03*
X0559812Y0680413D02*
D03*
X0563591D02*
D03*
X0649587Y0723012D02*
D03*
X0653367D02*
D03*
X0656662Y0693898D02*
D03*
X0660442D02*
D03*
X0409957Y0892499D02*
D03*
X0413737D02*
D03*
X0490357Y0886153D02*
D03*
X0494137D02*
D03*
X0560216Y0807805D02*
D03*
X0556437D02*
D03*
X0556337Y0797905D02*
D03*
X0560116D02*
D03*
X0556337Y0788105D02*
D03*
X0560116D02*
D03*
D108*
X0677056Y0831004D02*
D03*
Y0832972D02*
D03*
Y0834941D02*
D03*
Y0836909D02*
D03*
Y0838878D02*
D03*
Y0840846D02*
D03*
Y0842815D02*
D03*
Y0844783D02*
D03*
Y0846752D02*
D03*
Y0848720D02*
D03*
Y0850689D02*
D03*
Y0852657D02*
D03*
X0680205Y0853642D02*
D03*
Y0851673D02*
D03*
Y0849705D02*
D03*
Y0847736D02*
D03*
Y0845768D02*
D03*
Y0843799D02*
D03*
Y0839862D02*
D03*
Y0837894D02*
D03*
Y0835925D02*
D03*
Y0833957D02*
D03*
Y0831988D02*
D03*
Y0830020D02*
D03*
Y0765453D02*
D03*
Y0767421D02*
D03*
Y0769390D02*
D03*
Y0771358D02*
D03*
Y0773327D02*
D03*
Y0775295D02*
D03*
Y0779232D02*
D03*
Y0781201D02*
D03*
Y0783169D02*
D03*
Y0785138D02*
D03*
Y0787106D02*
D03*
Y0789075D02*
D03*
X0677056Y0788090D02*
D03*
Y0786122D02*
D03*
Y0784153D02*
D03*
Y0782185D02*
D03*
Y0780216D02*
D03*
Y0778248D02*
D03*
Y0776279D02*
D03*
Y0774311D02*
D03*
Y0772342D02*
D03*
Y0770374D02*
D03*
Y0768405D02*
D03*
Y0766437D02*
D03*
D109*
X0410127Y0754823D02*
D03*
X0405796D02*
D03*
X0401465D02*
D03*
X0397134D02*
D03*
X0392804D02*
D03*
X0388473D02*
D03*
X0384142D02*
D03*
X0372331D02*
D03*
X0368001D02*
D03*
X0363670D02*
D03*
X0359339D02*
D03*
X0355009D02*
D03*
Y0707579D02*
D03*
X0359339D02*
D03*
X0363670D02*
D03*
X0368001D02*
D03*
X0372331D02*
D03*
X0384142D02*
D03*
X0388473D02*
D03*
X0392804D02*
D03*
X0397134D02*
D03*
X0401465D02*
D03*
X0405796D02*
D03*
X0410127D02*
D03*
D110*
X0681387Y0723917D02*
D03*
Y0726476D02*
D03*
Y0716240D02*
D03*
Y0718799D02*
D03*
Y0721358D02*
D03*
D111*
X0691918Y0716634D02*
D03*
Y0726083D02*
D03*
D112*
X0682272Y0708760D02*
D03*
Y0733957D02*
D03*
D113*
X0417447Y0892499D02*
D03*
Y0886200D02*
D03*
X0578227Y0755854D02*
D03*
Y0749555D02*
D03*
X0572227Y0755854D02*
D03*
Y0749555D02*
D03*
X0566227Y0755854D02*
D03*
Y0749555D02*
D03*
X0592927Y0810255D02*
D03*
Y0816554D02*
D03*
X0587327Y0810255D02*
D03*
Y0816554D02*
D03*
D114*
X0501859Y0899114D02*
D03*
X0503827D02*
D03*
X0505796D02*
D03*
X0507764D02*
D03*
X0509733D02*
D03*
X0511701D02*
D03*
X0513670D02*
D03*
X0515638D02*
D03*
X0517607D02*
D03*
X0519575D02*
D03*
X0521544D02*
D03*
X0523512D02*
D03*
X0525481D02*
D03*
X0527449D02*
D03*
X0529418D02*
D03*
X0531387D02*
D03*
X0533355D02*
D03*
X0535323D02*
D03*
X0537292D02*
D03*
X0539260D02*
D03*
X0541229D02*
D03*
X0543197D02*
D03*
X0427056D02*
D03*
X0429024D02*
D03*
X0430993D02*
D03*
X0432961D02*
D03*
X0434930D02*
D03*
X0436898D02*
D03*
X0438867D02*
D03*
X0440835D02*
D03*
X0442804D02*
D03*
X0444772D02*
D03*
X0446741D02*
D03*
X0448709D02*
D03*
X0450678D02*
D03*
X0452646D02*
D03*
X0454615D02*
D03*
X0456583D02*
D03*
X0458552D02*
D03*
X0460520D02*
D03*
X0462489D02*
D03*
X0464457D02*
D03*
X0466426D02*
D03*
X0468394D02*
D03*
D115*
X0553095Y0837671D02*
D03*
Y0839639D02*
D03*
Y0841608D02*
D03*
Y0843576D02*
D03*
Y0845545D02*
D03*
Y0847513D02*
D03*
Y0849482D02*
D03*
Y0851450D02*
D03*
Y0853419D02*
D03*
Y0855387D02*
D03*
Y0857356D02*
D03*
Y0859324D02*
D03*
Y0861293D02*
D03*
Y0863261D02*
D03*
X0555063Y0837671D02*
D03*
Y0839639D02*
D03*
Y0841608D02*
D03*
Y0843576D02*
D03*
Y0845545D02*
D03*
Y0847513D02*
D03*
Y0849482D02*
D03*
Y0851450D02*
D03*
Y0853419D02*
D03*
Y0855387D02*
D03*
Y0857356D02*
D03*
Y0859324D02*
D03*
Y0861293D02*
D03*
Y0863261D02*
D03*
X0557032Y0837671D02*
D03*
Y0839639D02*
D03*
Y0841608D02*
D03*
Y0843576D02*
D03*
Y0845545D02*
D03*
Y0847513D02*
D03*
Y0849482D02*
D03*
Y0851450D02*
D03*
Y0853419D02*
D03*
Y0855387D02*
D03*
Y0857356D02*
D03*
Y0859324D02*
D03*
Y0861293D02*
D03*
Y0863261D02*
D03*
X0559000Y0837671D02*
D03*
Y0839639D02*
D03*
Y0841608D02*
D03*
Y0857356D02*
D03*
Y0859324D02*
D03*
Y0861293D02*
D03*
Y0863261D02*
D03*
X0560969Y0837671D02*
D03*
Y0839639D02*
D03*
Y0841608D02*
D03*
Y0845545D02*
D03*
Y0847513D02*
D03*
Y0849482D02*
D03*
Y0851450D02*
D03*
Y0853419D02*
D03*
Y0855387D02*
D03*
Y0859324D02*
D03*
Y0861293D02*
D03*
Y0863261D02*
D03*
X0562937Y0837671D02*
D03*
Y0839639D02*
D03*
Y0841608D02*
D03*
Y0845545D02*
D03*
Y0855387D02*
D03*
Y0859324D02*
D03*
Y0861293D02*
D03*
Y0863261D02*
D03*
X0564906Y0837671D02*
D03*
Y0839639D02*
D03*
Y0841608D02*
D03*
Y0845545D02*
D03*
Y0855387D02*
D03*
Y0859324D02*
D03*
Y0861293D02*
D03*
Y0863261D02*
D03*
X0566874Y0837671D02*
D03*
Y0839639D02*
D03*
Y0841608D02*
D03*
Y0845545D02*
D03*
Y0855387D02*
D03*
Y0859324D02*
D03*
Y0861293D02*
D03*
Y0863261D02*
D03*
X0568843Y0837671D02*
D03*
Y0839639D02*
D03*
Y0841608D02*
D03*
Y0845545D02*
D03*
Y0855387D02*
D03*
Y0859324D02*
D03*
Y0861293D02*
D03*
Y0863261D02*
D03*
X0570811Y0837671D02*
D03*
Y0839639D02*
D03*
Y0841608D02*
D03*
Y0845545D02*
D03*
Y0847513D02*
D03*
Y0849482D02*
D03*
Y0851450D02*
D03*
Y0853419D02*
D03*
Y0855387D02*
D03*
Y0859324D02*
D03*
Y0861293D02*
D03*
Y0863261D02*
D03*
X0572780Y0837671D02*
D03*
Y0839639D02*
D03*
Y0841608D02*
D03*
Y0859324D02*
D03*
Y0861293D02*
D03*
Y0863261D02*
D03*
X0574748Y0837671D02*
D03*
Y0839639D02*
D03*
Y0841608D02*
D03*
Y0843576D02*
D03*
Y0845545D02*
D03*
Y0847513D02*
D03*
Y0849482D02*
D03*
Y0851450D02*
D03*
Y0853419D02*
D03*
Y0855387D02*
D03*
Y0857356D02*
D03*
Y0859324D02*
D03*
Y0861293D02*
D03*
Y0863261D02*
D03*
X0576717Y0837671D02*
D03*
Y0839639D02*
D03*
Y0841608D02*
D03*
Y0843576D02*
D03*
Y0845545D02*
D03*
Y0847513D02*
D03*
Y0849482D02*
D03*
Y0851450D02*
D03*
Y0853419D02*
D03*
Y0855387D02*
D03*
Y0857356D02*
D03*
Y0859324D02*
D03*
Y0861293D02*
D03*
Y0863261D02*
D03*
X0578685Y0837671D02*
D03*
Y0839639D02*
D03*
Y0841608D02*
D03*
Y0843576D02*
D03*
Y0845545D02*
D03*
Y0847513D02*
D03*
Y0849482D02*
D03*
Y0851450D02*
D03*
Y0853419D02*
D03*
Y0855387D02*
D03*
Y0857356D02*
D03*
Y0859324D02*
D03*
Y0861293D02*
D03*
Y0863261D02*
D03*
D116*
X0400000Y0784153D02*
D03*
Y0786712D02*
D03*
Y0789271D02*
D03*
Y0791830D02*
D03*
Y0794389D02*
D03*
Y0796948D02*
D03*
Y0799507D02*
D03*
Y0807185D02*
D03*
Y0809744D02*
D03*
Y0812303D02*
D03*
Y0814862D02*
D03*
Y0817422D02*
D03*
Y0819981D02*
D03*
Y0822540D02*
D03*
Y0825099D02*
D03*
Y0827658D02*
D03*
Y0830217D02*
D03*
Y0776476D02*
D03*
Y0779036D02*
D03*
Y0781594D02*
D03*
X0403150Y0784153D02*
D03*
Y0786712D02*
D03*
Y0789271D02*
D03*
Y0791830D02*
D03*
Y0794389D02*
D03*
Y0796948D02*
D03*
Y0799507D02*
D03*
Y0807185D02*
D03*
Y0809744D02*
D03*
Y0812303D02*
D03*
Y0814862D02*
D03*
Y0817422D02*
D03*
Y0819981D02*
D03*
Y0822540D02*
D03*
Y0825099D02*
D03*
Y0827658D02*
D03*
Y0830217D02*
D03*
Y0776476D02*
D03*
Y0779036D02*
D03*
Y0781594D02*
D03*
X0406299Y0784153D02*
D03*
Y0786712D02*
D03*
Y0789271D02*
D03*
Y0791830D02*
D03*
Y0794389D02*
D03*
Y0796948D02*
D03*
Y0799507D02*
D03*
Y0807185D02*
D03*
Y0809744D02*
D03*
Y0812303D02*
D03*
Y0814862D02*
D03*
Y0817422D02*
D03*
Y0819981D02*
D03*
Y0822540D02*
D03*
Y0825099D02*
D03*
Y0827658D02*
D03*
Y0830217D02*
D03*
Y0776476D02*
D03*
Y0779036D02*
D03*
Y0781594D02*
D03*
X0409449Y0784153D02*
D03*
Y0786712D02*
D03*
Y0789271D02*
D03*
Y0791830D02*
D03*
Y0794389D02*
D03*
Y0796948D02*
D03*
Y0799507D02*
D03*
Y0807185D02*
D03*
Y0809744D02*
D03*
Y0812303D02*
D03*
Y0814862D02*
D03*
Y0817422D02*
D03*
Y0819981D02*
D03*
Y0822540D02*
D03*
Y0825099D02*
D03*
Y0827658D02*
D03*
Y0830217D02*
D03*
Y0776476D02*
D03*
Y0779036D02*
D03*
Y0781594D02*
D03*
X0412599Y0784153D02*
D03*
Y0786712D02*
D03*
Y0789271D02*
D03*
Y0791830D02*
D03*
Y0794389D02*
D03*
Y0796948D02*
D03*
Y0799507D02*
D03*
Y0807185D02*
D03*
Y0809744D02*
D03*
Y0812303D02*
D03*
Y0814862D02*
D03*
Y0817422D02*
D03*
Y0819981D02*
D03*
Y0822540D02*
D03*
Y0825099D02*
D03*
Y0827658D02*
D03*
Y0830217D02*
D03*
Y0776476D02*
D03*
Y0779036D02*
D03*
Y0781594D02*
D03*
X0422047Y0784153D02*
D03*
Y0786712D02*
D03*
Y0789271D02*
D03*
Y0791830D02*
D03*
Y0794389D02*
D03*
Y0796948D02*
D03*
Y0799507D02*
D03*
Y0807185D02*
D03*
Y0809744D02*
D03*
Y0812303D02*
D03*
Y0814862D02*
D03*
Y0817422D02*
D03*
Y0819981D02*
D03*
Y0822540D02*
D03*
Y0825099D02*
D03*
Y0827658D02*
D03*
Y0830217D02*
D03*
Y0776476D02*
D03*
Y0779036D02*
D03*
Y0781594D02*
D03*
X0425197Y0784153D02*
D03*
Y0786712D02*
D03*
Y0789271D02*
D03*
Y0791830D02*
D03*
Y0794389D02*
D03*
Y0796948D02*
D03*
Y0799507D02*
D03*
Y0807185D02*
D03*
Y0809744D02*
D03*
Y0812303D02*
D03*
Y0814862D02*
D03*
Y0817422D02*
D03*
Y0819981D02*
D03*
Y0822540D02*
D03*
Y0825099D02*
D03*
Y0827658D02*
D03*
Y0830217D02*
D03*
Y0776476D02*
D03*
Y0779036D02*
D03*
Y0781594D02*
D03*
X0428347Y0784153D02*
D03*
Y0786712D02*
D03*
Y0789271D02*
D03*
Y0791830D02*
D03*
Y0794389D02*
D03*
Y0796948D02*
D03*
Y0799507D02*
D03*
Y0807185D02*
D03*
Y0809744D02*
D03*
Y0812303D02*
D03*
Y0814862D02*
D03*
Y0817422D02*
D03*
Y0819981D02*
D03*
Y0822540D02*
D03*
Y0825099D02*
D03*
Y0827658D02*
D03*
Y0830217D02*
D03*
Y0776476D02*
D03*
Y0779036D02*
D03*
Y0781594D02*
D03*
X0431496Y0784153D02*
D03*
Y0786712D02*
D03*
Y0789271D02*
D03*
Y0791830D02*
D03*
Y0794389D02*
D03*
Y0796948D02*
D03*
Y0799507D02*
D03*
Y0807185D02*
D03*
Y0809744D02*
D03*
Y0812303D02*
D03*
Y0814862D02*
D03*
Y0817422D02*
D03*
Y0819981D02*
D03*
Y0822540D02*
D03*
Y0825099D02*
D03*
Y0827658D02*
D03*
Y0830217D02*
D03*
Y0776476D02*
D03*
Y0779036D02*
D03*
Y0781594D02*
D03*
X0434646Y0784153D02*
D03*
Y0786712D02*
D03*
Y0789271D02*
D03*
Y0791830D02*
D03*
Y0794389D02*
D03*
Y0796948D02*
D03*
Y0799507D02*
D03*
Y0807185D02*
D03*
Y0809744D02*
D03*
Y0812303D02*
D03*
Y0814862D02*
D03*
Y0817422D02*
D03*
Y0819981D02*
D03*
Y0822540D02*
D03*
Y0825099D02*
D03*
Y0827658D02*
D03*
Y0830217D02*
D03*
Y0776476D02*
D03*
Y0779036D02*
D03*
Y0781594D02*
D03*
D117*
X0456693Y0830906D02*
D03*
X0458661D02*
D03*
X0460630D02*
D03*
X0462598D02*
D03*
X0464567D02*
D03*
X0466535D02*
D03*
X0468504D02*
D03*
X0470472D02*
D03*
X0472441D02*
D03*
X0474409D02*
D03*
X0476378D02*
D03*
X0478346D02*
D03*
X0480315D02*
D03*
X0482283D02*
D03*
X0484252D02*
D03*
X0486221D02*
D03*
X0488189D02*
D03*
X0490158D02*
D03*
X0492126D02*
D03*
X0494095D02*
D03*
X0496063D02*
D03*
X0498032D02*
D03*
X0500000D02*
D03*
X0501968D02*
D03*
X0503937D02*
D03*
X0505905D02*
D03*
X0507874D02*
D03*
X0509842D02*
D03*
X0511811D02*
D03*
X0456693Y0828937D02*
D03*
X0458661D02*
D03*
X0460630D02*
D03*
X0462598D02*
D03*
X0464567D02*
D03*
X0466535D02*
D03*
X0468504D02*
D03*
X0470472D02*
D03*
X0472441D02*
D03*
X0474409D02*
D03*
X0476378D02*
D03*
X0478346D02*
D03*
X0480315D02*
D03*
X0482283D02*
D03*
X0484252D02*
D03*
X0486221D02*
D03*
X0488189D02*
D03*
X0490158D02*
D03*
X0492126D02*
D03*
X0494095D02*
D03*
X0496063D02*
D03*
X0498032D02*
D03*
X0500000D02*
D03*
X0501968D02*
D03*
X0503937D02*
D03*
X0505905D02*
D03*
X0507874D02*
D03*
X0509842D02*
D03*
X0511811D02*
D03*
X0456693Y0826968D02*
D03*
X0458661D02*
D03*
X0462598D02*
D03*
X0466535D02*
D03*
X0470472D02*
D03*
X0474409D02*
D03*
X0478346D02*
D03*
X0482283D02*
D03*
X0486221D02*
D03*
X0490158D02*
D03*
X0494095D02*
D03*
X0498032D02*
D03*
X0501968D02*
D03*
X0505905D02*
D03*
X0509842D02*
D03*
X0511811D02*
D03*
X0456693Y0825000D02*
D03*
X0458661D02*
D03*
X0462598D02*
D03*
X0466535D02*
D03*
X0470472D02*
D03*
X0474409D02*
D03*
X0478346D02*
D03*
X0482283D02*
D03*
X0486221D02*
D03*
X0490158D02*
D03*
X0494095D02*
D03*
X0498032D02*
D03*
X0501968D02*
D03*
X0505905D02*
D03*
X0509842D02*
D03*
X0511811D02*
D03*
X0456693Y0823032D02*
D03*
X0458661D02*
D03*
X0460630D02*
D03*
X0462598D02*
D03*
X0466535D02*
D03*
X0470472D02*
D03*
X0474409D02*
D03*
X0478346D02*
D03*
X0482283D02*
D03*
X0486221D02*
D03*
X0490158D02*
D03*
X0494095D02*
D03*
X0498032D02*
D03*
X0501968D02*
D03*
X0505905D02*
D03*
X0507874D02*
D03*
X0509842D02*
D03*
X0511811D02*
D03*
X0456693Y0821063D02*
D03*
X0458661D02*
D03*
X0466535D02*
D03*
X0470472D02*
D03*
X0474409D02*
D03*
X0478346D02*
D03*
X0482283D02*
D03*
X0486221D02*
D03*
X0490158D02*
D03*
X0494095D02*
D03*
X0498032D02*
D03*
X0501968D02*
D03*
X0509842D02*
D03*
X0511811D02*
D03*
X0456693Y0819094D02*
D03*
X0458661D02*
D03*
X0460630D02*
D03*
X0462598D02*
D03*
X0464567D02*
D03*
X0466535D02*
D03*
X0470472D02*
D03*
X0474409D02*
D03*
X0478346D02*
D03*
X0482283D02*
D03*
X0486221D02*
D03*
X0490158D02*
D03*
X0494095D02*
D03*
X0498032D02*
D03*
X0501968D02*
D03*
X0503937D02*
D03*
X0505905D02*
D03*
X0507874D02*
D03*
X0509842D02*
D03*
X0511811D02*
D03*
X0456693Y0817126D02*
D03*
X0458661D02*
D03*
X0470472D02*
D03*
X0474409D02*
D03*
X0478346D02*
D03*
X0482283D02*
D03*
X0486221D02*
D03*
X0490158D02*
D03*
X0494095D02*
D03*
X0498032D02*
D03*
X0509842D02*
D03*
X0511811D02*
D03*
X0456693Y0815158D02*
D03*
X0458661D02*
D03*
X0460630D02*
D03*
X0462598D02*
D03*
X0464567D02*
D03*
X0466535D02*
D03*
X0468504D02*
D03*
X0470472D02*
D03*
X0474409D02*
D03*
X0476378D02*
D03*
X0482283D02*
D03*
X0486221D02*
D03*
X0492126D02*
D03*
X0494095D02*
D03*
X0498032D02*
D03*
X0500000D02*
D03*
X0501968D02*
D03*
X0503937D02*
D03*
X0505905D02*
D03*
X0507874D02*
D03*
X0509842D02*
D03*
X0511811D02*
D03*
X0456693Y0813189D02*
D03*
X0458661D02*
D03*
X0474409D02*
D03*
X0476378D02*
D03*
X0482283D02*
D03*
X0484252D02*
D03*
X0486221D02*
D03*
X0492126D02*
D03*
X0494095D02*
D03*
X0509842D02*
D03*
X0511811D02*
D03*
X0456693Y0811220D02*
D03*
X0458661D02*
D03*
X0460630D02*
D03*
X0462598D02*
D03*
X0464567D02*
D03*
X0466535D02*
D03*
X0468504D02*
D03*
X0470472D02*
D03*
X0472441D02*
D03*
X0474409D02*
D03*
X0476378D02*
D03*
X0478346D02*
D03*
X0480315D02*
D03*
X0482283D02*
D03*
X0486221D02*
D03*
X0488189D02*
D03*
X0490158D02*
D03*
X0492126D02*
D03*
X0494095D02*
D03*
X0496063D02*
D03*
X0498032D02*
D03*
X0500000D02*
D03*
X0501968D02*
D03*
X0503937D02*
D03*
X0505905D02*
D03*
X0507874D02*
D03*
X0509842D02*
D03*
X0511811D02*
D03*
X0456693Y0809252D02*
D03*
X0458661D02*
D03*
X0476378D02*
D03*
X0482283D02*
D03*
X0486221D02*
D03*
X0492126D02*
D03*
X0509842D02*
D03*
X0511811D02*
D03*
X0456693Y0807283D02*
D03*
X0458661D02*
D03*
X0460630D02*
D03*
X0462598D02*
D03*
X0464567D02*
D03*
X0466535D02*
D03*
X0468504D02*
D03*
X0470472D02*
D03*
X0472441D02*
D03*
X0474409D02*
D03*
X0476378D02*
D03*
X0478346D02*
D03*
X0480315D02*
D03*
X0482283D02*
D03*
X0484252D02*
D03*
X0486221D02*
D03*
X0488189D02*
D03*
X0490158D02*
D03*
X0492126D02*
D03*
X0494095D02*
D03*
X0496063D02*
D03*
X0498032D02*
D03*
X0500000D02*
D03*
X0501968D02*
D03*
X0503937D02*
D03*
X0505905D02*
D03*
X0507874D02*
D03*
X0509842D02*
D03*
X0511811D02*
D03*
X0456693Y0805315D02*
D03*
X0458661D02*
D03*
X0476378D02*
D03*
X0482283D02*
D03*
X0486221D02*
D03*
X0492126D02*
D03*
X0509842D02*
D03*
X0511811D02*
D03*
X0456693Y0803347D02*
D03*
X0458661D02*
D03*
X0460630D02*
D03*
X0462598D02*
D03*
X0464567D02*
D03*
X0466535D02*
D03*
X0468504D02*
D03*
X0470472D02*
D03*
X0472441D02*
D03*
X0474409D02*
D03*
X0476378D02*
D03*
X0478346D02*
D03*
X0480315D02*
D03*
X0482283D02*
D03*
X0486221D02*
D03*
X0488189D02*
D03*
X0490158D02*
D03*
X0492126D02*
D03*
X0494095D02*
D03*
X0496063D02*
D03*
X0498032D02*
D03*
X0500000D02*
D03*
X0501968D02*
D03*
X0503937D02*
D03*
X0505905D02*
D03*
X0507874D02*
D03*
X0509842D02*
D03*
X0511811D02*
D03*
X0456693Y0801378D02*
D03*
X0458661D02*
D03*
X0476378D02*
D03*
X0482283D02*
D03*
X0486221D02*
D03*
X0492126D02*
D03*
X0509842D02*
D03*
X0511811D02*
D03*
X0456693Y0799409D02*
D03*
X0458661D02*
D03*
X0460630D02*
D03*
X0462598D02*
D03*
X0464567D02*
D03*
X0466535D02*
D03*
X0468504D02*
D03*
X0470472D02*
D03*
X0472441D02*
D03*
X0474409D02*
D03*
X0476378D02*
D03*
X0478346D02*
D03*
X0480315D02*
D03*
X0482283D02*
D03*
X0484252D02*
D03*
X0486221D02*
D03*
X0488189D02*
D03*
X0490158D02*
D03*
X0492126D02*
D03*
X0494095D02*
D03*
X0496063D02*
D03*
X0498032D02*
D03*
X0500000D02*
D03*
X0501968D02*
D03*
X0503937D02*
D03*
X0505905D02*
D03*
X0507874D02*
D03*
X0509842D02*
D03*
X0511811D02*
D03*
X0456693Y0797441D02*
D03*
X0458661D02*
D03*
X0476378D02*
D03*
X0482283D02*
D03*
X0486221D02*
D03*
X0492126D02*
D03*
X0509842D02*
D03*
X0511811D02*
D03*
X0456693Y0795472D02*
D03*
X0458661D02*
D03*
X0460630D02*
D03*
X0462598D02*
D03*
X0464567D02*
D03*
X0466535D02*
D03*
X0468504D02*
D03*
X0470472D02*
D03*
X0472441D02*
D03*
X0474409D02*
D03*
X0476378D02*
D03*
X0478346D02*
D03*
X0480315D02*
D03*
X0482283D02*
D03*
X0486221D02*
D03*
X0488189D02*
D03*
X0490158D02*
D03*
X0492126D02*
D03*
X0494095D02*
D03*
X0496063D02*
D03*
X0498032D02*
D03*
X0500000D02*
D03*
X0501968D02*
D03*
X0503937D02*
D03*
X0505905D02*
D03*
X0507874D02*
D03*
X0509842D02*
D03*
X0511811D02*
D03*
X0456693Y0793504D02*
D03*
X0458661D02*
D03*
X0474409D02*
D03*
X0476378D02*
D03*
X0482283D02*
D03*
X0484252D02*
D03*
X0486221D02*
D03*
X0492126D02*
D03*
X0494095D02*
D03*
X0509842D02*
D03*
X0511811D02*
D03*
X0456693Y0791535D02*
D03*
X0458661D02*
D03*
X0460630D02*
D03*
X0462598D02*
D03*
X0464567D02*
D03*
X0466535D02*
D03*
X0468504D02*
D03*
X0470472D02*
D03*
X0474409D02*
D03*
X0476378D02*
D03*
X0482283D02*
D03*
X0486221D02*
D03*
X0492126D02*
D03*
X0494095D02*
D03*
X0498032D02*
D03*
X0500000D02*
D03*
X0501968D02*
D03*
X0503937D02*
D03*
X0505905D02*
D03*
X0507874D02*
D03*
X0509842D02*
D03*
X0511811D02*
D03*
X0456693Y0789567D02*
D03*
X0458661D02*
D03*
X0470472D02*
D03*
X0474409D02*
D03*
X0478346D02*
D03*
X0482283D02*
D03*
X0486221D02*
D03*
X0490158D02*
D03*
X0494095D02*
D03*
X0498032D02*
D03*
X0509842D02*
D03*
X0511811D02*
D03*
X0456693Y0787598D02*
D03*
X0458661D02*
D03*
X0460630D02*
D03*
X0462598D02*
D03*
X0464567D02*
D03*
X0466535D02*
D03*
X0470472D02*
D03*
X0474409D02*
D03*
X0478346D02*
D03*
X0482283D02*
D03*
X0486221D02*
D03*
X0490158D02*
D03*
X0494095D02*
D03*
X0498032D02*
D03*
X0501968D02*
D03*
X0503937D02*
D03*
X0505905D02*
D03*
X0507874D02*
D03*
X0509842D02*
D03*
X0511811D02*
D03*
X0456693Y0785630D02*
D03*
X0458661D02*
D03*
X0466535D02*
D03*
X0470472D02*
D03*
X0474409D02*
D03*
X0478346D02*
D03*
X0482283D02*
D03*
X0486221D02*
D03*
X0490158D02*
D03*
X0494095D02*
D03*
X0498032D02*
D03*
X0501968D02*
D03*
X0509842D02*
D03*
X0511811D02*
D03*
X0456693Y0783661D02*
D03*
X0458661D02*
D03*
X0460630D02*
D03*
X0462598D02*
D03*
X0466535D02*
D03*
X0470472D02*
D03*
X0474409D02*
D03*
X0478346D02*
D03*
X0482283D02*
D03*
X0486221D02*
D03*
X0490158D02*
D03*
X0494095D02*
D03*
X0498032D02*
D03*
X0501968D02*
D03*
X0505905D02*
D03*
X0507874D02*
D03*
X0509842D02*
D03*
X0511811D02*
D03*
X0456693Y0781693D02*
D03*
X0458661D02*
D03*
X0462598D02*
D03*
X0466535D02*
D03*
X0470472D02*
D03*
X0474409D02*
D03*
X0478346D02*
D03*
X0482283D02*
D03*
X0486221D02*
D03*
X0490158D02*
D03*
X0494095D02*
D03*
X0498032D02*
D03*
X0501968D02*
D03*
X0505905D02*
D03*
X0509842D02*
D03*
X0511811D02*
D03*
X0456693Y0779724D02*
D03*
X0458661D02*
D03*
X0462598D02*
D03*
X0466535D02*
D03*
X0470472D02*
D03*
X0474409D02*
D03*
X0478346D02*
D03*
X0482283D02*
D03*
X0486221D02*
D03*
X0490158D02*
D03*
X0494095D02*
D03*
X0498032D02*
D03*
X0501968D02*
D03*
X0505905D02*
D03*
X0509842D02*
D03*
X0511811D02*
D03*
X0456693Y0777756D02*
D03*
X0458661D02*
D03*
X0460630D02*
D03*
X0462598D02*
D03*
X0464567D02*
D03*
X0466535D02*
D03*
X0468504D02*
D03*
X0470472D02*
D03*
X0472441D02*
D03*
X0474409D02*
D03*
X0476378D02*
D03*
X0478346D02*
D03*
X0480315D02*
D03*
X0482283D02*
D03*
X0484252D02*
D03*
X0486221D02*
D03*
X0488189D02*
D03*
X0490158D02*
D03*
X0492126D02*
D03*
X0494095D02*
D03*
X0496063D02*
D03*
X0498032D02*
D03*
X0500000D02*
D03*
X0501968D02*
D03*
X0503937D02*
D03*
X0505905D02*
D03*
X0507874D02*
D03*
X0509842D02*
D03*
X0511811D02*
D03*
X0456693Y0775787D02*
D03*
X0458661D02*
D03*
X0460630D02*
D03*
X0462598D02*
D03*
X0464567D02*
D03*
X0466535D02*
D03*
X0468504D02*
D03*
X0470472D02*
D03*
X0472441D02*
D03*
X0474409D02*
D03*
X0476378D02*
D03*
X0478346D02*
D03*
X0480315D02*
D03*
X0482283D02*
D03*
X0484252D02*
D03*
X0486221D02*
D03*
X0488189D02*
D03*
X0490158D02*
D03*
X0492126D02*
D03*
X0494095D02*
D03*
X0496063D02*
D03*
X0498032D02*
D03*
X0500000D02*
D03*
X0501968D02*
D03*
X0503937D02*
D03*
X0505905D02*
D03*
X0507874D02*
D03*
X0509842D02*
D03*
X0511811D02*
D03*
D118*
X0569527Y0793428D02*
D03*
Y0791853D02*
D03*
Y0790278D02*
D03*
Y0788703D02*
D03*
Y0787128D02*
D03*
Y0785553D02*
D03*
Y0783979D02*
D03*
Y0782404D02*
D03*
Y0780829D02*
D03*
Y0779254D02*
D03*
Y0777679D02*
D03*
Y0776105D02*
D03*
Y0774530D02*
D03*
Y0772955D02*
D03*
X0600235D02*
D03*
Y0774530D02*
D03*
Y0776105D02*
D03*
Y0777679D02*
D03*
Y0779254D02*
D03*
Y0780829D02*
D03*
Y0782404D02*
D03*
Y0783979D02*
D03*
Y0785553D02*
D03*
Y0787128D02*
D03*
Y0788703D02*
D03*
Y0790278D02*
D03*
Y0791853D02*
D03*
Y0793428D02*
D03*
D119*
X0574645Y0767837D02*
D03*
X0576220D02*
D03*
X0577794D02*
D03*
X0579369D02*
D03*
X0580944D02*
D03*
X0582519D02*
D03*
X0584094D02*
D03*
X0585668D02*
D03*
X0587243D02*
D03*
X0588818D02*
D03*
X0590393D02*
D03*
X0591967D02*
D03*
X0593542D02*
D03*
X0595117D02*
D03*
Y0798546D02*
D03*
X0593542D02*
D03*
X0591967D02*
D03*
X0590393D02*
D03*
X0588818D02*
D03*
X0587243D02*
D03*
X0585668D02*
D03*
X0584094D02*
D03*
X0582519D02*
D03*
X0580944D02*
D03*
X0579369D02*
D03*
X0577794D02*
D03*
X0576220D02*
D03*
X0574645D02*
D03*
D120*
X0584881Y0783191D02*
D03*
D121*
X0559227Y0755466D02*
D03*
Y0748143D02*
D03*
D122*
X0584465Y0754805D02*
D03*
X0591788D02*
D03*
X0607865Y0790605D02*
D03*
X0615188D02*
D03*
X0607765Y0770705D02*
D03*
X0615088D02*
D03*
X0599265Y0811405D02*
D03*
X0606588D02*
D03*
X0580988D02*
D03*
X0573665D02*
D03*
D123*
X0558127Y0782326D02*
D03*
Y0772483D02*
D03*
D124*
X0611427Y0834745D02*
D03*
X0608868Y0827264D02*
D03*
X0613986D02*
D03*
D125*
X0440146Y0681949D02*
D03*
X0466918D02*
D03*
D126*
X0383355Y0672638D02*
D03*
X0409339D02*
D03*
D127*
X0695678Y0824153D02*
D03*
Y0859508D02*
D03*
Y0794941D02*
D03*
Y0759586D02*
D03*
D128*
X0362095Y0681201D02*
D03*
Y0905610D02*
D03*
X0684930D02*
D03*
Y0681201D02*
D03*
D129*
X0691918Y0708366D02*
D03*
Y0734350D02*
D03*
D130*
X0362371Y0879232D02*
D03*
X0427961D02*
D03*
D131*
X0554636Y0858897D02*
D03*
X0556604Y0862834D02*
D03*
X0562947Y0857753D02*
D03*
X0556017Y0836208D02*
D03*
X0560130Y0843135D02*
D03*
X0553017Y0823808D02*
D03*
X0572830Y0847323D02*
D03*
X0562430Y0853923D02*
D03*
D132*
X0645166Y0846752D02*
D03*
Y0841831D02*
D03*
Y0836909D02*
D03*
Y0771555D02*
D03*
Y0776476D02*
D03*
Y0781397D02*
D03*
D133*
X0678478Y0856431D02*
D03*
X0678578Y0827131D02*
D03*
Y0762564D02*
D03*
X0678478Y0791864D02*
D03*
M02*
